<?xml version="1.0" encoding="UTF-8" standalone="no"?>
<!DOCTYPE svg PUBLIC "-//W3C//DTD SVG 1.1//EN"
 "http://www.w3.org/Graphics/SVG/1.1/DTD/svg11.dtd">
<!-- Generated by graphviz version 2.30.1 (20130219.2202)
 -->
<!-- Title: object Pages: 1 -->
<svg width="1118pt" height="570pt"
 viewBox="0.00 0.00 1118.00 570.00" xmlns="http://www.w3.org/2000/svg" xmlns:xlink="http://www.w3.org/1999/xlink">
<g id="graph0" class="graph" transform="scale(1 1) rotate(0) translate(4 566)">
<title>object</title>
<!-- Node1 -->
<g id="node1" class="node"><title>Node1</title>
<polygon fill="#bfbfbf" stroke="black" points="515,-504.5 515,-561.5 557,-561.5 557,-504.5 515,-504.5"/>
<text text-anchor="middle" x="536" y="-549.5" font-family="Helvetica,sans-Serif" font-size="10.00">object</text>
<polyline fill="none" stroke="black" points="515,-542.5 557,-542.5 "/>
<text text-anchor="middle" x="536" y="-530.5" font-family="Helvetica,sans-Serif" font-size="10.00"> </text>
<polyline fill="none" stroke="black" points="515,-523.5 557,-523.5 "/>
<text text-anchor="middle" x="536" y="-511.5" font-family="Helvetica,sans-Serif" font-size="10.00"> </text>
</g>
<!-- Node2 -->
<g id="node2" class="node"><title>Node2</title>
<g id="a_node2"><a xlink:href="class_disk_1_1__base_1_1_file.html" target="_top" xlink:title="{Disk._base.File\n|+ mode\l+ isDestructed\l|+ __init__()\l+ __str__()\l+ __repr__()\l+ __enter__()\l+ __exit__()\l+ getPath()\l+ isWritable()\l+ isClosed()\l+ destruct()\l+ reopen()\l}">
<polygon fill="none" stroke="black" points="154.5,-300.5 154.5,-467.5 235.5,-467.5 235.5,-300.5 154.5,-300.5"/>
<text text-anchor="middle" x="195" y="-455.5" font-family="Helvetica,sans-Serif" font-size="10.00">Disk._base.File</text>
<polyline fill="none" stroke="black" points="154.5,-448.5 235.5,-448.5 "/>
<text text-anchor="start" x="162.5" y="-436.5" font-family="Helvetica,sans-Serif" font-size="10.00">+ mode</text>
<text text-anchor="start" x="162.5" y="-425.5" font-family="Helvetica,sans-Serif" font-size="10.00">+ isDestructed</text>
<polyline fill="none" stroke="black" points="154.5,-418.5 235.5,-418.5 "/>
<text text-anchor="start" x="162.5" y="-406.5" font-family="Helvetica,sans-Serif" font-size="10.00">+ __init__()</text>
<text text-anchor="start" x="162.5" y="-395.5" font-family="Helvetica,sans-Serif" font-size="10.00">+ __str__()</text>
<text text-anchor="start" x="162.5" y="-384.5" font-family="Helvetica,sans-Serif" font-size="10.00">+ __repr__()</text>
<text text-anchor="start" x="162.5" y="-373.5" font-family="Helvetica,sans-Serif" font-size="10.00">+ __enter__()</text>
<text text-anchor="start" x="162.5" y="-362.5" font-family="Helvetica,sans-Serif" font-size="10.00">+ __exit__()</text>
<text text-anchor="start" x="162.5" y="-351.5" font-family="Helvetica,sans-Serif" font-size="10.00">+ getPath()</text>
<text text-anchor="start" x="162.5" y="-340.5" font-family="Helvetica,sans-Serif" font-size="10.00">+ isWritable()</text>
<text text-anchor="start" x="162.5" y="-329.5" font-family="Helvetica,sans-Serif" font-size="10.00">+ isClosed()</text>
<text text-anchor="start" x="162.5" y="-318.5" font-family="Helvetica,sans-Serif" font-size="10.00">+ destruct()</text>
<text text-anchor="start" x="162.5" y="-307.5" font-family="Helvetica,sans-Serif" font-size="10.00">+ reopen()</text>
</a>
</g>
</g>
<!-- Node1&#45;&gt;Node2 -->
<g id="edge1" class="edge"><title>Node1&#45;&gt;Node2</title>
<path fill="none" stroke="midnightblue" d="M505.381,-518.801C443.77,-492.241 304.82,-432.342 235.674,-402.534"/>
<polygon fill="none" stroke="midnightblue" points="504.358,-522.171 514.926,-522.915 507.129,-515.743 504.358,-522.171"/>
</g>
<!-- Node6 -->
<g id="node6" class="node"><title>Node6</title>
<g id="a_node6"><a xlink:href="class_disk_1_1__base_1_1_path_abstract.html" target="_top" xlink:title="{Disk._base.PathAbstract\n|+ path\l|+ __init__()\l+ asStr()\l+ __str__()\l+ __repr__()\l+ __add__()\l+ __radd__()\l+ __eq__()\l+ __hash__()\l+ __getattr__()\l}">
<polygon fill="none" stroke="black" points="404.5,-311.5 404.5,-456.5 527.5,-456.5 527.5,-311.5 404.5,-311.5"/>
<text text-anchor="middle" x="466" y="-444.5" font-family="Helvetica,sans-Serif" font-size="10.00">Disk._base.PathAbstract</text>
<polyline fill="none" stroke="black" points="404.5,-437.5 527.5,-437.5 "/>
<text text-anchor="start" x="412.5" y="-425.5" font-family="Helvetica,sans-Serif" font-size="10.00">+ path</text>
<polyline fill="none" stroke="black" points="404.5,-418.5 527.5,-418.5 "/>
<text text-anchor="start" x="412.5" y="-406.5" font-family="Helvetica,sans-Serif" font-size="10.00">+ __init__()</text>
<text text-anchor="start" x="412.5" y="-395.5" font-family="Helvetica,sans-Serif" font-size="10.00">+ asStr()</text>
<text text-anchor="start" x="412.5" y="-384.5" font-family="Helvetica,sans-Serif" font-size="10.00">+ __str__()</text>
<text text-anchor="start" x="412.5" y="-373.5" font-family="Helvetica,sans-Serif" font-size="10.00">+ __repr__()</text>
<text text-anchor="start" x="412.5" y="-362.5" font-family="Helvetica,sans-Serif" font-size="10.00">+ __add__()</text>
<text text-anchor="start" x="412.5" y="-351.5" font-family="Helvetica,sans-Serif" font-size="10.00">+ __radd__()</text>
<text text-anchor="start" x="412.5" y="-340.5" font-family="Helvetica,sans-Serif" font-size="10.00">+ __eq__()</text>
<text text-anchor="start" x="412.5" y="-329.5" font-family="Helvetica,sans-Serif" font-size="10.00">+ __hash__()</text>
<text text-anchor="start" x="412.5" y="-318.5" font-family="Helvetica,sans-Serif" font-size="10.00">+ __getattr__()</text>
</a>
</g>
</g>
<!-- Node1&#45;&gt;Node6 -->
<g id="edge5" class="edge"><title>Node1&#45;&gt;Node6</title>
<path fill="none" stroke="midnightblue" d="M518.517,-495.285C512.897,-483.483 506.465,-469.976 500.074,-456.555"/>
<polygon fill="none" stroke="midnightblue" points="515.374,-496.827 522.834,-504.35 521.694,-493.817 515.374,-496.827"/>
</g>
<!-- Node13 -->
<g id="node13" class="node"><title>Node13</title>
<g id="a_node13"><a xlink:href="class_disk_1_1_unit_tests_1_1_test_local.html" target="_top" xlink:title="{Disk.UnitTests.TestLocal\n|+ folder\l|+ setUp()\l+ tearDown()\l}">
<polygon fill="none" stroke="black" points="546.5,-350 546.5,-418 665.5,-418 665.5,-350 546.5,-350"/>
<text text-anchor="middle" x="606" y="-406" font-family="Helvetica,sans-Serif" font-size="10.00">Disk.UnitTests.TestLocal</text>
<polyline fill="none" stroke="black" points="546.5,-399 665.5,-399 "/>
<text text-anchor="start" x="554.5" y="-387" font-family="Helvetica,sans-Serif" font-size="10.00">+ folder</text>
<polyline fill="none" stroke="black" points="546.5,-380 665.5,-380 "/>
<text text-anchor="start" x="554.5" y="-368" font-family="Helvetica,sans-Serif" font-size="10.00">+ setUp()</text>
<text text-anchor="start" x="554.5" y="-357" font-family="Helvetica,sans-Serif" font-size="10.00">+ tearDown()</text>
</a>
</g>
</g>
<!-- Node1&#45;&gt;Node13 -->
<g id="edge12" class="edge"><title>Node1&#45;&gt;Node13</title>
<path fill="none" stroke="midnightblue" d="M553.615,-495.009C564.862,-471.39 579.32,-441.028 590.197,-418.187"/>
<polygon fill="none" stroke="midnightblue" points="550.306,-493.817 549.166,-504.35 556.626,-496.827 550.306,-493.817"/>
</g>
<!-- Node16 -->
<g id="node16" class="node"><title>Node16</title>
<g id="a_node16"><a xlink:href="class_disk_1_1_unit_tests_1_1_test_s_s_h.html" target="_top" xlink:title="{Disk.UnitTests.TestSSH\n|+ con\l+ folder\l|+ setUp()\l+ tearDown()\l}">
<polygon fill="none" stroke="black" points="845.5,-344.5 845.5,-423.5 962.5,-423.5 962.5,-344.5 845.5,-344.5"/>
<text text-anchor="middle" x="904" y="-411.5" font-family="Helvetica,sans-Serif" font-size="10.00">Disk.UnitTests.TestSSH</text>
<polyline fill="none" stroke="black" points="845.5,-404.5 962.5,-404.5 "/>
<text text-anchor="start" x="853.5" y="-392.5" font-family="Helvetica,sans-Serif" font-size="10.00">+ con</text>
<text text-anchor="start" x="853.5" y="-381.5" font-family="Helvetica,sans-Serif" font-size="10.00">+ folder</text>
<polyline fill="none" stroke="black" points="845.5,-374.5 962.5,-374.5 "/>
<text text-anchor="start" x="853.5" y="-362.5" font-family="Helvetica,sans-Serif" font-size="10.00">+ setUp()</text>
<text text-anchor="start" x="853.5" y="-351.5" font-family="Helvetica,sans-Serif" font-size="10.00">+ tearDown()</text>
</a>
</g>
</g>
<!-- Node1&#45;&gt;Node16 -->
<g id="edge15" class="edge"><title>Node1&#45;&gt;Node16</title>
<path fill="none" stroke="midnightblue" d="M566.582,-519.784C627.749,-495.35 766.077,-440.094 845.319,-408.441"/>
<polygon fill="none" stroke="midnightblue" points="565.095,-516.609 557.107,-523.569 567.692,-523.109 565.095,-516.609"/>
</g>
<!-- Node3 -->
<g id="node3" class="node"><title>Node3</title>
<g id="a_node3"><a xlink:href="class_disk_1_1_local_1_1___file_1_1_base_file.html" target="_top" xlink:title="Abstract concept of a file object.">
<polygon fill="none" stroke="black" points="0,-129 0,-263 120,-263 120,-129 0,-129"/>
<text text-anchor="middle" x="60" y="-251" font-family="Helvetica,sans-Serif" font-size="10.00">Disk.Local._File.BaseFile</text>
<polyline fill="none" stroke="black" points="0,-244 120,-244 "/>
<text text-anchor="middle" x="60" y="-232" font-family="Helvetica,sans-Serif" font-size="10.00"> </text>
<polyline fill="none" stroke="black" points="0,-225 120,-225 "/>
<text text-anchor="start" x="8" y="-213" font-family="Helvetica,sans-Serif" font-size="10.00">+ __init__()</text>
<text text-anchor="start" x="8" y="-202" font-family="Helvetica,sans-Serif" font-size="10.00">+ __enter__()</text>
<text text-anchor="start" x="8" y="-191" font-family="Helvetica,sans-Serif" font-size="10.00">+ __exit__()</text>
<text text-anchor="start" x="8" y="-180" font-family="Helvetica,sans-Serif" font-size="10.00">+ open()</text>
<text text-anchor="start" x="8" y="-169" font-family="Helvetica,sans-Serif" font-size="10.00">+ close()</text>
<text text-anchor="start" x="8" y="-158" font-family="Helvetica,sans-Serif" font-size="10.00">+ closed()</text>
<text text-anchor="start" x="8" y="-147" font-family="Helvetica,sans-Serif" font-size="10.00">+ isClosed()</text>
<text text-anchor="start" x="8" y="-136" font-family="Helvetica,sans-Serif" font-size="10.00">+ __getattr__()</text>
</a>
</g>
</g>
<!-- Node2&#45;&gt;Node3 -->
<g id="edge2" class="edge"><title>Node2&#45;&gt;Node3</title>
<path fill="none" stroke="midnightblue" d="M148.579,-319.042C135.505,-301.029 121.258,-281.4 108.089,-263.256"/>
<polygon fill="none" stroke="midnightblue" points="145.789,-321.157 154.496,-327.194 151.454,-317.045 145.789,-321.157"/>
</g>
<!-- Node5 -->
<g id="node5" class="node"><title>Node5</title>
<g id="a_node5"><a xlink:href="class_disk_1_1_s_s_h_1_1___file_1_1_file.html" target="_top" xlink:title="Represents a file on a remote machine.">
<polygon fill="none" stroke="black" points="147.5,-134.5 147.5,-257.5 242.5,-257.5 242.5,-134.5 147.5,-134.5"/>
<text text-anchor="middle" x="195" y="-245.5" font-family="Helvetica,sans-Serif" font-size="10.00">Disk.SSH._File.File</text>
<polyline fill="none" stroke="black" points="147.5,-238.5 242.5,-238.5 "/>
<text text-anchor="start" x="155.5" y="-226.5" font-family="Helvetica,sans-Serif" font-size="10.00">+ connection</text>
<text text-anchor="start" x="155.5" y="-215.5" font-family="Helvetica,sans-Serif" font-size="10.00">+ remotePath</text>
<polyline fill="none" stroke="black" points="147.5,-208.5 242.5,-208.5 "/>
<text text-anchor="start" x="155.5" y="-196.5" font-family="Helvetica,sans-Serif" font-size="10.00">+ __init__()</text>
<text text-anchor="start" x="155.5" y="-185.5" font-family="Helvetica,sans-Serif" font-size="10.00">+ __repr__()</text>
<text text-anchor="start" x="155.5" y="-174.5" font-family="Helvetica,sans-Serif" font-size="10.00">+ __getattr__()</text>
<text text-anchor="start" x="155.5" y="-163.5" font-family="Helvetica,sans-Serif" font-size="10.00">+ flush()</text>
<text text-anchor="start" x="155.5" y="-152.5" font-family="Helvetica,sans-Serif" font-size="10.00">+ isClosed()</text>
<text text-anchor="start" x="155.5" y="-141.5" font-family="Helvetica,sans-Serif" font-size="10.00">+ close()</text>
</a>
</g>
</g>
<!-- Node2&#45;&gt;Node5 -->
<g id="edge4" class="edge"><title>Node2&#45;&gt;Node5</title>
<path fill="none" stroke="midnightblue" d="M195,-290.201C195,-279.146 195,-268.088 195,-257.65"/>
<polygon fill="none" stroke="midnightblue" points="191.5,-290.334 195,-300.335 198.5,-290.335 191.5,-290.334"/>
</g>
<!-- Node4 -->
<g id="node4" class="node"><title>Node4</title>
<g id="a_node4"><a xlink:href="class_disk_1_1_local_1_1___file_1_1_file.html" target="_top" xlink:title="Implementation of BaseFile using a FilePath instance to store the path.">
<polygon fill="none" stroke="black" points="2.5,-17.5 2.5,-74.5 99.5,-74.5 99.5,-17.5 2.5,-17.5"/>
<text text-anchor="middle" x="51" y="-62.5" font-family="Helvetica,sans-Serif" font-size="10.00">Disk.Local._File.File</text>
<polyline fill="none" stroke="black" points="2.5,-55.5 99.5,-55.5 "/>
<text text-anchor="start" x="10.5" y="-43.5" font-family="Helvetica,sans-Serif" font-size="10.00">+ mode</text>
<polyline fill="none" stroke="black" points="2.5,-36.5 99.5,-36.5 "/>
<text text-anchor="start" x="10.5" y="-24.5" font-family="Helvetica,sans-Serif" font-size="10.00">+ __init__()</text>
</a>
</g>
</g>
<!-- Node3&#45;&gt;Node4 -->
<g id="edge3" class="edge"><title>Node3&#45;&gt;Node4</title>
<path fill="none" stroke="midnightblue" d="M55.3458,-118.465C54.3895,-102.738 53.4424,-87.1636 52.6777,-74.5882"/>
<polygon fill="none" stroke="midnightblue" points="51.8732,-119.023 55.9738,-128.792 58.8603,-118.598 51.8732,-119.023"/>
</g>
<!-- Node7 -->
<g id="node7" class="node"><title>Node7</title>
<g id="a_node7"><a xlink:href="class_disk_1_1__base_1_1_file_path.html" target="_top" xlink:title="{Disk._base.FilePath\n||+ __init__()\l+ asFile()\l+ create()\l+ copyDates()\l+ copy()\l+ move()\l+ rename()\l}">
<polygon fill="none" stroke="black" points="277.5,-134.5 277.5,-257.5 378.5,-257.5 378.5,-134.5 277.5,-134.5"/>
<text text-anchor="middle" x="328" y="-245.5" font-family="Helvetica,sans-Serif" font-size="10.00">Disk._base.FilePath</text>
<polyline fill="none" stroke="black" points="277.5,-238.5 378.5,-238.5 "/>
<text text-anchor="middle" x="328" y="-226.5" font-family="Helvetica,sans-Serif" font-size="10.00"> </text>
<polyline fill="none" stroke="black" points="277.5,-219.5 378.5,-219.5 "/>
<text text-anchor="start" x="285.5" y="-207.5" font-family="Helvetica,sans-Serif" font-size="10.00">+ __init__()</text>
<text text-anchor="start" x="285.5" y="-196.5" font-family="Helvetica,sans-Serif" font-size="10.00">+ asFile()</text>
<text text-anchor="start" x="285.5" y="-185.5" font-family="Helvetica,sans-Serif" font-size="10.00">+ create()</text>
<text text-anchor="start" x="285.5" y="-174.5" font-family="Helvetica,sans-Serif" font-size="10.00">+ copyDates()</text>
<text text-anchor="start" x="285.5" y="-163.5" font-family="Helvetica,sans-Serif" font-size="10.00">+ copy()</text>
<text text-anchor="start" x="285.5" y="-152.5" font-family="Helvetica,sans-Serif" font-size="10.00">+ move()</text>
<text text-anchor="start" x="285.5" y="-141.5" font-family="Helvetica,sans-Serif" font-size="10.00">+ rename()</text>
</a>
</g>
</g>
<!-- Node6&#45;&gt;Node7 -->
<g id="edge6" class="edge"><title>Node6&#45;&gt;Node7</title>
<path fill="none" stroke="midnightblue" d="M406.634,-302.985C395.38,-287.816 383.776,-272.177 373.054,-257.725"/>
<polygon fill="none" stroke="midnightblue" points="404.074,-305.408 412.843,-311.354 409.695,-301.237 404.074,-305.408"/>
</g>
<!-- Node10 -->
<g id="node10" class="node"><title>Node10</title>
<g id="a_node10"><a xlink:href="class_disk_1_1__base_1_1_folder_path.html" target="_top" xlink:title="Abstract concept of a folder path.">
<polygon fill="none" stroke="black" points="409.5,-134.5 409.5,-257.5 522.5,-257.5 522.5,-134.5 409.5,-134.5"/>
<text text-anchor="middle" x="466" y="-245.5" font-family="Helvetica,sans-Serif" font-size="10.00">Disk._base.FolderPath</text>
<polyline fill="none" stroke="black" points="409.5,-238.5 522.5,-238.5 "/>
<text text-anchor="middle" x="466" y="-226.5" font-family="Helvetica,sans-Serif" font-size="10.00"> </text>
<polyline fill="none" stroke="black" points="409.5,-219.5 522.5,-219.5 "/>
<text text-anchor="start" x="417.5" y="-207.5" font-family="Helvetica,sans-Serif" font-size="10.00">+ __init__()</text>
<text text-anchor="start" x="417.5" y="-196.5" font-family="Helvetica,sans-Serif" font-size="10.00">+ copy()</text>
<text text-anchor="start" x="417.5" y="-185.5" font-family="Helvetica,sans-Serif" font-size="10.00">+ create()</text>
<text text-anchor="start" x="417.5" y="-174.5" font-family="Helvetica,sans-Serif" font-size="10.00">+ rmtree()</text>
<text text-anchor="start" x="417.5" y="-163.5" font-family="Helvetica,sans-Serif" font-size="10.00">+ remove()</text>
<text text-anchor="start" x="417.5" y="-152.5" font-family="Helvetica,sans-Serif" font-size="10.00">+ mkdirs()</text>
<text text-anchor="start" x="417.5" y="-141.5" font-family="Helvetica,sans-Serif" font-size="10.00">+ walk()</text>
</a>
</g>
</g>
<!-- Node6&#45;&gt;Node10 -->
<g id="edge9" class="edge"><title>Node6&#45;&gt;Node10</title>
<path fill="none" stroke="midnightblue" d="M466,-301.298C466,-286.659 466,-271.642 466,-257.725"/>
<polygon fill="none" stroke="midnightblue" points="462.5,-301.354 466,-311.354 469.5,-301.354 462.5,-301.354"/>
</g>
<!-- Node8 -->
<g id="node8" class="node"><title>Node8</title>
<g id="a_node8"><a xlink:href="class_disk_1_1_local_1_1___paths_1_1_file_path.html" target="_top" xlink:title="A locally accessible file path.">
<polygon fill="none" stroke="black" points="117.5,-6.5 117.5,-85.5 246.5,-85.5 246.5,-6.5 117.5,-6.5"/>
<text text-anchor="middle" x="182" y="-73.5" font-family="Helvetica,sans-Serif" font-size="10.00">Disk.Local._Paths.FilePath</text>
<polyline fill="none" stroke="black" points="117.5,-66.5 246.5,-66.5 "/>
<text text-anchor="middle" x="182" y="-54.5" font-family="Helvetica,sans-Serif" font-size="10.00"> </text>
<polyline fill="none" stroke="black" points="117.5,-47.5 246.5,-47.5 "/>
<text text-anchor="start" x="125.5" y="-35.5" font-family="Helvetica,sans-Serif" font-size="10.00">+ __init__()</text>
<text text-anchor="start" x="125.5" y="-24.5" font-family="Helvetica,sans-Serif" font-size="10.00">+ asFile()</text>
<text text-anchor="start" x="125.5" y="-13.5" font-family="Helvetica,sans-Serif" font-size="10.00">+ move()</text>
</a>
</g>
</g>
<!-- Node7&#45;&gt;Node8 -->
<g id="edge7" class="edge"><title>Node7&#45;&gt;Node8</title>
<path fill="none" stroke="midnightblue" d="M270.213,-136.421C253.382,-119.36 235.422,-101.154 220.13,-85.6527"/>
<polygon fill="none" stroke="midnightblue" points="267.832,-138.991 277.346,-143.652 272.815,-134.075 267.832,-138.991"/>
</g>
<!-- Node9 -->
<g id="node9" class="node"><title>Node9</title>
<g id="a_node9"><a xlink:href="class_disk_1_1_s_s_h_1_1___paths_1_1_file_path.html" target="_top" xlink:title="Path of a file on a remote machine.">
<polygon fill="none" stroke="black" points="264.5,-1 264.5,-91 391.5,-91 391.5,-1 264.5,-1"/>
<text text-anchor="middle" x="328" y="-79" font-family="Helvetica,sans-Serif" font-size="10.00">Disk.SSH._Paths.FilePath</text>
<polyline fill="none" stroke="black" points="264.5,-72 391.5,-72 "/>
<text text-anchor="middle" x="328" y="-60" font-family="Helvetica,sans-Serif" font-size="10.00"> </text>
<polyline fill="none" stroke="black" points="264.5,-53 391.5,-53 "/>
<text text-anchor="start" x="272.5" y="-41" font-family="Helvetica,sans-Serif" font-size="10.00">+ __init__()</text>
<text text-anchor="start" x="272.5" y="-30" font-family="Helvetica,sans-Serif" font-size="10.00">+ asFile()</text>
<text text-anchor="start" x="272.5" y="-19" font-family="Helvetica,sans-Serif" font-size="10.00">+ copy()</text>
<text text-anchor="start" x="272.5" y="-8" font-family="Helvetica,sans-Serif" font-size="10.00">+ move()</text>
</a>
</g>
</g>
<!-- Node7&#45;&gt;Node9 -->
<g id="edge8" class="edge"><title>Node7&#45;&gt;Node9</title>
<path fill="none" stroke="midnightblue" d="M328,-124.187C328,-113.031 328,-101.778 328,-91.4456"/>
<polygon fill="none" stroke="midnightblue" points="324.5,-124.376 328,-134.376 331.5,-124.376 324.5,-124.376"/>
</g>
<!-- Node11 -->
<g id="node11" class="node"><title>Node11</title>
<g id="a_node11"><a xlink:href="class_disk_1_1_local_1_1___paths_1_1_folder_path.html" target="_top" xlink:title="A locally accessible folder path.">
<polygon fill="none" stroke="black" points="410,-12 410,-80 550,-80 550,-12 410,-12"/>
<text text-anchor="middle" x="480" y="-68" font-family="Helvetica,sans-Serif" font-size="10.00">Disk.Local._Paths.FolderPath</text>
<polyline fill="none" stroke="black" points="410,-61 550,-61 "/>
<text text-anchor="middle" x="480" y="-49" font-family="Helvetica,sans-Serif" font-size="10.00"> </text>
<polyline fill="none" stroke="black" points="410,-42 550,-42 "/>
<text text-anchor="start" x="418" y="-30" font-family="Helvetica,sans-Serif" font-size="10.00">+ __init__()</text>
<text text-anchor="start" x="418" y="-19" font-family="Helvetica,sans-Serif" font-size="10.00">+ rmtree()</text>
</a>
</g>
</g>
<!-- Node10&#45;&gt;Node11 -->
<g id="edge10" class="edge"><title>Node10&#45;&gt;Node11</title>
<path fill="none" stroke="midnightblue" d="M472.687,-124.308C474.144,-108.904 475.62,-93.3072 476.86,-80.1968"/>
<polygon fill="none" stroke="midnightblue" points="469.192,-124.091 471.735,-134.376 476.161,-124.75 469.192,-124.091"/>
</g>
<!-- Node12 -->
<g id="node12" class="node"><title>Node12</title>
<g id="a_node12"><a xlink:href="class_disk_1_1_s_s_h_1_1___paths_1_1_folder_path.html" target="_top" xlink:title="Path of a folder on a remote machine.">
<polygon fill="none" stroke="black" points="568,-12 568,-80 706,-80 706,-12 568,-12"/>
<text text-anchor="middle" x="637" y="-68" font-family="Helvetica,sans-Serif" font-size="10.00">Disk.SSH._Paths.FolderPath</text>
<polyline fill="none" stroke="black" points="568,-61 706,-61 "/>
<text text-anchor="middle" x="637" y="-49" font-family="Helvetica,sans-Serif" font-size="10.00"> </text>
<polyline fill="none" stroke="black" points="568,-42 706,-42 "/>
<text text-anchor="start" x="576" y="-30" font-family="Helvetica,sans-Serif" font-size="10.00">+ __init__()</text>
<text text-anchor="start" x="576" y="-19" font-family="Helvetica,sans-Serif" font-size="10.00">+ rmtree()</text>
</a>
</g>
</g>
<!-- Node10&#45;&gt;Node12 -->
<g id="edge11" class="edge"><title>Node10&#45;&gt;Node12</title>
<path fill="none" stroke="midnightblue" d="M530.216,-128.699C530.477,-128.465 530.739,-128.232 531,-128 549.784,-111.307 571.686,-94.2142 590.69,-80.0586"/>
<polygon fill="none" stroke="midnightblue" points="527.606,-126.343 522.596,-135.679 532.334,-131.505 527.606,-126.343"/>
</g>
<!-- Node14 -->
<g id="node14" class="node"><title>Node14</title>
<g id="a_node14"><a xlink:href="class_disk_1_1_unit_tests_1_1_local_walker.html" target="_top" xlink:title="{Disk.UnitTests.LocalWalker\n||}">
<polygon fill="none" stroke="black" points="540.5,-167.5 540.5,-224.5 671.5,-224.5 671.5,-167.5 540.5,-167.5"/>
<text text-anchor="middle" x="606" y="-212.5" font-family="Helvetica,sans-Serif" font-size="10.00">Disk.UnitTests.LocalWalker</text>
<polyline fill="none" stroke="black" points="540.5,-205.5 671.5,-205.5 "/>
<text text-anchor="middle" x="606" y="-193.5" font-family="Helvetica,sans-Serif" font-size="10.00"> </text>
<polyline fill="none" stroke="black" points="540.5,-186.5 671.5,-186.5 "/>
<text text-anchor="middle" x="606" y="-174.5" font-family="Helvetica,sans-Serif" font-size="10.00"> </text>
</a>
</g>
</g>
<!-- Node13&#45;&gt;Node14 -->
<g id="edge13" class="edge"><title>Node13&#45;&gt;Node14</title>
<path fill="none" stroke="midnightblue" d="M606,-339.652C606,-304.105 606,-254.867 606,-224.517"/>
<polygon fill="none" stroke="midnightblue" points="602.5,-339.747 606,-349.747 609.5,-339.747 602.5,-339.747"/>
</g>
<!-- Node15 -->
<g id="node15" class="node"><title>Node15</title>
<g id="a_node15"><a xlink:href="class_disk_1_1_unit_tests_1_1_test_o_sfuncs.html" target="_top" xlink:title="{Disk.UnitTests.TestOSfuncs\n||+ test_utime()\l}">
<polygon fill="none" stroke="black" points="690,-167.5 690,-224.5 824,-224.5 824,-167.5 690,-167.5"/>
<text text-anchor="middle" x="757" y="-212.5" font-family="Helvetica,sans-Serif" font-size="10.00">Disk.UnitTests.TestOSfuncs</text>
<polyline fill="none" stroke="black" points="690,-205.5 824,-205.5 "/>
<text text-anchor="middle" x="757" y="-193.5" font-family="Helvetica,sans-Serif" font-size="10.00"> </text>
<polyline fill="none" stroke="black" points="690,-186.5 824,-186.5 "/>
<text text-anchor="start" x="698" y="-174.5" font-family="Helvetica,sans-Serif" font-size="10.00">+ test_utime()</text>
</a>
</g>
</g>
<!-- Node13&#45;&gt;Node15 -->
<g id="edge14" class="edge"><title>Node13&#45;&gt;Node15</title>
<path fill="none" stroke="midnightblue" d="M639.349,-341.921C668.326,-306.227 709.493,-255.518 734.661,-224.517"/>
<polygon fill="none" stroke="midnightblue" points="636.581,-339.777 632.996,-349.747 642.016,-344.189 636.581,-339.777"/>
</g>
<!-- Node17 -->
<g id="node17" class="node"><title>Node17</title>
<g id="a_node17"><a xlink:href="class_disk_1_1_unit_tests_1_1_s_s_hfile.html" target="_top" xlink:title="{Disk.UnitTests.SSHfile\n||+ test_emptyFile()\l+ test_writeNonExistFile()\l}">
<polygon fill="none" stroke="black" points="842.5,-162 842.5,-230 965.5,-230 965.5,-162 842.5,-162"/>
<text text-anchor="middle" x="904" y="-218" font-family="Helvetica,sans-Serif" font-size="10.00">Disk.UnitTests.SSHfile</text>
<polyline fill="none" stroke="black" points="842.5,-211 965.5,-211 "/>
<text text-anchor="middle" x="904" y="-199" font-family="Helvetica,sans-Serif" font-size="10.00"> </text>
<polyline fill="none" stroke="black" points="842.5,-192 965.5,-192 "/>
<text text-anchor="start" x="850.5" y="-180" font-family="Helvetica,sans-Serif" font-size="10.00">+ test_emptyFile()</text>
<text text-anchor="start" x="850.5" y="-169" font-family="Helvetica,sans-Serif" font-size="10.00">+ test_writeNonExistFile()</text>
</a>
</g>
</g>
<!-- Node16&#45;&gt;Node17 -->
<g id="edge16" class="edge"><title>Node16&#45;&gt;Node17</title>
<path fill="none" stroke="midnightblue" d="M904,-334.185C904,-301.416 904,-259.111 904,-230.198"/>
<polygon fill="none" stroke="midnightblue" points="900.5,-334.461 904,-344.461 907.5,-334.461 900.5,-334.461"/>
</g>
<!-- Node18 -->
<g id="node18" class="node"><title>Node18</title>
<g id="a_node18"><a xlink:href="class_disk_1_1_unit_tests_1_1_s_s_hwalker.html" target="_top" xlink:title="{Disk.UnitTests.SSHwalker\n||}">
<polygon fill="none" stroke="black" points="983.5,-167.5 983.5,-224.5 1110.5,-224.5 1110.5,-167.5 983.5,-167.5"/>
<text text-anchor="middle" x="1047" y="-212.5" font-family="Helvetica,sans-Serif" font-size="10.00">Disk.UnitTests.SSHwalker</text>
<polyline fill="none" stroke="black" points="983.5,-205.5 1110.5,-205.5 "/>
<text text-anchor="middle" x="1047" y="-193.5" font-family="Helvetica,sans-Serif" font-size="10.00"> </text>
<polyline fill="none" stroke="black" points="983.5,-186.5 1110.5,-186.5 "/>
<text text-anchor="middle" x="1047" y="-174.5" font-family="Helvetica,sans-Serif" font-size="10.00"> </text>
</a>
</g>
</g>
<!-- Node16&#45;&gt;Node18 -->
<g id="edge17" class="edge"><title>Node16&#45;&gt;Node18</title>
<path fill="none" stroke="midnightblue" d="M939.949,-336.241C967.002,-301.053 1003.16,-254.018 1025.77,-224.62"/>
<polygon fill="none" stroke="midnightblue" points="936.95,-334.4 933.63,-344.461 942.5,-338.666 936.95,-334.4"/>
</g>
</g>
</svg>
