<?xml version="1.0" encoding="UTF-8" standalone="no"?>
<!DOCTYPE svg PUBLIC "-//W3C//DTD SVG 1.1//EN"
 "http://www.w3.org/Graphics/SVG/1.1/DTD/svg11.dtd">
<!-- Generated by graphviz version 2.28.0 (20121214.2254)
 -->
<!-- Title: Disk._base.FilePath.copy Pages: 1 -->
<svg width="470pt" height="28pt"
 viewBox="0.00 0.00 470.00 28.00" xmlns="http://www.w3.org/2000/svg" xmlns:xlink="http://www.w3.org/1999/xlink">
<g id="graph1" class="graph" transform="scale(1 1) rotate(0) translate(4 24)">
<title>Disk._base.FilePath.copy</title>
<!-- Node1 -->
<g id="node1" class="node"><title>Node1</title>
<polygon fill="#bfbfbf" stroke="black" points="0.5,-0.5 0.5,-19.5 125.5,-19.5 125.5,-0.5 0.5,-0.5"/>
<text text-anchor="middle" x="63" y="-7.5" font-family="Helvetica,sans-Serif" font-size="10.00">Disk._base.FilePath.copy</text>
</g>
<!-- Node2 -->
<g id="node3" class="node"><title>Node2</title>
<a xlink:href="class_disk_1_1__base_1_1_file_path.html#af3b45a7e70358b41d8ad619dca94f18f" target="_top" xlink:title="Disk._base.FilePath.move">
<polygon fill="none" stroke="black" points="162.5,-0.5 162.5,-19.5 289.5,-19.5 289.5,-0.5 162.5,-0.5"/>
<text text-anchor="middle" x="226" y="-7.5" font-family="Helvetica,sans-Serif" font-size="10.00">Disk._base.FilePath.move</text>
</a>
</g>
<!-- Node1&#45;&gt;Node2 -->
<g id="edge2" class="edge"><title>Node1&#45;&gt;Node2</title>
<path fill="none" stroke="midnightblue" d="M136.001,-10C144.777,-10 153.689,-10 162.314,-10"/>
<polygon fill="midnightblue" stroke="midnightblue" points="135.786,-6.5001 125.786,-10 135.786,-13.5001 135.786,-6.5001"/>
</g>
<!-- Node3 -->
<g id="node5" class="node"><title>Node3</title>
<a xlink:href="class_disk_1_1__base_1_1_file_path.html#a7c07ffcead384a72811163340e7abe09" target="_top" xlink:title="Disk._base.FilePath.rename">
<polygon fill="none" stroke="black" points="326.5,-0.5 326.5,-19.5 461.5,-19.5 461.5,-0.5 326.5,-0.5"/>
<text text-anchor="middle" x="394" y="-7.5" font-family="Helvetica,sans-Serif" font-size="10.00">Disk._base.FilePath.rename</text>
</a>
</g>
<!-- Node2&#45;&gt;Node3 -->
<g id="edge4" class="edge"><title>Node2&#45;&gt;Node3</title>
<path fill="none" stroke="midnightblue" d="M299.946,-10C308.704,-10 317.614,-10 326.277,-10"/>
<polygon fill="midnightblue" stroke="midnightblue" points="299.758,-6.5001 289.757,-10 299.757,-13.5001 299.758,-6.5001"/>
</g>
</g>
</svg>
