<?xml version="1.0" encoding="UTF-8" standalone="no"?>
<!DOCTYPE svg PUBLIC "-//W3C//DTD SVG 1.1//EN"
 "http://www.w3.org/Graphics/SVG/1.1/DTD/svg11.dtd">
<!-- Generated by graphviz version 2.30.1 (20130219.2202)
 -->
<!-- Title: Disk._base.ArgDescForPaths Pages: 1 -->
<svg width="150pt" height="182pt"
 viewBox="0.00 0.00 150.00 182.00" xmlns="http://www.w3.org/2000/svg" xmlns:xlink="http://www.w3.org/1999/xlink">
<g id="graph0" class="graph" transform="scale(1 1) rotate(0) translate(4 178)">
<title>Disk._base.ArgDescForPaths</title>
<!-- Node1 -->
<g id="node1" class="node"><title>Node1</title>
<polygon fill="#bfbfbf" stroke="black" points="-0.5,-0.5 -0.5,-79.5 142.5,-79.5 142.5,-0.5 -0.5,-0.5"/>
<text text-anchor="middle" x="71" y="-67.5" font-family="Helvetica,sans-Serif" font-size="10.00">Disk._base.ArgDescForPaths</text>
<polyline fill="none" stroke="black" points="-0.5,-60.5 142.5,-60.5 "/>
<text text-anchor="start" x="7.5" y="-48.5" font-family="Helvetica,sans-Serif" font-size="10.00">+ OTHER</text>
<text text-anchor="start" x="7.5" y="-37.5" font-family="Helvetica,sans-Serif" font-size="10.00">+ FILE</text>
<text text-anchor="start" x="7.5" y="-26.5" font-family="Helvetica,sans-Serif" font-size="10.00">+ FOLDER</text>
<polyline fill="none" stroke="black" points="-0.5,-19.5 142.5,-19.5 "/>
<text text-anchor="middle" x="71" y="-7.5" font-family="Helvetica,sans-Serif" font-size="10.00"> </text>
</g>
<!-- Node2 -->
<g id="node2" class="node"><title>Node2</title>
<g id="a_node2"><a xlink:href="class_abstraction_1_1_arg_desc.html" target="_top" xlink:title="{Abstraction::ArgDesc\n||}">
<polygon fill="none" stroke="black" points="18.5,-116.5 18.5,-173.5 123.5,-173.5 123.5,-116.5 18.5,-116.5"/>
<text text-anchor="middle" x="71" y="-161.5" font-family="Helvetica,sans-Serif" font-size="10.00">Abstraction::ArgDesc</text>
<polyline fill="none" stroke="black" points="18.5,-154.5 123.5,-154.5 "/>
<text text-anchor="middle" x="71" y="-142.5" font-family="Helvetica,sans-Serif" font-size="10.00"> </text>
<polyline fill="none" stroke="black" points="18.5,-135.5 123.5,-135.5 "/>
<text text-anchor="middle" x="71" y="-123.5" font-family="Helvetica,sans-Serif" font-size="10.00"> </text>
</a>
</g>
</g>
<!-- Node2&#45;&gt;Node1 -->
<g id="edge1" class="edge"><title>Node2&#45;&gt;Node1</title>
<path fill="none" stroke="midnightblue" d="M71,-106.156C71,-97.4733 71,-88.2318 71,-79.5205"/>
<polygon fill="none" stroke="midnightblue" points="67.5001,-106.398 71,-116.398 74.5001,-106.398 67.5001,-106.398"/>
</g>
</g>
</svg>
