<?xml version="1.0" encoding="UTF-8" standalone="no"?>
<!DOCTYPE svg PUBLIC "-//W3C//DTD SVG 1.1//EN"
 "http://www.w3.org/Graphics/SVG/1.1/DTD/svg11.dtd">
<!-- Generated by graphviz version 2.28.0 (20121214.2254)
 -->
<!-- Title: Disk._base.File Pages: 1 -->
<svg width="241pt" height="492pt"
 viewBox="0.00 0.00 241.00 492.00" xmlns="http://www.w3.org/2000/svg" xmlns:xlink="http://www.w3.org/1999/xlink">
<g id="graph1" class="graph" transform="scale(1 1) rotate(0) translate(4 488)">
<title>Disk._base.File</title>
<!-- Node1 -->
<g id="node1" class="node"><title>Node1</title>
<polygon fill="#bfbfbf" stroke="black" points="82.5,-233 82.5,-389 163.5,-389 163.5,-233 82.5,-233"/>
<text text-anchor="middle" x="123" y="-377" font-family="Helvetica,sans-Serif" font-size="10.00">Disk._base.File</text>
<polyline fill="none" stroke="black" points="82.5,-370 163.5,-370 "/>
<text text-anchor="start" x="90.5" y="-358" font-family="Helvetica,sans-Serif" font-size="10.00">+ mode</text>
<text text-anchor="start" x="90.5" y="-347" font-family="Helvetica,sans-Serif" font-size="10.00">+ isDestructed</text>
<text text-anchor="start" x="90.5" y="-336" font-family="Helvetica,sans-Serif" font-size="10.00">+ isDesructed</text>
<polyline fill="none" stroke="black" points="82.5,-329 163.5,-329 "/>
<text text-anchor="start" x="90.5" y="-317" font-family="Helvetica,sans-Serif" font-size="10.00">+ __init__()</text>
<text text-anchor="start" x="90.5" y="-306" font-family="Helvetica,sans-Serif" font-size="10.00">+ __enter__()</text>
<text text-anchor="start" x="90.5" y="-295" font-family="Helvetica,sans-Serif" font-size="10.00">+ __exit__()</text>
<text text-anchor="start" x="90.5" y="-284" font-family="Helvetica,sans-Serif" font-size="10.00">+ getPath()</text>
<text text-anchor="start" x="90.5" y="-273" font-family="Helvetica,sans-Serif" font-size="10.00">+ isWritable()</text>
<text text-anchor="start" x="90.5" y="-262" font-family="Helvetica,sans-Serif" font-size="10.00">+ isClosed()</text>
<text text-anchor="start" x="90.5" y="-251" font-family="Helvetica,sans-Serif" font-size="10.00">+ destruct()</text>
<text text-anchor="start" x="90.5" y="-240" font-family="Helvetica,sans-Serif" font-size="10.00">+ reopen()</text>
</g>
<!-- Node3 -->
<g id="node5" class="node"><title>Node3</title>
<a xlink:href="class_disk_1_1_local_1_1___file_1_1_base_file.html" target="_top" xlink:title="Abstract concept of a file object.">
<polygon fill="none" stroke="black" points="0,-94.5 0,-195.5 120,-195.5 120,-94.5 0,-94.5"/>
<text text-anchor="middle" x="60" y="-183.5" font-family="Helvetica,sans-Serif" font-size="10.00">Disk.Local._File.BaseFile</text>
<polyline fill="none" stroke="black" points="0,-176.5 120,-176.5 "/>
<text text-anchor="middle" x="60" y="-164.5" font-family="Helvetica,sans-Serif" font-size="10.00"> </text>
<polyline fill="none" stroke="black" points="0,-157.5 120,-157.5 "/>
<text text-anchor="start" x="8" y="-145.5" font-family="Helvetica,sans-Serif" font-size="10.00">+ __init__()</text>
<text text-anchor="start" x="8" y="-134.5" font-family="Helvetica,sans-Serif" font-size="10.00">+ __enter__()</text>
<text text-anchor="start" x="8" y="-123.5" font-family="Helvetica,sans-Serif" font-size="10.00">+ __exit__()</text>
<text text-anchor="start" x="8" y="-112.5" font-family="Helvetica,sans-Serif" font-size="10.00">+ open()</text>
<text text-anchor="start" x="8" y="-101.5" font-family="Helvetica,sans-Serif" font-size="10.00">+ __getattr__()</text>
</a>
</g>
<!-- Node1&#45;&gt;Node3 -->
<g id="edge4" class="edge"><title>Node1&#45;&gt;Node3</title>
<path fill="none" stroke="midnightblue" d="M89.7027,-223.321C86.0642,-213.85 82.4577,-204.461 79.0784,-195.664"/>
<polygon fill="none" stroke="midnightblue" points="86.4915,-224.722 93.3448,-232.802 93.026,-222.212 86.4915,-224.722"/>
</g>
<!-- Node5 -->
<g id="node9" class="node"><title>Node5</title>
<a xlink:href="class_disk_1_1_s_s_h_1_1___file_1_1_file.html" target="_top" xlink:title="Represents a file on a remote machine.">
<polygon fill="none" stroke="black" points="138.5,-94.5 138.5,-195.5 233.5,-195.5 233.5,-94.5 138.5,-94.5"/>
<text text-anchor="middle" x="186" y="-183.5" font-family="Helvetica,sans-Serif" font-size="10.00">Disk.SSH._File.File</text>
<polyline fill="none" stroke="black" points="138.5,-176.5 233.5,-176.5 "/>
<text text-anchor="start" x="146.5" y="-164.5" font-family="Helvetica,sans-Serif" font-size="10.00">+ connection</text>
<text text-anchor="start" x="146.5" y="-153.5" font-family="Helvetica,sans-Serif" font-size="10.00">+ remotePath</text>
<polyline fill="none" stroke="black" points="138.5,-146.5 233.5,-146.5 "/>
<text text-anchor="start" x="146.5" y="-134.5" font-family="Helvetica,sans-Serif" font-size="10.00">+ __init__()</text>
<text text-anchor="start" x="146.5" y="-123.5" font-family="Helvetica,sans-Serif" font-size="10.00">+ __getattr__()</text>
<text text-anchor="start" x="146.5" y="-112.5" font-family="Helvetica,sans-Serif" font-size="10.00">+ flush()</text>
<text text-anchor="start" x="146.5" y="-101.5" font-family="Helvetica,sans-Serif" font-size="10.00">+ close()</text>
</a>
</g>
<!-- Node1&#45;&gt;Node5 -->
<g id="edge8" class="edge"><title>Node1&#45;&gt;Node5</title>
<path fill="none" stroke="midnightblue" d="M156.297,-223.321C159.936,-213.85 163.542,-204.461 166.922,-195.664"/>
<polygon fill="none" stroke="midnightblue" points="152.974,-222.212 152.655,-232.802 159.509,-224.722 152.974,-222.212"/>
</g>
<!-- Node2 -->
<g id="node2" class="node"><title>Node2</title>
<a xlink:href="classobject.html" target="_top" xlink:title="{object\n||}">
<polygon fill="none" stroke="black" points="102,-426.5 102,-483.5 144,-483.5 144,-426.5 102,-426.5"/>
<text text-anchor="middle" x="123" y="-471.5" font-family="Helvetica,sans-Serif" font-size="10.00">object</text>
<polyline fill="none" stroke="black" points="102,-464.5 144,-464.5 "/>
<text text-anchor="middle" x="123" y="-452.5" font-family="Helvetica,sans-Serif" font-size="10.00"> </text>
<polyline fill="none" stroke="black" points="102,-445.5 144,-445.5 "/>
<text text-anchor="middle" x="123" y="-433.5" font-family="Helvetica,sans-Serif" font-size="10.00"> </text>
</a>
</g>
<!-- Node2&#45;&gt;Node1 -->
<g id="edge2" class="edge"><title>Node2&#45;&gt;Node1</title>
<path fill="none" stroke="midnightblue" d="M123,-416.128C123,-407.734 123,-398.545 123,-389.212"/>
<polygon fill="none" stroke="midnightblue" points="119.5,-416.284 123,-426.284 126.5,-416.284 119.5,-416.284"/>
</g>
<!-- Node4 -->
<g id="node7" class="node"><title>Node4</title>
<a xlink:href="class_disk_1_1_local_1_1___file_1_1_file.html" target="_top" xlink:title="Implementation of BaseFile using a FilePath instance to store the path.">
<polygon fill="none" stroke="black" points="11.5,-0.5 11.5,-57.5 108.5,-57.5 108.5,-0.5 11.5,-0.5"/>
<text text-anchor="middle" x="60" y="-45.5" font-family="Helvetica,sans-Serif" font-size="10.00">Disk.Local._File.File</text>
<polyline fill="none" stroke="black" points="11.5,-38.5 108.5,-38.5 "/>
<text text-anchor="start" x="19.5" y="-26.5" font-family="Helvetica,sans-Serif" font-size="10.00">+ mode</text>
<polyline fill="none" stroke="black" points="11.5,-19.5 108.5,-19.5 "/>
<text text-anchor="start" x="19.5" y="-7.5" font-family="Helvetica,sans-Serif" font-size="10.00">+ __init__()</text>
</a>
</g>
<!-- Node3&#45;&gt;Node4 -->
<g id="edge6" class="edge"><title>Node3&#45;&gt;Node4</title>
<path fill="none" stroke="midnightblue" d="M60,-84.2331C60,-74.9207 60,-65.707 60,-57.5894"/>
<polygon fill="none" stroke="midnightblue" points="56.5001,-84.3295 60,-94.3296 63.5001,-84.3296 56.5001,-84.3295"/>
</g>
</g>
</svg>
