<?xml version="1.0" encoding="UTF-8" standalone="no"?>
<!DOCTYPE svg PUBLIC "-//W3C//DTD SVG 1.1//EN"
 "http://www.w3.org/Graphics/SVG/1.1/DTD/svg11.dtd">
<!-- Generated by graphviz version 2.30.1 (20130221.2233)
 -->
<!-- Title: Exception Pages: 1 -->
<svg width="318pt" height="182pt"
 viewBox="0.00 0.00 318.00 182.00" xmlns="http://www.w3.org/2000/svg" xmlns:xlink="http://www.w3.org/1999/xlink">
<g id="graph0" class="graph" transform="scale(1 1) rotate(0) translate(4 178)">
<title>Exception</title>
<!-- Node1 -->
<g id="node1" class="node"><title>Node1</title>
<polygon fill="#bfbfbf" stroke="black" points="140,-116.5 140,-173.5 200,-173.5 200,-116.5 140,-116.5"/>
<text text-anchor="middle" x="170" y="-161.5" font-family="Helvetica,sans-Serif" font-size="10.00">Exception</text>
<polyline fill="none" stroke="black" points="140,-154.5 200,-154.5 "/>
<text text-anchor="middle" x="170" y="-142.5" font-family="Helvetica,sans-Serif" font-size="10.00"> </text>
<polyline fill="none" stroke="black" points="140,-135.5 200,-135.5 "/>
<text text-anchor="middle" x="170" y="-123.5" font-family="Helvetica,sans-Serif" font-size="10.00"> </text>
</g>
<!-- Node2 -->
<g id="node2" class="node"><title>Node2</title>
<g id="a_node2"><a xlink:href="class_disk_1_1_compressed_file_1_1_unrecognized_format.html" target="_top" xlink:title="{Disk.CompressedFile.Unrecognized\lFormat\n||+ __init__()\l}">
<polygon fill="none" stroke="black" points="0,-6 0,-74 176,-74 176,-6 0,-6"/>
<text text-anchor="start" x="8" y="-62" font-family="Helvetica,sans-Serif" font-size="10.00">Disk.CompressedFile.Unrecognized</text>
<text text-anchor="middle" x="88" y="-51" font-family="Helvetica,sans-Serif" font-size="10.00">Format</text>
<polyline fill="none" stroke="black" points="0,-44 176,-44 "/>
<text text-anchor="middle" x="88" y="-32" font-family="Helvetica,sans-Serif" font-size="10.00"> </text>
<polyline fill="none" stroke="black" points="0,-25 176,-25 "/>
<text text-anchor="start" x="8" y="-13" font-family="Helvetica,sans-Serif" font-size="10.00">+ __init__()</text>
</a>
</g>
</g>
<!-- Node1&#45;&gt;Node2 -->
<g id="edge1" class="edge"><title>Node1&#45;&gt;Node2</title>
<path fill="none" stroke="midnightblue" d="M141.755,-108.522C132.893,-97.3898 123.147,-85.1483 114.416,-74.1812"/>
<polygon fill="none" stroke="midnightblue" points="139.059,-110.754 148.026,-116.398 144.535,-106.394 139.059,-110.754"/>
</g>
<!-- Node3 -->
<g id="node3" class="node"><title>Node3</title>
<g id="a_node3"><a xlink:href="class_disk_1_1_config_file_1_1_parser__m1_1_1_parse_exception.html" target="_top" xlink:title="{Disk.ConfigFile.Parser\l_m1.ParseException\n|+ message\l|+ __init__()\l+ __str__()\l}">
<polygon fill="none" stroke="black" points="194,-0.5 194,-79.5 310,-79.5 310,-0.5 194,-0.5"/>
<text text-anchor="start" x="202" y="-67.5" font-family="Helvetica,sans-Serif" font-size="10.00">Disk.ConfigFile.Parser</text>
<text text-anchor="middle" x="252" y="-56.5" font-family="Helvetica,sans-Serif" font-size="10.00">_m1.ParseException</text>
<polyline fill="none" stroke="black" points="194,-49.5 310,-49.5 "/>
<text text-anchor="start" x="202" y="-37.5" font-family="Helvetica,sans-Serif" font-size="10.00">+ message</text>
<polyline fill="none" stroke="black" points="194,-30.5 310,-30.5 "/>
<text text-anchor="start" x="202" y="-18.5" font-family="Helvetica,sans-Serif" font-size="10.00">+ __init__()</text>
<text text-anchor="start" x="202" y="-7.5" font-family="Helvetica,sans-Serif" font-size="10.00">+ __str__()</text>
</a>
</g>
</g>
<!-- Node1&#45;&gt;Node3 -->
<g id="edge2" class="edge"><title>Node1&#45;&gt;Node3</title>
<path fill="none" stroke="midnightblue" d="M198.316,-108.433C205.744,-99.1022 213.788,-88.9977 221.333,-79.5205"/>
<polygon fill="none" stroke="midnightblue" points="195.465,-106.394 191.974,-116.398 200.941,-110.754 195.465,-106.394"/>
</g>
</g>
</svg>
