<?xml version="1.0" encoding="UTF-8" standalone="no"?>
<!DOCTYPE svg PUBLIC "-//W3C//DTD SVG 1.1//EN"
 "http://www.w3.org/Graphics/SVG/1.1/DTD/svg11.dtd">
<!-- Generated by graphviz version 2.30.1 (20130219.2202)
 -->
<!-- Title: Disk._base.FolderPath Pages: 1 -->
<svg width="304pt" height="514pt"
 viewBox="0.00 0.00 304.00 514.00" xmlns="http://www.w3.org/2000/svg" xmlns:xlink="http://www.w3.org/1999/xlink">
<g id="graph0" class="graph" transform="scale(1 1) rotate(0) translate(4 510)">
<title>Disk._base.FolderPath</title>
<!-- Node1 -->
<g id="node1" class="node"><title>Node1</title>
<polygon fill="#bfbfbf" stroke="black" points="91.5,-106.5 91.5,-229.5 204.5,-229.5 204.5,-106.5 91.5,-106.5"/>
<text text-anchor="middle" x="148" y="-217.5" font-family="Helvetica,sans-Serif" font-size="10.00">Disk._base.FolderPath</text>
<polyline fill="none" stroke="black" points="91.5,-210.5 204.5,-210.5 "/>
<text text-anchor="middle" x="148" y="-198.5" font-family="Helvetica,sans-Serif" font-size="10.00"> </text>
<polyline fill="none" stroke="black" points="91.5,-191.5 204.5,-191.5 "/>
<text text-anchor="start" x="99.5" y="-179.5" font-family="Helvetica,sans-Serif" font-size="10.00">+ __init__()</text>
<text text-anchor="start" x="99.5" y="-168.5" font-family="Helvetica,sans-Serif" font-size="10.00">+ copy()</text>
<text text-anchor="start" x="99.5" y="-157.5" font-family="Helvetica,sans-Serif" font-size="10.00">+ create()</text>
<text text-anchor="start" x="99.5" y="-146.5" font-family="Helvetica,sans-Serif" font-size="10.00">+ rmtree()</text>
<text text-anchor="start" x="99.5" y="-135.5" font-family="Helvetica,sans-Serif" font-size="10.00">+ remove()</text>
<text text-anchor="start" x="99.5" y="-124.5" font-family="Helvetica,sans-Serif" font-size="10.00">+ mkdirs()</text>
<text text-anchor="start" x="99.5" y="-113.5" font-family="Helvetica,sans-Serif" font-size="10.00">+ walk()</text>
</g>
<!-- Node4 -->
<g id="node4" class="node"><title>Node4</title>
<g id="a_node4"><a xlink:href="class_disk_1_1_local_1_1___paths_1_1_folder_path.html" target="_top" xlink:title="A locally accessible folder path.">
<polygon fill="none" stroke="black" points="0,-1 0,-69 140,-69 140,-1 0,-1"/>
<text text-anchor="middle" x="70" y="-57" font-family="Helvetica,sans-Serif" font-size="10.00">Disk.Local._Paths.FolderPath</text>
<polyline fill="none" stroke="black" points="0,-50 140,-50 "/>
<text text-anchor="middle" x="70" y="-38" font-family="Helvetica,sans-Serif" font-size="10.00"> </text>
<polyline fill="none" stroke="black" points="0,-31 140,-31 "/>
<text text-anchor="start" x="8" y="-19" font-family="Helvetica,sans-Serif" font-size="10.00">+ __init__()</text>
<text text-anchor="start" x="8" y="-8" font-family="Helvetica,sans-Serif" font-size="10.00">+ rmtree()</text>
</a>
</g>
</g>
<!-- Node1&#45;&gt;Node4 -->
<g id="edge3" class="edge"><title>Node1&#45;&gt;Node4</title>
<path fill="none" stroke="midnightblue" d="M106.749,-97.7198C100.815,-87.7535 94.9506,-77.9042 89.7079,-69.0991"/>
<polygon fill="none" stroke="midnightblue" points="103.845,-99.6833 111.968,-106.485 109.859,-96.1021 103.845,-99.6833"/>
</g>
<!-- Node5 -->
<g id="node5" class="node"><title>Node5</title>
<g id="a_node5"><a xlink:href="class_disk_1_1_s_s_h_1_1___paths_1_1_folder_path.html" target="_top" xlink:title="Path of a folder on a remote machine.">
<polygon fill="none" stroke="black" points="158,-1 158,-69 296,-69 296,-1 158,-1"/>
<text text-anchor="middle" x="227" y="-57" font-family="Helvetica,sans-Serif" font-size="10.00">Disk.SSH._Paths.FolderPath</text>
<polyline fill="none" stroke="black" points="158,-50 296,-50 "/>
<text text-anchor="middle" x="227" y="-38" font-family="Helvetica,sans-Serif" font-size="10.00"> </text>
<polyline fill="none" stroke="black" points="158,-31 296,-31 "/>
<text text-anchor="start" x="166" y="-19" font-family="Helvetica,sans-Serif" font-size="10.00">+ __init__()</text>
<text text-anchor="start" x="166" y="-8" font-family="Helvetica,sans-Serif" font-size="10.00">+ rmtree()</text>
</a>
</g>
</g>
<!-- Node1&#45;&gt;Node5 -->
<g id="edge4" class="edge"><title>Node1&#45;&gt;Node5</title>
<path fill="none" stroke="midnightblue" d="M189.78,-97.7198C195.79,-87.7535 201.73,-77.9042 207.039,-69.0991"/>
<polygon fill="none" stroke="midnightblue" points="186.661,-96.1141 184.494,-106.485 192.655,-99.7291 186.661,-96.1141"/>
</g>
<!-- Node2 -->
<g id="node2" class="node"><title>Node2</title>
<g id="a_node2"><a xlink:href="class_disk_1_1__base_1_1_path_abstract.html" target="_top" xlink:title="{Disk._base.PathAbstract\n|+ path\l|+ __init__()\l+ asStr()\l+ __str__()\l+ __repr__()\l+ __add__()\l+ __radd__()\l+ __eq__()\l+ __hash__()\l+ __getattr__()\l}">
<polygon fill="none" stroke="black" points="86.5,-266.5 86.5,-411.5 209.5,-411.5 209.5,-266.5 86.5,-266.5"/>
<text text-anchor="middle" x="148" y="-399.5" font-family="Helvetica,sans-Serif" font-size="10.00">Disk._base.PathAbstract</text>
<polyline fill="none" stroke="black" points="86.5,-392.5 209.5,-392.5 "/>
<text text-anchor="start" x="94.5" y="-380.5" font-family="Helvetica,sans-Serif" font-size="10.00">+ path</text>
<polyline fill="none" stroke="black" points="86.5,-373.5 209.5,-373.5 "/>
<text text-anchor="start" x="94.5" y="-361.5" font-family="Helvetica,sans-Serif" font-size="10.00">+ __init__()</text>
<text text-anchor="start" x="94.5" y="-350.5" font-family="Helvetica,sans-Serif" font-size="10.00">+ asStr()</text>
<text text-anchor="start" x="94.5" y="-339.5" font-family="Helvetica,sans-Serif" font-size="10.00">+ __str__()</text>
<text text-anchor="start" x="94.5" y="-328.5" font-family="Helvetica,sans-Serif" font-size="10.00">+ __repr__()</text>
<text text-anchor="start" x="94.5" y="-317.5" font-family="Helvetica,sans-Serif" font-size="10.00">+ __add__()</text>
<text text-anchor="start" x="94.5" y="-306.5" font-family="Helvetica,sans-Serif" font-size="10.00">+ __radd__()</text>
<text text-anchor="start" x="94.5" y="-295.5" font-family="Helvetica,sans-Serif" font-size="10.00">+ __eq__()</text>
<text text-anchor="start" x="94.5" y="-284.5" font-family="Helvetica,sans-Serif" font-size="10.00">+ __hash__()</text>
<text text-anchor="start" x="94.5" y="-273.5" font-family="Helvetica,sans-Serif" font-size="10.00">+ __getattr__()</text>
</a>
</g>
</g>
<!-- Node2&#45;&gt;Node1 -->
<g id="edge1" class="edge"><title>Node2&#45;&gt;Node1</title>
<path fill="none" stroke="midnightblue" d="M148,-256.232C148,-247.254 148,-238.235 148,-229.58"/>
<polygon fill="none" stroke="midnightblue" points="144.5,-256.329 148,-266.329 151.5,-256.329 144.5,-256.329"/>
</g>
<!-- Node3 -->
<g id="node3" class="node"><title>Node3</title>
<g id="a_node3"><a xlink:href="classobject.html" target="_top" xlink:title="{object\n||}">
<polygon fill="none" stroke="black" points="127,-448.5 127,-505.5 169,-505.5 169,-448.5 127,-448.5"/>
<text text-anchor="middle" x="148" y="-493.5" font-family="Helvetica,sans-Serif" font-size="10.00">object</text>
<polyline fill="none" stroke="black" points="127,-486.5 169,-486.5 "/>
<text text-anchor="middle" x="148" y="-474.5" font-family="Helvetica,sans-Serif" font-size="10.00"> </text>
<polyline fill="none" stroke="black" points="127,-467.5 169,-467.5 "/>
<text text-anchor="middle" x="148" y="-455.5" font-family="Helvetica,sans-Serif" font-size="10.00"> </text>
</a>
</g>
</g>
<!-- Node3&#45;&gt;Node2 -->
<g id="edge2" class="edge"><title>Node3&#45;&gt;Node2</title>
<path fill="none" stroke="midnightblue" d="M148,-438.356C148,-429.999 148,-420.872 148,-411.656"/>
<polygon fill="none" stroke="midnightblue" points="144.5,-438.478 148,-448.478 151.5,-438.478 144.5,-438.478"/>
</g>
</g>
</svg>
