<?xml version="1.0" encoding="UTF-8" standalone="no"?>
<!DOCTYPE svg PUBLIC "-//W3C//DTD SVG 1.1//EN"
 "http://www.w3.org/Graphics/SVG/1.1/DTD/svg11.dtd">
<!-- Generated by graphviz version 2.28.0 (20121214.2254)
 -->
<!-- Title: Disk._base.PathAbstract Pages: 1 -->
<!--zoomable 536 -->
<svg id="main" version="1.1" xmlns="http://www.w3.org/2000/svg" xmlns:xlink="http://www.w3.org/1999/xlink" xml:space="preserve" onload="init(evt)">
        <defs>
                <circle id="rim" cx="0" cy="0" r="7"/>
                <circle id="rim2" cx="0" cy="0" r="3.5"/>
                <g id="zoomPlus">
                        <use xlink:href="#rim" fill="#404040">
                                <set attributeName="fill" to="#808080" begin="zoomplus.mouseover" end="zoomplus.mouseout"/>
                        </use>
                        <path d="M-4,0h8M0,-4v8" fill="none" stroke="white" stroke-width="1.5" pointer-events="none"/>
                </g>
                <g id="zoomMin">
                        <use xlink:href="#rim" fill="#404040">
                                <set attributeName="fill" to="#808080" begin="zoomminus.mouseover" end="zoomminus.mouseout"/>
                        </use>
                        <path d="M-4,0h8" fill="none" stroke="white" stroke-width="1.5" pointer-events="none"/>
                </g>
                <g id="dirArrow">
                        <path fill="none" stroke="white" stroke-width="1.5" d="M0,-3.0v7 M-2.5,-0.5L0,-3.0L2.5,-0.5"/>
                </g>
               <g id="resetDef">
                       <use xlink:href="#rim2" fill="#404040">
                               <set attributeName="fill" to="#808080" begin="reset.mouseover" end="reset.mouseout"/>
                       </use>
               </g>
        </defs>

<script type="text/javascript">
var viewWidth = 596;
var viewHeight = 536;
var sectionId = 'dynsection-0';
</script>
<script xlink:href="svgpan.js"/>
<svg id="graph" class="graph">
<g id="viewport">
<title>Disk._base.PathAbstract</title>
<!-- Node1 -->
<g id="node1" class="node"><title>Node1</title>
<polygon fill="#bfbfbf" stroke="black" points="224.5,-288.5 224.5,-433.5 347.5,-433.5 347.5,-288.5 224.5,-288.5"/>
<text text-anchor="middle" x="286" y="-421.5" font-family="Helvetica,sans-Serif" font-size="10.00">Disk._base.PathAbstract</text>
<polyline fill="none" stroke="black" points="224.5,-414.5 347.5,-414.5 "/>
<text text-anchor="start" x="232.5" y="-402.5" font-family="Helvetica,sans-Serif" font-size="10.00">+ path</text>
<polyline fill="none" stroke="black" points="224.5,-395.5 347.5,-395.5 "/>
<text text-anchor="start" x="232.5" y="-383.5" font-family="Helvetica,sans-Serif" font-size="10.00">+ __init__()</text>
<text text-anchor="start" x="232.5" y="-372.5" font-family="Helvetica,sans-Serif" font-size="10.00">+ asStr()</text>
<text text-anchor="start" x="232.5" y="-361.5" font-family="Helvetica,sans-Serif" font-size="10.00">+ __str__()</text>
<text text-anchor="start" x="232.5" y="-350.5" font-family="Helvetica,sans-Serif" font-size="10.00">+ __repr__()</text>
<text text-anchor="start" x="232.5" y="-339.5" font-family="Helvetica,sans-Serif" font-size="10.00">+ __add__()</text>
<text text-anchor="start" x="232.5" y="-328.5" font-family="Helvetica,sans-Serif" font-size="10.00">+ __radd__()</text>
<text text-anchor="start" x="232.5" y="-317.5" font-family="Helvetica,sans-Serif" font-size="10.00">+ __eq__()</text>
<text text-anchor="start" x="232.5" y="-306.5" font-family="Helvetica,sans-Serif" font-size="10.00">+ __hash__()</text>
<text text-anchor="start" x="232.5" y="-295.5" font-family="Helvetica,sans-Serif" font-size="10.00">+ __getattr__()</text>
</g>
<!-- Node3 -->
<g id="node5" class="node"><title>Node3</title>
<a xlink:href="class_disk_1_1__base_1_1_file_path.html" target="_top" xlink:title="{Disk._base.FilePath\n||+ __init__()\l+ asFile()\l+ create()\l+ copyDates()\l+ copy()\l+ move()\l+ rename()\l}">
<polygon fill="none" stroke="black" points="159.5,-128.5 159.5,-251.5 260.5,-251.5 260.5,-128.5 159.5,-128.5"/>
<text text-anchor="middle" x="210" y="-239.5" font-family="Helvetica,sans-Serif" font-size="10.00">Disk._base.FilePath</text>
<polyline fill="none" stroke="black" points="159.5,-232.5 260.5,-232.5 "/>
<text text-anchor="middle" x="210" y="-220.5" font-family="Helvetica,sans-Serif" font-size="10.00"> </text>
<polyline fill="none" stroke="black" points="159.5,-213.5 260.5,-213.5 "/>
<text text-anchor="start" x="167.5" y="-201.5" font-family="Helvetica,sans-Serif" font-size="10.00">+ __init__()</text>
<text text-anchor="start" x="167.5" y="-190.5" font-family="Helvetica,sans-Serif" font-size="10.00">+ asFile()</text>
<text text-anchor="start" x="167.5" y="-179.5" font-family="Helvetica,sans-Serif" font-size="10.00">+ create()</text>
<text text-anchor="start" x="167.5" y="-168.5" font-family="Helvetica,sans-Serif" font-size="10.00">+ copyDates()</text>
<text text-anchor="start" x="167.5" y="-157.5" font-family="Helvetica,sans-Serif" font-size="10.00">+ copy()</text>
<text text-anchor="start" x="167.5" y="-146.5" font-family="Helvetica,sans-Serif" font-size="10.00">+ move()</text>
<text text-anchor="start" x="167.5" y="-135.5" font-family="Helvetica,sans-Serif" font-size="10.00">+ rename()</text>
</a>
</g>
<!-- Node1&#45;&gt;Node3 -->
<g id="edge4" class="edge"><title>Node1&#45;&gt;Node3</title>
<path fill="none" stroke="midnightblue" d="M249.619,-279.1C245.453,-269.836 241.261,-260.514 237.243,-251.58"/>
<polygon fill="none" stroke="midnightblue" points="246.476,-280.644 253.769,-288.329 252.86,-277.773 246.476,-280.644"/>
</g>
<!-- Node6 -->
<g id="node11" class="node"><title>Node6</title>
<a xlink:href="class_disk_1_1__base_1_1_folder_path.html" target="_top" xlink:title="Abstract concept of a folder path.">
<polygon fill="none" stroke="black" points="305.5,-134 305.5,-246 418.5,-246 418.5,-134 305.5,-134"/>
<text text-anchor="middle" x="362" y="-234" font-family="Helvetica,sans-Serif" font-size="10.00">Disk._base.FolderPath</text>
<polyline fill="none" stroke="black" points="305.5,-227 418.5,-227 "/>
<text text-anchor="middle" x="362" y="-215" font-family="Helvetica,sans-Serif" font-size="10.00"> </text>
<polyline fill="none" stroke="black" points="305.5,-208 418.5,-208 "/>
<text text-anchor="start" x="313.5" y="-196" font-family="Helvetica,sans-Serif" font-size="10.00">+ __init__()</text>
<text text-anchor="start" x="313.5" y="-185" font-family="Helvetica,sans-Serif" font-size="10.00">+ create()</text>
<text text-anchor="start" x="313.5" y="-174" font-family="Helvetica,sans-Serif" font-size="10.00">+ rmtree()</text>
<text text-anchor="start" x="313.5" y="-163" font-family="Helvetica,sans-Serif" font-size="10.00">+ remove()</text>
<text text-anchor="start" x="313.5" y="-152" font-family="Helvetica,sans-Serif" font-size="10.00">+ mkdirs()</text>
<text text-anchor="start" x="313.5" y="-141" font-family="Helvetica,sans-Serif" font-size="10.00">+ walk()</text>
</a>
</g>
<!-- Node1&#45;&gt;Node6 -->
<g id="edge10" class="edge"><title>Node1&#45;&gt;Node6</title>
<path fill="none" stroke="midnightblue" d="M322.423,-279.007C327.433,-267.866 332.48,-256.643 337.214,-246.116"/>
<polygon fill="none" stroke="midnightblue" points="319.14,-277.773 318.231,-288.329 325.524,-280.644 319.14,-277.773"/>
</g>
<!-- Node2 -->
<g id="node2" class="node"><title>Node2</title>
<a xlink:href="classobject.html" target="_top" xlink:title="{object\n||}">
<polygon fill="none" stroke="black" points="265,-470.5 265,-527.5 307,-527.5 307,-470.5 265,-470.5"/>
<text text-anchor="middle" x="286" y="-515.5" font-family="Helvetica,sans-Serif" font-size="10.00">object</text>
<polyline fill="none" stroke="black" points="265,-508.5 307,-508.5 "/>
<text text-anchor="middle" x="286" y="-496.5" font-family="Helvetica,sans-Serif" font-size="10.00"> </text>
<polyline fill="none" stroke="black" points="265,-489.5 307,-489.5 "/>
<text text-anchor="middle" x="286" y="-477.5" font-family="Helvetica,sans-Serif" font-size="10.00"> </text>
</a>
</g>
<!-- Node2&#45;&gt;Node1 -->
<g id="edge2" class="edge"><title>Node2&#45;&gt;Node1</title>
<path fill="none" stroke="midnightblue" d="M286,-460.356C286,-451.999 286,-442.872 286,-433.656"/>
<polygon fill="none" stroke="midnightblue" points="282.5,-460.478 286,-470.478 289.5,-460.478 282.5,-460.478"/>
</g>
<!-- Node4 -->
<g id="node7" class="node"><title>Node4</title>
<a xlink:href="class_disk_1_1_local_1_1___paths_1_1_file_path.html" target="_top" xlink:title="A locally accessible file path.">
<polygon fill="none" stroke="black" points="-0.5,-6.5 -0.5,-85.5 128.5,-85.5 128.5,-6.5 -0.5,-6.5"/>
<text text-anchor="middle" x="64" y="-73.5" font-family="Helvetica,sans-Serif" font-size="10.00">Disk.Local._Paths.FilePath</text>
<polyline fill="none" stroke="black" points="-0.5,-66.5 128.5,-66.5 "/>
<text text-anchor="middle" x="64" y="-54.5" font-family="Helvetica,sans-Serif" font-size="10.00"> </text>
<polyline fill="none" stroke="black" points="-0.5,-47.5 128.5,-47.5 "/>
<text text-anchor="start" x="7.5" y="-35.5" font-family="Helvetica,sans-Serif" font-size="10.00">+ __init__()</text>
<text text-anchor="start" x="7.5" y="-24.5" font-family="Helvetica,sans-Serif" font-size="10.00">+ asFile()</text>
<text text-anchor="start" x="7.5" y="-13.5" font-family="Helvetica,sans-Serif" font-size="10.00">+ move()</text>
</a>
</g>
<!-- Node3&#45;&gt;Node4 -->
<g id="edge6" class="edge"><title>Node3&#45;&gt;Node4</title>
<path fill="none" stroke="midnightblue" d="M152.031,-132.619C135.928,-116.957 118.805,-100.303 103.983,-85.8872"/>
<polygon fill="none" stroke="midnightblue" points="149.737,-135.271 159.346,-139.734 154.618,-130.253 149.737,-135.271"/>
</g>
<!-- Node5 -->
<g id="node9" class="node"><title>Node5</title>
<a xlink:href="class_disk_1_1_s_s_h_1_1___paths_1_1_file_path.html" target="_top" xlink:title="Path of a file on a remote machine.">
<polygon fill="none" stroke="black" points="146.5,-1 146.5,-91 273.5,-91 273.5,-1 146.5,-1"/>
<text text-anchor="middle" x="210" y="-79" font-family="Helvetica,sans-Serif" font-size="10.00">Disk.SSH._Paths.FilePath</text>
<polyline fill="none" stroke="black" points="146.5,-72 273.5,-72 "/>
<text text-anchor="middle" x="210" y="-60" font-family="Helvetica,sans-Serif" font-size="10.00"> </text>
<polyline fill="none" stroke="black" points="146.5,-53 273.5,-53 "/>
<text text-anchor="start" x="154.5" y="-41" font-family="Helvetica,sans-Serif" font-size="10.00">+ __init__()</text>
<text text-anchor="start" x="154.5" y="-30" font-family="Helvetica,sans-Serif" font-size="10.00">+ asFile()</text>
<text text-anchor="start" x="154.5" y="-19" font-family="Helvetica,sans-Serif" font-size="10.00">+ copy()</text>
<text text-anchor="start" x="154.5" y="-8" font-family="Helvetica,sans-Serif" font-size="10.00">+ move()</text>
</a>
</g>
<!-- Node3&#45;&gt;Node5 -->
<g id="edge8" class="edge"><title>Node3&#45;&gt;Node5</title>
<path fill="none" stroke="midnightblue" d="M210,-118.333C210,-109.055 210,-99.7696 210,-91.1103"/>
<polygon fill="none" stroke="midnightblue" points="206.5,-118.367 210,-128.367 213.5,-118.367 206.5,-118.367"/>
</g>
<!-- Node7 -->
<g id="node13" class="node"><title>Node7</title>
<a xlink:href="class_disk_1_1_local_1_1___paths_1_1_folder_path.html" target="_top" xlink:title="A locally accessible folder path.">
<polygon fill="none" stroke="black" points="292,-12 292,-80 432,-80 432,-12 292,-12"/>
<text text-anchor="middle" x="362" y="-68" font-family="Helvetica,sans-Serif" font-size="10.00">Disk.Local._Paths.FolderPath</text>
<polyline fill="none" stroke="black" points="292,-61 432,-61 "/>
<text text-anchor="middle" x="362" y="-49" font-family="Helvetica,sans-Serif" font-size="10.00"> </text>
<polyline fill="none" stroke="black" points="292,-42 432,-42 "/>
<text text-anchor="start" x="300" y="-30" font-family="Helvetica,sans-Serif" font-size="10.00">+ __init__()</text>
<text text-anchor="start" x="300" y="-19" font-family="Helvetica,sans-Serif" font-size="10.00">+ rmtree()</text>
</a>
</g>
<!-- Node6&#45;&gt;Node7 -->
<g id="edge12" class="edge"><title>Node6&#45;&gt;Node7</title>
<path fill="none" stroke="midnightblue" d="M362,-123.412C362,-108.441 362,-93.1476 362,-80.2142"/>
<polygon fill="none" stroke="midnightblue" points="358.5,-123.692 362,-133.692 365.5,-123.693 358.5,-123.692"/>
</g>
<!-- Node8 -->
<g id="node15" class="node"><title>Node8</title>
<a xlink:href="class_disk_1_1_s_s_h_1_1___paths_1_1_folder_path.html" target="_top" xlink:title="Path of a folder on a remote machine.">
<polygon fill="none" stroke="black" points="450,-12 450,-80 588,-80 588,-12 450,-12"/>
<text text-anchor="middle" x="519" y="-68" font-family="Helvetica,sans-Serif" font-size="10.00">Disk.SSH._Paths.FolderPath</text>
<polyline fill="none" stroke="black" points="450,-61 588,-61 "/>
<text text-anchor="middle" x="519" y="-49" font-family="Helvetica,sans-Serif" font-size="10.00"> </text>
<polyline fill="none" stroke="black" points="450,-42 588,-42 "/>
<text text-anchor="start" x="458" y="-30" font-family="Helvetica,sans-Serif" font-size="10.00">+ __init__()</text>
<text text-anchor="start" x="458" y="-19" font-family="Helvetica,sans-Serif" font-size="10.00">+ rmtree()</text>
</a>
</g>
<!-- Node6&#45;&gt;Node8 -->
<g id="edge14" class="edge"><title>Node6&#45;&gt;Node8</title>
<path fill="none" stroke="midnightblue" d="M426.238,-130.9C445.398,-113.57 465.731,-95.1792 482.463,-80.0464"/>
<polygon fill="none" stroke="midnightblue" points="423.749,-128.431 418.681,-137.735 428.445,-133.623 423.749,-128.431"/>
</g>
</g>
</svg>
        <g id="navigator" transform="translate(0 0)" fill="#404254">
                <rect fill="#f2f5e9" fill-opacity="0.5" stroke="#606060" stroke-width=".5" x="0" y="0" width="60" height="60"/>
                <use id="zoomplus" xlink:href="#zoomPlus" x="17" y="9" onmousedown="handleZoom(evt,'in')"/>
                <use id="zoomminus" xlink:href="#zoomMin" x="42" y="9" onmousedown="handleZoom(evt,'out')"/>
                <use id="reset" xlink:href="#resetDef" x="30" y="36" onmousedown="handleReset()"/>
                <g id="arrowUp" xlink:href="#dirArrow" transform="translate(30 24)" onmousedown="handlePan(0,-1)">
                  <use xlink:href="#rim" fill="#404040">
                        <set attributeName="fill" to="#808080" begin="arrowUp.mouseover" end="arrowUp.mouseout"/>
                  </use>
                  <path fill="none" stroke="white" stroke-width="1.5" d="M0,-3.0v7 M-2.5,-0.5L0,-3.0L2.5,-0.5"/>
                </g>
                <g id="arrowRight" xlink:href="#dirArrow" transform="rotate(90) translate(36 -43)" onmousedown="handlePan(1,0)">
                  <use xlink:href="#rim" fill="#404040">
                        <set attributeName="fill" to="#808080" begin="arrowRight.mouseover" end="arrowRight.mouseout"/>
                  </use>
                  <path fill="none" stroke="white" stroke-width="1.5" d="M0,-3.0v7 M-2.5,-0.5L0,-3.0L2.5,-0.5"/>
                </g>
                <g id="arrowDown" xlink:href="#dirArrow" transform="rotate(180) translate(-30 -48)" onmousedown="handlePan(0,1)">
                  <use xlink:href="#rim" fill="#404040">
                        <set attributeName="fill" to="#808080" begin="arrowDown.mouseover" end="arrowDown.mouseout"/>
                  </use>
                  <path fill="none" stroke="white" stroke-width="1.5" d="M0,-3.0v7 M-2.5,-0.5L0,-3.0L2.5,-0.5"/>
                </g>
                <g id="arrowLeft" xlink:href="#dirArrow" transform="rotate(270) translate(-36 17)" onmousedown="handlePan(-1,0)">
                  <use xlink:href="#rim" fill="#404040">
                        <set attributeName="fill" to="#808080" begin="arrowLeft.mouseover" end="arrowLeft.mouseout"/>
                  </use>
                  <path fill="none" stroke="white" stroke-width="1.5" d="M0,-3.0v7 M-2.5,-0.5L0,-3.0L2.5,-0.5"/>
                </g>
        </g>
        <svg viewBox="0 0 15 15" width="100%" height="30px" preserveAspectRatio="xMaxYMin meet">
         <g id="arrow_out" transform="scale(0.3 0.3)">
          <a xlink:href="class_disk_1_1__base_1_1_path_abstract__inherit__graph_org.svg" target="_base">
           <rect id="button" ry="5" rx="5" y="6" x="6" height="38" width="38"
                fill="#f2f5e9" fill-opacity="0.5" stroke="#606060" stroke-width="1.0"/>
           <path id="arrow"
             d="M 11.500037,31.436501 C 11.940474,20.09759 22.043105,11.32322 32.158766,21.979434 L 37.068811,17.246167 C 37.068811,17.246167 37.088388,32 37.088388,32 L 22.160133,31.978069 C 22.160133,31.978069 26.997745,27.140456 26.997745,27.140456 C 18.528582,18.264221 13.291696,25.230495 11.500037,31.436501 z"
             style="fill:#404040;"/>
          </a>
         </g>
        </svg>
</svg>
