<?xml version="1.0" encoding="UTF-8" standalone="no"?>
<!DOCTYPE svg PUBLIC "-//W3C//DTD SVG 1.1//EN"
 "http://www.w3.org/Graphics/SVG/1.1/DTD/svg11.dtd">
<!-- Generated by graphviz version 2.28.0 (20121214.2254)
 -->
<!-- Title: Disk._base.FolderPath Pages: 1 -->
<svg width="304pt" height="504pt"
 viewBox="0.00 0.00 304.00 504.00" xmlns="http://www.w3.org/2000/svg" xmlns:xlink="http://www.w3.org/1999/xlink">
<g id="graph1" class="graph" transform="scale(1 1) rotate(0) translate(4 500)">
<title>Disk._base.FolderPath</title>
<!-- Node1 -->
<g id="node1" class="node"><title>Node1</title>
<polygon fill="#bfbfbf" stroke="black" points="91.5,-107 91.5,-219 204.5,-219 204.5,-107 91.5,-107"/>
<text text-anchor="middle" x="148" y="-207" font-family="Helvetica,sans-Serif" font-size="10.00">Disk._base.FolderPath</text>
<polyline fill="none" stroke="black" points="91.5,-200 204.5,-200 "/>
<text text-anchor="middle" x="148" y="-188" font-family="Helvetica,sans-Serif" font-size="10.00"> </text>
<polyline fill="none" stroke="black" points="91.5,-181 204.5,-181 "/>
<text text-anchor="start" x="99.5" y="-169" font-family="Helvetica,sans-Serif" font-size="10.00">+ __init__()</text>
<text text-anchor="start" x="99.5" y="-158" font-family="Helvetica,sans-Serif" font-size="10.00">+ create()</text>
<text text-anchor="start" x="99.5" y="-147" font-family="Helvetica,sans-Serif" font-size="10.00">+ rmtree()</text>
<text text-anchor="start" x="99.5" y="-136" font-family="Helvetica,sans-Serif" font-size="10.00">+ remove()</text>
<text text-anchor="start" x="99.5" y="-125" font-family="Helvetica,sans-Serif" font-size="10.00">+ mkdirs()</text>
<text text-anchor="start" x="99.5" y="-114" font-family="Helvetica,sans-Serif" font-size="10.00">+ walk()</text>
</g>
<!-- Node4 -->
<g id="node7" class="node"><title>Node4</title>
<a xlink:href="class_disk_1_1_local_1_1___paths_1_1_folder_path.html" target="_top" xlink:title="A locally accessible folder path.">
<polygon fill="none" stroke="black" points="0,-1 0,-69 140,-69 140,-1 0,-1"/>
<text text-anchor="middle" x="70" y="-57" font-family="Helvetica,sans-Serif" font-size="10.00">Disk.Local._Paths.FolderPath</text>
<polyline fill="none" stroke="black" points="0,-50 140,-50 "/>
<text text-anchor="middle" x="70" y="-38" font-family="Helvetica,sans-Serif" font-size="10.00"> </text>
<polyline fill="none" stroke="black" points="0,-31 140,-31 "/>
<text text-anchor="start" x="8" y="-19" font-family="Helvetica,sans-Serif" font-size="10.00">+ __init__()</text>
<text text-anchor="start" x="8" y="-8" font-family="Helvetica,sans-Serif" font-size="10.00">+ rmtree()</text>
</a>
</g>
<!-- Node1&#45;&gt;Node4 -->
<g id="edge6" class="edge"><title>Node1&#45;&gt;Node4</title>
<path fill="none" stroke="midnightblue" d="M108.365,-97.9741C102.182,-87.9866 96.0207,-78.0335 90.5023,-69.1192"/>
<polygon fill="none" stroke="midnightblue" points="105.549,-100.074 113.788,-106.735 111.5,-96.3896 105.549,-100.074"/>
</g>
<!-- Node5 -->
<g id="node9" class="node"><title>Node5</title>
<a xlink:href="class_disk_1_1_s_s_h_1_1___paths_1_1_folder_path.html" target="_top" xlink:title="Path of a folder on a remote machine.">
<polygon fill="none" stroke="black" points="158,-1 158,-69 296,-69 296,-1 158,-1"/>
<text text-anchor="middle" x="227" y="-57" font-family="Helvetica,sans-Serif" font-size="10.00">Disk.SSH._Paths.FolderPath</text>
<polyline fill="none" stroke="black" points="158,-50 296,-50 "/>
<text text-anchor="middle" x="227" y="-38" font-family="Helvetica,sans-Serif" font-size="10.00"> </text>
<polyline fill="none" stroke="black" points="158,-31 296,-31 "/>
<text text-anchor="start" x="166" y="-19" font-family="Helvetica,sans-Serif" font-size="10.00">+ __init__()</text>
<text text-anchor="start" x="166" y="-8" font-family="Helvetica,sans-Serif" font-size="10.00">+ rmtree()</text>
</a>
</g>
<!-- Node1&#45;&gt;Node5 -->
<g id="edge8" class="edge"><title>Node1&#45;&gt;Node5</title>
<path fill="none" stroke="midnightblue" d="M188.143,-97.9741C194.405,-87.9866 200.646,-78.0335 206.235,-69.1192"/>
<polygon fill="none" stroke="midnightblue" points="184.997,-96.4029 182.651,-106.735 190.928,-100.121 184.997,-96.4029"/>
</g>
<!-- Node2 -->
<g id="node2" class="node"><title>Node2</title>
<a xlink:href="class_disk_1_1__base_1_1_path_abstract.html" target="_top" xlink:title="{Disk._base.PathAbstract\n|+ path\l|+ __init__()\l+ asStr()\l+ __str__()\l+ __repr__()\l+ __add__()\l+ __radd__()\l+ __eq__()\l+ __hash__()\l+ __getattr__()\l}">
<polygon fill="none" stroke="black" points="86.5,-256.5 86.5,-401.5 209.5,-401.5 209.5,-256.5 86.5,-256.5"/>
<text text-anchor="middle" x="148" y="-389.5" font-family="Helvetica,sans-Serif" font-size="10.00">Disk._base.PathAbstract</text>
<polyline fill="none" stroke="black" points="86.5,-382.5 209.5,-382.5 "/>
<text text-anchor="start" x="94.5" y="-370.5" font-family="Helvetica,sans-Serif" font-size="10.00">+ path</text>
<polyline fill="none" stroke="black" points="86.5,-363.5 209.5,-363.5 "/>
<text text-anchor="start" x="94.5" y="-351.5" font-family="Helvetica,sans-Serif" font-size="10.00">+ __init__()</text>
<text text-anchor="start" x="94.5" y="-340.5" font-family="Helvetica,sans-Serif" font-size="10.00">+ asStr()</text>
<text text-anchor="start" x="94.5" y="-329.5" font-family="Helvetica,sans-Serif" font-size="10.00">+ __str__()</text>
<text text-anchor="start" x="94.5" y="-318.5" font-family="Helvetica,sans-Serif" font-size="10.00">+ __repr__()</text>
<text text-anchor="start" x="94.5" y="-307.5" font-family="Helvetica,sans-Serif" font-size="10.00">+ __add__()</text>
<text text-anchor="start" x="94.5" y="-296.5" font-family="Helvetica,sans-Serif" font-size="10.00">+ __radd__()</text>
<text text-anchor="start" x="94.5" y="-285.5" font-family="Helvetica,sans-Serif" font-size="10.00">+ __eq__()</text>
<text text-anchor="start" x="94.5" y="-274.5" font-family="Helvetica,sans-Serif" font-size="10.00">+ __hash__()</text>
<text text-anchor="start" x="94.5" y="-263.5" font-family="Helvetica,sans-Serif" font-size="10.00">+ __getattr__()</text>
</a>
</g>
<!-- Node2&#45;&gt;Node1 -->
<g id="edge2" class="edge"><title>Node2&#45;&gt;Node1</title>
<path fill="none" stroke="midnightblue" d="M148,-245.855C148,-236.789 148,-227.726 148,-219.109"/>
<polygon fill="none" stroke="midnightblue" points="144.5,-246.067 148,-256.067 151.5,-246.067 144.5,-246.067"/>
</g>
<!-- Node3 -->
<g id="node4" class="node"><title>Node3</title>
<a xlink:href="classobject.html" target="_top" xlink:title="{object\n||}">
<polygon fill="none" stroke="black" points="127,-438.5 127,-495.5 169,-495.5 169,-438.5 127,-438.5"/>
<text text-anchor="middle" x="148" y="-483.5" font-family="Helvetica,sans-Serif" font-size="10.00">object</text>
<polyline fill="none" stroke="black" points="127,-476.5 169,-476.5 "/>
<text text-anchor="middle" x="148" y="-464.5" font-family="Helvetica,sans-Serif" font-size="10.00"> </text>
<polyline fill="none" stroke="black" points="127,-457.5 169,-457.5 "/>
<text text-anchor="middle" x="148" y="-445.5" font-family="Helvetica,sans-Serif" font-size="10.00"> </text>
</a>
</g>
<!-- Node3&#45;&gt;Node2 -->
<g id="edge4" class="edge"><title>Node3&#45;&gt;Node2</title>
<path fill="none" stroke="midnightblue" d="M148,-428.356C148,-419.999 148,-410.872 148,-401.656"/>
<polygon fill="none" stroke="midnightblue" points="144.5,-428.478 148,-438.478 151.5,-428.478 144.5,-428.478"/>
</g>
</g>
</svg>
