<?xml version="1.0" encoding="UTF-8" standalone="no"?>
<!DOCTYPE svg PUBLIC "-//W3C//DTD SVG 1.1//EN"
 "http://www.w3.org/Graphics/SVG/1.1/DTD/svg11.dtd">
<!-- Generated by graphviz version 2.30.1 (20130219.2202)
 -->
<!-- Title: Disk._base.File.isWritable Pages: 1 -->
<svg width="602pt" height="135pt"
 viewBox="0.00 0.00 602.00 135.00" xmlns="http://www.w3.org/2000/svg" xmlns:xlink="http://www.w3.org/1999/xlink">
<g id="graph0" class="graph" transform="scale(1 1) rotate(0) translate(4 131)">
<title>Disk._base.File.isWritable</title>
<!-- Node1 -->
<g id="node1" class="node"><title>Node1</title>
<polygon fill="#bfbfbf" stroke="black" points="0.5,-63.5 0.5,-82.5 125.5,-82.5 125.5,-63.5 0.5,-63.5"/>
<text text-anchor="middle" x="63" y="-70.5" font-family="Helvetica,sans-Serif" font-size="10.00">Disk._base.File.isWritable</text>
</g>
<!-- Node2 -->
<g id="node2" class="node"><title>Node2</title>
<g id="a_node2"><a xlink:href="class_disk_1_1__base_1_1_file.html#aa6035675eda3f591d6a7404e07453816" target="_top" xlink:title="Disk._base.File.__repr__">
<polygon fill="none" stroke="black" points="162,-107.5 162,-126.5 282,-126.5 282,-107.5 162,-107.5"/>
<text text-anchor="middle" x="222" y="-114.5" font-family="Helvetica,sans-Serif" font-size="10.00">Disk._base.File.__repr__</text>
</a>
</g>
</g>
<!-- Node1&#45;&gt;Node2 -->
<g id="edge1" class="edge"><title>Node1&#45;&gt;Node2</title>
<path fill="none" stroke="midnightblue" d="M107.703,-85.2478C132.767,-92.2724 163.766,-100.96 187,-107.471"/>
<polygon fill="midnightblue" stroke="midnightblue" points="108.64,-81.8758 98.0667,-82.5473 106.751,-88.6161 108.64,-81.8758"/>
</g>
<!-- Node4 -->
<g id="node4" class="node"><title>Node4</title>
<g id="a_node4"><a xlink:href="class_disk_1_1_s_s_h_1_1___file_1_1_file.html#aa2cb1ac59649f601a1c209b425923f38" target="_top" xlink:title="Disk.SSH._File.File.\l__repr__">
<polygon fill="none" stroke="black" points="173.5,-58 173.5,-88 270.5,-88 270.5,-58 173.5,-58"/>
<text text-anchor="start" x="181.5" y="-76" font-family="Helvetica,sans-Serif" font-size="10.00">Disk.SSH._File.File.</text>
<text text-anchor="middle" x="222" y="-65" font-family="Helvetica,sans-Serif" font-size="10.00">__repr__</text>
</a>
</g>
</g>
<!-- Node1&#45;&gt;Node4 -->
<g id="edge3" class="edge"><title>Node1&#45;&gt;Node4</title>
<path fill="none" stroke="midnightblue" d="M135.705,-73C148.401,-73 161.337,-73 173.169,-73"/>
<polygon fill="midnightblue" stroke="midnightblue" points="135.6,-69.5001 125.6,-73 135.6,-76.5001 135.6,-69.5001"/>
</g>
<!-- Node5 -->
<g id="node5" class="node"><title>Node5</title>
<g id="a_node5"><a xlink:href="class_disk_1_1_s_s_h_1_1___file_1_1_file.html#a2b8fa9d0d909bb45c91d589d2e0cf6d3" target="_top" xlink:title="Uploads the file if changed.">
<polygon fill="none" stroke="black" points="164,-19.5 164,-38.5 280,-38.5 280,-19.5 164,-19.5"/>
<text text-anchor="middle" x="222" y="-26.5" font-family="Helvetica,sans-Serif" font-size="10.00">Disk.SSH._File.File.flush</text>
</a>
</g>
</g>
<!-- Node1&#45;&gt;Node5 -->
<g id="edge4" class="edge"><title>Node1&#45;&gt;Node5</title>
<path fill="none" stroke="midnightblue" d="M107.703,-60.7522C132.767,-53.7276 163.766,-45.04 187,-38.5287"/>
<polygon fill="midnightblue" stroke="midnightblue" points="106.751,-57.3839 98.0667,-63.4527 108.64,-64.1242 106.751,-57.3839"/>
</g>
<!-- Node3 -->
<g id="node3" class="node"><title>Node3</title>
<g id="a_node3"><a xlink:href="class_disk_1_1__base_1_1_file.html#afecee354ca982223e41d25bf0910d8f2" target="_top" xlink:title="Disk._base.File.__str__">
<polygon fill="none" stroke="black" points="321,-107.5 321,-126.5 435,-126.5 435,-107.5 321,-107.5"/>
<text text-anchor="middle" x="378" y="-114.5" font-family="Helvetica,sans-Serif" font-size="10.00">Disk._base.File.__str__</text>
</a>
</g>
</g>
<!-- Node2&#45;&gt;Node3 -->
<g id="edge2" class="edge"><title>Node2&#45;&gt;Node3</title>
<path fill="none" stroke="midnightblue" d="M292.357,-117C301.892,-117 311.586,-117 320.844,-117"/>
<polygon fill="midnightblue" stroke="midnightblue" points="292.1,-113.5 282.1,-117 292.1,-120.5 292.1,-113.5"/>
</g>
<!-- Node6 -->
<g id="node6" class="node"><title>Node6</title>
<g id="a_node6"><a xlink:href="class_disk_1_1_s_s_h_1_1___file_1_1_file.html#a78a57bc0b49bb00fe9672e04fba5661c" target="_top" xlink:title="Disk.SSH._File.File.close">
<polygon fill="none" stroke="black" points="318.5,-19.5 318.5,-38.5 437.5,-38.5 437.5,-19.5 318.5,-19.5"/>
<text text-anchor="middle" x="378" y="-26.5" font-family="Helvetica,sans-Serif" font-size="10.00">Disk.SSH._File.File.close</text>
</a>
</g>
</g>
<!-- Node5&#45;&gt;Node6 -->
<g id="edge5" class="edge"><title>Node5&#45;&gt;Node6</title>
<path fill="none" stroke="midnightblue" d="M290.353,-29C299.671,-29 309.18,-29 318.323,-29"/>
<polygon fill="midnightblue" stroke="midnightblue" points="290.344,-25.5001 280.344,-29 290.344,-32.5001 290.344,-25.5001"/>
</g>
<!-- Node7 -->
<g id="node7" class="node"><title>Node7</title>
<g id="a_node7"><a xlink:href="class_disk_1_1__base_1_1_file.html#ad9e735b15b84fb029c777c9f48e30295" target="_top" xlink:title="Disk._base.File.__exit__">
<polygon fill="none" stroke="black" points="474.5,-38.5 474.5,-57.5 593.5,-57.5 593.5,-38.5 474.5,-38.5"/>
<text text-anchor="middle" x="534" y="-45.5" font-family="Helvetica,sans-Serif" font-size="10.00">Disk._base.File.__exit__</text>
</a>
</g>
</g>
<!-- Node6&#45;&gt;Node7 -->
<g id="edge6" class="edge"><title>Node6&#45;&gt;Node7</title>
<path fill="none" stroke="midnightblue" d="M447.607,-37.4645C456.497,-38.5613 465.538,-39.6767 474.248,-40.7514"/>
<polygon fill="midnightblue" stroke="midnightblue" points="448.013,-33.9882 437.66,-36.2373 447.156,-40.9355 448.013,-33.9882"/>
</g>
<!-- Node8 -->
<g id="node8" class="node"><title>Node8</title>
<g id="a_node8"><a xlink:href="class_disk_1_1__base_1_1_file.html#ababdfcceed76d07a67803fb4b7272e4d" target="_top" xlink:title="Disk._base.File.destruct">
<polygon fill="none" stroke="black" points="476,-0.5 476,-19.5 592,-19.5 592,-0.5 476,-0.5"/>
<text text-anchor="middle" x="534" y="-7.5" font-family="Helvetica,sans-Serif" font-size="10.00">Disk._base.File.destruct</text>
</a>
</g>
</g>
<!-- Node6&#45;&gt;Node8 -->
<g id="edge7" class="edge"><title>Node6&#45;&gt;Node8</title>
<path fill="none" stroke="midnightblue" d="M447.735,-20.5197C457.105,-19.3637 466.639,-18.1874 475.775,-17.0602"/>
<polygon fill="midnightblue" stroke="midnightblue" points="447.156,-17.0645 437.66,-21.7627 448.013,-24.0118 447.156,-17.0645"/>
</g>
</g>
</svg>
