<?xml version="1.0" encoding="UTF-8" standalone="no"?>
<!DOCTYPE svg PUBLIC "-//W3C//DTD SVG 1.1//EN"
 "http://www.w3.org/Graphics/SVG/1.1/DTD/svg11.dtd">
<!-- Generated by graphviz version 2.30.1 (20130219.2202)
 -->
<!-- Title: Disk.Local._File.File Pages: 1 -->
<svg width="128pt" height="536pt"
 viewBox="0.00 0.00 128.00 536.00" xmlns="http://www.w3.org/2000/svg" xmlns:xlink="http://www.w3.org/1999/xlink">
<g id="graph0" class="graph" transform="scale(1 1) rotate(0) translate(4 532)">
<title>Disk.Local._File.File</title>
<!-- Node1 -->
<g id="node1" class="node"><title>Node1</title>
<polygon fill="#bfbfbf" stroke="black" points="11.5,-0.5 11.5,-57.5 108.5,-57.5 108.5,-0.5 11.5,-0.5"/>
<text text-anchor="middle" x="60" y="-45.5" font-family="Helvetica,sans-Serif" font-size="10.00">Disk.Local._File.File</text>
<polyline fill="none" stroke="black" points="11.5,-38.5 108.5,-38.5 "/>
<text text-anchor="start" x="19.5" y="-26.5" font-family="Helvetica,sans-Serif" font-size="10.00">+ mode</text>
<polyline fill="none" stroke="black" points="11.5,-19.5 108.5,-19.5 "/>
<text text-anchor="start" x="19.5" y="-7.5" font-family="Helvetica,sans-Serif" font-size="10.00">+ __init__()</text>
</g>
<!-- Node2 -->
<g id="node2" class="node"><title>Node2</title>
<g id="a_node2"><a xlink:href="class_disk_1_1_local_1_1___file_1_1_base_file.html" target="_top" xlink:title="Abstract concept of a file object.">
<polygon fill="none" stroke="black" points="0,-95 0,-229 120,-229 120,-95 0,-95"/>
<text text-anchor="middle" x="60" y="-217" font-family="Helvetica,sans-Serif" font-size="10.00">Disk.Local._File.BaseFile</text>
<polyline fill="none" stroke="black" points="0,-210 120,-210 "/>
<text text-anchor="middle" x="60" y="-198" font-family="Helvetica,sans-Serif" font-size="10.00"> </text>
<polyline fill="none" stroke="black" points="0,-191 120,-191 "/>
<text text-anchor="start" x="8" y="-179" font-family="Helvetica,sans-Serif" font-size="10.00">+ __init__()</text>
<text text-anchor="start" x="8" y="-168" font-family="Helvetica,sans-Serif" font-size="10.00">+ __enter__()</text>
<text text-anchor="start" x="8" y="-157" font-family="Helvetica,sans-Serif" font-size="10.00">+ __exit__()</text>
<text text-anchor="start" x="8" y="-146" font-family="Helvetica,sans-Serif" font-size="10.00">+ open()</text>
<text text-anchor="start" x="8" y="-135" font-family="Helvetica,sans-Serif" font-size="10.00">+ close()</text>
<text text-anchor="start" x="8" y="-124" font-family="Helvetica,sans-Serif" font-size="10.00">+ closed()</text>
<text text-anchor="start" x="8" y="-113" font-family="Helvetica,sans-Serif" font-size="10.00">+ isClosed()</text>
<text text-anchor="start" x="8" y="-102" font-family="Helvetica,sans-Serif" font-size="10.00">+ __getattr__()</text>
</a>
</g>
</g>
<!-- Node2&#45;&gt;Node1 -->
<g id="edge1" class="edge"><title>Node2&#45;&gt;Node1</title>
<path fill="none" stroke="midnightblue" d="M60,-84.6651C60,-75.0809 60,-65.815 60,-57.7192"/>
<polygon fill="none" stroke="midnightblue" points="56.5001,-84.7324 60,-94.7324 63.5001,-84.7325 56.5001,-84.7324"/>
</g>
<!-- Node3 -->
<g id="node3" class="node"><title>Node3</title>
<g id="a_node3"><a xlink:href="class_disk_1_1__base_1_1_file.html" target="_top" xlink:title="{Disk._base.File\n|+ mode\l+ isDestructed\l|+ __init__()\l+ __str__()\l+ __repr__()\l+ __enter__()\l+ __exit__()\l+ getPath()\l+ isWritable()\l+ isClosed()\l+ destruct()\l+ reopen()\l}">
<polygon fill="none" stroke="black" points="19.5,-266.5 19.5,-433.5 100.5,-433.5 100.5,-266.5 19.5,-266.5"/>
<text text-anchor="middle" x="60" y="-421.5" font-family="Helvetica,sans-Serif" font-size="10.00">Disk._base.File</text>
<polyline fill="none" stroke="black" points="19.5,-414.5 100.5,-414.5 "/>
<text text-anchor="start" x="27.5" y="-402.5" font-family="Helvetica,sans-Serif" font-size="10.00">+ mode</text>
<text text-anchor="start" x="27.5" y="-391.5" font-family="Helvetica,sans-Serif" font-size="10.00">+ isDestructed</text>
<polyline fill="none" stroke="black" points="19.5,-384.5 100.5,-384.5 "/>
<text text-anchor="start" x="27.5" y="-372.5" font-family="Helvetica,sans-Serif" font-size="10.00">+ __init__()</text>
<text text-anchor="start" x="27.5" y="-361.5" font-family="Helvetica,sans-Serif" font-size="10.00">+ __str__()</text>
<text text-anchor="start" x="27.5" y="-350.5" font-family="Helvetica,sans-Serif" font-size="10.00">+ __repr__()</text>
<text text-anchor="start" x="27.5" y="-339.5" font-family="Helvetica,sans-Serif" font-size="10.00">+ __enter__()</text>
<text text-anchor="start" x="27.5" y="-328.5" font-family="Helvetica,sans-Serif" font-size="10.00">+ __exit__()</text>
<text text-anchor="start" x="27.5" y="-317.5" font-family="Helvetica,sans-Serif" font-size="10.00">+ getPath()</text>
<text text-anchor="start" x="27.5" y="-306.5" font-family="Helvetica,sans-Serif" font-size="10.00">+ isWritable()</text>
<text text-anchor="start" x="27.5" y="-295.5" font-family="Helvetica,sans-Serif" font-size="10.00">+ isClosed()</text>
<text text-anchor="start" x="27.5" y="-284.5" font-family="Helvetica,sans-Serif" font-size="10.00">+ destruct()</text>
<text text-anchor="start" x="27.5" y="-273.5" font-family="Helvetica,sans-Serif" font-size="10.00">+ reopen()</text>
</a>
</g>
</g>
<!-- Node3&#45;&gt;Node2 -->
<g id="edge2" class="edge"><title>Node3&#45;&gt;Node2</title>
<path fill="none" stroke="midnightblue" d="M60,-256.11C60,-247.036 60,-237.962 60,-229.231"/>
<polygon fill="none" stroke="midnightblue" points="56.5001,-256.334 60,-266.335 63.5001,-256.335 56.5001,-256.334"/>
</g>
<!-- Node4 -->
<g id="node4" class="node"><title>Node4</title>
<g id="a_node4"><a xlink:href="classobject.html" target="_top" xlink:title="{object\n||}">
<polygon fill="none" stroke="black" points="39,-470.5 39,-527.5 81,-527.5 81,-470.5 39,-470.5"/>
<text text-anchor="middle" x="60" y="-515.5" font-family="Helvetica,sans-Serif" font-size="10.00">object</text>
<polyline fill="none" stroke="black" points="39,-508.5 81,-508.5 "/>
<text text-anchor="middle" x="60" y="-496.5" font-family="Helvetica,sans-Serif" font-size="10.00"> </text>
<polyline fill="none" stroke="black" points="39,-489.5 81,-489.5 "/>
<text text-anchor="middle" x="60" y="-477.5" font-family="Helvetica,sans-Serif" font-size="10.00"> </text>
</a>
</g>
</g>
<!-- Node4&#45;&gt;Node3 -->
<g id="edge3" class="edge"><title>Node4&#45;&gt;Node3</title>
<path fill="none" stroke="midnightblue" d="M60,-460.35C60,-452.08 60,-443.008 60,-433.738"/>
<polygon fill="none" stroke="midnightblue" points="56.5001,-460.35 60,-470.35 63.5001,-460.35 56.5001,-460.35"/>
</g>
</g>
</svg>
