<?xml version="1.0" encoding="UTF-8" standalone="no"?>
<!DOCTYPE svg PUBLIC "-//W3C//DTD SVG 1.1//EN"
 "http://www.w3.org/Graphics/SVG/1.1/DTD/svg11.dtd">
<!-- Generated by graphviz version 2.30.1 (20130221.2233)
 -->
<!-- Title: object Pages: 1 -->
<svg width="443pt" height="558pt"
 viewBox="0.00 0.00 443.00 558.00" xmlns="http://www.w3.org/2000/svg" xmlns:xlink="http://www.w3.org/1999/xlink">
<g id="graph0" class="graph" transform="scale(1 1) rotate(0) translate(4 554)">
<title>object</title>
<!-- Node1 -->
<g id="node1" class="node"><title>Node1</title>
<polygon fill="#bfbfbf" stroke="black" points="113.5,-492.5 113.5,-549.5 156.5,-549.5 156.5,-492.5 113.5,-492.5"/>
<text text-anchor="middle" x="135" y="-537.5" font-family="Helvetica,sans-Serif" font-size="10.00">object</text>
<polyline fill="none" stroke="black" points="113.5,-530.5 156.5,-530.5 "/>
<text text-anchor="middle" x="135" y="-518.5" font-family="Helvetica,sans-Serif" font-size="10.00"> </text>
<polyline fill="none" stroke="black" points="113.5,-511.5 156.5,-511.5 "/>
<text text-anchor="middle" x="135" y="-499.5" font-family="Helvetica,sans-Serif" font-size="10.00"> </text>
</g>
<!-- Node2 -->
<g id="node2" class="node"><title>Node2</title>
<g id="a_node2"><a xlink:href="class_disk_1_1__base_1_1_file.html" target="_top" xlink:title="{Disk._base.File\n|+ mode\l+ isDestructed\l|+ __init__()\l+ __str__()\l+ __repr__()\l+ __enter__()\l+ __exit__()\l+ getPath()\l+ isWritable()\l+ isClosed()\l+ destruct()\l+ reopen()\l}">
<polygon fill="none" stroke="black" points="27.5,-288.5 27.5,-455.5 112.5,-455.5 112.5,-288.5 27.5,-288.5"/>
<text text-anchor="middle" x="70" y="-443.5" font-family="Helvetica,sans-Serif" font-size="10.00">Disk._base.File</text>
<polyline fill="none" stroke="black" points="27.5,-436.5 112.5,-436.5 "/>
<text text-anchor="start" x="35.5" y="-424.5" font-family="Helvetica,sans-Serif" font-size="10.00">+ mode</text>
<text text-anchor="start" x="35.5" y="-413.5" font-family="Helvetica,sans-Serif" font-size="10.00">+ isDestructed</text>
<polyline fill="none" stroke="black" points="27.5,-406.5 112.5,-406.5 "/>
<text text-anchor="start" x="35.5" y="-394.5" font-family="Helvetica,sans-Serif" font-size="10.00">+ __init__()</text>
<text text-anchor="start" x="35.5" y="-383.5" font-family="Helvetica,sans-Serif" font-size="10.00">+ __str__()</text>
<text text-anchor="start" x="35.5" y="-372.5" font-family="Helvetica,sans-Serif" font-size="10.00">+ __repr__()</text>
<text text-anchor="start" x="35.5" y="-361.5" font-family="Helvetica,sans-Serif" font-size="10.00">+ __enter__()</text>
<text text-anchor="start" x="35.5" y="-350.5" font-family="Helvetica,sans-Serif" font-size="10.00">+ __exit__()</text>
<text text-anchor="start" x="35.5" y="-339.5" font-family="Helvetica,sans-Serif" font-size="10.00">+ getPath()</text>
<text text-anchor="start" x="35.5" y="-328.5" font-family="Helvetica,sans-Serif" font-size="10.00">+ isWritable()</text>
<text text-anchor="start" x="35.5" y="-317.5" font-family="Helvetica,sans-Serif" font-size="10.00">+ isClosed()</text>
<text text-anchor="start" x="35.5" y="-306.5" font-family="Helvetica,sans-Serif" font-size="10.00">+ destruct()</text>
<text text-anchor="start" x="35.5" y="-295.5" font-family="Helvetica,sans-Serif" font-size="10.00">+ reopen()</text>
</a>
</g>
</g>
<!-- Node1&#45;&gt;Node2 -->
<g id="edge1" class="edge"><title>Node1&#45;&gt;Node2</title>
<path fill="none" stroke="midnightblue" d="M118.716,-483.174C114.963,-474.684 110.821,-465.317 106.585,-455.738"/>
<polygon fill="none" stroke="midnightblue" points="115.529,-484.62 122.774,-492.35 121.931,-481.789 115.529,-484.62"/>
</g>
<!-- Node5 -->
<g id="node5" class="node"><title>Node5</title>
<g id="a_node5"><a xlink:href="class_disk_1_1__base_1_1_path_abstract.html" target="_top" xlink:title="{Disk._base.PathAbstract\n|+ path\l|+ __init__()\l+ asStr()\l+ __str__()\l+ __repr__()\l+ __add__()\l+ __radd__()\l+ __eq__()\l+ __hash__()\l+ __getattr__()\l+ splitAll()\l}">
<polygon fill="none" stroke="black" points="138,-294 138,-450 264,-450 264,-294 138,-294"/>
<text text-anchor="middle" x="201" y="-438" font-family="Helvetica,sans-Serif" font-size="10.00">Disk._base.PathAbstract</text>
<polyline fill="none" stroke="black" points="138,-431 264,-431 "/>
<text text-anchor="start" x="146" y="-419" font-family="Helvetica,sans-Serif" font-size="10.00">+ path</text>
<polyline fill="none" stroke="black" points="138,-412 264,-412 "/>
<text text-anchor="start" x="146" y="-400" font-family="Helvetica,sans-Serif" font-size="10.00">+ __init__()</text>
<text text-anchor="start" x="146" y="-389" font-family="Helvetica,sans-Serif" font-size="10.00">+ asStr()</text>
<text text-anchor="start" x="146" y="-378" font-family="Helvetica,sans-Serif" font-size="10.00">+ __str__()</text>
<text text-anchor="start" x="146" y="-367" font-family="Helvetica,sans-Serif" font-size="10.00">+ __repr__()</text>
<text text-anchor="start" x="146" y="-356" font-family="Helvetica,sans-Serif" font-size="10.00">+ __add__()</text>
<text text-anchor="start" x="146" y="-345" font-family="Helvetica,sans-Serif" font-size="10.00">+ __radd__()</text>
<text text-anchor="start" x="146" y="-334" font-family="Helvetica,sans-Serif" font-size="10.00">+ __eq__()</text>
<text text-anchor="start" x="146" y="-323" font-family="Helvetica,sans-Serif" font-size="10.00">+ __hash__()</text>
<text text-anchor="start" x="146" y="-312" font-family="Helvetica,sans-Serif" font-size="10.00">+ __getattr__()</text>
<text text-anchor="start" x="146" y="-301" font-family="Helvetica,sans-Serif" font-size="10.00">+ splitAll()</text>
</a>
</g>
</g>
<!-- Node1&#45;&gt;Node5 -->
<g id="edge4" class="edge"><title>Node1&#45;&gt;Node5</title>
<path fill="none" stroke="midnightblue" d="M151.578,-483.075C156.117,-472.968 161.211,-461.621 166.359,-450.156"/>
<polygon fill="none" stroke="midnightblue" points="148.317,-481.794 147.414,-492.35 154.703,-484.661 148.317,-481.794"/>
</g>
<!-- Node3 -->
<g id="node3" class="node"><title>Node3</title>
<g id="a_node3"><a xlink:href="class_disk_1_1_local_1_1___file_1_1_base_file.html" target="_top" xlink:title="Abstract concept of a file object. ">
<polygon fill="none" stroke="black" points="-0.5,-117 -0.5,-251 128.5,-251 128.5,-117 -0.5,-117"/>
<text text-anchor="middle" x="64" y="-239" font-family="Helvetica,sans-Serif" font-size="10.00">Disk.Local._File.BaseFile</text>
<polyline fill="none" stroke="black" points="-0.5,-232 128.5,-232 "/>
<text text-anchor="middle" x="64" y="-220" font-family="Helvetica,sans-Serif" font-size="10.00"> </text>
<polyline fill="none" stroke="black" points="-0.5,-213 128.5,-213 "/>
<text text-anchor="start" x="7.5" y="-201" font-family="Helvetica,sans-Serif" font-size="10.00">+ __init__()</text>
<text text-anchor="start" x="7.5" y="-190" font-family="Helvetica,sans-Serif" font-size="10.00">+ __enter__()</text>
<text text-anchor="start" x="7.5" y="-179" font-family="Helvetica,sans-Serif" font-size="10.00">+ __exit__()</text>
<text text-anchor="start" x="7.5" y="-168" font-family="Helvetica,sans-Serif" font-size="10.00">+ open()</text>
<text text-anchor="start" x="7.5" y="-157" font-family="Helvetica,sans-Serif" font-size="10.00">+ close()</text>
<text text-anchor="start" x="7.5" y="-146" font-family="Helvetica,sans-Serif" font-size="10.00">+ closed()</text>
<text text-anchor="start" x="7.5" y="-135" font-family="Helvetica,sans-Serif" font-size="10.00">+ isClosed()</text>
<text text-anchor="start" x="7.5" y="-124" font-family="Helvetica,sans-Serif" font-size="10.00">+ __getattr__()</text>
</a>
</g>
</g>
<!-- Node2&#45;&gt;Node3 -->
<g id="edge2" class="edge"><title>Node2&#45;&gt;Node3</title>
<path fill="none" stroke="midnightblue" d="M67.0035,-278.11C66.7109,-269.036 66.4181,-259.962 66.1365,-251.231"/>
<polygon fill="none" stroke="midnightblue" points="63.5127,-278.453 67.3334,-288.335 70.509,-278.227 63.5127,-278.453"/>
</g>
<!-- Node4 -->
<g id="node4" class="node"><title>Node4</title>
<g id="a_node4"><a xlink:href="class_disk_1_1_local_1_1___file_1_1_file.html" target="_top" xlink:title="Implementation of BaseFile using a FilePath instance to store the path. ">
<polygon fill="none" stroke="black" points="9,-11.5 9,-68.5 115,-68.5 115,-11.5 9,-11.5"/>
<text text-anchor="middle" x="62" y="-56.5" font-family="Helvetica,sans-Serif" font-size="10.00">Disk.Local._File.File</text>
<polyline fill="none" stroke="black" points="9,-49.5 115,-49.5 "/>
<text text-anchor="start" x="17" y="-37.5" font-family="Helvetica,sans-Serif" font-size="10.00">+ mode</text>
<polyline fill="none" stroke="black" points="9,-30.5 115,-30.5 "/>
<text text-anchor="start" x="17" y="-18.5" font-family="Helvetica,sans-Serif" font-size="10.00">+ __init__()</text>
</a>
</g>
</g>
<!-- Node3&#45;&gt;Node4 -->
<g id="edge3" class="edge"><title>Node3&#45;&gt;Node4</title>
<path fill="none" stroke="midnightblue" d="M62.929,-106.959C62.7353,-93.2051 62.5451,-79.705 62.3878,-68.5369"/>
<polygon fill="none" stroke="midnightblue" points="59.4297,-107.039 63.0703,-116.989 66.429,-106.94 59.4297,-107.039"/>
</g>
<!-- Node6 -->
<g id="node6" class="node"><title>Node6</title>
<g id="a_node6"><a xlink:href="class_disk_1_1__base_1_1_file_path.html" target="_top" xlink:title="{Disk._base.FilePath\n||+ __init__()\l+ asFile()\l+ create()\l+ copyDates()\l+ copy()\l+ move()\l+ rename()\l+ isBinary()\l}">
<polygon fill="none" stroke="black" points="148.5,-117 148.5,-251 253.5,-251 253.5,-117 148.5,-117"/>
<text text-anchor="middle" x="201" y="-239" font-family="Helvetica,sans-Serif" font-size="10.00">Disk._base.FilePath</text>
<polyline fill="none" stroke="black" points="148.5,-232 253.5,-232 "/>
<text text-anchor="middle" x="201" y="-220" font-family="Helvetica,sans-Serif" font-size="10.00"> </text>
<polyline fill="none" stroke="black" points="148.5,-213 253.5,-213 "/>
<text text-anchor="start" x="156.5" y="-201" font-family="Helvetica,sans-Serif" font-size="10.00">+ __init__()</text>
<text text-anchor="start" x="156.5" y="-190" font-family="Helvetica,sans-Serif" font-size="10.00">+ asFile()</text>
<text text-anchor="start" x="156.5" y="-179" font-family="Helvetica,sans-Serif" font-size="10.00">+ create()</text>
<text text-anchor="start" x="156.5" y="-168" font-family="Helvetica,sans-Serif" font-size="10.00">+ copyDates()</text>
<text text-anchor="start" x="156.5" y="-157" font-family="Helvetica,sans-Serif" font-size="10.00">+ copy()</text>
<text text-anchor="start" x="156.5" y="-146" font-family="Helvetica,sans-Serif" font-size="10.00">+ move()</text>
<text text-anchor="start" x="156.5" y="-135" font-family="Helvetica,sans-Serif" font-size="10.00">+ rename()</text>
<text text-anchor="start" x="156.5" y="-124" font-family="Helvetica,sans-Serif" font-size="10.00">+ isBinary()</text>
</a>
</g>
</g>
<!-- Node5&#45;&gt;Node6 -->
<g id="edge5" class="edge"><title>Node5&#45;&gt;Node6</title>
<path fill="none" stroke="midnightblue" d="M201,-283.704C201,-272.73 201,-261.65 201,-251.078"/>
<polygon fill="none" stroke="midnightblue" points="197.5,-283.735 201,-293.735 204.5,-283.735 197.5,-283.735"/>
</g>
<!-- Node8 -->
<g id="node8" class="node"><title>Node8</title>
<g id="a_node8"><a xlink:href="class_disk_1_1__base_1_1_folder_path.html" target="_top" xlink:title="Abstract concept of a folder path. ">
<polygon fill="none" stroke="black" points="287,-122.5 287,-245.5 405,-245.5 405,-122.5 287,-122.5"/>
<text text-anchor="middle" x="346" y="-233.5" font-family="Helvetica,sans-Serif" font-size="10.00">Disk._base.FolderPath</text>
<polyline fill="none" stroke="black" points="287,-226.5 405,-226.5 "/>
<text text-anchor="middle" x="346" y="-214.5" font-family="Helvetica,sans-Serif" font-size="10.00"> </text>
<polyline fill="none" stroke="black" points="287,-207.5 405,-207.5 "/>
<text text-anchor="start" x="295" y="-195.5" font-family="Helvetica,sans-Serif" font-size="10.00">+ __init__()</text>
<text text-anchor="start" x="295" y="-184.5" font-family="Helvetica,sans-Serif" font-size="10.00">+ copy()</text>
<text text-anchor="start" x="295" y="-173.5" font-family="Helvetica,sans-Serif" font-size="10.00">+ create()</text>
<text text-anchor="start" x="295" y="-162.5" font-family="Helvetica,sans-Serif" font-size="10.00">+ rmtree()</text>
<text text-anchor="start" x="295" y="-151.5" font-family="Helvetica,sans-Serif" font-size="10.00">+ remove()</text>
<text text-anchor="start" x="295" y="-140.5" font-family="Helvetica,sans-Serif" font-size="10.00">+ mkdirs()</text>
<text text-anchor="start" x="295" y="-129.5" font-family="Helvetica,sans-Serif" font-size="10.00">+ walk()</text>
</a>
</g>
</g>
<!-- Node5&#45;&gt;Node8 -->
<g id="edge7" class="edge"><title>Node5&#45;&gt;Node8</title>
<path fill="none" stroke="midnightblue" d="M267.433,-285.783C278.008,-272.217 288.757,-258.429 298.77,-245.585"/>
<polygon fill="none" stroke="midnightblue" points="264.621,-283.697 261.233,-293.735 270.142,-288 264.621,-283.697"/>
</g>
<!-- Node7 -->
<g id="node7" class="node"><title>Node7</title>
<g id="a_node7"><a xlink:href="class_disk_1_1_local_1_1___paths_1_1_file_path.html" target="_top" xlink:title="A locally accessible file path. ">
<polygon fill="none" stroke="black" points="133,-0.5 133,-79.5 269,-79.5 269,-0.5 133,-0.5"/>
<text text-anchor="middle" x="201" y="-67.5" font-family="Helvetica,sans-Serif" font-size="10.00">Disk.Local._Paths.FilePath</text>
<polyline fill="none" stroke="black" points="133,-60.5 269,-60.5 "/>
<text text-anchor="middle" x="201" y="-48.5" font-family="Helvetica,sans-Serif" font-size="10.00"> </text>
<polyline fill="none" stroke="black" points="133,-41.5 269,-41.5 "/>
<text text-anchor="start" x="141" y="-29.5" font-family="Helvetica,sans-Serif" font-size="10.00">+ __init__()</text>
<text text-anchor="start" x="141" y="-18.5" font-family="Helvetica,sans-Serif" font-size="10.00">+ asFile()</text>
<text text-anchor="start" x="141" y="-7.5" font-family="Helvetica,sans-Serif" font-size="10.00">+ move()</text>
</a>
</g>
</g>
<!-- Node6&#45;&gt;Node7 -->
<g id="edge6" class="edge"><title>Node6&#45;&gt;Node7</title>
<path fill="none" stroke="midnightblue" d="M201,-106.816C201,-97.4566 201,-88.2179 201,-79.7552"/>
<polygon fill="none" stroke="midnightblue" points="197.5,-106.988 201,-116.989 204.5,-106.989 197.5,-106.988"/>
</g>
<!-- Node9 -->
<g id="node9" class="node"><title>Node9</title>
<g id="a_node9"><a xlink:href="class_disk_1_1_local_1_1___paths_1_1_folder_path.html" target="_top" xlink:title="A locally accessible folder path. ">
<polygon fill="none" stroke="black" points="287,-6 287,-74 435,-74 435,-6 287,-6"/>
<text text-anchor="middle" x="361" y="-62" font-family="Helvetica,sans-Serif" font-size="10.00">Disk.Local._Paths.FolderPath</text>
<polyline fill="none" stroke="black" points="287,-55 435,-55 "/>
<text text-anchor="middle" x="361" y="-43" font-family="Helvetica,sans-Serif" font-size="10.00"> </text>
<polyline fill="none" stroke="black" points="287,-36 435,-36 "/>
<text text-anchor="start" x="295" y="-24" font-family="Helvetica,sans-Serif" font-size="10.00">+ __init__()</text>
<text text-anchor="start" x="295" y="-13" font-family="Helvetica,sans-Serif" font-size="10.00">+ rmtree()</text>
</a>
</g>
</g>
<!-- Node8&#45;&gt;Node9 -->
<g id="edge8" class="edge"><title>Node8&#45;&gt;Node9</title>
<path fill="none" stroke="midnightblue" d="M353.479,-112.197C354.889,-98.8548 356.299,-85.5031 357.511,-74.0268"/>
<polygon fill="none" stroke="midnightblue" points="349.975,-112.055 352.405,-122.367 356.936,-112.79 349.975,-112.055"/>
</g>
</g>
</svg>
