<?xml version="1.0" encoding="UTF-8" standalone="no"?>
<!DOCTYPE svg PUBLIC "-//W3C//DTD SVG 1.1//EN"
 "http://www.w3.org/Graphics/SVG/1.1/DTD/svg11.dtd">
<!-- Generated by graphviz version 2.28.0 (20121214.2254)
 -->
<!-- Title: Disk._base.FilePath.copy Pages: 1 -->
<svg width="278pt" height="87pt"
 viewBox="0.00 0.00 278.00 87.00" xmlns="http://www.w3.org/2000/svg" xmlns:xlink="http://www.w3.org/1999/xlink">
<g id="graph1" class="graph" transform="scale(1 1) rotate(0) translate(4 83)">
<title>Disk._base.FilePath.copy</title>
<!-- Node1 -->
<g id="node1" class="node"><title>Node1</title>
<polygon fill="#bfbfbf" stroke="black" points="0.5,-29.5 0.5,-48.5 125.5,-48.5 125.5,-29.5 0.5,-29.5"/>
<text text-anchor="middle" x="63" y="-36.5" font-family="Helvetica,sans-Serif" font-size="10.00">Disk._base.FilePath.copy</text>
</g>
<!-- Node2 -->
<g id="node3" class="node"><title>Node2</title>
<a xlink:href="class_disk_1_1__base_1_1_file_path.html#abb49e5731ed1356e77236c00a49c2e3a" target="_top" xlink:title="Disk._base.FilePath.\l_preCopy_getFileObj">
<polygon fill="none" stroke="black" points="162.5,-49 162.5,-79 269.5,-79 269.5,-49 162.5,-49"/>
<text text-anchor="start" x="170.5" y="-67" font-family="Helvetica,sans-Serif" font-size="10.00">Disk._base.FilePath.</text>
<text text-anchor="middle" x="216" y="-56" font-family="Helvetica,sans-Serif" font-size="10.00">_preCopy_getFileObj</text>
</a>
</g>
<!-- Node1&#45;&gt;Node2 -->
<g id="edge2" class="edge"><title>Node1&#45;&gt;Node2</title>
<path fill="none" stroke="midnightblue" d="M121.517,-48.5227C131.519,-50.1786 141.967,-51.9085 152.104,-53.5867"/>
<polygon fill="midnightblue" stroke="midnightblue" points="151.671,-57.0626 162.108,-55.243 152.814,-50.1566 151.671,-57.0626"/>
</g>
<!-- Node3 -->
<g id="node5" class="node"><title>Node3</title>
<a xlink:href="class_disk_1_1__base_1_1_file_path.html#ab1a670ae97df6f4053dcbb82d4ced7d1" target="_top" xlink:title="Disk._base.FilePath.\l_storeData">
<polygon fill="none" stroke="black" points="164,-0 164,-30 268,-30 268,-0 164,-0"/>
<text text-anchor="start" x="172" y="-18" font-family="Helvetica,sans-Serif" font-size="10.00">Disk._base.FilePath.</text>
<text text-anchor="middle" x="216" y="-7" font-family="Helvetica,sans-Serif" font-size="10.00">_storeData</text>
</a>
</g>
<!-- Node1&#45;&gt;Node3 -->
<g id="edge4" class="edge"><title>Node1&#45;&gt;Node3</title>
<path fill="none" stroke="midnightblue" d="M124.113,-29.4456C133.88,-27.8933 144.005,-26.284 153.797,-24.7276"/>
<polygon fill="midnightblue" stroke="midnightblue" points="154.525,-28.1559 163.852,-23.1295 153.427,-21.2427 154.525,-28.1559"/>
</g>
</g>
</svg>
