<?xml version="1.0" encoding="UTF-8" standalone="no"?>
<!DOCTYPE svg PUBLIC "-//W3C//DTD SVG 1.1//EN"
 "http://www.w3.org/Graphics/SVG/1.1/DTD/svg11.dtd">
<!-- Generated by graphviz version 2.28.0 (20121214.2254)
 -->
<!-- Title: Disk.SSH._Walker.SSHFolderWalker Pages: 1 -->
<svg width="150pt" height="172pt"
 viewBox="0.00 0.00 150.00 172.00" xmlns="http://www.w3.org/2000/svg" xmlns:xlink="http://www.w3.org/1999/xlink">
<g id="graph1" class="graph" transform="scale(1 1) rotate(0) translate(4 168)">
<title>Disk.SSH._Walker.SSHFolderWalker</title>
<!-- Node1 -->
<g id="node1" class="node"><title>Node1</title>
<polygon fill="#bfbfbf" stroke="black" points="0,-1 0,-69 142,-69 142,-1 0,-1"/>
<text text-anchor="start" x="8" y="-57" font-family="Helvetica,sans-Serif" font-size="10.00">Disk.SSH._Walker.SSHFolder</text>
<text text-anchor="middle" x="71" y="-46" font-family="Helvetica,sans-Serif" font-size="10.00">Walker</text>
<polyline fill="none" stroke="black" points="0,-39 142,-39 "/>
<text text-anchor="middle" x="71" y="-27" font-family="Helvetica,sans-Serif" font-size="10.00"> </text>
<polyline fill="none" stroke="black" points="0,-20 142,-20 "/>
<text text-anchor="start" x="8" y="-8" font-family="Helvetica,sans-Serif" font-size="10.00">+ __init__()</text>
</g>
<!-- Node2 -->
<g id="node2" class="node"><title>Node2</title>
<polygon fill="none" stroke="#bfbfbf" points="30.5,-106.5 30.5,-163.5 111.5,-163.5 111.5,-106.5 30.5,-106.5"/>
<text text-anchor="middle" x="71" y="-151.5" font-family="Helvetica,sans-Serif" font-size="10.00">WalkerAbstract</text>
<polyline fill="none" stroke="#bfbfbf" points="30.5,-144.5 111.5,-144.5 "/>
<text text-anchor="middle" x="71" y="-132.5" font-family="Helvetica,sans-Serif" font-size="10.00"> </text>
<polyline fill="none" stroke="#bfbfbf" points="30.5,-125.5 111.5,-125.5 "/>
<text text-anchor="middle" x="71" y="-113.5" font-family="Helvetica,sans-Serif" font-size="10.00"> </text>
</g>
<!-- Node2&#45;&gt;Node1 -->
<g id="edge2" class="edge"><title>Node2&#45;&gt;Node1</title>
<path fill="none" stroke="midnightblue" d="M71,-96.3023C71,-87.3951 71,-77.9608 71,-69.2659"/>
<polygon fill="none" stroke="midnightblue" points="67.5001,-96.4407 71,-106.441 74.5001,-96.4408 67.5001,-96.4407"/>
</g>
</g>
</svg>
