<?xml version="1.0" encoding="UTF-8" standalone="no"?>
<!DOCTYPE svg PUBLIC "-//W3C//DTD SVG 1.1//EN"
 "http://www.w3.org/Graphics/SVG/1.1/DTD/svg11.dtd">
<!-- Generated by graphviz version 2.30.1 (20130221.2233)
 -->
<!-- Title: Disk.ConfigFile.Parser_m1.ParseException Pages: 1 -->
<svg width="124pt" height="182pt"
 viewBox="0.00 0.00 124.00 182.00" xmlns="http://www.w3.org/2000/svg" xmlns:xlink="http://www.w3.org/1999/xlink">
<g id="graph0" class="graph" transform="scale(1 1) rotate(0) translate(4 178)">
<title>Disk.ConfigFile.Parser_m1.ParseException</title>
<!-- Node1 -->
<g id="node1" class="node"><title>Node1</title>
<polygon fill="#bfbfbf" stroke="black" points="0,-0.5 0,-79.5 116,-79.5 116,-0.5 0,-0.5"/>
<text text-anchor="start" x="8" y="-67.5" font-family="Helvetica,sans-Serif" font-size="10.00">Disk.ConfigFile.Parser</text>
<text text-anchor="middle" x="58" y="-56.5" font-family="Helvetica,sans-Serif" font-size="10.00">_m1.ParseException</text>
<polyline fill="none" stroke="black" points="0,-49.5 116,-49.5 "/>
<text text-anchor="start" x="8" y="-37.5" font-family="Helvetica,sans-Serif" font-size="10.00">+ message</text>
<polyline fill="none" stroke="black" points="0,-30.5 116,-30.5 "/>
<text text-anchor="start" x="8" y="-18.5" font-family="Helvetica,sans-Serif" font-size="10.00">+ __init__()</text>
<text text-anchor="start" x="8" y="-7.5" font-family="Helvetica,sans-Serif" font-size="10.00">+ __str__()</text>
</g>
<!-- Node2 -->
<g id="node2" class="node"><title>Node2</title>
<g id="a_node2"><a xlink:href="class_exception.html" target="_top" xlink:title="{Exception\n||}">
<polygon fill="none" stroke="black" points="28,-116.5 28,-173.5 88,-173.5 88,-116.5 28,-116.5"/>
<text text-anchor="middle" x="58" y="-161.5" font-family="Helvetica,sans-Serif" font-size="10.00">Exception</text>
<polyline fill="none" stroke="black" points="28,-154.5 88,-154.5 "/>
<text text-anchor="middle" x="58" y="-142.5" font-family="Helvetica,sans-Serif" font-size="10.00"> </text>
<polyline fill="none" stroke="black" points="28,-135.5 88,-135.5 "/>
<text text-anchor="middle" x="58" y="-123.5" font-family="Helvetica,sans-Serif" font-size="10.00"> </text>
</a>
</g>
</g>
<!-- Node2&#45;&gt;Node1 -->
<g id="edge1" class="edge"><title>Node2&#45;&gt;Node1</title>
<path fill="none" stroke="midnightblue" d="M58,-106.156C58,-97.4733 58,-88.2318 58,-79.5205"/>
<polygon fill="none" stroke="midnightblue" points="54.5001,-106.398 58,-116.398 61.5001,-106.398 54.5001,-106.398"/>
</g>
</g>
</svg>
