<?xml version="1.0" encoding="UTF-8" standalone="no"?>
<!DOCTYPE svg PUBLIC "-//W3C//DTD SVG 1.1//EN"
 "http://www.w3.org/Graphics/SVG/1.1/DTD/svg11.dtd">
<!-- Generated by graphviz version 2.30.1 (20130219.2202)
 -->
<!-- Title: Disk.SSH._Paths.FolderPath Pages: 1 -->
<svg width="312pt" height="514pt"
 viewBox="0.00 0.00 312.00 514.00" xmlns="http://www.w3.org/2000/svg" xmlns:xlink="http://www.w3.org/1999/xlink">
<g id="graph0" class="graph" transform="scale(1 1) rotate(0) translate(4 510)">
<title>Disk.SSH._Paths.FolderPath</title>
<!-- Node1 -->
<g id="node1" class="node"><title>Node1</title>
<polygon fill="#bfbfbf" stroke="black" points="94,-1 94,-69 232,-69 232,-1 94,-1"/>
<text text-anchor="middle" x="163" y="-57" font-family="Helvetica,sans-Serif" font-size="10.00">Disk.SSH._Paths.FolderPath</text>
<polyline fill="none" stroke="black" points="94,-50 232,-50 "/>
<text text-anchor="middle" x="163" y="-38" font-family="Helvetica,sans-Serif" font-size="10.00"> </text>
<polyline fill="none" stroke="black" points="94,-31 232,-31 "/>
<text text-anchor="start" x="102" y="-19" font-family="Helvetica,sans-Serif" font-size="10.00">+ __init__()</text>
<text text-anchor="start" x="102" y="-8" font-family="Helvetica,sans-Serif" font-size="10.00">+ rmtree()</text>
</g>
<!-- Node2 -->
<g id="node2" class="node"><title>Node2</title>
<g id="a_node2"><a xlink:href="class_disk_1_1_s_s_h_1_1___paths_1_1_s_s_hpath_abstract.html" target="_top" xlink:title="{Disk.SSH._Paths.SSHpathAbstract\n|+ connection\l|+ __init__()\l}">
<polygon fill="none" stroke="black" points="0,-139.5 0,-196.5 168,-196.5 168,-139.5 0,-139.5"/>
<text text-anchor="middle" x="84" y="-184.5" font-family="Helvetica,sans-Serif" font-size="10.00">Disk.SSH._Paths.SSHpathAbstract</text>
<polyline fill="none" stroke="black" points="0,-177.5 168,-177.5 "/>
<text text-anchor="start" x="8" y="-165.5" font-family="Helvetica,sans-Serif" font-size="10.00">+ connection</text>
<polyline fill="none" stroke="black" points="0,-158.5 168,-158.5 "/>
<text text-anchor="start" x="8" y="-146.5" font-family="Helvetica,sans-Serif" font-size="10.00">+ __init__()</text>
</a>
</g>
</g>
<!-- Node2&#45;&gt;Node1 -->
<g id="edge1" class="edge"><title>Node2&#45;&gt;Node1</title>
<path fill="none" stroke="midnightblue" d="M106.037,-130.458C117.596,-111.29 131.654,-87.979 142.912,-69.3109"/>
<polygon fill="none" stroke="midnightblue" points="102.921,-128.847 100.754,-139.218 108.915,-132.462 102.921,-128.847"/>
</g>
<!-- Node3 -->
<g id="node3" class="node"><title>Node3</title>
<g id="a_node3"><a xlink:href="class_disk_1_1__base_1_1_folder_path.html" target="_top" xlink:title="Abstract concept of a folder path.">
<polygon fill="none" stroke="black" points="186.5,-106.5 186.5,-229.5 299.5,-229.5 299.5,-106.5 186.5,-106.5"/>
<text text-anchor="middle" x="243" y="-217.5" font-family="Helvetica,sans-Serif" font-size="10.00">Disk._base.FolderPath</text>
<polyline fill="none" stroke="black" points="186.5,-210.5 299.5,-210.5 "/>
<text text-anchor="middle" x="243" y="-198.5" font-family="Helvetica,sans-Serif" font-size="10.00"> </text>
<polyline fill="none" stroke="black" points="186.5,-191.5 299.5,-191.5 "/>
<text text-anchor="start" x="194.5" y="-179.5" font-family="Helvetica,sans-Serif" font-size="10.00">+ __init__()</text>
<text text-anchor="start" x="194.5" y="-168.5" font-family="Helvetica,sans-Serif" font-size="10.00">+ copy()</text>
<text text-anchor="start" x="194.5" y="-157.5" font-family="Helvetica,sans-Serif" font-size="10.00">+ create()</text>
<text text-anchor="start" x="194.5" y="-146.5" font-family="Helvetica,sans-Serif" font-size="10.00">+ rmtree()</text>
<text text-anchor="start" x="194.5" y="-135.5" font-family="Helvetica,sans-Serif" font-size="10.00">+ remove()</text>
<text text-anchor="start" x="194.5" y="-124.5" font-family="Helvetica,sans-Serif" font-size="10.00">+ mkdirs()</text>
<text text-anchor="start" x="194.5" y="-113.5" font-family="Helvetica,sans-Serif" font-size="10.00">+ walk()</text>
</a>
</g>
</g>
<!-- Node3&#45;&gt;Node1 -->
<g id="edge2" class="edge"><title>Node3&#45;&gt;Node1</title>
<path fill="none" stroke="midnightblue" d="M200.691,-97.7198C194.605,-87.7535 188.59,-77.9042 183.213,-69.0991"/>
<polygon fill="none" stroke="midnightblue" points="197.845,-99.7747 206.044,-106.485 203.819,-96.1264 197.845,-99.7747"/>
</g>
<!-- Node4 -->
<g id="node4" class="node"><title>Node4</title>
<g id="a_node4"><a xlink:href="class_disk_1_1__base_1_1_path_abstract.html" target="_top" xlink:title="{Disk._base.PathAbstract\n|+ path\l|+ __init__()\l+ asStr()\l+ __str__()\l+ __repr__()\l+ __add__()\l+ __radd__()\l+ __eq__()\l+ __hash__()\l+ __getattr__()\l}">
<polygon fill="none" stroke="black" points="181.5,-266.5 181.5,-411.5 304.5,-411.5 304.5,-266.5 181.5,-266.5"/>
<text text-anchor="middle" x="243" y="-399.5" font-family="Helvetica,sans-Serif" font-size="10.00">Disk._base.PathAbstract</text>
<polyline fill="none" stroke="black" points="181.5,-392.5 304.5,-392.5 "/>
<text text-anchor="start" x="189.5" y="-380.5" font-family="Helvetica,sans-Serif" font-size="10.00">+ path</text>
<polyline fill="none" stroke="black" points="181.5,-373.5 304.5,-373.5 "/>
<text text-anchor="start" x="189.5" y="-361.5" font-family="Helvetica,sans-Serif" font-size="10.00">+ __init__()</text>
<text text-anchor="start" x="189.5" y="-350.5" font-family="Helvetica,sans-Serif" font-size="10.00">+ asStr()</text>
<text text-anchor="start" x="189.5" y="-339.5" font-family="Helvetica,sans-Serif" font-size="10.00">+ __str__()</text>
<text text-anchor="start" x="189.5" y="-328.5" font-family="Helvetica,sans-Serif" font-size="10.00">+ __repr__()</text>
<text text-anchor="start" x="189.5" y="-317.5" font-family="Helvetica,sans-Serif" font-size="10.00">+ __add__()</text>
<text text-anchor="start" x="189.5" y="-306.5" font-family="Helvetica,sans-Serif" font-size="10.00">+ __radd__()</text>
<text text-anchor="start" x="189.5" y="-295.5" font-family="Helvetica,sans-Serif" font-size="10.00">+ __eq__()</text>
<text text-anchor="start" x="189.5" y="-284.5" font-family="Helvetica,sans-Serif" font-size="10.00">+ __hash__()</text>
<text text-anchor="start" x="189.5" y="-273.5" font-family="Helvetica,sans-Serif" font-size="10.00">+ __getattr__()</text>
</a>
</g>
</g>
<!-- Node4&#45;&gt;Node3 -->
<g id="edge3" class="edge"><title>Node4&#45;&gt;Node3</title>
<path fill="none" stroke="midnightblue" d="M243,-256.232C243,-247.254 243,-238.235 243,-229.58"/>
<polygon fill="none" stroke="midnightblue" points="239.5,-256.329 243,-266.329 246.5,-256.329 239.5,-256.329"/>
</g>
<!-- Node5 -->
<g id="node5" class="node"><title>Node5</title>
<g id="a_node5"><a xlink:href="classobject.html" target="_top" xlink:title="{object\n||}">
<polygon fill="none" stroke="black" points="222,-448.5 222,-505.5 264,-505.5 264,-448.5 222,-448.5"/>
<text text-anchor="middle" x="243" y="-493.5" font-family="Helvetica,sans-Serif" font-size="10.00">object</text>
<polyline fill="none" stroke="black" points="222,-486.5 264,-486.5 "/>
<text text-anchor="middle" x="243" y="-474.5" font-family="Helvetica,sans-Serif" font-size="10.00"> </text>
<polyline fill="none" stroke="black" points="222,-467.5 264,-467.5 "/>
<text text-anchor="middle" x="243" y="-455.5" font-family="Helvetica,sans-Serif" font-size="10.00"> </text>
</a>
</g>
</g>
<!-- Node5&#45;&gt;Node4 -->
<g id="edge4" class="edge"><title>Node5&#45;&gt;Node4</title>
<path fill="none" stroke="midnightblue" d="M243,-438.356C243,-429.999 243,-420.872 243,-411.656"/>
<polygon fill="none" stroke="midnightblue" points="239.5,-438.478 243,-448.478 246.5,-438.478 239.5,-438.478"/>
</g>
</g>
</svg>
