<?xml version="1.0" encoding="UTF-8" standalone="no"?>
<!DOCTYPE svg PUBLIC "-//W3C//DTD SVG 1.1//EN"
 "http://www.w3.org/Graphics/SVG/1.1/DTD/svg11.dtd">
<!-- Generated by graphviz version 2.30.1 (20130221.2233)
 -->
<!-- Title: Disk._base.OSFuncs Pages: 1 -->
<svg width="194pt" height="432pt"
 viewBox="0.00 0.00 194.00 432.00" xmlns="http://www.w3.org/2000/svg" xmlns:xlink="http://www.w3.org/1999/xlink">
<g id="graph0" class="graph" transform="scale(1 1) rotate(0) translate(4 428)">
<title>Disk._base.OSFuncs</title>
<!-- Node1 -->
<g id="node1" class="node"><title>Node1</title>
<polygon fill="#bfbfbf" stroke="black" points="-0.5,-1 -0.5,-223 186.5,-223 186.5,-1 -0.5,-1"/>
<text text-anchor="middle" x="93" y="-211" font-family="Helvetica,sans-Serif" font-size="10.00">Disk._base.OSFuncs</text>
<polyline fill="none" stroke="black" points="-0.5,-204 186.5,-204 "/>
<text text-anchor="start" x="7.5" y="-192" font-family="Helvetica,sans-Serif" font-size="10.00">+ SINGLE_PATH_ARG</text>
<text text-anchor="start" x="7.5" y="-181" font-family="Helvetica,sans-Serif" font-size="10.00">+ MULTI_PATH_ARG</text>
<text text-anchor="start" x="7.5" y="-170" font-family="Helvetica,sans-Serif" font-size="10.00">+ SPECIAL_PATH_ARG</text>
<text text-anchor="start" x="7.5" y="-159" font-family="Helvetica,sans-Serif" font-size="10.00">+ ALL_FUNCS</text>
<text text-anchor="start" x="7.5" y="-148" font-family="Helvetica,sans-Serif" font-size="10.00">+ LOCAL</text>
<text text-anchor="start" x="7.5" y="-137" font-family="Helvetica,sans-Serif" font-size="10.00">+ REMOTE</text>
<text text-anchor="start" x="7.5" y="-126" font-family="Helvetica,sans-Serif" font-size="10.00">+ REMOTE_UNSUPPORTED</text>
<text text-anchor="start" x="7.5" y="-115" font-family="Helvetica,sans-Serif" font-size="10.00">+ INPUTARGS_FILE</text>
<text text-anchor="start" x="7.5" y="-104" font-family="Helvetica,sans-Serif" font-size="10.00">+ INPUTARGS_FOLDER</text>
<text text-anchor="start" x="7.5" y="-93" font-family="Helvetica,sans-Serif" font-size="10.00">+ INPUTARGS_FILE_FOLDER</text>
<text text-anchor="start" x="7.5" y="-82" font-family="Helvetica,sans-Serif" font-size="10.00">+ RETURN_FILE</text>
<text text-anchor="start" x="7.5" y="-71" font-family="Helvetica,sans-Serif" font-size="10.00">+ RETURN_FOLDER</text>
<text text-anchor="start" x="7.5" y="-60" font-family="Helvetica,sans-Serif" font-size="10.00">+ RETURN_SAME_AS_INPUT_TYPE</text>
<text text-anchor="start" x="7.5" y="-49" font-family="Helvetica,sans-Serif" font-size="10.00">+ RETURN_SPECIAL</text>
<text text-anchor="start" x="7.5" y="-38" font-family="Helvetica,sans-Serif" font-size="10.00">+ RETURN_OTHER</text>
<polyline fill="none" stroke="black" points="-0.5,-31 186.5,-31 "/>
<text text-anchor="start" x="7.5" y="-19" font-family="Helvetica,sans-Serif" font-size="10.00">+ __init__()</text>
<text text-anchor="start" x="7.5" y="-8" font-family="Helvetica,sans-Serif" font-size="10.00">+ getBuiltinFunction()</text>
</g>
<!-- Node2 -->
<g id="node2" class="node"><title>Node2</title>
<g id="a_node2"><a xlink:href="class_disk_1_1__base_1_1_path_funcs_abstract.html" target="_top" xlink:title="{Disk._base.PathFuncsAbstract\n||+ isLocal()\l+ getArgTypes()\l}">
<polygon fill="none" stroke="black" points="16.5,-261 16.5,-329 169.5,-329 169.5,-261 16.5,-261"/>
<text text-anchor="middle" x="93" y="-317" font-family="Helvetica,sans-Serif" font-size="10.00">Disk._base.PathFuncsAbstract</text>
<polyline fill="none" stroke="black" points="16.5,-310 169.5,-310 "/>
<text text-anchor="middle" x="93" y="-298" font-family="Helvetica,sans-Serif" font-size="10.00"> </text>
<polyline fill="none" stroke="black" points="16.5,-291 169.5,-291 "/>
<text text-anchor="start" x="24.5" y="-279" font-family="Helvetica,sans-Serif" font-size="10.00">+ isLocal()</text>
<text text-anchor="start" x="24.5" y="-268" font-family="Helvetica,sans-Serif" font-size="10.00">+ getArgTypes()</text>
</a>
</g>
</g>
<!-- Node2&#45;&gt;Node1 -->
<g id="edge1" class="edge"><title>Node2&#45;&gt;Node1</title>
<path fill="none" stroke="midnightblue" d="M93,-250.792C93,-242.242 93,-232.908 93,-223.259"/>
<polygon fill="none" stroke="midnightblue" points="89.5001,-250.802 93,-260.802 96.5001,-250.802 89.5001,-250.802"/>
</g>
<!-- Node3 -->
<g id="node3" class="node"><title>Node3</title>
<polygon fill="none" stroke="#bfbfbf" points="34,-366.5 34,-423.5 152,-423.5 152,-366.5 34,-366.5"/>
<text text-anchor="middle" x="93" y="-411.5" font-family="Helvetica,sans-Serif" font-size="10.00">Abstraction::Descriptor</text>
<polyline fill="none" stroke="#bfbfbf" points="34,-404.5 152,-404.5 "/>
<text text-anchor="middle" x="93" y="-392.5" font-family="Helvetica,sans-Serif" font-size="10.00"> </text>
<polyline fill="none" stroke="#bfbfbf" points="34,-385.5 152,-385.5 "/>
<text text-anchor="middle" x="93" y="-373.5" font-family="Helvetica,sans-Serif" font-size="10.00"> </text>
</g>
<!-- Node3&#45;&gt;Node2 -->
<g id="edge2" class="edge"><title>Node3&#45;&gt;Node2</title>
<path fill="none" stroke="midnightblue" d="M93,-356.302C93,-347.395 93,-337.961 93,-329.266"/>
<polygon fill="none" stroke="midnightblue" points="89.5001,-356.441 93,-366.441 96.5001,-356.441 89.5001,-356.441"/>
</g>
</g>
</svg>
