<?xml version="1.0" encoding="UTF-8" standalone="no"?>
<!DOCTYPE svg PUBLIC "-//W3C//DTD SVG 1.1//EN"
 "http://www.w3.org/Graphics/SVG/1.1/DTD/svg11.dtd">
<!-- Generated by graphviz version 2.28.0 (20121214.2254)
 -->
<!-- Title: Disk.Local._Walker.LocalFolderWalker Pages: 1 -->
<svg width="142pt" height="184pt"
 viewBox="0.00 0.00 142.00 184.00" xmlns="http://www.w3.org/2000/svg" xmlns:xlink="http://www.w3.org/1999/xlink">
<g id="graph1" class="graph" transform="scale(1 1) rotate(0) translate(4 180)">
<title>Disk.Local._Walker.LocalFolderWalker</title>
<!-- Node1 -->
<g id="node1" class="node"><title>Node1</title>
<polygon fill="#bfbfbf" stroke="black" points="6,-1 6,-69 128,-69 128,-1 6,-1"/>
<text text-anchor="start" x="14" y="-57" font-family="Helvetica,sans-Serif" font-size="10.00">Disk.Local._Walker.Local</text>
<text text-anchor="middle" x="67" y="-46" font-family="Helvetica,sans-Serif" font-size="10.00">FolderWalker</text>
<polyline fill="none" stroke="black" points="6,-39 128,-39 "/>
<text text-anchor="middle" x="67" y="-27" font-family="Helvetica,sans-Serif" font-size="10.00"> </text>
<polyline fill="none" stroke="black" points="6,-20 128,-20 "/>
<text text-anchor="start" x="14" y="-8" font-family="Helvetica,sans-Serif" font-size="10.00">+ __init__()</text>
</g>
<!-- Node2 -->
<g id="node2" class="node"><title>Node2</title>
<a xlink:href="class_disk_1_1_walker_1_1_walker_abstract.html" target="_top" xlink:title="Gets a list of files and/or folders in a folder.">
<polygon fill="none" stroke="black" points="0,-107 0,-175 134,-175 134,-107 0,-107"/>
<text text-anchor="middle" x="67" y="-163" font-family="Helvetica,sans-Serif" font-size="10.00">Disk.Walker.WalkerAbstract</text>
<polyline fill="none" stroke="black" points="0,-156 134,-156 "/>
<text text-anchor="start" x="8" y="-144" font-family="Helvetica,sans-Serif" font-size="10.00">+ allWalkers</text>
<polyline fill="none" stroke="black" points="0,-137 134,-137 "/>
<text text-anchor="start" x="8" y="-125" font-family="Helvetica,sans-Serif" font-size="10.00">+ __init__()</text>
<text text-anchor="start" x="8" y="-114" font-family="Helvetica,sans-Serif" font-size="10.00">+ walk()</text>
</a>
</g>
<!-- Node2&#45;&gt;Node1 -->
<g id="edge2" class="edge"><title>Node2&#45;&gt;Node1</title>
<path fill="none" stroke="midnightblue" d="M67,-96.6737C67,-87.5025 67,-77.9608 67,-69.2336"/>
<polygon fill="none" stroke="midnightblue" points="63.5001,-96.8078 67,-106.808 70.5001,-96.8078 63.5001,-96.8078"/>
</g>
</g>
</svg>
