<?xml version="1.0" encoding="UTF-8" standalone="no"?>
<!DOCTYPE svg PUBLIC "-//W3C//DTD SVG 1.1//EN"
 "http://www.w3.org/Graphics/SVG/1.1/DTD/svg11.dtd">
<!-- Generated by graphviz version 2.30.1 (20130219.2202)
 -->
<!-- Title: Disk._base.PathAbstract.asStr Pages: 1 -->
<svg width="348pt" height="115pt"
 viewBox="0.00 0.00 348.00 115.00" xmlns="http://www.w3.org/2000/svg" xmlns:xlink="http://www.w3.org/1999/xlink">
<g id="graph0" class="graph" transform="scale(1 1) rotate(0) translate(4 111)">
<title>Disk._base.PathAbstract.asStr</title>
<!-- Node1 -->
<g id="node1" class="node"><title>Node1</title>
<polygon fill="#bfbfbf" stroke="black" points="0,-38.5 0,-57.5 148,-57.5 148,-38.5 0,-38.5"/>
<text text-anchor="middle" x="74" y="-45.5" font-family="Helvetica,sans-Serif" font-size="10.00">Disk._base.PathAbstract.asStr</text>
</g>
<!-- Node2 -->
<g id="node2" class="node"><title>Node2</title>
<g id="a_node2"><a xlink:href="class_disk_1_1__base_1_1_path_abstract.html#a1f9ac7069978f4f0748a41dba063c9a4" target="_top" xlink:title="Disk._base.PathAbstract.\l__str__">
<polygon fill="none" stroke="black" points="199.5,-77 199.5,-107 324.5,-107 324.5,-77 199.5,-77"/>
<text text-anchor="start" x="207.5" y="-95" font-family="Helvetica,sans-Serif" font-size="10.00">Disk._base.PathAbstract.</text>
<text text-anchor="middle" x="262" y="-84" font-family="Helvetica,sans-Serif" font-size="10.00">__str__</text>
</a>
</g>
</g>
<!-- Node1&#45;&gt;Node2 -->
<g id="edge1" class="edge"><title>Node1&#45;&gt;Node2</title>
<path fill="none" stroke="midnightblue" d="M125.202,-59.8758C148.084,-65.2886 175.386,-71.7472 199.488,-77.4489"/>
<polygon fill="midnightblue" stroke="midnightblue" points="125.896,-56.4435 115.359,-57.5473 124.285,-63.2555 125.896,-56.4435"/>
</g>
<!-- Node3 -->
<g id="node3" class="node"><title>Node3</title>
<g id="a_node3"><a xlink:href="class_disk_1_1_local_1_1___paths_1_1_file_path.html#afab16ed167f1dbef71a86f2aaaa34b71" target="_top" xlink:title="Disk.Local._Paths.FilePath.asFile">
<polygon fill="none" stroke="black" points="184,-38.5 184,-57.5 340,-57.5 340,-38.5 184,-38.5"/>
<text text-anchor="middle" x="262" y="-45.5" font-family="Helvetica,sans-Serif" font-size="10.00">Disk.Local._Paths.FilePath.asFile</text>
</a>
</g>
</g>
<!-- Node1&#45;&gt;Node3 -->
<g id="edge2" class="edge"><title>Node1&#45;&gt;Node3</title>
<path fill="none" stroke="midnightblue" d="M158.474,-48C166.918,-48 175.468,-48 183.842,-48"/>
<polygon fill="midnightblue" stroke="midnightblue" points="158.245,-44.5001 148.245,-48 158.245,-51.5001 158.245,-44.5001"/>
</g>
<!-- Node4 -->
<g id="node4" class="node"><title>Node4</title>
<g id="a_node4"><a xlink:href="class_disk_1_1_s_s_h_1_1___paths_1_1_file_path.html#a0c270ea1de35c8cc83798ecbd94d07fa" target="_top" xlink:title="Disk.SSH._Paths.FilePath.asFile">
<polygon fill="none" stroke="black" points="185,-0.5 185,-19.5 339,-19.5 339,-0.5 185,-0.5"/>
<text text-anchor="middle" x="262" y="-7.5" font-family="Helvetica,sans-Serif" font-size="10.00">Disk.SSH._Paths.FilePath.asFile</text>
</a>
</g>
</g>
<!-- Node1&#45;&gt;Node4 -->
<g id="edge3" class="edge"><title>Node1&#45;&gt;Node4</title>
<path fill="none" stroke="midnightblue" d="M131.825,-36.3905C158.279,-30.986 189.358,-24.6365 214.402,-19.5201"/>
<polygon fill="midnightblue" stroke="midnightblue" points="131.033,-32.9801 121.936,-38.411 132.434,-39.8384 131.033,-32.9801"/>
</g>
</g>
</svg>
