<?xml version="1.0" encoding="UTF-8" standalone="no"?>
<!DOCTYPE svg PUBLIC "-//W3C//DTD SVG 1.1//EN"
 "http://www.w3.org/Graphics/SVG/1.1/DTD/svg11.dtd">
<!-- Generated by graphviz version 2.28.0 (20121214.2254)
 -->
<!-- Title: Disk.SSH._File.File.flush Pages: 1 -->
<svg width="436pt" height="66pt"
 viewBox="0.00 0.00 436.00 66.00" xmlns="http://www.w3.org/2000/svg" xmlns:xlink="http://www.w3.org/1999/xlink">
<g id="graph1" class="graph" transform="scale(1 1) rotate(0) translate(4 62)">
<title>Disk.SSH._File.File.flush</title>
<!-- Node1 -->
<g id="node1" class="node"><title>Node1</title>
<polygon fill="#bfbfbf" stroke="black" points="0,-19.5 0,-38.5 116,-38.5 116,-19.5 0,-19.5"/>
<text text-anchor="middle" x="58" y="-26.5" font-family="Helvetica,sans-Serif" font-size="10.00">Disk.SSH._File.File.flush</text>
</g>
<!-- Node2 -->
<g id="node3" class="node"><title>Node2</title>
<a xlink:href="class_disk_1_1_s_s_h_1_1___file_1_1_file.html#a78a57bc0b49bb00fe9672e04fba5661c" target="_top" xlink:title="Disk.SSH._File.File.close">
<polygon fill="none" stroke="black" points="152.5,-19.5 152.5,-38.5 271.5,-38.5 271.5,-19.5 152.5,-19.5"/>
<text text-anchor="middle" x="212" y="-26.5" font-family="Helvetica,sans-Serif" font-size="10.00">Disk.SSH._File.File.close</text>
</a>
</g>
<!-- Node1&#45;&gt;Node2 -->
<g id="edge2" class="edge"><title>Node1&#45;&gt;Node2</title>
<path fill="none" stroke="midnightblue" d="M126.182,-29C134.914,-29 143.804,-29 152.381,-29"/>
<polygon fill="midnightblue" stroke="midnightblue" points="126.032,-25.5001 116.032,-29 126.032,-32.5001 126.032,-25.5001"/>
</g>
<!-- Node3 -->
<g id="node5" class="node"><title>Node3</title>
<a xlink:href="class_disk_1_1__base_1_1_file.html#ad9e735b15b84fb029c777c9f48e30295" target="_top" xlink:title="Disk._base.File.__exit__">
<polygon fill="none" stroke="black" points="308.5,-38.5 308.5,-57.5 427.5,-57.5 427.5,-38.5 308.5,-38.5"/>
<text text-anchor="middle" x="368" y="-45.5" font-family="Helvetica,sans-Serif" font-size="10.00">Disk._base.File.__exit__</text>
</a>
</g>
<!-- Node2&#45;&gt;Node3 -->
<g id="edge4" class="edge"><title>Node2&#45;&gt;Node3</title>
<path fill="none" stroke="midnightblue" d="M281.607,-37.4645C290.497,-38.5613 299.538,-39.6767 308.248,-40.7514"/>
<polygon fill="midnightblue" stroke="midnightblue" points="282.013,-33.9882 271.66,-36.2373 281.156,-40.9355 282.013,-33.9882"/>
</g>
<!-- Node4 -->
<g id="node7" class="node"><title>Node4</title>
<a xlink:href="class_disk_1_1__base_1_1_file.html#ababdfcceed76d07a67803fb4b7272e4d" target="_top" xlink:title="Disk._base.File.destruct">
<polygon fill="none" stroke="black" points="310,-0.5 310,-19.5 426,-19.5 426,-0.5 310,-0.5"/>
<text text-anchor="middle" x="368" y="-7.5" font-family="Helvetica,sans-Serif" font-size="10.00">Disk._base.File.destruct</text>
</a>
</g>
<!-- Node2&#45;&gt;Node4 -->
<g id="edge6" class="edge"><title>Node2&#45;&gt;Node4</title>
<path fill="none" stroke="midnightblue" d="M281.735,-20.5197C291.105,-19.3637 300.639,-18.1874 309.775,-17.0602"/>
<polygon fill="midnightblue" stroke="midnightblue" points="281.156,-17.0645 271.66,-21.7627 282.013,-24.0118 281.156,-17.0645"/>
</g>
</g>
</svg>
