<?xml version="1.0" encoding="UTF-8" standalone="no"?>
<!DOCTYPE svg PUBLIC "-//W3C//DTD SVG 1.1//EN"
 "http://www.w3.org/Graphics/SVG/1.1/DTD/svg11.dtd">
<!-- Generated by graphviz version 2.30.1 (20130219.2202)
 -->
<!-- Title: Disk.SSH._File.File.flush Pages: 1 -->
<svg width="444pt" height="66pt"
 viewBox="0.00 0.00 444.00 66.00" xmlns="http://www.w3.org/2000/svg" xmlns:xlink="http://www.w3.org/1999/xlink">
<g id="graph0" class="graph" transform="scale(1 1) rotate(0) translate(4 62)">
<title>Disk.SSH._File.File.flush</title>
<!-- Node1 -->
<g id="node1" class="node"><title>Node1</title>
<polygon fill="#bfbfbf" stroke="black" points="0,-19.5 0,-38.5 116,-38.5 116,-19.5 0,-19.5"/>
<text text-anchor="middle" x="58" y="-26.5" font-family="Helvetica,sans-Serif" font-size="10.00">Disk.SSH._File.File.flush</text>
</g>
<!-- Node2 -->
<g id="node2" class="node"><title>Node2</title>
<g id="a_node2"><a xlink:href="class_disk_1_1__base_1_1_file.html#af4a79b03f7f30ffdf6be32aaa025f9aa" target="_top" xlink:title="Disk._base.File.isWritable">
<polygon fill="none" stroke="black" points="152.5,-38.5 152.5,-57.5 277.5,-57.5 277.5,-38.5 152.5,-38.5"/>
<text text-anchor="middle" x="215" y="-45.5" font-family="Helvetica,sans-Serif" font-size="10.00">Disk._base.File.isWritable</text>
</a>
</g>
</g>
<!-- Node1&#45;&gt;Node2 -->
<g id="edge1" class="edge"><title>Node1&#45;&gt;Node2</title>
<path fill="none" stroke="midnightblue" d="M116.276,-36.0209C124.706,-37.0542 133.479,-38.1296 142.156,-39.1934"/>
<polygon fill="midnightblue" stroke="midnightblue" points="141.922,-42.6908 152.274,-40.4335 142.774,-35.7428 141.922,-42.6908"/>
</g>
<!-- Node4 -->
<g id="node4" class="node"><title>Node4</title>
<g id="a_node4"><a xlink:href="class_disk_1_1__base_1_1_file.html#a7401ddb8e1f5573402123b8f65b7bc08" target="_top" xlink:title="Disk._base.File.getPath">
<polygon fill="none" stroke="black" points="157,-0.5 157,-19.5 273,-19.5 273,-0.5 157,-0.5"/>
<text text-anchor="middle" x="215" y="-7.5" font-family="Helvetica,sans-Serif" font-size="10.00">Disk._base.File.getPath</text>
</a>
</g>
</g>
<!-- Node1&#45;&gt;Node4 -->
<g id="edge3" class="edge"><title>Node1&#45;&gt;Node4</title>
<path fill="none" stroke="midnightblue" d="M116.276,-21.9791C126.236,-20.7581 136.676,-19.4784 146.872,-18.2286"/>
<polygon fill="midnightblue" stroke="midnightblue" points="147.46,-21.6828 156.96,-16.9921 146.608,-14.7348 147.46,-21.6828"/>
</g>
<!-- Node3 -->
<g id="node3" class="node"><title>Node3</title>
<g id="a_node3"><a xlink:href="class_disk_1_1__base_1_1_file.html#a5801d2db863fa1967d7847917aa757f3" target="_top" xlink:title="Disk._base.File.isClosed">
<polygon fill="none" stroke="black" points="315,-38.5 315,-57.5 435,-57.5 435,-38.5 315,-38.5"/>
<text text-anchor="middle" x="375" y="-45.5" font-family="Helvetica,sans-Serif" font-size="10.00">Disk._base.File.isClosed</text>
</a>
</g>
</g>
<!-- Node2&#45;&gt;Node3 -->
<g id="edge2" class="edge"><title>Node2&#45;&gt;Node3</title>
<path fill="none" stroke="midnightblue" d="M277.539,-48C286.479,-48 295.733,-48 304.811,-48"/>
<polygon fill="midnightblue" stroke="midnightblue" points="304.96,-51.5001 314.96,-48 304.959,-44.5001 304.96,-51.5001"/>
</g>
<!-- Node5 -->
<g id="node5" class="node"><title>Node5</title>
<g id="a_node5"><a xlink:href="class_disk_1_1__base_1_1_file.html#a036d4621c4196403b6a126c9ee1cc0c3" target="_top" xlink:title="Disk._base.File._getPath">
<polygon fill="none" stroke="black" points="314,-0.5 314,-19.5 436,-19.5 436,-0.5 314,-0.5"/>
<text text-anchor="middle" x="375" y="-7.5" font-family="Helvetica,sans-Serif" font-size="10.00">Disk._base.File._getPath</text>
</a>
</g>
</g>
<!-- Node4&#45;&gt;Node5 -->
<g id="edge4" class="edge"><title>Node4&#45;&gt;Node5</title>
<path fill="none" stroke="midnightblue" d="M273.042,-10C282.986,-10 293.434,-10 303.685,-10"/>
<polygon fill="midnightblue" stroke="midnightblue" points="303.844,-13.5001 313.844,-10 303.844,-6.5001 303.844,-13.5001"/>
</g>
</g>
</svg>
