<?xml version="1.0" encoding="UTF-8" standalone="no"?>
<!DOCTYPE svg PUBLIC "-//W3C//DTD SVG 1.1//EN"
 "http://www.w3.org/Graphics/SVG/1.1/DTD/svg11.dtd">
<!-- Generated by graphviz version 2.30.1 (20130221.2233)
 -->
<!-- Title: Disk.Local._Walker.LocalFolderWalker Pages: 1 -->
<svg width="148pt" height="184pt"
 viewBox="0.00 0.00 148.00 184.00" xmlns="http://www.w3.org/2000/svg" xmlns:xlink="http://www.w3.org/1999/xlink">
<g id="graph0" class="graph" transform="scale(1 1) rotate(0) translate(4 180)">
<title>Disk.Local._Walker.LocalFolderWalker</title>
<!-- Node1 -->
<g id="node1" class="node"><title>Node1</title>
<polygon fill="#bfbfbf" stroke="black" points="5.5,-1 5.5,-69 134.5,-69 134.5,-1 5.5,-1"/>
<text text-anchor="start" x="13.5" y="-57" font-family="Helvetica,sans-Serif" font-size="10.00">Disk.Local._Walker.Local</text>
<text text-anchor="middle" x="70" y="-46" font-family="Helvetica,sans-Serif" font-size="10.00">FolderWalker</text>
<polyline fill="none" stroke="black" points="5.5,-39 134.5,-39 "/>
<text text-anchor="middle" x="70" y="-27" font-family="Helvetica,sans-Serif" font-size="10.00"> </text>
<polyline fill="none" stroke="black" points="5.5,-20 134.5,-20 "/>
<text text-anchor="start" x="13.5" y="-8" font-family="Helvetica,sans-Serif" font-size="10.00">+ __init__()</text>
</g>
<!-- Node2 -->
<g id="node2" class="node"><title>Node2</title>
<g id="a_node2"><a xlink:href="class_disk_1_1_walker_1_1_walker_abstract.html" target="_top" xlink:title="Gets a list of files and/or folders in a folder. ">
<polygon fill="none" stroke="black" points="0,-107 0,-175 140,-175 140,-107 0,-107"/>
<text text-anchor="middle" x="70" y="-163" font-family="Helvetica,sans-Serif" font-size="10.00">Disk.Walker.WalkerAbstract</text>
<polyline fill="none" stroke="black" points="0,-156 140,-156 "/>
<text text-anchor="start" x="8" y="-144" font-family="Helvetica,sans-Serif" font-size="10.00">+ allWalkers</text>
<polyline fill="none" stroke="black" points="0,-137 140,-137 "/>
<text text-anchor="start" x="8" y="-125" font-family="Helvetica,sans-Serif" font-size="10.00">+ __init__()</text>
<text text-anchor="start" x="8" y="-114" font-family="Helvetica,sans-Serif" font-size="10.00">+ walk()</text>
</a>
</g>
</g>
<!-- Node2&#45;&gt;Node1 -->
<g id="edge1" class="edge"><title>Node2&#45;&gt;Node1</title>
<path fill="none" stroke="midnightblue" d="M70,-96.6737C70,-87.5025 70,-77.9608 70,-69.2336"/>
<polygon fill="none" stroke="midnightblue" points="66.5001,-96.8078 70,-106.808 73.5001,-96.8078 66.5001,-96.8078"/>
</g>
</g>
</svg>
