<?xml version="1.0" encoding="UTF-8" standalone="no"?>
<!DOCTYPE svg PUBLIC "-//W3C//DTD SVG 1.1//EN"
 "http://www.w3.org/Graphics/SVG/1.1/DTD/svg11.dtd">
<!-- Generated by graphviz version 2.30.1 (20130219.2202)
 -->
<!-- Title: Disk._base.File.getPath Pages: 1 -->
<svg width="598pt" height="222pt"
 viewBox="0.00 0.00 598.00 222.00" xmlns="http://www.w3.org/2000/svg" xmlns:xlink="http://www.w3.org/1999/xlink">
<g id="graph0" class="graph" transform="scale(1 1) rotate(0) translate(4 218)">
<title>Disk._base.File.getPath</title>
<!-- Node1 -->
<g id="node1" class="node"><title>Node1</title>
<polygon fill="#bfbfbf" stroke="black" points="0,-112.5 0,-131.5 116,-131.5 116,-112.5 0,-112.5"/>
<text text-anchor="middle" x="58" y="-119.5" font-family="Helvetica,sans-Serif" font-size="10.00">Disk._base.File.getPath</text>
</g>
<!-- Node2 -->
<g id="node2" class="node"><title>Node2</title>
<g id="a_node2"><a xlink:href="class_disk_1_1__base_1_1_file.html#aa6035675eda3f591d6a7404e07453816" target="_top" xlink:title="Disk._base.File.__repr__">
<polygon fill="none" stroke="black" points="155,-194.5 155,-213.5 275,-213.5 275,-194.5 155,-194.5"/>
<text text-anchor="middle" x="215" y="-201.5" font-family="Helvetica,sans-Serif" font-size="10.00">Disk._base.File.__repr__</text>
</a>
</g>
</g>
<!-- Node1&#45;&gt;Node2 -->
<g id="edge1" class="edge"><title>Node1&#45;&gt;Node2</title>
<path fill="none" stroke="midnightblue" d="M78.6859,-137.906C96.821,-151.915 124.94,-172.049 152,-185 159.616,-188.645 168.091,-191.785 176.268,-194.403"/>
<polygon fill="midnightblue" stroke="midnightblue" points="80.6593,-135.006 70.6336,-131.58 76.3346,-140.51 80.6593,-135.006"/>
</g>
<!-- Node4 -->
<g id="node4" class="node"><title>Node4</title>
<g id="a_node4"><a xlink:href="class_disk_1_1__base_1_1_file.html#a91270d2ecba3b573d24b79e7a25c6b58" target="_top" xlink:title="Disk._base.File.__enter__">
<polygon fill="none" stroke="black" points="152.5,-156.5 152.5,-175.5 277.5,-175.5 277.5,-156.5 152.5,-156.5"/>
<text text-anchor="middle" x="215" y="-163.5" font-family="Helvetica,sans-Serif" font-size="10.00">Disk._base.File.__enter__</text>
</a>
</g>
</g>
<!-- Node1&#45;&gt;Node4 -->
<g id="edge3" class="edge"><title>Node1&#45;&gt;Node4</title>
<path fill="none" stroke="midnightblue" d="M102.475,-134.341C127.162,-141.349 157.597,-149.989 180.433,-156.471"/>
<polygon fill="midnightblue" stroke="midnightblue" points="103.208,-130.911 92.6327,-131.547 101.297,-137.645 103.208,-130.911"/>
</g>
<!-- Node5 -->
<g id="node5" class="node"><title>Node5</title>
<g id="a_node5"><a xlink:href="class_disk_1_1_local_1_1___file_1_1_base_file.html#ab36c5557a10aca5ed74dcf36af9a79bf" target="_top" xlink:title="Disk.Local._File.BaseFile.\l__exit__">
<polygon fill="none" stroke="black" points="154,-107 154,-137 276,-137 276,-107 154,-107"/>
<text text-anchor="start" x="162" y="-125" font-family="Helvetica,sans-Serif" font-size="10.00">Disk.Local._File.BaseFile.</text>
<text text-anchor="middle" x="215" y="-114" font-family="Helvetica,sans-Serif" font-size="10.00">__exit__</text>
</a>
</g>
</g>
<!-- Node1&#45;&gt;Node5 -->
<g id="edge4" class="edge"><title>Node1&#45;&gt;Node5</title>
<path fill="none" stroke="midnightblue" d="M126.456,-122C135.568,-122 144.869,-122 153.842,-122"/>
<polygon fill="midnightblue" stroke="midnightblue" points="126.276,-118.5 116.276,-122 126.276,-125.5 126.276,-118.5"/>
</g>
<!-- Node6 -->
<g id="node6" class="node"><title>Node6</title>
<g id="a_node6"><a xlink:href="class_disk_1_1_s_s_h_1_1___file_1_1_file.html#aa2cb1ac59649f601a1c209b425923f38" target="_top" xlink:title="Disk.SSH._File.File.\l__repr__">
<polygon fill="none" stroke="black" points="166.5,-58 166.5,-88 263.5,-88 263.5,-58 166.5,-58"/>
<text text-anchor="start" x="174.5" y="-76" font-family="Helvetica,sans-Serif" font-size="10.00">Disk.SSH._File.File.</text>
<text text-anchor="middle" x="215" y="-65" font-family="Helvetica,sans-Serif" font-size="10.00">__repr__</text>
</a>
</g>
</g>
<!-- Node1&#45;&gt;Node6 -->
<g id="edge5" class="edge"><title>Node1&#45;&gt;Node6</title>
<path fill="none" stroke="midnightblue" d="M98.9563,-109.369C119.559,-102.855 144.83,-94.8666 166.434,-88.037"/>
<polygon fill="midnightblue" stroke="midnightblue" points="97.7334,-106.084 89.2535,-112.436 99.8434,-112.759 97.7334,-106.084"/>
</g>
<!-- Node7 -->
<g id="node7" class="node"><title>Node7</title>
<g id="a_node7"><a xlink:href="class_disk_1_1_s_s_h_1_1___file_1_1_file.html#a2b8fa9d0d909bb45c91d589d2e0cf6d3" target="_top" xlink:title="Uploads the file if changed.">
<polygon fill="none" stroke="black" points="157,-19.5 157,-38.5 273,-38.5 273,-19.5 157,-19.5"/>
<text text-anchor="middle" x="215" y="-26.5" font-family="Helvetica,sans-Serif" font-size="10.00">Disk.SSH._File.File.flush</text>
</a>
</g>
</g>
<!-- Node1&#45;&gt;Node7 -->
<g id="edge6" class="edge"><title>Node1&#45;&gt;Node7</title>
<path fill="none" stroke="midnightblue" d="M76.0505,-105.539C93.7687,-89.2133 122.926,-64.4617 152,-49 159.789,-44.8578 168.587,-41.3831 177.057,-38.5536"/>
<polygon fill="midnightblue" stroke="midnightblue" points="73.6536,-102.989 68.756,-112.384 78.4434,-108.093 73.6536,-102.989"/>
</g>
<!-- Node3 -->
<g id="node3" class="node"><title>Node3</title>
<g id="a_node3"><a xlink:href="class_disk_1_1__base_1_1_file.html#afecee354ca982223e41d25bf0910d8f2" target="_top" xlink:title="Disk._base.File.__str__">
<polygon fill="none" stroke="black" points="317,-194.5 317,-213.5 431,-213.5 431,-194.5 317,-194.5"/>
<text text-anchor="middle" x="374" y="-201.5" font-family="Helvetica,sans-Serif" font-size="10.00">Disk._base.File.__str__</text>
</a>
</g>
</g>
<!-- Node2&#45;&gt;Node3 -->
<g id="edge2" class="edge"><title>Node2&#45;&gt;Node3</title>
<path fill="none" stroke="midnightblue" d="M285.379,-204C295.932,-204 306.709,-204 316.931,-204"/>
<polygon fill="midnightblue" stroke="midnightblue" points="285.355,-200.5 275.355,-204 285.355,-207.5 285.355,-200.5"/>
</g>
<!-- Node8 -->
<g id="node8" class="node"><title>Node8</title>
<g id="a_node8"><a xlink:href="class_disk_1_1_s_s_h_1_1___file_1_1_file.html#a78a57bc0b49bb00fe9672e04fba5661c" target="_top" xlink:title="Disk.SSH._File.File.close">
<polygon fill="none" stroke="black" points="314.5,-19.5 314.5,-38.5 433.5,-38.5 433.5,-19.5 314.5,-19.5"/>
<text text-anchor="middle" x="374" y="-26.5" font-family="Helvetica,sans-Serif" font-size="10.00">Disk.SSH._File.File.close</text>
</a>
</g>
</g>
<!-- Node7&#45;&gt;Node8 -->
<g id="edge7" class="edge"><title>Node7&#45;&gt;Node8</title>
<path fill="none" stroke="midnightblue" d="M283.327,-29C293.645,-29 304.225,-29 314.336,-29"/>
<polygon fill="midnightblue" stroke="midnightblue" points="283.125,-25.5001 273.125,-29 283.125,-32.5001 283.125,-25.5001"/>
</g>
<!-- Node9 -->
<g id="node9" class="node"><title>Node9</title>
<g id="a_node9"><a xlink:href="class_disk_1_1__base_1_1_file.html#ad9e735b15b84fb029c777c9f48e30295" target="_top" xlink:title="Disk._base.File.__exit__">
<polygon fill="none" stroke="black" points="470.5,-38.5 470.5,-57.5 589.5,-57.5 589.5,-38.5 470.5,-38.5"/>
<text text-anchor="middle" x="530" y="-45.5" font-family="Helvetica,sans-Serif" font-size="10.00">Disk._base.File.__exit__</text>
</a>
</g>
</g>
<!-- Node8&#45;&gt;Node9 -->
<g id="edge8" class="edge"><title>Node8&#45;&gt;Node9</title>
<path fill="none" stroke="midnightblue" d="M443.607,-37.4645C452.497,-38.5613 461.538,-39.6767 470.248,-40.7514"/>
<polygon fill="midnightblue" stroke="midnightblue" points="444.013,-33.9882 433.66,-36.2373 443.156,-40.9355 444.013,-33.9882"/>
</g>
<!-- Node10 -->
<g id="node10" class="node"><title>Node10</title>
<g id="a_node10"><a xlink:href="class_disk_1_1__base_1_1_file.html#ababdfcceed76d07a67803fb4b7272e4d" target="_top" xlink:title="Disk._base.File.destruct">
<polygon fill="none" stroke="black" points="472,-0.5 472,-19.5 588,-19.5 588,-0.5 472,-0.5"/>
<text text-anchor="middle" x="530" y="-7.5" font-family="Helvetica,sans-Serif" font-size="10.00">Disk._base.File.destruct</text>
</a>
</g>
</g>
<!-- Node8&#45;&gt;Node10 -->
<g id="edge9" class="edge"><title>Node8&#45;&gt;Node10</title>
<path fill="none" stroke="midnightblue" d="M443.735,-20.5197C453.105,-19.3637 462.639,-18.1874 471.775,-17.0602"/>
<polygon fill="midnightblue" stroke="midnightblue" points="443.156,-17.0645 433.66,-21.7627 444.013,-24.0118 443.156,-17.0645"/>
</g>
</g>
</svg>
