<?xml version="1.0" encoding="UTF-8" standalone="no"?>
<!DOCTYPE svg PUBLIC "-//W3C//DTD SVG 1.1//EN"
 "http://www.w3.org/Graphics/SVG/1.1/DTD/svg11.dtd">
<!-- Generated by graphviz version 2.28.0 (20121214.2254)
 -->
<!-- Title: Disk._base.File.getPath Pages: 1 -->
<svg width="598pt" height="135pt"
 viewBox="0.00 0.00 598.00 135.00" xmlns="http://www.w3.org/2000/svg" xmlns:xlink="http://www.w3.org/1999/xlink">
<g id="graph1" class="graph" transform="scale(1 1) rotate(0) translate(4 131)">
<title>Disk._base.File.getPath</title>
<!-- Node1 -->
<g id="node1" class="node"><title>Node1</title>
<polygon fill="#bfbfbf" stroke="black" points="0,-63.5 0,-82.5 116,-82.5 116,-63.5 0,-63.5"/>
<text text-anchor="middle" x="58" y="-70.5" font-family="Helvetica,sans-Serif" font-size="10.00">Disk._base.File.getPath</text>
</g>
<!-- Node2 -->
<g id="node3" class="node"><title>Node2</title>
<a xlink:href="class_disk_1_1__base_1_1_file.html#a91270d2ecba3b573d24b79e7a25c6b58" target="_top" xlink:title="Disk._base.File.__enter__">
<polygon fill="none" stroke="black" points="152.5,-107.5 152.5,-126.5 277.5,-126.5 277.5,-107.5 152.5,-107.5"/>
<text text-anchor="middle" x="215" y="-114.5" font-family="Helvetica,sans-Serif" font-size="10.00">Disk._base.File.__enter__</text>
</a>
</g>
<!-- Node1&#45;&gt;Node2 -->
<g id="edge2" class="edge"><title>Node1&#45;&gt;Node2</title>
<path fill="none" stroke="midnightblue" d="M102.475,-85.3412C127.162,-92.3493 157.597,-100.989 180.433,-107.471"/>
<polygon fill="midnightblue" stroke="midnightblue" points="103.208,-81.9113 92.6327,-82.5473 101.297,-88.6452 103.208,-81.9113"/>
</g>
<!-- Node3 -->
<g id="node5" class="node"><title>Node3</title>
<a xlink:href="class_disk_1_1_local_1_1___file_1_1_base_file.html#ab36c5557a10aca5ed74dcf36af9a79bf" target="_top" xlink:title="Disk.Local._File.BaseFile.\l__exit__">
<polygon fill="none" stroke="black" points="154,-58 154,-88 276,-88 276,-58 154,-58"/>
<text text-anchor="start" x="162" y="-76" font-family="Helvetica,sans-Serif" font-size="10.00">Disk.Local._File.BaseFile.</text>
<text text-anchor="middle" x="215" y="-65" font-family="Helvetica,sans-Serif" font-size="10.00">__exit__</text>
</a>
</g>
<!-- Node1&#45;&gt;Node3 -->
<g id="edge4" class="edge"><title>Node1&#45;&gt;Node3</title>
<path fill="none" stroke="midnightblue" d="M126.456,-73C135.568,-73 144.869,-73 153.842,-73"/>
<polygon fill="midnightblue" stroke="midnightblue" points="126.276,-69.5001 116.276,-73 126.276,-76.5001 126.276,-69.5001"/>
</g>
<!-- Node4 -->
<g id="node7" class="node"><title>Node4</title>
<a xlink:href="class_disk_1_1_s_s_h_1_1___file_1_1_file.html#a2b8fa9d0d909bb45c91d589d2e0cf6d3" target="_top" xlink:title="Uploads the file if changed.">
<polygon fill="none" stroke="black" points="157,-19.5 157,-38.5 273,-38.5 273,-19.5 157,-19.5"/>
<text text-anchor="middle" x="215" y="-26.5" font-family="Helvetica,sans-Serif" font-size="10.00">Disk.SSH._File.File.flush</text>
</a>
</g>
<!-- Node1&#45;&gt;Node4 -->
<g id="edge6" class="edge"><title>Node1&#45;&gt;Node4</title>
<path fill="none" stroke="midnightblue" d="M102.475,-60.6588C127.162,-53.6507 157.597,-45.0112 180.433,-38.5287"/>
<polygon fill="midnightblue" stroke="midnightblue" points="101.297,-57.3548 92.6327,-63.4527 103.208,-64.0887 101.297,-57.3548"/>
</g>
<!-- Node5 -->
<g id="node9" class="node"><title>Node5</title>
<a xlink:href="class_disk_1_1_s_s_h_1_1___file_1_1_file.html#a78a57bc0b49bb00fe9672e04fba5661c" target="_top" xlink:title="Disk.SSH._File.File.close">
<polygon fill="none" stroke="black" points="314.5,-19.5 314.5,-38.5 433.5,-38.5 433.5,-19.5 314.5,-19.5"/>
<text text-anchor="middle" x="374" y="-26.5" font-family="Helvetica,sans-Serif" font-size="10.00">Disk.SSH._File.File.close</text>
</a>
</g>
<!-- Node4&#45;&gt;Node5 -->
<g id="edge8" class="edge"><title>Node4&#45;&gt;Node5</title>
<path fill="none" stroke="midnightblue" d="M283.327,-29C293.645,-29 304.225,-29 314.336,-29"/>
<polygon fill="midnightblue" stroke="midnightblue" points="283.125,-25.5001 273.125,-29 283.125,-32.5001 283.125,-25.5001"/>
</g>
<!-- Node6 -->
<g id="node11" class="node"><title>Node6</title>
<a xlink:href="class_disk_1_1__base_1_1_file.html#ad9e735b15b84fb029c777c9f48e30295" target="_top" xlink:title="Disk._base.File.__exit__">
<polygon fill="none" stroke="black" points="470.5,-38.5 470.5,-57.5 589.5,-57.5 589.5,-38.5 470.5,-38.5"/>
<text text-anchor="middle" x="530" y="-45.5" font-family="Helvetica,sans-Serif" font-size="10.00">Disk._base.File.__exit__</text>
</a>
</g>
<!-- Node5&#45;&gt;Node6 -->
<g id="edge10" class="edge"><title>Node5&#45;&gt;Node6</title>
<path fill="none" stroke="midnightblue" d="M443.607,-37.4645C452.497,-38.5613 461.538,-39.6767 470.248,-40.7514"/>
<polygon fill="midnightblue" stroke="midnightblue" points="444.013,-33.9882 433.66,-36.2373 443.156,-40.9355 444.013,-33.9882"/>
</g>
<!-- Node7 -->
<g id="node13" class="node"><title>Node7</title>
<a xlink:href="class_disk_1_1__base_1_1_file.html#ababdfcceed76d07a67803fb4b7272e4d" target="_top" xlink:title="Disk._base.File.destruct">
<polygon fill="none" stroke="black" points="472,-0.5 472,-19.5 588,-19.5 588,-0.5 472,-0.5"/>
<text text-anchor="middle" x="530" y="-7.5" font-family="Helvetica,sans-Serif" font-size="10.00">Disk._base.File.destruct</text>
</a>
</g>
<!-- Node5&#45;&gt;Node7 -->
<g id="edge12" class="edge"><title>Node5&#45;&gt;Node7</title>
<path fill="none" stroke="midnightblue" d="M443.735,-20.5197C453.105,-19.3637 462.639,-18.1874 471.775,-17.0602"/>
<polygon fill="midnightblue" stroke="midnightblue" points="443.156,-17.0645 433.66,-21.7627 444.013,-24.0118 443.156,-17.0645"/>
</g>
</g>
</svg>
