<?xml version="1.0" encoding="UTF-8" standalone="no"?>
<!DOCTYPE svg PUBLIC "-//W3C//DTD SVG 1.1//EN"
 "http://www.w3.org/Graphics/SVG/1.1/DTD/svg11.dtd">
<!-- Generated by graphviz version 2.30.1 (20130219.2202)
 -->
<!-- Title: Disk.TempFile.NamedSecureTempFile Pages: 1 -->
<svg width="144pt" height="216pt"
 viewBox="0.00 0.00 144.00 216.00" xmlns="http://www.w3.org/2000/svg" xmlns:xlink="http://www.w3.org/1999/xlink">
<g id="graph0" class="graph" transform="scale(1 1) rotate(0) translate(4 212)">
<title>Disk.TempFile.NamedSecureTempFile</title>
<!-- Node1 -->
<g id="node1" class="node"><title>Node1</title>
<polygon fill="#bfbfbf" stroke="black" points="-0.5,-1 -0.5,-113 136.5,-113 136.5,-1 -0.5,-1"/>
<text text-anchor="start" x="7.5" y="-101" font-family="Helvetica,sans-Serif" font-size="10.00">Disk.TempFile.NamedSecure</text>
<text text-anchor="middle" x="68" y="-90" font-family="Helvetica,sans-Serif" font-size="10.00">TempFile</text>
<polyline fill="none" stroke="black" points="-0.5,-83 136.5,-83 "/>
<text text-anchor="start" x="7.5" y="-71" font-family="Helvetica,sans-Serif" font-size="10.00">+ delete</text>
<text text-anchor="start" x="7.5" y="-60" font-family="Helvetica,sans-Serif" font-size="10.00">+ suffix</text>
<text text-anchor="start" x="7.5" y="-49" font-family="Helvetica,sans-Serif" font-size="10.00">+ prefix</text>
<text text-anchor="start" x="7.5" y="-38" font-family="Helvetica,sans-Serif" font-size="10.00">+ dir</text>
<polyline fill="none" stroke="black" points="-0.5,-31 136.5,-31 "/>
<text text-anchor="start" x="7.5" y="-19" font-family="Helvetica,sans-Serif" font-size="10.00">+ __init__()</text>
<text text-anchor="start" x="7.5" y="-8" font-family="Helvetica,sans-Serif" font-size="10.00">+ destruct()</text>
</g>
<!-- Node2 -->
<g id="node2" class="node"><title>Node2</title>
<polygon fill="none" stroke="#bfbfbf" points="53,-150.5 53,-207.5 83,-207.5 83,-150.5 53,-150.5"/>
<text text-anchor="middle" x="68" y="-195.5" font-family="Helvetica,sans-Serif" font-size="10.00">File</text>
<polyline fill="none" stroke="#bfbfbf" points="53,-188.5 83,-188.5 "/>
<text text-anchor="middle" x="68" y="-176.5" font-family="Helvetica,sans-Serif" font-size="10.00"> </text>
<polyline fill="none" stroke="#bfbfbf" points="53,-169.5 83,-169.5 "/>
<text text-anchor="middle" x="68" y="-157.5" font-family="Helvetica,sans-Serif" font-size="10.00"> </text>
</g>
<!-- Node2&#45;&gt;Node1 -->
<g id="edge1" class="edge"><title>Node2&#45;&gt;Node1</title>
<path fill="none" stroke="midnightblue" d="M68,-140.398C68,-131.802 68,-122.49 68,-113.324"/>
<polygon fill="none" stroke="midnightblue" points="64.5001,-140.47 68,-150.47 71.5001,-140.47 64.5001,-140.47"/>
</g>
</g>
</svg>
