<?xml version="1.0" encoding="UTF-8" standalone="no"?>
<!DOCTYPE svg PUBLIC "-//W3C//DTD SVG 1.1//EN"
 "http://www.w3.org/Graphics/SVG/1.1/DTD/svg11.dtd">
<!-- Generated by graphviz version 2.30.1 (20130221.2233)
 -->
<!-- Title: Disk._base.File.__enter__ Pages: 1 -->
<svg width="462pt" height="104pt"
 viewBox="0.00 0.00 462.00 104.00" xmlns="http://www.w3.org/2000/svg" xmlns:xlink="http://www.w3.org/1999/xlink">
<g id="graph0" class="graph" transform="scale(1 1) rotate(0) translate(4 100)">
<title>Disk._base.File.__enter__</title>
<!-- Node1 -->
<g id="node1" class="node"><title>Node1</title>
<polygon fill="#bfbfbf" stroke="black" points="0.5,-38.5 0.5,-57.5 133.5,-57.5 133.5,-38.5 0.5,-38.5"/>
<text text-anchor="middle" x="67" y="-45.5" font-family="Helvetica,sans-Serif" font-size="10.00">Disk._base.File.__enter__</text>
</g>
<!-- Node2 -->
<g id="node2" class="node"><title>Node2</title>
<g id="a_node2"><a xlink:href="class_disk_1_1__base_1_1_file.html#a7401ddb8e1f5573402123b8f65b7bc08" target="_top" xlink:title="Disk._base.File.getPath">
<polygon fill="none" stroke="black" points="170,-76.5 170,-95.5 292,-95.5 292,-76.5 170,-76.5"/>
<text text-anchor="middle" x="231" y="-83.5" font-family="Helvetica,sans-Serif" font-size="10.00">Disk._base.File.getPath</text>
</a>
</g>
</g>
<!-- Node1&#45;&gt;Node2 -->
<g id="edge1" class="edge"><title>Node1&#45;&gt;Node2</title>
<path fill="none" stroke="midnightblue" d="M108.879,-57.589C130.353,-62.6261 156.86,-68.8438 179.597,-74.1771"/>
<polygon fill="midnightblue" stroke="midnightblue" points="178.879,-77.6037 189.415,-76.4799 180.478,-70.7887 178.879,-77.6037"/>
</g>
<!-- Node3 -->
<g id="node3" class="node"><title>Node3</title>
<g id="a_node3"><a xlink:href="class_disk_1_1__base_1_1_file.html#a5801d2db863fa1967d7847917aa757f3" target="_top" xlink:title="Disk._base.File.isClosed">
<polygon fill="none" stroke="black" points="328,-38.5 328,-57.5 454,-57.5 454,-38.5 328,-38.5"/>
<text text-anchor="middle" x="391" y="-45.5" font-family="Helvetica,sans-Serif" font-size="10.00">Disk._base.File.isClosed</text>
</a>
</g>
</g>
<!-- Node1&#45;&gt;Node3 -->
<g id="edge2" class="edge"><title>Node1&#45;&gt;Node3</title>
<path fill="none" stroke="midnightblue" d="M133.55,-48C187.04,-48 262.531,-48 317.756,-48"/>
<polygon fill="midnightblue" stroke="midnightblue" points="317.822,-51.5001 327.822,-48 317.822,-44.5001 317.822,-51.5001"/>
</g>
<!-- Node4 -->
<g id="node4" class="node"><title>Node4</title>
<g id="a_node4"><a xlink:href="class_disk_1_1__base_1_1_file.html#addb4e95daa21c36c5bf6d30e7ea29e0e" target="_top" xlink:title="Disk._base.File.reopen">
<polygon fill="none" stroke="black" points="171.5,-0.5 171.5,-19.5 290.5,-19.5 290.5,-0.5 171.5,-0.5"/>
<text text-anchor="middle" x="231" y="-7.5" font-family="Helvetica,sans-Serif" font-size="10.00">Disk._base.File.reopen</text>
</a>
</g>
</g>
<!-- Node1&#45;&gt;Node4 -->
<g id="edge3" class="edge"><title>Node1&#45;&gt;Node4</title>
<path fill="none" stroke="midnightblue" d="M108.879,-38.411C130.353,-33.3739 156.86,-27.1562 179.597,-21.8229"/>
<polygon fill="midnightblue" stroke="midnightblue" points="180.478,-25.2113 189.415,-19.5201 178.879,-18.3963 180.478,-25.2113"/>
</g>
<!-- Node4&#45;&gt;Node3 -->
<g id="edge4" class="edge"><title>Node4&#45;&gt;Node3</title>
<path fill="none" stroke="midnightblue" d="M271.87,-19.589C292.72,-24.6035 318.435,-30.7881 340.543,-36.1053"/>
<polygon fill="midnightblue" stroke="midnightblue" points="339.875,-39.5445 350.417,-38.4799 341.512,-32.7385 339.875,-39.5445"/>
</g>
<!-- Node5 -->
<g id="node5" class="node"><title>Node5</title>
<g id="a_node5"><a xlink:href="class_disk_1_1__base_1_1_file.html#a580698496882f925242a1b81d3a4b040" target="_top" xlink:title="Disk._base.File._reopen">
<polygon fill="none" stroke="black" points="329,-0.5 329,-19.5 453,-19.5 453,-0.5 329,-0.5"/>
<text text-anchor="middle" x="391" y="-7.5" font-family="Helvetica,sans-Serif" font-size="10.00">Disk._base.File._reopen</text>
</a>
</g>
</g>
<!-- Node4&#45;&gt;Node5 -->
<g id="edge5" class="edge"><title>Node4&#45;&gt;Node5</title>
<path fill="none" stroke="midnightblue" d="M290.833,-10C299.918,-10 309.385,-10 318.706,-10"/>
<polygon fill="midnightblue" stroke="midnightblue" points="318.74,-13.5001 328.74,-10 318.74,-6.5001 318.74,-13.5001"/>
</g>
</g>
</svg>
