<?xml version="1.0" encoding="UTF-8" standalone="no"?>
<!DOCTYPE svg PUBLIC "-//W3C//DTD SVG 1.1//EN"
 "http://www.w3.org/Graphics/SVG/1.1/DTD/svg11.dtd">
<!-- Generated by graphviz version 2.30.1 (20130221.2233)
 -->
<!-- Title: Disk._base.FilePath.move Pages: 1 -->
<svg width="518pt" height="126pt"
 viewBox="0.00 0.00 518.00 126.00" xmlns="http://www.w3.org/2000/svg" xmlns:xlink="http://www.w3.org/1999/xlink">
<g id="graph0" class="graph" transform="scale(1 1) rotate(0) translate(4 122)">
<title>Disk._base.FilePath.move</title>
<!-- Node1 -->
<g id="node1" class="node"><title>Node1</title>
<polygon fill="#bfbfbf" stroke="black" points="0.5,-23.5 0.5,-42.5 133.5,-42.5 133.5,-23.5 0.5,-23.5"/>
<text text-anchor="middle" x="67" y="-30.5" font-family="Helvetica,sans-Serif" font-size="10.00">Disk._base.FilePath.move</text>
</g>
<!-- Node2 -->
<g id="node2" class="node"><title>Node2</title>
<g id="a_node2"><a xlink:href="class_disk_1_1__base_1_1_file_path.html#a0a96c74909955f79e65ae294895a170c" target="_top" xlink:title="Disk._base.FilePath.copy">
<polygon fill="none" stroke="black" points="182.5,-44.5 182.5,-63.5 311.5,-63.5 311.5,-44.5 182.5,-44.5"/>
<text text-anchor="middle" x="247" y="-51.5" font-family="Helvetica,sans-Serif" font-size="10.00">Disk._base.FilePath.copy</text>
</a>
</g>
</g>
<!-- Node1&#45;&gt;Node2 -->
<g id="edge1" class="edge"><title>Node1&#45;&gt;Node2</title>
<path fill="none" stroke="midnightblue" d="M133.522,-40.7302C146.115,-42.2159 159.384,-43.7813 172.217,-45.2953"/>
<polygon fill="midnightblue" stroke="midnightblue" points="172.054,-48.8002 182.395,-46.4961 172.874,-41.8484 172.054,-48.8002"/>
</g>
<!-- Node5 -->
<g id="node5" class="node"><title>Node5</title>
<g id="a_node5"><a xlink:href="class_disk_1_1__base_1_1_folder_path.html#aeda5e21bb79e9c7d6240ec96f2cc7aee" target="_top" xlink:title="Remove folder and contents if it exists. ">
<polygon fill="none" stroke="black" points="170,-3.5 170,-22.5 324,-22.5 324,-3.5 170,-3.5"/>
<text text-anchor="middle" x="247" y="-10.5" font-family="Helvetica,sans-Serif" font-size="10.00">Disk._base.FolderPath.remove</text>
</a>
</g>
</g>
<!-- Node1&#45;&gt;Node5 -->
<g id="edge4" class="edge"><title>Node1&#45;&gt;Node5</title>
<path fill="none" stroke="midnightblue" d="M133.522,-25.6379C142.093,-24.6749 150.977,-23.6768 159.823,-22.6828"/>
<polygon fill="midnightblue" stroke="midnightblue" points="160.23,-26.1592 169.776,-21.5645 159.448,-19.203 160.23,-26.1592"/>
</g>
<!-- Node3 -->
<g id="node3" class="node"><title>Node3</title>
<g id="a_node3"><a xlink:href="class_disk_1_1__base_1_1_file_path.html#abb49e5731ed1356e77236c00a49c2e3a" target="_top" xlink:title="Disk._base.FilePath.\l_preCopy_getFileObj">
<polygon fill="none" stroke="black" points="379.5,-88 379.5,-118 490.5,-118 490.5,-88 379.5,-88"/>
<text text-anchor="start" x="387.5" y="-106" font-family="Helvetica,sans-Serif" font-size="10.00">Disk._base.FilePath.</text>
<text text-anchor="middle" x="435" y="-95" font-family="Helvetica,sans-Serif" font-size="10.00">_preCopy_getFileObj</text>
</a>
</g>
</g>
<!-- Node2&#45;&gt;Node3 -->
<g id="edge2" class="edge"><title>Node2&#45;&gt;Node3</title>
<path fill="none" stroke="midnightblue" d="M284.304,-63.564C308.514,-69.942 341.014,-78.5037 369.545,-86.0198"/>
<polygon fill="midnightblue" stroke="midnightblue" points="368.889,-89.4664 379.451,-88.6295 370.672,-82.6974 368.889,-89.4664"/>
</g>
<!-- Node4 -->
<g id="node4" class="node"><title>Node4</title>
<g id="a_node4"><a xlink:href="class_disk_1_1__base_1_1_file_path.html#ab1a670ae97df6f4053dcbb82d4ced7d1" target="_top" xlink:title="Disk._base.FilePath.\l_storeData">
<polygon fill="none" stroke="black" points="381,-39 381,-69 489,-69 489,-39 381,-39"/>
<text text-anchor="start" x="389" y="-57" font-family="Helvetica,sans-Serif" font-size="10.00">Disk._base.FilePath.</text>
<text text-anchor="middle" x="435" y="-46" font-family="Helvetica,sans-Serif" font-size="10.00">_storeData</text>
</a>
</g>
</g>
<!-- Node2&#45;&gt;Node4 -->
<g id="edge3" class="edge"><title>Node2&#45;&gt;Node4</title>
<path fill="none" stroke="midnightblue" d="M311.75,-54C330.827,-54 351.731,-54 370.774,-54"/>
<polygon fill="midnightblue" stroke="midnightblue" points="370.839,-57.5001 380.839,-54 370.839,-50.5001 370.839,-57.5001"/>
</g>
<!-- Node6 -->
<g id="node6" class="node"><title>Node6</title>
<g id="a_node6"><a xlink:href="class_disk_1_1__base_1_1_folder_path.html#a7ea5de715f42afd14092c2bbc40ea816" target="_top" xlink:title="Disk._base.FolderPath.rmtree">
<polygon fill="none" stroke="black" points="360.5,-0.5 360.5,-19.5 509.5,-19.5 509.5,-0.5 360.5,-0.5"/>
<text text-anchor="middle" x="435" y="-7.5" font-family="Helvetica,sans-Serif" font-size="10.00">Disk._base.FolderPath.rmtree</text>
</a>
</g>
</g>
<!-- Node5&#45;&gt;Node6 -->
<g id="edge5" class="edge"><title>Node5&#45;&gt;Node6</title>
<path fill="none" stroke="midnightblue" d="M324.19,-11.7711C332.771,-11.6327 341.549,-11.4911 350.22,-11.3513"/>
<polygon fill="midnightblue" stroke="midnightblue" points="350.388,-14.8491 360.33,-11.1882 350.275,-7.85004 350.388,-14.8491"/>
</g>
</g>
</svg>
