<?xml version="1.0" encoding="UTF-8" standalone="no"?>
<!DOCTYPE svg PUBLIC "-//W3C//DTD SVG 1.1//EN"
 "http://www.w3.org/Graphics/SVG/1.1/DTD/svg11.dtd">
<!-- Generated by graphviz version 2.30.1 (20130219.2202)
 -->
<!-- Title: Disk._base.FolderPath.rmtree Pages: 1 -->
<svg width="666pt" height="28pt"
 viewBox="0.00 0.00 666.00 28.00" xmlns="http://www.w3.org/2000/svg" xmlns:xlink="http://www.w3.org/1999/xlink">
<g id="graph0" class="graph" transform="scale(1 1) rotate(0) translate(4 24)">
<title>Disk._base.FolderPath.rmtree</title>
<!-- Node1 -->
<g id="node1" class="node"><title>Node1</title>
<polygon fill="#bfbfbf" stroke="black" points="0,-0.5 0,-19.5 140,-19.5 140,-0.5 0,-0.5"/>
<text text-anchor="middle" x="70" y="-7.5" font-family="Helvetica,sans-Serif" font-size="10.00">Disk._base.FolderPath.rmtree</text>
</g>
<!-- Node2 -->
<g id="node2" class="node"><title>Node2</title>
<g id="a_node2"><a xlink:href="class_disk_1_1__base_1_1_folder_path.html#aeda5e21bb79e9c7d6240ec96f2cc7aee" target="_top" xlink:title="Remove folder and contents if it exists.">
<polygon fill="none" stroke="black" points="176,-0.5 176,-19.5 322,-19.5 322,-0.5 176,-0.5"/>
<text text-anchor="middle" x="249" y="-7.5" font-family="Helvetica,sans-Serif" font-size="10.00">Disk._base.FolderPath.remove</text>
</a>
</g>
</g>
<!-- Node1&#45;&gt;Node2 -->
<g id="edge1" class="edge"><title>Node1&#45;&gt;Node2</title>
<path fill="none" stroke="midnightblue" d="M150.465,-10C158.949,-10 167.545,-10 175.937,-10"/>
<polygon fill="midnightblue" stroke="midnightblue" points="150.193,-6.5001 140.193,-10 150.193,-13.5001 150.193,-6.5001"/>
</g>
<!-- Node3 -->
<g id="node3" class="node"><title>Node3</title>
<g id="a_node3"><a xlink:href="class_disk_1_1__base_1_1_file_path.html#af3b45a7e70358b41d8ad619dca94f18f" target="_top" xlink:title="Disk._base.FilePath.move">
<polygon fill="none" stroke="black" points="358.5,-0.5 358.5,-19.5 485.5,-19.5 485.5,-0.5 358.5,-0.5"/>
<text text-anchor="middle" x="422" y="-7.5" font-family="Helvetica,sans-Serif" font-size="10.00">Disk._base.FilePath.move</text>
</a>
</g>
</g>
<!-- Node2&#45;&gt;Node3 -->
<g id="edge2" class="edge"><title>Node2&#45;&gt;Node3</title>
<path fill="none" stroke="midnightblue" d="M332.254,-10C341.006,-10 349.803,-10 358.278,-10"/>
<polygon fill="midnightblue" stroke="midnightblue" points="332.024,-6.5001 322.024,-10 332.024,-13.5001 332.024,-6.5001"/>
</g>
<!-- Node4 -->
<g id="node4" class="node"><title>Node4</title>
<g id="a_node4"><a xlink:href="class_disk_1_1__base_1_1_file_path.html#a7c07ffcead384a72811163340e7abe09" target="_top" xlink:title="Disk._base.FilePath.rename">
<polygon fill="none" stroke="black" points="522.5,-0.5 522.5,-19.5 657.5,-19.5 657.5,-0.5 522.5,-0.5"/>
<text text-anchor="middle" x="590" y="-7.5" font-family="Helvetica,sans-Serif" font-size="10.00">Disk._base.FilePath.rename</text>
</a>
</g>
</g>
<!-- Node3&#45;&gt;Node4 -->
<g id="edge3" class="edge"><title>Node3&#45;&gt;Node4</title>
<path fill="none" stroke="midnightblue" d="M495.946,-10C504.704,-10 513.614,-10 522.277,-10"/>
<polygon fill="midnightblue" stroke="midnightblue" points="495.758,-6.5001 485.757,-10 495.757,-13.5001 495.758,-6.5001"/>
</g>
</g>
</svg>
