<?xml version="1.0" encoding="UTF-8" standalone="no"?>
<!DOCTYPE svg PUBLIC "-//W3C//DTD SVG 1.1//EN"
 "http://www.w3.org/Graphics/SVG/1.1/DTD/svg11.dtd">
<!-- Generated by graphviz version 2.30.1 (20130221.2233)
 -->
<!-- Title: Disk._base.PathAbstract.asStr Pages: 1 -->
<svg width="362pt" height="77pt"
 viewBox="0.00 0.00 362.00 77.00" xmlns="http://www.w3.org/2000/svg" xmlns:xlink="http://www.w3.org/1999/xlink">
<g id="graph0" class="graph" transform="scale(1 1) rotate(0) translate(4 73)">
<title>Disk._base.PathAbstract.asStr</title>
<!-- Node1 -->
<g id="node1" class="node"><title>Node1</title>
<polygon fill="#bfbfbf" stroke="black" points="0,-22.5 0,-41.5 152,-41.5 152,-22.5 0,-22.5"/>
<text text-anchor="middle" x="76" y="-29.5" font-family="Helvetica,sans-Serif" font-size="10.00">Disk._base.PathAbstract.asStr</text>
</g>
<!-- Node2 -->
<g id="node2" class="node"><title>Node2</title>
<g id="a_node2"><a xlink:href="class_disk_1_1__base_1_1_path_abstract.html#a1f9ac7069978f4f0748a41dba063c9a4" target="_top" xlink:title="Disk._base.PathAbstract.\l__str__">
<polygon fill="none" stroke="black" points="206.5,-39 206.5,-69 335.5,-69 335.5,-39 206.5,-39"/>
<text text-anchor="start" x="214.5" y="-57" font-family="Helvetica,sans-Serif" font-size="10.00">Disk._base.PathAbstract.</text>
<text text-anchor="middle" x="271" y="-46" font-family="Helvetica,sans-Serif" font-size="10.00">__str__</text>
</a>
</g>
</g>
<!-- Node1&#45;&gt;Node2 -->
<g id="edge1" class="edge"><title>Node1&#45;&gt;Node2</title>
<path fill="none" stroke="midnightblue" d="M162.324,-41.7261C177.096,-43.4099 192.222,-45.1341 206.293,-46.738"/>
<polygon fill="midnightblue" stroke="midnightblue" points="162.504,-38.2239 152.171,-40.5688 161.711,-45.1789 162.504,-38.2239"/>
</g>
<!-- Node3 -->
<g id="node3" class="node"><title>Node3</title>
<g id="a_node3"><a xlink:href="class_disk_1_1_local_1_1___paths_1_1_file_path.html#afab16ed167f1dbef71a86f2aaaa34b71" target="_top" xlink:title="Disk.Local._Paths.FilePath.asFile">
<polygon fill="none" stroke="black" points="188.5,-0.5 188.5,-19.5 353.5,-19.5 353.5,-0.5 188.5,-0.5"/>
<text text-anchor="middle" x="271" y="-7.5" font-family="Helvetica,sans-Serif" font-size="10.00">Disk.Local._Paths.FilePath.asFile</text>
</a>
</g>
</g>
<!-- Node1&#45;&gt;Node3 -->
<g id="edge2" class="edge"><title>Node1&#45;&gt;Node3</title>
<path fill="none" stroke="midnightblue" d="M162.264,-22.2808C170.923,-21.2937 179.705,-20.2927 188.325,-19.31"/>
<polygon fill="midnightblue" stroke="midnightblue" points="161.711,-18.8211 152.171,-23.4312 162.504,-25.7761 161.711,-18.8211"/>
</g>
</g>
</svg>
