<?xml version="1.0" encoding="UTF-8" standalone="no"?>
<!DOCTYPE svg PUBLIC "-//W3C//DTD SVG 1.1//EN"
 "http://www.w3.org/Graphics/SVG/1.1/DTD/svg11.dtd">
<!-- Generated by graphviz version 2.30.1 (20130221.2233)
 -->
<!-- Title: Disk._base.FilePath.rename Pages: 1 -->
<svg width="696pt" height="126pt"
 viewBox="0.00 0.00 696.00 126.00" xmlns="http://www.w3.org/2000/svg" xmlns:xlink="http://www.w3.org/1999/xlink">
<g id="graph0" class="graph" transform="scale(1 1) rotate(0) translate(4 122)">
<title>Disk._base.FilePath.rename</title>
<!-- Node1 -->
<g id="node1" class="node"><title>Node1</title>
<polygon fill="#bfbfbf" stroke="black" points="0,-23.5 0,-42.5 142,-42.5 142,-23.5 0,-23.5"/>
<text text-anchor="middle" x="71" y="-30.5" font-family="Helvetica,sans-Serif" font-size="10.00">Disk._base.FilePath.rename</text>
</g>
<!-- Node2 -->
<g id="node2" class="node"><title>Node2</title>
<g id="a_node2"><a xlink:href="class_disk_1_1__base_1_1_file_path.html#af3b45a7e70358b41d8ad619dca94f18f" target="_top" xlink:title="Disk._base.FilePath.move">
<polygon fill="none" stroke="black" points="178.5,-23.5 178.5,-42.5 311.5,-42.5 311.5,-23.5 178.5,-23.5"/>
<text text-anchor="middle" x="245" y="-30.5" font-family="Helvetica,sans-Serif" font-size="10.00">Disk._base.FilePath.move</text>
</a>
</g>
</g>
<!-- Node1&#45;&gt;Node2 -->
<g id="edge1" class="edge"><title>Node1&#45;&gt;Node2</title>
<path fill="none" stroke="midnightblue" d="M142.455,-33C150.99,-33 159.737,-33 168.343,-33"/>
<polygon fill="midnightblue" stroke="midnightblue" points="168.361,-36.5001 178.361,-33 168.361,-29.5001 168.361,-36.5001"/>
</g>
<!-- Node3 -->
<g id="node3" class="node"><title>Node3</title>
<g id="a_node3"><a xlink:href="class_disk_1_1__base_1_1_file_path.html#a0a96c74909955f79e65ae294895a170c" target="_top" xlink:title="Disk._base.FilePath.copy">
<polygon fill="none" stroke="black" points="360.5,-44.5 360.5,-63.5 489.5,-63.5 489.5,-44.5 360.5,-44.5"/>
<text text-anchor="middle" x="425" y="-51.5" font-family="Helvetica,sans-Serif" font-size="10.00">Disk._base.FilePath.copy</text>
</a>
</g>
</g>
<!-- Node2&#45;&gt;Node3 -->
<g id="edge2" class="edge"><title>Node2&#45;&gt;Node3</title>
<path fill="none" stroke="midnightblue" d="M311.522,-40.7302C324.115,-42.2159 337.384,-43.7813 350.217,-45.2953"/>
<polygon fill="midnightblue" stroke="midnightblue" points="350.054,-48.8002 360.395,-46.4961 350.874,-41.8484 350.054,-48.8002"/>
</g>
<!-- Node6 -->
<g id="node6" class="node"><title>Node6</title>
<g id="a_node6"><a xlink:href="class_disk_1_1__base_1_1_folder_path.html#aeda5e21bb79e9c7d6240ec96f2cc7aee" target="_top" xlink:title="Remove folder and contents if it exists. ">
<polygon fill="none" stroke="black" points="348,-3.5 348,-22.5 502,-22.5 502,-3.5 348,-3.5"/>
<text text-anchor="middle" x="425" y="-10.5" font-family="Helvetica,sans-Serif" font-size="10.00">Disk._base.FolderPath.remove</text>
</a>
</g>
</g>
<!-- Node2&#45;&gt;Node6 -->
<g id="edge5" class="edge"><title>Node2&#45;&gt;Node6</title>
<path fill="none" stroke="midnightblue" d="M311.522,-25.6379C320.093,-24.6749 328.977,-23.6768 337.823,-22.6828"/>
<polygon fill="midnightblue" stroke="midnightblue" points="338.23,-26.1592 347.776,-21.5645 337.448,-19.203 338.23,-26.1592"/>
</g>
<!-- Node4 -->
<g id="node4" class="node"><title>Node4</title>
<g id="a_node4"><a xlink:href="class_disk_1_1__base_1_1_file_path.html#abb49e5731ed1356e77236c00a49c2e3a" target="_top" xlink:title="Disk._base.FilePath.\l_preCopy_getFileObj">
<polygon fill="none" stroke="black" points="557.5,-88 557.5,-118 668.5,-118 668.5,-88 557.5,-88"/>
<text text-anchor="start" x="565.5" y="-106" font-family="Helvetica,sans-Serif" font-size="10.00">Disk._base.FilePath.</text>
<text text-anchor="middle" x="613" y="-95" font-family="Helvetica,sans-Serif" font-size="10.00">_preCopy_getFileObj</text>
</a>
</g>
</g>
<!-- Node3&#45;&gt;Node4 -->
<g id="edge3" class="edge"><title>Node3&#45;&gt;Node4</title>
<path fill="none" stroke="midnightblue" d="M462.304,-63.564C486.514,-69.942 519.014,-78.5037 547.545,-86.0198"/>
<polygon fill="midnightblue" stroke="midnightblue" points="546.889,-89.4664 557.451,-88.6295 548.672,-82.6974 546.889,-89.4664"/>
</g>
<!-- Node5 -->
<g id="node5" class="node"><title>Node5</title>
<g id="a_node5"><a xlink:href="class_disk_1_1__base_1_1_file_path.html#ab1a670ae97df6f4053dcbb82d4ced7d1" target="_top" xlink:title="Disk._base.FilePath.\l_storeData">
<polygon fill="none" stroke="black" points="559,-39 559,-69 667,-69 667,-39 559,-39"/>
<text text-anchor="start" x="567" y="-57" font-family="Helvetica,sans-Serif" font-size="10.00">Disk._base.FilePath.</text>
<text text-anchor="middle" x="613" y="-46" font-family="Helvetica,sans-Serif" font-size="10.00">_storeData</text>
</a>
</g>
</g>
<!-- Node3&#45;&gt;Node5 -->
<g id="edge4" class="edge"><title>Node3&#45;&gt;Node5</title>
<path fill="none" stroke="midnightblue" d="M489.75,-54C508.827,-54 529.731,-54 548.774,-54"/>
<polygon fill="midnightblue" stroke="midnightblue" points="548.839,-57.5001 558.839,-54 548.839,-50.5001 548.839,-57.5001"/>
</g>
<!-- Node7 -->
<g id="node7" class="node"><title>Node7</title>
<g id="a_node7"><a xlink:href="class_disk_1_1__base_1_1_folder_path.html#a7ea5de715f42afd14092c2bbc40ea816" target="_top" xlink:title="Disk._base.FolderPath.rmtree">
<polygon fill="none" stroke="black" points="538.5,-0.5 538.5,-19.5 687.5,-19.5 687.5,-0.5 538.5,-0.5"/>
<text text-anchor="middle" x="613" y="-7.5" font-family="Helvetica,sans-Serif" font-size="10.00">Disk._base.FolderPath.rmtree</text>
</a>
</g>
</g>
<!-- Node6&#45;&gt;Node7 -->
<g id="edge6" class="edge"><title>Node6&#45;&gt;Node7</title>
<path fill="none" stroke="midnightblue" d="M502.19,-11.7711C510.771,-11.6327 519.549,-11.4911 528.22,-11.3513"/>
<polygon fill="midnightblue" stroke="midnightblue" points="528.388,-14.8491 538.33,-11.1882 528.275,-7.85004 528.388,-14.8491"/>
</g>
</g>
</svg>
