<?xml version="1.0" encoding="UTF-8" standalone="no"?>
<!DOCTYPE svg PUBLIC "-//W3C//DTD SVG 1.1//EN"
 "http://www.w3.org/Graphics/SVG/1.1/DTD/svg11.dtd">
<!-- Generated by graphviz version 2.28.0 (20121214.2254)
 -->
<!-- Title: Disk._base.PathAbstract.__radd__ Pages: 1 -->
<svg width="296pt" height="185pt"
 viewBox="0.00 0.00 296.00 185.00" xmlns="http://www.w3.org/2000/svg" xmlns:xlink="http://www.w3.org/1999/xlink">
<g id="graph1" class="graph" transform="scale(1 1) rotate(0) translate(4 181)">
<title>Disk._base.PathAbstract.__radd__</title>
<!-- Node1 -->
<g id="node1" class="node"><title>Node1</title>
<polygon fill="#bfbfbf" stroke="black" points="0.5,-73 0.5,-103 125.5,-103 125.5,-73 0.5,-73"/>
<text text-anchor="start" x="8.5" y="-91" font-family="Helvetica,sans-Serif" font-size="10.00">Disk._base.PathAbstract.</text>
<text text-anchor="middle" x="63" y="-80" font-family="Helvetica,sans-Serif" font-size="10.00">__radd__</text>
</g>
<!-- Node2 -->
<g id="node3" class="node"><title>Node2</title>
<a xlink:href="class_disk_1_1__base_1_1_path_abstract.html#a775db2f337bec6c4e739f5f09d22b536" target="_top" xlink:title="Disk._base.PathAbstract.\l_addMaker">
<polygon fill="none" stroke="black" points="162.5,-147 162.5,-177 287.5,-177 287.5,-147 162.5,-147"/>
<text text-anchor="start" x="170.5" y="-165" font-family="Helvetica,sans-Serif" font-size="10.00">Disk._base.PathAbstract.</text>
<text text-anchor="middle" x="225" y="-154" font-family="Helvetica,sans-Serif" font-size="10.00">_addMaker</text>
</a>
</g>
<!-- Node1&#45;&gt;Node2 -->
<g id="edge2" class="edge"><title>Node1&#45;&gt;Node2</title>
<path fill="none" stroke="midnightblue" d="M92.8655,-103.199C112.231,-113.205 138.415,-126.369 162,-137 166.398,-138.982 171.002,-140.98 175.629,-142.935"/>
<polygon fill="midnightblue" stroke="midnightblue" points="174.524,-146.266 185.101,-146.872 177.211,-139.802 174.524,-146.266"/>
</g>
<!-- Node3 -->
<g id="node5" class="node"><title>Node3</title>
<a xlink:href="class_disk_1_1__base_1_1_path_abstract.html#a0ab892639a2172b8859cfe9c4644caf9" target="_top" xlink:title="Disk._base.PathAbstract.\l_addMaker_getPath">
<polygon fill="none" stroke="black" points="162.5,-98 162.5,-128 287.5,-128 287.5,-98 162.5,-98"/>
<text text-anchor="start" x="170.5" y="-116" font-family="Helvetica,sans-Serif" font-size="10.00">Disk._base.PathAbstract.</text>
<text text-anchor="middle" x="225" y="-105" font-family="Helvetica,sans-Serif" font-size="10.00">_addMaker_getPath</text>
</a>
</g>
<!-- Node1&#45;&gt;Node3 -->
<g id="edge4" class="edge"><title>Node1&#45;&gt;Node3</title>
<path fill="none" stroke="midnightblue" d="M125.86,-97.6657C134.549,-99.0234 143.54,-100.428 152.392,-101.811"/>
<polygon fill="midnightblue" stroke="midnightblue" points="151.884,-105.274 162.304,-103.36 152.965,-98.3582 151.884,-105.274"/>
</g>
<!-- Node4 -->
<g id="node7" class="node"><title>Node4</title>
<a xlink:href="class_disk_1_1__base_1_1_path_abstract.html#a050f0547c8ebd1edcc6730258065f9b5" target="_top" xlink:title="Disk._base.PathAbstract.\l_makeFilePath">
<polygon fill="none" stroke="black" points="162.5,-49 162.5,-79 287.5,-79 287.5,-49 162.5,-49"/>
<text text-anchor="start" x="170.5" y="-67" font-family="Helvetica,sans-Serif" font-size="10.00">Disk._base.PathAbstract.</text>
<text text-anchor="middle" x="225" y="-56" font-family="Helvetica,sans-Serif" font-size="10.00">_makeFilePath</text>
</a>
</g>
<!-- Node1&#45;&gt;Node4 -->
<g id="edge6" class="edge"><title>Node1&#45;&gt;Node4</title>
<path fill="none" stroke="midnightblue" d="M125.86,-78.721C134.549,-77.4176 143.54,-76.069 152.392,-74.7411"/>
<polygon fill="midnightblue" stroke="midnightblue" points="152.934,-78.1991 162.304,-73.2543 151.896,-71.2766 152.934,-78.1991"/>
</g>
<!-- Node5 -->
<g id="node9" class="node"><title>Node5</title>
<a xlink:href="class_disk_1_1__base_1_1_path_abstract.html#ac544344795730e9691782aca96bce282" target="_top" xlink:title="Disk._base.PathAbstract.\l_makeFolderPath">
<polygon fill="none" stroke="black" points="162.5,-0 162.5,-30 287.5,-30 287.5,-0 162.5,-0"/>
<text text-anchor="start" x="170.5" y="-18" font-family="Helvetica,sans-Serif" font-size="10.00">Disk._base.PathAbstract.</text>
<text text-anchor="middle" x="225" y="-7" font-family="Helvetica,sans-Serif" font-size="10.00">_makeFolderPath</text>
</a>
</g>
<!-- Node1&#45;&gt;Node5 -->
<g id="edge8" class="edge"><title>Node1&#45;&gt;Node5</title>
<path fill="none" stroke="midnightblue" d="M93.3286,-72.9464C112.665,-63.1929 138.64,-50.4141 162,-40 166.469,-38.0078 171.147,-35.9938 175.844,-34.0192"/>
<polygon fill="midnightblue" stroke="midnightblue" points="177.553,-37.1002 185.453,-30.041 174.875,-30.6326 177.553,-37.1002"/>
</g>
</g>
</svg>
