<?xml version="1.0" encoding="UTF-8" standalone="no"?>
<!DOCTYPE svg PUBLIC "-//W3C//DTD SVG 1.1//EN"
 "http://www.w3.org/Graphics/SVG/1.1/DTD/svg11.dtd">
<!-- Generated by graphviz version 2.28.0 (20121214.2254)
 -->
<!-- Title: Disk._base.File.__enter__ Pages: 1 -->
<svg width="442pt" height="104pt"
 viewBox="0.00 0.00 442.00 104.00" xmlns="http://www.w3.org/2000/svg" xmlns:xlink="http://www.w3.org/1999/xlink">
<g id="graph1" class="graph" transform="scale(1 1) rotate(0) translate(4 100)">
<title>Disk._base.File.__enter__</title>
<!-- Node1 -->
<g id="node1" class="node"><title>Node1</title>
<polygon fill="#bfbfbf" stroke="black" points="0.5,-38.5 0.5,-57.5 125.5,-57.5 125.5,-38.5 0.5,-38.5"/>
<text text-anchor="middle" x="63" y="-45.5" font-family="Helvetica,sans-Serif" font-size="10.00">Disk._base.File.__enter__</text>
</g>
<!-- Node2 -->
<g id="node3" class="node"><title>Node2</title>
<a xlink:href="class_disk_1_1__base_1_1_file.html#a7401ddb8e1f5573402123b8f65b7bc08" target="_top" xlink:title="Disk._base.File.getPath">
<polygon fill="none" stroke="black" points="162,-76.5 162,-95.5 278,-95.5 278,-76.5 162,-76.5"/>
<text text-anchor="middle" x="220" y="-83.5" font-family="Helvetica,sans-Serif" font-size="10.00">Disk._base.File.getPath</text>
</a>
</g>
<!-- Node1&#45;&gt;Node2 -->
<g id="edge2" class="edge"><title>Node1&#45;&gt;Node2</title>
<path fill="none" stroke="midnightblue" d="M103.113,-57.589C123.475,-62.5809 148.566,-68.7324 170.189,-74.0334"/>
<polygon fill="midnightblue" stroke="midnightblue" points="169.622,-77.4981 180.168,-76.4799 171.289,-70.6994 169.622,-77.4981"/>
</g>
<!-- Node3 -->
<g id="node5" class="node"><title>Node3</title>
<a xlink:href="class_disk_1_1__base_1_1_file.html#a5801d2db863fa1967d7847917aa757f3" target="_top" xlink:title="Disk._base.File.isClosed">
<polygon fill="none" stroke="black" points="314,-38.5 314,-57.5 434,-57.5 434,-38.5 314,-38.5"/>
<text text-anchor="middle" x="374" y="-45.5" font-family="Helvetica,sans-Serif" font-size="10.00">Disk._base.File.isClosed</text>
</a>
</g>
<!-- Node1&#45;&gt;Node3 -->
<g id="edge4" class="edge"><title>Node1&#45;&gt;Node3</title>
<path fill="none" stroke="midnightblue" d="M125.788,-48C177.245,-48 250.476,-48 303.874,-48"/>
<polygon fill="midnightblue" stroke="midnightblue" points="303.94,-51.5001 313.94,-48 303.94,-44.5001 303.94,-51.5001"/>
</g>
<!-- Node4 -->
<g id="node7" class="node"><title>Node4</title>
<a xlink:href="class_disk_1_1__base_1_1_file.html#addb4e95daa21c36c5bf6d30e7ea29e0e" target="_top" xlink:title="Disk._base.File.reopen">
<polygon fill="none" stroke="black" points="163.5,-0.5 163.5,-19.5 276.5,-19.5 276.5,-0.5 163.5,-0.5"/>
<text text-anchor="middle" x="220" y="-7.5" font-family="Helvetica,sans-Serif" font-size="10.00">Disk._base.File.reopen</text>
</a>
</g>
<!-- Node1&#45;&gt;Node4 -->
<g id="edge6" class="edge"><title>Node1&#45;&gt;Node4</title>
<path fill="none" stroke="midnightblue" d="M103.113,-38.411C123.475,-33.4191 148.566,-27.2676 170.189,-21.9666"/>
<polygon fill="midnightblue" stroke="midnightblue" points="171.289,-25.3006 180.168,-19.5201 169.622,-18.5019 171.289,-25.3006"/>
</g>
<!-- Node4&#45;&gt;Node3 -->
<g id="edge8" class="edge"><title>Node4&#45;&gt;Node3</title>
<path fill="none" stroke="midnightblue" d="M259.356,-19.589C279.324,-24.5809 303.93,-30.7324 325.133,-36.0334"/>
<polygon fill="midnightblue" stroke="midnightblue" points="324.369,-39.45 334.92,-38.4799 326.067,-32.659 324.369,-39.45"/>
</g>
<!-- Node5 -->
<g id="node10" class="node"><title>Node5</title>
<a xlink:href="class_disk_1_1__base_1_1_file.html#a580698496882f925242a1b81d3a4b040" target="_top" xlink:title="Disk._base.File._reopen">
<polygon fill="none" stroke="black" points="315,-0.5 315,-19.5 433,-19.5 433,-0.5 315,-0.5"/>
<text text-anchor="middle" x="374" y="-7.5" font-family="Helvetica,sans-Serif" font-size="10.00">Disk._base.File._reopen</text>
</a>
</g>
<!-- Node4&#45;&gt;Node5 -->
<g id="edge10" class="edge"><title>Node4&#45;&gt;Node5</title>
<path fill="none" stroke="midnightblue" d="M276.736,-10C285.883,-10 295.452,-10 304.859,-10"/>
<polygon fill="midnightblue" stroke="midnightblue" points="304.975,-13.5001 314.975,-10 304.975,-6.5001 304.975,-13.5001"/>
</g>
</g>
</svg>
