<?xml version="1.0" encoding="UTF-8" standalone="no"?>
<!DOCTYPE svg PUBLIC "-//W3C//DTD SVG 1.1//EN"
 "http://www.w3.org/Graphics/SVG/1.1/DTD/svg11.dtd">
<!-- Generated by graphviz version 2.30.1 (20130219.2202)
 -->
<!-- Title: Disk._base.File.__exit__ Pages: 1 -->
<!--zoomable 85 -->
<svg id="main" version="1.1" xmlns="http://www.w3.org/2000/svg" xmlns:xlink="http://www.w3.org/1999/xlink" xml:space="preserve" onload="init(evt)">
        <defs>
                <circle id="rim" cx="0" cy="0" r="7"/>
                <circle id="rim2" cx="0" cy="0" r="3.5"/>
                <g id="zoomPlus">
                        <use xlink:href="#rim" fill="#404040">
                                <set attributeName="fill" to="#808080" begin="zoomplus.mouseover" end="zoomplus.mouseout"/>
                        </use>
                        <path d="M-4,0h8M0,-4v8" fill="none" stroke="white" stroke-width="1.5" pointer-events="none"/>
                </g>
                <g id="zoomMin">
                        <use xlink:href="#rim" fill="#404040">
                                <set attributeName="fill" to="#808080" begin="zoomminus.mouseover" end="zoomminus.mouseout"/>
                        </use>
                        <path d="M-4,0h8" fill="none" stroke="white" stroke-width="1.5" pointer-events="none"/>
                </g>
                <g id="dirArrow">
                        <path fill="none" stroke="white" stroke-width="1.5" d="M0,-3.0v7 M-2.5,-0.5L0,-3.0L2.5,-0.5"/>
                </g>
               <g id="resetDef">
                       <use xlink:href="#rim2" fill="#404040">
                               <set attributeName="fill" to="#808080" begin="reset.mouseover" end="reset.mouseout"/>
                       </use>
               </g>
        </defs>

<script type="text/javascript">
var viewWidth = 778;
var viewHeight = 85;
var sectionId = 'dynsection-2';
</script>
<script xlink:href="svgpan.js"/>
<svg id="graph" class="graph">
<g id="viewport">
<title>Disk._base.File.__exit__</title>
<!-- Node1 -->
<g id="node1" class="node"><title>Node1</title>
<polygon fill="#bfbfbf" stroke="black" points="0.5,-38.5 0.5,-57.5 119.5,-57.5 119.5,-38.5 0.5,-38.5"/>
<text text-anchor="middle" x="60" y="-45.5" font-family="Helvetica,sans-Serif" font-size="10.00">Disk._base.File.__exit__</text>
</g>
<!-- Node2 -->
<g id="node2" class="node"><title>Node2</title>
<g id="a_node2"><a xlink:href="class_disk_1_1_local_1_1___file_1_1_base_file.html#a4044af9876fda87605d0acd6914d2aa6" target="_top" xlink:title="Disk.Local._File.BaseFile.close">
<polygon fill="none" stroke="black" points="156,-57.5 156,-76.5 300,-76.5 300,-57.5 156,-57.5"/>
<text text-anchor="middle" x="228" y="-64.5" font-family="Helvetica,sans-Serif" font-size="10.00">Disk.Local._File.BaseFile.close</text>
</a>
</g>
</g>
<!-- Node1&#45;&gt;Node2 -->
<g id="edge1" class="edge"><title>Node1&#45;&gt;Node2</title>
<path fill="none" stroke="midnightblue" d="M119.525,-54.6987C128.071,-55.6768 136.996,-56.6984 145.893,-57.7166"/>
<polygon fill="midnightblue" stroke="midnightblue" points="145.57,-61.2025 155.903,-58.8624 146.366,-54.2479 145.57,-61.2025"/>
</g>
<!-- Node3 -->
<g id="node3" class="node"><title>Node3</title>
<g id="a_node3"><a xlink:href="class_disk_1_1_s_s_h_1_1___file_1_1_file.html#a78a57bc0b49bb00fe9672e04fba5661c" target="_top" xlink:title="Disk.SSH._File.File.close">
<polygon fill="none" stroke="black" points="168.5,-19.5 168.5,-38.5 287.5,-38.5 287.5,-19.5 168.5,-19.5"/>
<text text-anchor="middle" x="228" y="-26.5" font-family="Helvetica,sans-Serif" font-size="10.00">Disk.SSH._File.File.close</text>
</a>
</g>
</g>
<!-- Node1&#45;&gt;Node3 -->
<g id="edge2" class="edge"><title>Node1&#45;&gt;Node3</title>
<path fill="none" stroke="midnightblue" d="M119.525,-41.3013C132.047,-39.8682 145.384,-38.3416 158.251,-36.8689"/>
<polygon fill="midnightblue" stroke="midnightblue" points="158.906,-40.3168 168.444,-35.7022 158.11,-33.3622 158.906,-40.3168"/>
</g>
<!-- Node4 -->
<g id="node4" class="node"><title>Node4</title>
<g id="a_node4"><a xlink:href="class_disk_1_1_s_s_h_1_1___file_1_1_file.html#a2b8fa9d0d909bb45c91d589d2e0cf6d3" target="_top" xlink:title="Uploads the file if changed.">
<polygon fill="none" stroke="black" points="336,-19.5 336,-38.5 452,-38.5 452,-19.5 336,-19.5"/>
<text text-anchor="middle" x="394" y="-26.5" font-family="Helvetica,sans-Serif" font-size="10.00">Disk.SSH._File.File.flush</text>
</a>
</g>
</g>
<!-- Node3&#45;&gt;Node4 -->
<g id="edge3" class="edge"><title>Node3&#45;&gt;Node4</title>
<path fill="none" stroke="midnightblue" d="M287.745,-29C299.951,-29 312.908,-29 325.403,-29"/>
<polygon fill="midnightblue" stroke="midnightblue" points="325.765,-32.5001 335.765,-29 325.765,-25.5001 325.765,-32.5001"/>
</g>
<!-- Node5 -->
<g id="node5" class="node"><title>Node5</title>
<g id="a_node5"><a xlink:href="class_disk_1_1__base_1_1_file.html#af4a79b03f7f30ffdf6be32aaa025f9aa" target="_top" xlink:title="Disk._base.File.isWritable">
<polygon fill="none" stroke="black" points="488.5,-38.5 488.5,-57.5 613.5,-57.5 613.5,-38.5 488.5,-38.5"/>
<text text-anchor="middle" x="551" y="-45.5" font-family="Helvetica,sans-Serif" font-size="10.00">Disk._base.File.isWritable</text>
</a>
</g>
</g>
<!-- Node4&#45;&gt;Node5 -->
<g id="edge4" class="edge"><title>Node4&#45;&gt;Node5</title>
<path fill="none" stroke="midnightblue" d="M452.276,-36.0209C460.706,-37.0542 469.479,-38.1296 478.156,-39.1934"/>
<polygon fill="midnightblue" stroke="midnightblue" points="477.922,-42.6908 488.274,-40.4335 478.774,-35.7428 477.922,-42.6908"/>
</g>
<!-- Node7 -->
<g id="node7" class="node"><title>Node7</title>
<g id="a_node7"><a xlink:href="class_disk_1_1__base_1_1_file.html#a7401ddb8e1f5573402123b8f65b7bc08" target="_top" xlink:title="Disk._base.File.getPath">
<polygon fill="none" stroke="black" points="493,-0.5 493,-19.5 609,-19.5 609,-0.5 493,-0.5"/>
<text text-anchor="middle" x="551" y="-7.5" font-family="Helvetica,sans-Serif" font-size="10.00">Disk._base.File.getPath</text>
</a>
</g>
</g>
<!-- Node4&#45;&gt;Node7 -->
<g id="edge6" class="edge"><title>Node4&#45;&gt;Node7</title>
<path fill="none" stroke="midnightblue" d="M452.276,-21.9791C462.236,-20.7581 472.676,-19.4784 482.872,-18.2286"/>
<polygon fill="midnightblue" stroke="midnightblue" points="483.46,-21.6828 492.96,-16.9921 482.608,-14.7348 483.46,-21.6828"/>
</g>
<!-- Node6 -->
<g id="node6" class="node"><title>Node6</title>
<g id="a_node6"><a xlink:href="class_disk_1_1__base_1_1_file.html#a5801d2db863fa1967d7847917aa757f3" target="_top" xlink:title="Disk._base.File.isClosed">
<polygon fill="none" stroke="black" points="650,-38.5 650,-57.5 770,-57.5 770,-38.5 650,-38.5"/>
<text text-anchor="middle" x="710" y="-45.5" font-family="Helvetica,sans-Serif" font-size="10.00">Disk._base.File.isClosed</text>
</a>
</g>
</g>
<!-- Node5&#45;&gt;Node6 -->
<g id="edge5" class="edge"><title>Node5&#45;&gt;Node6</title>
<path fill="none" stroke="midnightblue" d="M613.6,-48C622.183,-48 631.048,-48 639.76,-48"/>
<polygon fill="midnightblue" stroke="midnightblue" points="639.889,-51.5001 649.889,-48 639.889,-44.5001 639.889,-51.5001"/>
</g>
</g>
</svg>
        <g id="navigator" transform="translate(0 0)" fill="#404254">
                <rect fill="#f2f5e9" fill-opacity="0.5" stroke="#606060" stroke-width=".5" x="0" y="0" width="60" height="60"/>
                <use id="zoomplus" xlink:href="#zoomPlus" x="17" y="9" onmousedown="handleZoom(evt,'in')"/>
                <use id="zoomminus" xlink:href="#zoomMin" x="42" y="9" onmousedown="handleZoom(evt,'out')"/>
                <use id="reset" xlink:href="#resetDef" x="30" y="36" onmousedown="handleReset()"/>
                <g id="arrowUp" xlink:href="#dirArrow" transform="translate(30 24)" onmousedown="handlePan(0,-1)">
                  <use xlink:href="#rim" fill="#404040">
                        <set attributeName="fill" to="#808080" begin="arrowUp.mouseover" end="arrowUp.mouseout"/>
                  </use>
                  <path fill="none" stroke="white" stroke-width="1.5" d="M0,-3.0v7 M-2.5,-0.5L0,-3.0L2.5,-0.5"/>
                </g>
                <g id="arrowRight" xlink:href="#dirArrow" transform="rotate(90) translate(36 -43)" onmousedown="handlePan(1,0)">
                  <use xlink:href="#rim" fill="#404040">
                        <set attributeName="fill" to="#808080" begin="arrowRight.mouseover" end="arrowRight.mouseout"/>
                  </use>
                  <path fill="none" stroke="white" stroke-width="1.5" d="M0,-3.0v7 M-2.5,-0.5L0,-3.0L2.5,-0.5"/>
                </g>
                <g id="arrowDown" xlink:href="#dirArrow" transform="rotate(180) translate(-30 -48)" onmousedown="handlePan(0,1)">
                  <use xlink:href="#rim" fill="#404040">
                        <set attributeName="fill" to="#808080" begin="arrowDown.mouseover" end="arrowDown.mouseout"/>
                  </use>
                  <path fill="none" stroke="white" stroke-width="1.5" d="M0,-3.0v7 M-2.5,-0.5L0,-3.0L2.5,-0.5"/>
                </g>
                <g id="arrowLeft" xlink:href="#dirArrow" transform="rotate(270) translate(-36 17)" onmousedown="handlePan(-1,0)">
                  <use xlink:href="#rim" fill="#404040">
                        <set attributeName="fill" to="#808080" begin="arrowLeft.mouseover" end="arrowLeft.mouseout"/>
                  </use>
                  <path fill="none" stroke="white" stroke-width="1.5" d="M0,-3.0v7 M-2.5,-0.5L0,-3.0L2.5,-0.5"/>
                </g>
        </g>
        <svg viewBox="0 0 15 15" width="100%" height="30px" preserveAspectRatio="xMaxYMin meet">
         <g id="arrow_out" transform="scale(0.3 0.3)">
          <a xlink:href="class_disk_1_1__base_1_1_file_ad9e735b15b84fb029c777c9f48e30295_cgraph_org.svg" target="_base">
           <rect id="button" ry="5" rx="5" y="6" x="6" height="38" width="38"
                fill="#f2f5e9" fill-opacity="0.5" stroke="#606060" stroke-width="1.0"/>
           <path id="arrow"
             d="M 11.500037,31.436501 C 11.940474,20.09759 22.043105,11.32322 32.158766,21.979434 L 37.068811,17.246167 C 37.068811,17.246167 37.088388,32 37.088388,32 L 22.160133,31.978069 C 22.160133,31.978069 26.997745,27.140456 26.997745,27.140456 C 18.528582,18.264221 13.291696,25.230495 11.500037,31.436501 z"
             style="fill:#404040;"/>
          </a>
         </g>
        </svg>
</svg>
