<?xml version="1.0" encoding="UTF-8" standalone="no"?>
<!DOCTYPE svg PUBLIC "-//W3C//DTD SVG 1.1//EN"
 "http://www.w3.org/Graphics/SVG/1.1/DTD/svg11.dtd">
<!-- Generated by graphviz version 2.28.0 (20121214.2254)
 -->
<!-- Title: Disk._base.PathAbstract.asStr Pages: 1 -->
<svg width="348pt" height="66pt"
 viewBox="0.00 0.00 348.00 66.00" xmlns="http://www.w3.org/2000/svg" xmlns:xlink="http://www.w3.org/1999/xlink">
<g id="graph1" class="graph" transform="scale(1 1) rotate(0) translate(4 62)">
<title>Disk._base.PathAbstract.asStr</title>
<!-- Node1 -->
<g id="node1" class="node"><title>Node1</title>
<polygon fill="#bfbfbf" stroke="black" points="0,-19.5 0,-38.5 148,-38.5 148,-19.5 0,-19.5"/>
<text text-anchor="middle" x="74" y="-26.5" font-family="Helvetica,sans-Serif" font-size="10.00">Disk._base.PathAbstract.asStr</text>
</g>
<!-- Node2 -->
<g id="node3" class="node"><title>Node2</title>
<a xlink:href="class_disk_1_1_local_1_1___paths_1_1_file_path.html#afab16ed167f1dbef71a86f2aaaa34b71" target="_top" xlink:title="Disk.Local._Paths.FilePath.asFile">
<polygon fill="none" stroke="black" points="184,-38.5 184,-57.5 340,-57.5 340,-38.5 184,-38.5"/>
<text text-anchor="middle" x="262" y="-45.5" font-family="Helvetica,sans-Serif" font-size="10.00">Disk.Local._Paths.FilePath.asFile</text>
</a>
</g>
<!-- Node1&#45;&gt;Node2 -->
<g id="edge2" class="edge"><title>Node1&#45;&gt;Node2</title>
<path fill="none" stroke="midnightblue" d="M158.195,-37.4985C166.73,-38.3703 175.376,-39.2535 183.842,-40.1182"/>
<polygon fill="midnightblue" stroke="midnightblue" points="158.549,-34.0165 148.245,-36.482 157.838,-40.9802 158.549,-34.0165"/>
</g>
<!-- Node3 -->
<g id="node5" class="node"><title>Node3</title>
<a xlink:href="class_disk_1_1_s_s_h_1_1___paths_1_1_file_path.html#a0c270ea1de35c8cc83798ecbd94d07fa" target="_top" xlink:title="Disk.SSH._Paths.FilePath.asFile">
<polygon fill="none" stroke="black" points="185,-0.5 185,-19.5 339,-19.5 339,-0.5 185,-0.5"/>
<text text-anchor="middle" x="262" y="-7.5" font-family="Helvetica,sans-Serif" font-size="10.00">Disk.SSH._Paths.FilePath.asFile</text>
</a>
</g>
<!-- Node1&#45;&gt;Node3 -->
<g id="edge4" class="edge"><title>Node1&#45;&gt;Node3</title>
<path fill="none" stroke="midnightblue" d="M158.457,-20.4748C167.216,-19.58 176.09,-18.6736 184.763,-17.7877"/>
<polygon fill="midnightblue" stroke="midnightblue" points="157.838,-17.0198 148.245,-21.518 158.549,-23.9835 157.838,-17.0198"/>
</g>
</g>
</svg>
