<?xml version="1.0" encoding="UTF-8" standalone="no"?>
<!DOCTYPE svg PUBLIC "-//W3C//DTD SVG 1.1//EN"
 "http://www.w3.org/Graphics/SVG/1.1/DTD/svg11.dtd">
<!-- Generated by graphviz version 2.30.1 (20130221.2233)
 -->
<!-- Title: Disk._base.File.getPath Pages: 1 -->
<svg width="458pt" height="115pt"
 viewBox="0.00 0.00 458.00 115.00" xmlns="http://www.w3.org/2000/svg" xmlns:xlink="http://www.w3.org/1999/xlink">
<g id="graph0" class="graph" transform="scale(1 1) rotate(0) translate(4 111)">
<title>Disk._base.File.getPath</title>
<!-- Node1 -->
<g id="node1" class="node"><title>Node1</title>
<polygon fill="#bfbfbf" stroke="black" points="0,-49.5 0,-68.5 122,-68.5 122,-49.5 0,-49.5"/>
<text text-anchor="middle" x="61" y="-56.5" font-family="Helvetica,sans-Serif" font-size="10.00">Disk._base.File.getPath</text>
</g>
<!-- Node2 -->
<g id="node2" class="node"><title>Node2</title>
<g id="a_node2"><a xlink:href="class_disk_1_1__base_1_1_file.html#aa6035675eda3f591d6a7404e07453816" target="_top" xlink:title="Disk._base.File.__repr__">
<polygon fill="none" stroke="black" points="161,-87.5 161,-106.5 289,-106.5 289,-87.5 161,-87.5"/>
<text text-anchor="middle" x="225" y="-94.5" font-family="Helvetica,sans-Serif" font-size="10.00">Disk._base.File.__repr__</text>
</a>
</g>
</g>
<!-- Node1&#45;&gt;Node2 -->
<g id="edge1" class="edge"><title>Node1&#45;&gt;Node2</title>
<path fill="none" stroke="midnightblue" d="M112.715,-70.8961C135.486,-76.2374 161.987,-82.4537 183.415,-87.4799"/>
<polygon fill="midnightblue" stroke="midnightblue" points="113.415,-67.4653 102.879,-68.589 111.816,-74.2803 113.415,-67.4653"/>
</g>
<!-- Node4 -->
<g id="node4" class="node"><title>Node4</title>
<g id="a_node4"><a xlink:href="class_disk_1_1__base_1_1_file.html#a91270d2ecba3b573d24b79e7a25c6b58" target="_top" xlink:title="Disk._base.File.__enter__">
<polygon fill="none" stroke="black" points="158.5,-49.5 158.5,-68.5 291.5,-68.5 291.5,-49.5 158.5,-49.5"/>
<text text-anchor="middle" x="225" y="-56.5" font-family="Helvetica,sans-Serif" font-size="10.00">Disk._base.File.__enter__</text>
</a>
</g>
</g>
<!-- Node1&#45;&gt;Node4 -->
<g id="edge3" class="edge"><title>Node1&#45;&gt;Node4</title>
<path fill="none" stroke="midnightblue" d="M132.39,-59C141.051,-59 149.877,-59 158.462,-59"/>
<polygon fill="midnightblue" stroke="midnightblue" points="132.323,-55.5001 122.323,-59 132.323,-62.5001 132.323,-55.5001"/>
</g>
<!-- Node5 -->
<g id="node5" class="node"><title>Node5</title>
<g id="a_node5"><a xlink:href="class_disk_1_1_local_1_1___file_1_1_base_file.html#ab36c5557a10aca5ed74dcf36af9a79bf" target="_top" xlink:title="Disk.Local._File.BaseFile.\l__exit__">
<polygon fill="none" stroke="black" points="159,-0 159,-30 291,-30 291,-0 159,-0"/>
<text text-anchor="start" x="167" y="-18" font-family="Helvetica,sans-Serif" font-size="10.00">Disk.Local._File.BaseFile.</text>
<text text-anchor="middle" x="225" y="-7" font-family="Helvetica,sans-Serif" font-size="10.00">__exit__</text>
</a>
</g>
</g>
<!-- Node1&#45;&gt;Node5 -->
<g id="edge4" class="edge"><title>Node1&#45;&gt;Node5</title>
<path fill="none" stroke="midnightblue" d="M106.803,-46.8313C125.907,-41.6426 148.392,-35.5354 168.532,-30.0654"/>
<polygon fill="midnightblue" stroke="midnightblue" points="105.885,-43.4539 97.1516,-49.4527 107.719,-50.2091 105.885,-43.4539"/>
</g>
<!-- Node3 -->
<g id="node3" class="node"><title>Node3</title>
<g id="a_node3"><a xlink:href="class_disk_1_1__base_1_1_file.html#afecee354ca982223e41d25bf0910d8f2" target="_top" xlink:title="Disk._base.File.__str__">
<polygon fill="none" stroke="black" points="328.5,-87.5 328.5,-106.5 449.5,-106.5 449.5,-87.5 328.5,-87.5"/>
<text text-anchor="middle" x="389" y="-94.5" font-family="Helvetica,sans-Serif" font-size="10.00">Disk._base.File.__str__</text>
</a>
</g>
</g>
<!-- Node2&#45;&gt;Node3 -->
<g id="edge2" class="edge"><title>Node2&#45;&gt;Node3</title>
<path fill="none" stroke="midnightblue" d="M299.164,-97C308.899,-97 318.787,-97 328.258,-97"/>
<polygon fill="midnightblue" stroke="midnightblue" points="299.097,-93.5001 289.097,-97 299.097,-100.5 299.097,-93.5001"/>
</g>
</g>
</svg>
