<?xml version="1.0" encoding="UTF-8" standalone="no"?>
<!DOCTYPE svg PUBLIC "-//W3C//DTD SVG 1.1//EN"
 "http://www.w3.org/Graphics/SVG/1.1/DTD/svg11.dtd">
<!-- Generated by graphviz version 2.30.1 (20130219.2202)
 -->
<!-- Title: Disk.Local._File.BaseFile.closed Pages: 1 -->
<svg width="328pt" height="77pt"
 viewBox="0.00 0.00 328.00 77.00" xmlns="http://www.w3.org/2000/svg" xmlns:xlink="http://www.w3.org/1999/xlink">
<g id="graph0" class="graph" transform="scale(1 1) rotate(0) translate(4 73)">
<title>Disk.Local._File.BaseFile.closed</title>
<!-- Node1 -->
<g id="node1" class="node"><title>Node1</title>
<polygon fill="#bfbfbf" stroke="black" points="0.5,-22.5 0.5,-41.5 149.5,-41.5 149.5,-22.5 0.5,-22.5"/>
<text text-anchor="middle" x="75" y="-29.5" font-family="Helvetica,sans-Serif" font-size="10.00">Disk.Local._File.BaseFile.closed</text>
</g>
<!-- Node2 -->
<g id="node2" class="node"><title>Node2</title>
<g id="a_node2"><a xlink:href="class_disk_1_1_local_1_1___file_1_1_base_file.html#a6781f6d740a3795f369bfdc2a37d68eb" target="_top" xlink:title="Disk.Local._File.BaseFile.is\lClosed">
<polygon fill="none" stroke="black" points="188.5,-39 188.5,-69 317.5,-69 317.5,-39 188.5,-39"/>
<text text-anchor="start" x="196.5" y="-57" font-family="Helvetica,sans-Serif" font-size="10.00">Disk.Local._File.BaseFile.is</text>
<text text-anchor="middle" x="253" y="-46" font-family="Helvetica,sans-Serif" font-size="10.00">Closed</text>
</a>
</g>
</g>
<!-- Node1&#45;&gt;Node2 -->
<g id="edge1" class="edge"><title>Node1&#45;&gt;Node2</title>
<path fill="none" stroke="midnightblue" d="M159.666,-42.4583C169.349,-43.6687 179.103,-44.8879 188.456,-46.057"/>
<polygon fill="midnightblue" stroke="midnightblue" points="159.977,-38.97 149.62,-41.2025 159.109,-45.9159 159.977,-38.97"/>
</g>
<!-- Node3 -->
<g id="node3" class="node"><title>Node3</title>
<g id="a_node3"><a xlink:href="class_disk_1_1_s_s_h_1_1___file_1_1_file.html#a732f8ebbb792c74f2fdc456495c9ba0d" target="_top" xlink:title="Disk.SSH._File.File.isClosed">
<polygon fill="none" stroke="black" points="186,-0.5 186,-19.5 320,-19.5 320,-0.5 186,-0.5"/>
<text text-anchor="middle" x="253" y="-7.5" font-family="Helvetica,sans-Serif" font-size="10.00">Disk.SSH._File.File.isClosed</text>
</a>
</g>
</g>
<!-- Node1&#45;&gt;Node3 -->
<g id="edge2" class="edge"><title>Node1&#45;&gt;Node3</title>
<path fill="none" stroke="midnightblue" d="M159.575,-21.5532C168.431,-20.4461 177.347,-19.3316 185.963,-18.2546"/>
<polygon fill="midnightblue" stroke="midnightblue" points="159.109,-18.0841 149.62,-22.7975 159.977,-25.03 159.109,-18.0841"/>
</g>
</g>
</svg>
