<?xml version="1.0" encoding="UTF-8" standalone="no"?>
<!DOCTYPE svg PUBLIC "-//W3C//DTD SVG 1.1//EN"
 "http://www.w3.org/Graphics/SVG/1.1/DTD/svg11.dtd">
<!-- Generated by graphviz version 2.30.1 (20130221.2233)
 -->
<!-- Title: Disk.Local._Paths.FilePath Pages: 1 -->
<svg width="298pt" height="548pt"
 viewBox="0.00 0.00 298.00 548.00" xmlns="http://www.w3.org/2000/svg" xmlns:xlink="http://www.w3.org/1999/xlink">
<g id="graph0" class="graph" transform="scale(1 1) rotate(0) translate(4 544)">
<title>Disk.Local._Paths.FilePath</title>
<!-- Node1 -->
<g id="node1" class="node"><title>Node1</title>
<polygon fill="#bfbfbf" stroke="black" points="84,-0.5 84,-79.5 220,-79.5 220,-0.5 84,-0.5"/>
<text text-anchor="middle" x="152" y="-67.5" font-family="Helvetica,sans-Serif" font-size="10.00">Disk.Local._Paths.FilePath</text>
<polyline fill="none" stroke="black" points="84,-60.5 220,-60.5 "/>
<text text-anchor="middle" x="152" y="-48.5" font-family="Helvetica,sans-Serif" font-size="10.00"> </text>
<polyline fill="none" stroke="black" points="84,-41.5 220,-41.5 "/>
<text text-anchor="start" x="92" y="-29.5" font-family="Helvetica,sans-Serif" font-size="10.00">+ __init__()</text>
<text text-anchor="start" x="92" y="-18.5" font-family="Helvetica,sans-Serif" font-size="10.00">+ asFile()</text>
<text text-anchor="start" x="92" y="-7.5" font-family="Helvetica,sans-Serif" font-size="10.00">+ move()</text>
</g>
<!-- Node2 -->
<g id="node2" class="node"><title>Node2</title>
<g id="a_node2"><a xlink:href="class_disk_1_1_local_1_1___paths_1_1_path_abstract.html" target="_top" xlink:title="Abstract concept of a file or folder path. ">
<polygon fill="none" stroke="black" points="-0.5,-155.5 -0.5,-212.5 156.5,-212.5 156.5,-155.5 -0.5,-155.5"/>
<text text-anchor="middle" x="78" y="-200.5" font-family="Helvetica,sans-Serif" font-size="10.00">Disk.Local._Paths.PathAbstract</text>
<polyline fill="none" stroke="black" points="-0.5,-193.5 156.5,-193.5 "/>
<text text-anchor="middle" x="78" y="-181.5" font-family="Helvetica,sans-Serif" font-size="10.00"> </text>
<polyline fill="none" stroke="black" points="-0.5,-174.5 156.5,-174.5 "/>
<text text-anchor="middle" x="78" y="-162.5" font-family="Helvetica,sans-Serif" font-size="10.00"> </text>
</a>
</g>
</g>
<!-- Node2&#45;&gt;Node1 -->
<g id="edge1" class="edge"><title>Node2&#45;&gt;Node1</title>
<path fill="none" stroke="midnightblue" d="M97.1373,-146.277C107.791,-125.834 121.043,-100.403 131.854,-79.6578"/>
<polygon fill="none" stroke="midnightblue" points="93.9612,-144.798 92.4436,-155.284 100.169,-148.033 93.9612,-144.798"/>
</g>
<!-- Node3 -->
<g id="node3" class="node"><title>Node3</title>
<g id="a_node3"><a xlink:href="class_disk_1_1__base_1_1_file_path.html" target="_top" xlink:title="{Disk._base.FilePath\n||+ __init__()\l+ asFile()\l+ create()\l+ copyDates()\l+ copy()\l+ move()\l+ rename()\l+ isBinary()\l}">
<polygon fill="none" stroke="black" points="174.5,-117 174.5,-251 279.5,-251 279.5,-117 174.5,-117"/>
<text text-anchor="middle" x="227" y="-239" font-family="Helvetica,sans-Serif" font-size="10.00">Disk._base.FilePath</text>
<polyline fill="none" stroke="black" points="174.5,-232 279.5,-232 "/>
<text text-anchor="middle" x="227" y="-220" font-family="Helvetica,sans-Serif" font-size="10.00"> </text>
<polyline fill="none" stroke="black" points="174.5,-213 279.5,-213 "/>
<text text-anchor="start" x="182.5" y="-201" font-family="Helvetica,sans-Serif" font-size="10.00">+ __init__()</text>
<text text-anchor="start" x="182.5" y="-190" font-family="Helvetica,sans-Serif" font-size="10.00">+ asFile()</text>
<text text-anchor="start" x="182.5" y="-179" font-family="Helvetica,sans-Serif" font-size="10.00">+ create()</text>
<text text-anchor="start" x="182.5" y="-168" font-family="Helvetica,sans-Serif" font-size="10.00">+ copyDates()</text>
<text text-anchor="start" x="182.5" y="-157" font-family="Helvetica,sans-Serif" font-size="10.00">+ copy()</text>
<text text-anchor="start" x="182.5" y="-146" font-family="Helvetica,sans-Serif" font-size="10.00">+ move()</text>
<text text-anchor="start" x="182.5" y="-135" font-family="Helvetica,sans-Serif" font-size="10.00">+ rename()</text>
<text text-anchor="start" x="182.5" y="-124" font-family="Helvetica,sans-Serif" font-size="10.00">+ isBinary()</text>
</a>
</g>
</g>
<!-- Node3&#45;&gt;Node1 -->
<g id="edge2" class="edge"><title>Node3&#45;&gt;Node1</title>
<path fill="none" stroke="midnightblue" d="M187.393,-108.012C182.235,-98.2443 177.129,-88.578 172.469,-79.7552"/>
<polygon fill="none" stroke="midnightblue" points="184.37,-109.781 192.135,-116.989 190.559,-106.511 184.37,-109.781"/>
</g>
<!-- Node4 -->
<g id="node4" class="node"><title>Node4</title>
<g id="a_node4"><a xlink:href="class_disk_1_1__base_1_1_path_abstract.html" target="_top" xlink:title="{Disk._base.PathAbstract\n|+ path\l|+ __init__()\l+ asStr()\l+ __str__()\l+ __repr__()\l+ __add__()\l+ __radd__()\l+ __eq__()\l+ __hash__()\l+ __getattr__()\l+ splitAll()\l}">
<polygon fill="none" stroke="black" points="164,-289 164,-445 290,-445 290,-289 164,-289"/>
<text text-anchor="middle" x="227" y="-433" font-family="Helvetica,sans-Serif" font-size="10.00">Disk._base.PathAbstract</text>
<polyline fill="none" stroke="black" points="164,-426 290,-426 "/>
<text text-anchor="start" x="172" y="-414" font-family="Helvetica,sans-Serif" font-size="10.00">+ path</text>
<polyline fill="none" stroke="black" points="164,-407 290,-407 "/>
<text text-anchor="start" x="172" y="-395" font-family="Helvetica,sans-Serif" font-size="10.00">+ __init__()</text>
<text text-anchor="start" x="172" y="-384" font-family="Helvetica,sans-Serif" font-size="10.00">+ asStr()</text>
<text text-anchor="start" x="172" y="-373" font-family="Helvetica,sans-Serif" font-size="10.00">+ __str__()</text>
<text text-anchor="start" x="172" y="-362" font-family="Helvetica,sans-Serif" font-size="10.00">+ __repr__()</text>
<text text-anchor="start" x="172" y="-351" font-family="Helvetica,sans-Serif" font-size="10.00">+ __add__()</text>
<text text-anchor="start" x="172" y="-340" font-family="Helvetica,sans-Serif" font-size="10.00">+ __radd__()</text>
<text text-anchor="start" x="172" y="-329" font-family="Helvetica,sans-Serif" font-size="10.00">+ __eq__()</text>
<text text-anchor="start" x="172" y="-318" font-family="Helvetica,sans-Serif" font-size="10.00">+ __hash__()</text>
<text text-anchor="start" x="172" y="-307" font-family="Helvetica,sans-Serif" font-size="10.00">+ __getattr__()</text>
<text text-anchor="start" x="172" y="-296" font-family="Helvetica,sans-Serif" font-size="10.00">+ splitAll()</text>
</a>
</g>
</g>
<!-- Node4&#45;&gt;Node3 -->
<g id="edge3" class="edge"><title>Node4&#45;&gt;Node3</title>
<path fill="none" stroke="midnightblue" d="M227,-278.876C227,-269.533 227,-260.141 227,-251.101"/>
<polygon fill="none" stroke="midnightblue" points="223.5,-278.977 227,-288.977 230.5,-278.977 223.5,-278.977"/>
</g>
<!-- Node5 -->
<g id="node5" class="node"><title>Node5</title>
<g id="a_node5"><a xlink:href="classobject.html" target="_top" xlink:title="{object\n||}">
<polygon fill="none" stroke="black" points="205.5,-482.5 205.5,-539.5 248.5,-539.5 248.5,-482.5 205.5,-482.5"/>
<text text-anchor="middle" x="227" y="-527.5" font-family="Helvetica,sans-Serif" font-size="10.00">object</text>
<polyline fill="none" stroke="black" points="205.5,-520.5 248.5,-520.5 "/>
<text text-anchor="middle" x="227" y="-508.5" font-family="Helvetica,sans-Serif" font-size="10.00"> </text>
<polyline fill="none" stroke="black" points="205.5,-501.5 248.5,-501.5 "/>
<text text-anchor="middle" x="227" y="-489.5" font-family="Helvetica,sans-Serif" font-size="10.00"> </text>
</a>
</g>
</g>
<!-- Node5&#45;&gt;Node4 -->
<g id="edge4" class="edge"><title>Node5&#45;&gt;Node4</title>
<path fill="none" stroke="midnightblue" d="M227,-472.128C227,-463.734 227,-454.545 227,-445.212"/>
<polygon fill="none" stroke="midnightblue" points="223.5,-472.284 227,-482.284 230.5,-472.284 223.5,-472.284"/>
</g>
</g>
</svg>
