<?xml version="1.0" encoding="UTF-8" standalone="no"?>
<!DOCTYPE svg PUBLIC "-//W3C//DTD SVG 1.1//EN"
 "http://www.w3.org/Graphics/SVG/1.1/DTD/svg11.dtd">
<!-- Generated by graphviz version 2.28.0 (20121214.2254)
 -->
<!-- Title: Disk.SSH._Paths.SSHpathAbstract Pages: 1 -->
<svg width="291pt" height="194pt"
 viewBox="0.00 0.00 291.00 194.00" xmlns="http://www.w3.org/2000/svg" xmlns:xlink="http://www.w3.org/1999/xlink">
<g id="graph1" class="graph" transform="scale(1 1) rotate(0) translate(4 190)">
<title>Disk.SSH._Paths.SSHpathAbstract</title>
<!-- Node1 -->
<g id="node1" class="node"><title>Node1</title>
<polygon fill="#bfbfbf" stroke="black" points="54,-128.5 54,-185.5 222,-185.5 222,-128.5 54,-128.5"/>
<text text-anchor="middle" x="138" y="-173.5" font-family="Helvetica,sans-Serif" font-size="10.00">Disk.SSH._Paths.SSHpathAbstract</text>
<polyline fill="none" stroke="black" points="54,-166.5 222,-166.5 "/>
<text text-anchor="start" x="62" y="-154.5" font-family="Helvetica,sans-Serif" font-size="10.00">+ connection</text>
<polyline fill="none" stroke="black" points="54,-147.5 222,-147.5 "/>
<text text-anchor="start" x="62" y="-135.5" font-family="Helvetica,sans-Serif" font-size="10.00">+ __init__()</text>
</g>
<!-- Node2 -->
<g id="node3" class="node"><title>Node2</title>
<a xlink:href="class_disk_1_1_s_s_h_1_1___paths_1_1_file_path.html" target="_top" xlink:title="Path of a file on a remote machine.">
<polygon fill="none" stroke="black" points="-0.5,-1 -0.5,-91 126.5,-91 126.5,-1 -0.5,-1"/>
<text text-anchor="middle" x="63" y="-79" font-family="Helvetica,sans-Serif" font-size="10.00">Disk.SSH._Paths.FilePath</text>
<polyline fill="none" stroke="black" points="-0.5,-72 126.5,-72 "/>
<text text-anchor="middle" x="63" y="-60" font-family="Helvetica,sans-Serif" font-size="10.00"> </text>
<polyline fill="none" stroke="black" points="-0.5,-53 126.5,-53 "/>
<text text-anchor="start" x="7.5" y="-41" font-family="Helvetica,sans-Serif" font-size="10.00">+ __init__()</text>
<text text-anchor="start" x="7.5" y="-30" font-family="Helvetica,sans-Serif" font-size="10.00">+ asFile()</text>
<text text-anchor="start" x="7.5" y="-19" font-family="Helvetica,sans-Serif" font-size="10.00">+ copy()</text>
<text text-anchor="start" x="7.5" y="-8" font-family="Helvetica,sans-Serif" font-size="10.00">+ move()</text>
</a>
</g>
<!-- Node1&#45;&gt;Node2 -->
<g id="edge2" class="edge"><title>Node1&#45;&gt;Node2</title>
<path fill="none" stroke="midnightblue" d="M113.371,-120.205C106.957,-110.884 99.9721,-100.733 93.3027,-91.0399"/>
<polygon fill="none" stroke="midnightblue" points="110.522,-122.24 119.074,-128.495 116.289,-118.272 110.522,-122.24"/>
</g>
<!-- Node3 -->
<g id="node5" class="node"><title>Node3</title>
<a xlink:href="class_disk_1_1_s_s_h_1_1___paths_1_1_folder_path.html" target="_top" xlink:title="Path of a folder on a remote machine.">
<polygon fill="none" stroke="black" points="145,-12 145,-80 283,-80 283,-12 145,-12"/>
<text text-anchor="middle" x="214" y="-68" font-family="Helvetica,sans-Serif" font-size="10.00">Disk.SSH._Paths.FolderPath</text>
<polyline fill="none" stroke="black" points="145,-61 283,-61 "/>
<text text-anchor="middle" x="214" y="-49" font-family="Helvetica,sans-Serif" font-size="10.00"> </text>
<polyline fill="none" stroke="black" points="145,-42 283,-42 "/>
<text text-anchor="start" x="153" y="-30" font-family="Helvetica,sans-Serif" font-size="10.00">+ __init__()</text>
<text text-anchor="start" x="153" y="-19" font-family="Helvetica,sans-Serif" font-size="10.00">+ rmtree()</text>
</a>
</g>
<!-- Node1&#45;&gt;Node3 -->
<g id="edge4" class="edge"><title>Node1&#45;&gt;Node3</title>
<path fill="none" stroke="midnightblue" d="M163.144,-119.939C172.048,-107.168 182.02,-92.8664 190.759,-80.333"/>
<polygon fill="none" stroke="midnightblue" points="160.026,-118.29 157.178,-128.495 165.769,-122.294 160.026,-118.29"/>
</g>
</g>
</svg>
