<?xml version="1.0" encoding="UTF-8" standalone="no"?>
<!DOCTYPE svg PUBLIC "-//W3C//DTD SVG 1.1//EN"
 "http://www.w3.org/Graphics/SVG/1.1/DTD/svg11.dtd">
<!-- Generated by graphviz version 2.30.1 (20130221.2233)
 -->
<!-- Title: Disk._base.File.isClosed Pages: 1 -->
<svg width="630pt" height="161pt"
 viewBox="0.00 0.00 630.00 161.19" xmlns="http://www.w3.org/2000/svg" xmlns:xlink="http://www.w3.org/1999/xlink">
<g id="graph0" class="graph" transform="scale(1 1) rotate(0) translate(4 157.195)">
<title>Disk._base.File.isClosed</title>
<!-- Node1 -->
<g id="node1" class="node"><title>Node1</title>
<polygon fill="#bfbfbf" stroke="black" points="0,-76.5 0,-95.5 126,-95.5 126,-76.5 0,-76.5"/>
<text text-anchor="middle" x="63" y="-83.5" font-family="Helvetica,sans-Serif" font-size="10.00">Disk._base.File.isClosed</text>
</g>
<!-- Node2 -->
<g id="node2" class="node"><title>Node2</title>
<g id="a_node2"><a xlink:href="class_disk_1_1__base_1_1_file.html#aa6035675eda3f591d6a7404e07453816" target="_top" xlink:title="Disk._base.File.__repr__">
<polygon fill="none" stroke="black" points="333,-123.5 333,-142.5 461,-142.5 461,-123.5 333,-123.5"/>
<text text-anchor="middle" x="397" y="-130.5" font-family="Helvetica,sans-Serif" font-size="10.00">Disk._base.File.__repr__</text>
</a>
</g>
</g>
<!-- Node1&#45;&gt;Node2 -->
<g id="edge1" class="edge"><title>Node1&#45;&gt;Node2</title>
<path fill="none" stroke="midnightblue" d="M83.8289,-101.802C102.682,-115.74 132.47,-135.037 162,-143 226.778,-160.469 305.262,-151.265 352.873,-142.514"/>
<polygon fill="midnightblue" stroke="midnightblue" points="85.8173,-98.9168 75.7389,-95.6493 81.5799,-104.489 85.8173,-98.9168"/>
</g>
<!-- Node4 -->
<g id="node4" class="node"><title>Node4</title>
<g id="a_node4"><a xlink:href="class_disk_1_1__base_1_1_file.html#a91270d2ecba3b573d24b79e7a25c6b58" target="_top" xlink:title="Disk._base.File.__enter__">
<polygon fill="none" stroke="black" points="330.5,-66.5 330.5,-85.5 463.5,-85.5 463.5,-66.5 330.5,-66.5"/>
<text text-anchor="middle" x="397" y="-73.5" font-family="Helvetica,sans-Serif" font-size="10.00">Disk._base.File.__enter__</text>
</a>
</g>
</g>
<!-- Node1&#45;&gt;Node4 -->
<g id="edge3" class="edge"><title>Node1&#45;&gt;Node4</title>
<path fill="none" stroke="midnightblue" d="M136.208,-83.8251C193.971,-82.0852 274.286,-79.6661 330.27,-77.9798"/>
<polygon fill="midnightblue" stroke="midnightblue" points="135.947,-80.3312 126.057,-84.1308 136.158,-87.3281 135.947,-80.3312"/>
</g>
<!-- Node5 -->
<g id="node5" class="node"><title>Node5</title>
<g id="a_node5"><a xlink:href="class_disk_1_1__base_1_1_file.html#af4a79b03f7f30ffdf6be32aaa025f9aa" target="_top" xlink:title="Disk._base.File.isWritable">
<polygon fill="none" stroke="black" points="162,-114.5 162,-133.5 294,-133.5 294,-114.5 162,-114.5"/>
<text text-anchor="middle" x="228" y="-121.5" font-family="Helvetica,sans-Serif" font-size="10.00">Disk._base.File.isWritable</text>
</a>
</g>
</g>
<!-- Node1&#45;&gt;Node5 -->
<g id="edge4" class="edge"><title>Node1&#45;&gt;Node5</title>
<path fill="none" stroke="midnightblue" d="M115.028,-97.8961C137.939,-103.237 164.604,-109.454 186.164,-114.48"/>
<polygon fill="midnightblue" stroke="midnightblue" points="115.665,-94.4509 105.132,-95.589 114.076,-101.268 115.665,-94.4509"/>
</g>
<!-- Node6 -->
<g id="node6" class="node"><title>Node6</title>
<g id="a_node6"><a xlink:href="class_disk_1_1__base_1_1_file.html#addb4e95daa21c36c5bf6d30e7ea29e0e" target="_top" xlink:title="Disk._base.File.reopen">
<polygon fill="none" stroke="black" points="168.5,-38.5 168.5,-57.5 287.5,-57.5 287.5,-38.5 168.5,-38.5"/>
<text text-anchor="middle" x="228" y="-45.5" font-family="Helvetica,sans-Serif" font-size="10.00">Disk._base.File.reopen</text>
</a>
</g>
</g>
<!-- Node1&#45;&gt;Node6 -->
<g id="edge6" class="edge"><title>Node1&#45;&gt;Node6</title>
<path fill="none" stroke="midnightblue" d="M115.028,-74.1039C137.939,-68.7626 164.604,-62.5463 186.164,-57.5201"/>
<polygon fill="midnightblue" stroke="midnightblue" points="114.076,-70.7319 105.132,-76.411 115.665,-77.5491 114.076,-70.7319"/>
</g>
<!-- Node7 -->
<g id="node7" class="node"><title>Node7</title>
<g id="a_node7"><a xlink:href="class_disk_1_1__base_1_1_file.html#ababdfcceed76d07a67803fb4b7272e4d" target="_top" xlink:title="Disk._base.File.destruct">
<polygon fill="none" stroke="black" points="166.5,-0.5 166.5,-19.5 289.5,-19.5 289.5,-0.5 166.5,-0.5"/>
<text text-anchor="middle" x="228" y="-7.5" font-family="Helvetica,sans-Serif" font-size="10.00">Disk._base.File.destruct</text>
</a>
</g>
</g>
<!-- Node1&#45;&gt;Node7 -->
<g id="edge8" class="edge"><title>Node1&#45;&gt;Node7</title>
<path fill="none" stroke="midnightblue" d="M86.4567,-70.8198C105.807,-58.2657 134.833,-40.6654 162,-29 170.426,-25.3817 179.752,-22.2044 188.647,-19.5353"/>
<polygon fill="midnightblue" stroke="midnightblue" points="84.466,-67.9399 78.0369,-76.3612 88.3144,-73.7872 84.466,-67.9399"/>
</g>
<!-- Node3 -->
<g id="node3" class="node"><title>Node3</title>
<g id="a_node3"><a xlink:href="class_disk_1_1__base_1_1_file.html#afecee354ca982223e41d25bf0910d8f2" target="_top" xlink:title="Disk._base.File.__str__">
<polygon fill="none" stroke="black" points="500.5,-123.5 500.5,-142.5 621.5,-142.5 621.5,-123.5 500.5,-123.5"/>
<text text-anchor="middle" x="561" y="-130.5" font-family="Helvetica,sans-Serif" font-size="10.00">Disk._base.File.__str__</text>
</a>
</g>
</g>
<!-- Node2&#45;&gt;Node3 -->
<g id="edge2" class="edge"><title>Node2&#45;&gt;Node3</title>
<path fill="none" stroke="midnightblue" d="M471.164,-133C480.899,-133 490.787,-133 500.258,-133"/>
<polygon fill="midnightblue" stroke="midnightblue" points="471.097,-129.5 461.097,-133 471.097,-136.5 471.097,-129.5"/>
</g>
<!-- Node5&#45;&gt;Node2 -->
<g id="edge5" class="edge"><title>Node5&#45;&gt;Node2</title>
<path fill="none" stroke="midnightblue" d="M304.293,-128.058C313.811,-128.571 323.473,-129.091 332.777,-129.593"/>
<polygon fill="midnightblue" stroke="midnightblue" points="304.219,-124.549 294.045,-127.505 303.842,-131.539 304.219,-124.549"/>
</g>
<!-- Node6&#45;&gt;Node4 -->
<g id="edge7" class="edge"><title>Node6&#45;&gt;Node4</title>
<path fill="none" stroke="midnightblue" d="M296.248,-59.2751C310.508,-61.6661 325.427,-64.1674 339.252,-66.4854"/>
<polygon fill="midnightblue" stroke="midnightblue" points="296.446,-55.7595 286.005,-57.5577 295.288,-62.6632 296.446,-55.7595"/>
</g>
</g>
</svg>
