<?xml version="1.0" encoding="UTF-8" standalone="no"?>
<!DOCTYPE svg PUBLIC "-//W3C//DTD SVG 1.1//EN"
 "http://www.w3.org/Graphics/SVG/1.1/DTD/svg11.dtd">
<!-- Generated by graphviz version 2.30.1 (20130219.2202)
 -->
<!-- Title: Disk.TempFolder.TempFolderPath Pages: 1 -->
<svg width="166pt" height="160pt"
 viewBox="0.00 0.00 166.00 160.00" xmlns="http://www.w3.org/2000/svg" xmlns:xlink="http://www.w3.org/1999/xlink">
<g id="graph0" class="graph" transform="scale(1 1) rotate(0) translate(4 156)">
<title>Disk.TempFolder.TempFolderPath</title>
<!-- Node1 -->
<g id="node1" class="node"><title>Node1</title>
<polygon fill="#bfbfbf" stroke="black" points="0,-0.5 0,-57.5 158,-57.5 158,-0.5 0,-0.5"/>
<text text-anchor="middle" x="79" y="-45.5" font-family="Helvetica,sans-Serif" font-size="10.00">Disk.TempFolder.TempFolderPath</text>
<polyline fill="none" stroke="black" points="0,-38.5 158,-38.5 "/>
<text text-anchor="middle" x="79" y="-26.5" font-family="Helvetica,sans-Serif" font-size="10.00"> </text>
<polyline fill="none" stroke="black" points="0,-19.5 158,-19.5 "/>
<text text-anchor="start" x="8" y="-7.5" font-family="Helvetica,sans-Serif" font-size="10.00">+ __init__()</text>
</g>
<!-- Node2 -->
<g id="node2" class="node"><title>Node2</title>
<polygon fill="none" stroke="#bfbfbf" points="48,-94.5 48,-151.5 110,-151.5 110,-94.5 48,-94.5"/>
<text text-anchor="middle" x="79" y="-139.5" font-family="Helvetica,sans-Serif" font-size="10.00">FolderPath</text>
<polyline fill="none" stroke="#bfbfbf" points="48,-132.5 110,-132.5 "/>
<text text-anchor="middle" x="79" y="-120.5" font-family="Helvetica,sans-Serif" font-size="10.00"> </text>
<polyline fill="none" stroke="#bfbfbf" points="48,-113.5 110,-113.5 "/>
<text text-anchor="middle" x="79" y="-101.5" font-family="Helvetica,sans-Serif" font-size="10.00"> </text>
</g>
<!-- Node2&#45;&gt;Node1 -->
<g id="edge1" class="edge"><title>Node2&#45;&gt;Node1</title>
<path fill="none" stroke="midnightblue" d="M79,-84.2092C79,-75.2929 79,-65.9513 79,-57.5836"/>
<polygon fill="none" stroke="midnightblue" points="75.5001,-84.3969 79,-94.397 82.5001,-84.397 75.5001,-84.3969"/>
</g>
</g>
</svg>
