<?xml version="1.0" encoding="UTF-8" standalone="no"?>
<!DOCTYPE svg PUBLIC "-//W3C//DTD SVG 1.1//EN"
 "http://www.w3.org/Graphics/SVG/1.1/DTD/svg11.dtd">
<!-- Generated by graphviz version 2.28.0 (20121214.2254)
 -->
<!-- Title: Disk.Walker.WalkerAbstract Pages: 1 -->
<svg width="290pt" height="184pt"
 viewBox="0.00 0.00 290.00 184.00" xmlns="http://www.w3.org/2000/svg" xmlns:xlink="http://www.w3.org/1999/xlink">
<g id="graph1" class="graph" transform="scale(1 1) rotate(0) translate(4 180)">
<title>Disk.Walker.WalkerAbstract</title>
<!-- Node1 -->
<g id="node1" class="node"><title>Node1</title>
<polygon fill="#bfbfbf" stroke="black" points="69,-107 69,-175 203,-175 203,-107 69,-107"/>
<text text-anchor="middle" x="136" y="-163" font-family="Helvetica,sans-Serif" font-size="10.00">Disk.Walker.WalkerAbstract</text>
<polyline fill="none" stroke="black" points="69,-156 203,-156 "/>
<text text-anchor="start" x="77" y="-144" font-family="Helvetica,sans-Serif" font-size="10.00">+ allWalkers</text>
<polyline fill="none" stroke="black" points="69,-137 203,-137 "/>
<text text-anchor="start" x="77" y="-125" font-family="Helvetica,sans-Serif" font-size="10.00">+ __init__()</text>
<text text-anchor="start" x="77" y="-114" font-family="Helvetica,sans-Serif" font-size="10.00">+ walk()</text>
</g>
<!-- Node2 -->
<g id="node3" class="node"><title>Node2</title>
<a xlink:href="class_disk_1_1_local_1_1___walker_1_1_local_folder_walker.html" target="_top" xlink:title="Implementation of WalkerAbstract for folders on the local system.">
<polygon fill="none" stroke="black" points="0,-1 0,-69 122,-69 122,-1 0,-1"/>
<text text-anchor="start" x="8" y="-57" font-family="Helvetica,sans-Serif" font-size="10.00">Disk.Local._Walker.Local</text>
<text text-anchor="middle" x="61" y="-46" font-family="Helvetica,sans-Serif" font-size="10.00">FolderWalker</text>
<polyline fill="none" stroke="black" points="0,-39 122,-39 "/>
<text text-anchor="middle" x="61" y="-27" font-family="Helvetica,sans-Serif" font-size="10.00"> </text>
<polyline fill="none" stroke="black" points="0,-20 122,-20 "/>
<text text-anchor="start" x="8" y="-8" font-family="Helvetica,sans-Serif" font-size="10.00">+ __init__()</text>
</a>
</g>
<!-- Node1&#45;&gt;Node2 -->
<g id="edge2" class="edge"><title>Node1&#45;&gt;Node2</title>
<path fill="none" stroke="midnightblue" d="M106.032,-98.4439C99.0315,-88.737 91.6662,-78.5238 84.9665,-69.2336"/>
<polygon fill="none" stroke="midnightblue" points="103.375,-100.744 112.063,-106.808 109.053,-96.6497 103.375,-100.744"/>
</g>
<!-- Node3 -->
<g id="node5" class="node"><title>Node3</title>
<a xlink:href="class_disk_1_1_s_s_h_1_1___walker_1_1_s_s_h_folder_walker.html" target="_top" xlink:title="{Disk.SSH._Walker.SSHFolder\lWalker\n||+ __init__()\l}">
<polygon fill="none" stroke="black" points="140,-1 140,-69 282,-69 282,-1 140,-1"/>
<text text-anchor="start" x="148" y="-57" font-family="Helvetica,sans-Serif" font-size="10.00">Disk.SSH._Walker.SSHFolder</text>
<text text-anchor="middle" x="211" y="-46" font-family="Helvetica,sans-Serif" font-size="10.00">Walker</text>
<polyline fill="none" stroke="black" points="140,-39 282,-39 "/>
<text text-anchor="middle" x="211" y="-27" font-family="Helvetica,sans-Serif" font-size="10.00"> </text>
<polyline fill="none" stroke="black" points="140,-20 282,-20 "/>
<text text-anchor="start" x="148" y="-8" font-family="Helvetica,sans-Serif" font-size="10.00">+ __init__()</text>
</a>
</g>
<!-- Node1&#45;&gt;Node3 -->
<g id="edge4" class="edge"><title>Node1&#45;&gt;Node3</title>
<path fill="none" stroke="midnightblue" d="M165.968,-98.4439C172.968,-88.737 180.334,-78.5238 187.033,-69.2336"/>
<polygon fill="none" stroke="midnightblue" points="162.947,-96.6497 159.937,-106.808 168.625,-100.744 162.947,-96.6497"/>
</g>
</g>
</svg>
