<?xml version="1.0" encoding="UTF-8" standalone="no"?>
<!DOCTYPE svg PUBLIC "-//W3C//DTD SVG 1.1//EN"
 "http://www.w3.org/Graphics/SVG/1.1/DTD/svg11.dtd">
<!-- Generated by graphviz version 2.30.1 (20130219.2202)
 -->
<!-- Title: Disk.Local._Paths.FolderPath Pages: 1 -->
<svg width="294pt" height="514pt"
 viewBox="0.00 0.00 294.00 514.00" xmlns="http://www.w3.org/2000/svg" xmlns:xlink="http://www.w3.org/1999/xlink">
<g id="graph0" class="graph" transform="scale(1 1) rotate(0) translate(4 510)">
<title>Disk.Local._Paths.FolderPath</title>
<!-- Node1 -->
<g id="node1" class="node"><title>Node1</title>
<polygon fill="#bfbfbf" stroke="black" points="80,-1 80,-69 220,-69 220,-1 80,-1"/>
<text text-anchor="middle" x="150" y="-57" font-family="Helvetica,sans-Serif" font-size="10.00">Disk.Local._Paths.FolderPath</text>
<polyline fill="none" stroke="black" points="80,-50 220,-50 "/>
<text text-anchor="middle" x="150" y="-38" font-family="Helvetica,sans-Serif" font-size="10.00"> </text>
<polyline fill="none" stroke="black" points="80,-31 220,-31 "/>
<text text-anchor="start" x="88" y="-19" font-family="Helvetica,sans-Serif" font-size="10.00">+ __init__()</text>
<text text-anchor="start" x="88" y="-8" font-family="Helvetica,sans-Serif" font-size="10.00">+ rmtree()</text>
</g>
<!-- Node2 -->
<g id="node2" class="node"><title>Node2</title>
<g id="a_node2"><a xlink:href="class_disk_1_1_local_1_1___paths_1_1_path_abstract.html" target="_top" xlink:title="Abstract concept of a file or folder path.">
<polygon fill="none" stroke="black" points="-0.5,-139.5 -0.5,-196.5 150.5,-196.5 150.5,-139.5 -0.5,-139.5"/>
<text text-anchor="middle" x="75" y="-184.5" font-family="Helvetica,sans-Serif" font-size="10.00">Disk.Local._Paths.PathAbstract</text>
<polyline fill="none" stroke="black" points="-0.5,-177.5 150.5,-177.5 "/>
<text text-anchor="middle" x="75" y="-165.5" font-family="Helvetica,sans-Serif" font-size="10.00"> </text>
<polyline fill="none" stroke="black" points="-0.5,-158.5 150.5,-158.5 "/>
<text text-anchor="middle" x="75" y="-146.5" font-family="Helvetica,sans-Serif" font-size="10.00"> </text>
</a>
</g>
</g>
<!-- Node2&#45;&gt;Node1 -->
<g id="edge1" class="edge"><title>Node2&#45;&gt;Node1</title>
<path fill="none" stroke="midnightblue" d="M95.9211,-130.458C106.895,-111.29 120.241,-87.979 130.929,-69.3109"/>
<polygon fill="none" stroke="midnightblue" points="92.8367,-128.801 90.9056,-139.218 98.9116,-132.279 92.8367,-128.801"/>
</g>
<!-- Node3 -->
<g id="node3" class="node"><title>Node3</title>
<g id="a_node3"><a xlink:href="class_disk_1_1__base_1_1_folder_path.html" target="_top" xlink:title="Abstract concept of a folder path.">
<polygon fill="none" stroke="black" points="168.5,-106.5 168.5,-229.5 281.5,-229.5 281.5,-106.5 168.5,-106.5"/>
<text text-anchor="middle" x="225" y="-217.5" font-family="Helvetica,sans-Serif" font-size="10.00">Disk._base.FolderPath</text>
<polyline fill="none" stroke="black" points="168.5,-210.5 281.5,-210.5 "/>
<text text-anchor="middle" x="225" y="-198.5" font-family="Helvetica,sans-Serif" font-size="10.00"> </text>
<polyline fill="none" stroke="black" points="168.5,-191.5 281.5,-191.5 "/>
<text text-anchor="start" x="176.5" y="-179.5" font-family="Helvetica,sans-Serif" font-size="10.00">+ __init__()</text>
<text text-anchor="start" x="176.5" y="-168.5" font-family="Helvetica,sans-Serif" font-size="10.00">+ copy()</text>
<text text-anchor="start" x="176.5" y="-157.5" font-family="Helvetica,sans-Serif" font-size="10.00">+ create()</text>
<text text-anchor="start" x="176.5" y="-146.5" font-family="Helvetica,sans-Serif" font-size="10.00">+ rmtree()</text>
<text text-anchor="start" x="176.5" y="-135.5" font-family="Helvetica,sans-Serif" font-size="10.00">+ remove()</text>
<text text-anchor="start" x="176.5" y="-124.5" font-family="Helvetica,sans-Serif" font-size="10.00">+ mkdirs()</text>
<text text-anchor="start" x="176.5" y="-113.5" font-family="Helvetica,sans-Serif" font-size="10.00">+ walk()</text>
</a>
</g>
</g>
<!-- Node3&#45;&gt;Node1 -->
<g id="edge2" class="edge"><title>Node3&#45;&gt;Node1</title>
<path fill="none" stroke="midnightblue" d="M185.336,-97.7198C179.63,-87.7535 173.991,-77.9042 168.95,-69.0991"/>
<polygon fill="none" stroke="midnightblue" points="182.348,-99.5456 190.354,-106.485 188.423,-96.0676 182.348,-99.5456"/>
</g>
<!-- Node4 -->
<g id="node4" class="node"><title>Node4</title>
<g id="a_node4"><a xlink:href="class_disk_1_1__base_1_1_path_abstract.html" target="_top" xlink:title="{Disk._base.PathAbstract\n|+ path\l|+ __init__()\l+ asStr()\l+ __str__()\l+ __repr__()\l+ __add__()\l+ __radd__()\l+ __eq__()\l+ __hash__()\l+ __getattr__()\l}">
<polygon fill="none" stroke="black" points="163.5,-266.5 163.5,-411.5 286.5,-411.5 286.5,-266.5 163.5,-266.5"/>
<text text-anchor="middle" x="225" y="-399.5" font-family="Helvetica,sans-Serif" font-size="10.00">Disk._base.PathAbstract</text>
<polyline fill="none" stroke="black" points="163.5,-392.5 286.5,-392.5 "/>
<text text-anchor="start" x="171.5" y="-380.5" font-family="Helvetica,sans-Serif" font-size="10.00">+ path</text>
<polyline fill="none" stroke="black" points="163.5,-373.5 286.5,-373.5 "/>
<text text-anchor="start" x="171.5" y="-361.5" font-family="Helvetica,sans-Serif" font-size="10.00">+ __init__()</text>
<text text-anchor="start" x="171.5" y="-350.5" font-family="Helvetica,sans-Serif" font-size="10.00">+ asStr()</text>
<text text-anchor="start" x="171.5" y="-339.5" font-family="Helvetica,sans-Serif" font-size="10.00">+ __str__()</text>
<text text-anchor="start" x="171.5" y="-328.5" font-family="Helvetica,sans-Serif" font-size="10.00">+ __repr__()</text>
<text text-anchor="start" x="171.5" y="-317.5" font-family="Helvetica,sans-Serif" font-size="10.00">+ __add__()</text>
<text text-anchor="start" x="171.5" y="-306.5" font-family="Helvetica,sans-Serif" font-size="10.00">+ __radd__()</text>
<text text-anchor="start" x="171.5" y="-295.5" font-family="Helvetica,sans-Serif" font-size="10.00">+ __eq__()</text>
<text text-anchor="start" x="171.5" y="-284.5" font-family="Helvetica,sans-Serif" font-size="10.00">+ __hash__()</text>
<text text-anchor="start" x="171.5" y="-273.5" font-family="Helvetica,sans-Serif" font-size="10.00">+ __getattr__()</text>
</a>
</g>
</g>
<!-- Node4&#45;&gt;Node3 -->
<g id="edge3" class="edge"><title>Node4&#45;&gt;Node3</title>
<path fill="none" stroke="midnightblue" d="M225,-256.232C225,-247.254 225,-238.235 225,-229.58"/>
<polygon fill="none" stroke="midnightblue" points="221.5,-256.329 225,-266.329 228.5,-256.329 221.5,-256.329"/>
</g>
<!-- Node5 -->
<g id="node5" class="node"><title>Node5</title>
<g id="a_node5"><a xlink:href="classobject.html" target="_top" xlink:title="{object\n||}">
<polygon fill="none" stroke="black" points="204,-448.5 204,-505.5 246,-505.5 246,-448.5 204,-448.5"/>
<text text-anchor="middle" x="225" y="-493.5" font-family="Helvetica,sans-Serif" font-size="10.00">object</text>
<polyline fill="none" stroke="black" points="204,-486.5 246,-486.5 "/>
<text text-anchor="middle" x="225" y="-474.5" font-family="Helvetica,sans-Serif" font-size="10.00"> </text>
<polyline fill="none" stroke="black" points="204,-467.5 246,-467.5 "/>
<text text-anchor="middle" x="225" y="-455.5" font-family="Helvetica,sans-Serif" font-size="10.00"> </text>
</a>
</g>
</g>
<!-- Node5&#45;&gt;Node4 -->
<g id="edge4" class="edge"><title>Node5&#45;&gt;Node4</title>
<path fill="none" stroke="midnightblue" d="M225,-438.356C225,-429.999 225,-420.872 225,-411.656"/>
<polygon fill="none" stroke="midnightblue" points="221.5,-438.478 225,-448.478 228.5,-438.478 221.5,-438.478"/>
</g>
</g>
</svg>
