<?xml version="1.0" encoding="UTF-8" standalone="no"?>
<!DOCTYPE svg PUBLIC "-//W3C//DTD SVG 1.1//EN"
 "http://www.w3.org/Graphics/SVG/1.1/DTD/svg11.dtd">
<!-- Generated by graphviz version 2.30.1 (20130219.2202)
 -->
<!-- Title: Disk._base.File.__repr__ Pages: 1 -->
<svg width="446pt" height="85pt"
 viewBox="0.00 0.00 446.00 85.00" xmlns="http://www.w3.org/2000/svg" xmlns:xlink="http://www.w3.org/1999/xlink">
<g id="graph0" class="graph" transform="scale(1 1) rotate(0) translate(4 81)">
<title>Disk._base.File.__repr__</title>
<!-- Node1 -->
<g id="node1" class="node"><title>Node1</title>
<polygon fill="#bfbfbf" stroke="black" points="0,-19.5 0,-38.5 120,-38.5 120,-19.5 0,-19.5"/>
<text text-anchor="middle" x="60" y="-26.5" font-family="Helvetica,sans-Serif" font-size="10.00">Disk._base.File.__repr__</text>
</g>
<!-- Node2 -->
<g id="node2" class="node"><title>Node2</title>
<g id="a_node2"><a xlink:href="class_disk_1_1__base_1_1_file.html#a7401ddb8e1f5573402123b8f65b7bc08" target="_top" xlink:title="Disk._base.File.getPath">
<polygon fill="none" stroke="black" points="161,-57.5 161,-76.5 277,-76.5 277,-57.5 161,-57.5"/>
<text text-anchor="middle" x="219" y="-64.5" font-family="Helvetica,sans-Serif" font-size="10.00">Disk._base.File.getPath</text>
</a>
</g>
</g>
<!-- Node1&#45;&gt;Node2 -->
<g id="edge1" class="edge"><title>Node1&#45;&gt;Node2</title>
<path fill="none" stroke="midnightblue" d="M100.618,-38.589C121.336,-43.6035 146.888,-49.7881 168.856,-55.1053"/>
<polygon fill="midnightblue" stroke="midnightblue" points="168.124,-58.5292 178.667,-57.4799 169.771,-51.7256 168.124,-58.5292"/>
</g>
<!-- Node3 -->
<g id="node3" class="node"><title>Node3</title>
<g id="a_node3"><a xlink:href="class_disk_1_1__base_1_1_file.html#af4a79b03f7f30ffdf6be32aaa025f9aa" target="_top" xlink:title="Disk._base.File.isWritable">
<polygon fill="none" stroke="black" points="156.5,-19.5 156.5,-38.5 281.5,-38.5 281.5,-19.5 156.5,-19.5"/>
<text text-anchor="middle" x="219" y="-26.5" font-family="Helvetica,sans-Serif" font-size="10.00">Disk._base.File.isWritable</text>
</a>
</g>
</g>
<!-- Node1&#45;&gt;Node3 -->
<g id="edge2" class="edge"><title>Node1&#45;&gt;Node3</title>
<path fill="none" stroke="midnightblue" d="M120.355,-29C128.843,-29 137.649,-29 146.343,-29"/>
<polygon fill="midnightblue" stroke="midnightblue" points="146.47,-32.5001 156.47,-29 146.47,-25.5001 146.47,-32.5001"/>
</g>
<!-- Node4 -->
<g id="node4" class="node"><title>Node4</title>
<g id="a_node4"><a xlink:href="class_disk_1_1__base_1_1_file.html#a5801d2db863fa1967d7847917aa757f3" target="_top" xlink:title="Disk._base.File.isClosed">
<polygon fill="none" stroke="black" points="318,-0.5 318,-19.5 438,-19.5 438,-0.5 318,-0.5"/>
<text text-anchor="middle" x="378" y="-7.5" font-family="Helvetica,sans-Serif" font-size="10.00">Disk._base.File.isClosed</text>
</a>
</g>
</g>
<!-- Node1&#45;&gt;Node4 -->
<g id="edge4" class="edge"><title>Node1&#45;&gt;Node4</title>
<path fill="none" stroke="midnightblue" d="M99.5655,-19.49C116.727,-15.725 137.254,-11.8563 156,-10 206.547,-4.99486 263.917,-5.16639 307.535,-6.49903"/>
<polygon fill="midnightblue" stroke="midnightblue" points="307.638,-10.0043 317.749,-6.83986 307.872,-3.00823 307.638,-10.0043"/>
</g>
<!-- Node3&#45;&gt;Node4 -->
<g id="edge3" class="edge"><title>Node3&#45;&gt;Node4</title>
<path fill="none" stroke="midnightblue" d="M281.6,-21.5452C290.183,-20.5066 299.048,-19.4337 307.76,-18.3794"/>
<polygon fill="midnightblue" stroke="midnightblue" points="308.382,-21.8297 317.889,-17.1536 307.541,-14.8804 308.382,-21.8297"/>
</g>
</g>
</svg>
