<?xml version="1.0" encoding="UTF-8" standalone="no"?>
<!DOCTYPE svg PUBLIC "-//W3C//DTD SVG 1.1//EN"
 "http://www.w3.org/Graphics/SVG/1.1/DTD/svg11.dtd">
<!-- Generated by graphviz version 2.28.0 (20121214.2254)
 -->
<!-- Title: Disk.SSH._File.File Pages: 1 -->
<svg width="102pt" height="398pt"
 viewBox="0.00 0.00 102.00 398.00" xmlns="http://www.w3.org/2000/svg" xmlns:xlink="http://www.w3.org/1999/xlink">
<g id="graph1" class="graph" transform="scale(1 1) rotate(0) translate(4 394)">
<title>Disk.SSH._File.File</title>
<!-- Node1 -->
<g id="node1" class="node"><title>Node1</title>
<polygon fill="#bfbfbf" stroke="black" points="-0.5,-0.5 -0.5,-101.5 94.5,-101.5 94.5,-0.5 -0.5,-0.5"/>
<text text-anchor="middle" x="47" y="-89.5" font-family="Helvetica,sans-Serif" font-size="10.00">Disk.SSH._File.File</text>
<polyline fill="none" stroke="black" points="-0.5,-82.5 94.5,-82.5 "/>
<text text-anchor="start" x="7.5" y="-70.5" font-family="Helvetica,sans-Serif" font-size="10.00">+ connection</text>
<text text-anchor="start" x="7.5" y="-59.5" font-family="Helvetica,sans-Serif" font-size="10.00">+ remotePath</text>
<polyline fill="none" stroke="black" points="-0.5,-52.5 94.5,-52.5 "/>
<text text-anchor="start" x="7.5" y="-40.5" font-family="Helvetica,sans-Serif" font-size="10.00">+ __init__()</text>
<text text-anchor="start" x="7.5" y="-29.5" font-family="Helvetica,sans-Serif" font-size="10.00">+ __getattr__()</text>
<text text-anchor="start" x="7.5" y="-18.5" font-family="Helvetica,sans-Serif" font-size="10.00">+ flush()</text>
<text text-anchor="start" x="7.5" y="-7.5" font-family="Helvetica,sans-Serif" font-size="10.00">+ close()</text>
</g>
<!-- Node2 -->
<g id="node2" class="node"><title>Node2</title>
<a xlink:href="class_disk_1_1__base_1_1_file.html" target="_top" xlink:title="{Disk._base.File\n|+ mode\l+ isDestructed\l+ isDesructed\l|+ __init__()\l+ __enter__()\l+ __exit__()\l+ getPath()\l+ isWritable()\l+ isClosed()\l+ destruct()\l+ reopen()\l}">
<polygon fill="none" stroke="black" points="6.5,-139 6.5,-295 87.5,-295 87.5,-139 6.5,-139"/>
<text text-anchor="middle" x="47" y="-283" font-family="Helvetica,sans-Serif" font-size="10.00">Disk._base.File</text>
<polyline fill="none" stroke="black" points="6.5,-276 87.5,-276 "/>
<text text-anchor="start" x="14.5" y="-264" font-family="Helvetica,sans-Serif" font-size="10.00">+ mode</text>
<text text-anchor="start" x="14.5" y="-253" font-family="Helvetica,sans-Serif" font-size="10.00">+ isDestructed</text>
<text text-anchor="start" x="14.5" y="-242" font-family="Helvetica,sans-Serif" font-size="10.00">+ isDesructed</text>
<polyline fill="none" stroke="black" points="6.5,-235 87.5,-235 "/>
<text text-anchor="start" x="14.5" y="-223" font-family="Helvetica,sans-Serif" font-size="10.00">+ __init__()</text>
<text text-anchor="start" x="14.5" y="-212" font-family="Helvetica,sans-Serif" font-size="10.00">+ __enter__()</text>
<text text-anchor="start" x="14.5" y="-201" font-family="Helvetica,sans-Serif" font-size="10.00">+ __exit__()</text>
<text text-anchor="start" x="14.5" y="-190" font-family="Helvetica,sans-Serif" font-size="10.00">+ getPath()</text>
<text text-anchor="start" x="14.5" y="-179" font-family="Helvetica,sans-Serif" font-size="10.00">+ isWritable()</text>
<text text-anchor="start" x="14.5" y="-168" font-family="Helvetica,sans-Serif" font-size="10.00">+ isClosed()</text>
<text text-anchor="start" x="14.5" y="-157" font-family="Helvetica,sans-Serif" font-size="10.00">+ destruct()</text>
<text text-anchor="start" x="14.5" y="-146" font-family="Helvetica,sans-Serif" font-size="10.00">+ reopen()</text>
</a>
</g>
<!-- Node2&#45;&gt;Node1 -->
<g id="edge2" class="edge"><title>Node2&#45;&gt;Node1</title>
<path fill="none" stroke="midnightblue" d="M47,-128.73C47,-119.459 47,-110.278 47,-101.664"/>
<polygon fill="none" stroke="midnightblue" points="43.5001,-128.802 47,-138.802 50.5001,-128.802 43.5001,-128.802"/>
</g>
<!-- Node3 -->
<g id="node4" class="node"><title>Node3</title>
<a xlink:href="classobject.html" target="_top" xlink:title="{object\n||}">
<polygon fill="none" stroke="black" points="26,-332.5 26,-389.5 68,-389.5 68,-332.5 26,-332.5"/>
<text text-anchor="middle" x="47" y="-377.5" font-family="Helvetica,sans-Serif" font-size="10.00">object</text>
<polyline fill="none" stroke="black" points="26,-370.5 68,-370.5 "/>
<text text-anchor="middle" x="47" y="-358.5" font-family="Helvetica,sans-Serif" font-size="10.00"> </text>
<polyline fill="none" stroke="black" points="26,-351.5 68,-351.5 "/>
<text text-anchor="middle" x="47" y="-339.5" font-family="Helvetica,sans-Serif" font-size="10.00"> </text>
</a>
</g>
<!-- Node3&#45;&gt;Node2 -->
<g id="edge4" class="edge"><title>Node3&#45;&gt;Node2</title>
<path fill="none" stroke="midnightblue" d="M47,-322.128C47,-313.734 47,-304.545 47,-295.212"/>
<polygon fill="none" stroke="midnightblue" points="43.5001,-322.284 47,-332.284 50.5001,-322.284 43.5001,-322.284"/>
</g>
</g>
</svg>
