<?xml version="1.0" encoding="UTF-8" standalone="no"?>
<!DOCTYPE svg PUBLIC "-//W3C//DTD SVG 1.1//EN"
 "http://www.w3.org/Graphics/SVG/1.1/DTD/svg11.dtd">
<!-- Generated by graphviz version 2.28.0 (20121214.2254)
 -->
<!-- Title: Disk.Local._File.BaseFile.__exit__ Pages: 1 -->
<svg width="468pt" height="66pt"
 viewBox="0.00 0.00 468.00 66.00" xmlns="http://www.w3.org/2000/svg" xmlns:xlink="http://www.w3.org/1999/xlink">
<g id="graph1" class="graph" transform="scale(1 1) rotate(0) translate(4 62)">
<title>Disk.Local._File.BaseFile.__exit__</title>
<!-- Node1 -->
<g id="node1" class="node"><title>Node1</title>
<polygon fill="#bfbfbf" stroke="black" points="0,-14 0,-44 122,-44 122,-14 0,-14"/>
<text text-anchor="start" x="8" y="-32" font-family="Helvetica,sans-Serif" font-size="10.00">Disk.Local._File.BaseFile.</text>
<text text-anchor="middle" x="61" y="-21" font-family="Helvetica,sans-Serif" font-size="10.00">__exit__</text>
</g>
<!-- Node2 -->
<g id="node3" class="node"><title>Node2</title>
<a xlink:href="class_disk_1_1_local_1_1___file_1_1_base_file.html#a8082ae2243ce630442c297612296464b" target="_top" xlink:title="Opens or re&#45;opens the file with the mode specified in the constructor.">
<polygon fill="none" stroke="black" points="158,-38.5 158,-57.5 302,-57.5 302,-38.5 158,-38.5"/>
<text text-anchor="middle" x="230" y="-45.5" font-family="Helvetica,sans-Serif" font-size="10.00">Disk.Local._File.BaseFile.open</text>
</a>
</g>
<!-- Node1&#45;&gt;Node2 -->
<g id="edge2" class="edge"><title>Node1&#45;&gt;Node2</title>
<path fill="none" stroke="midnightblue" d="M122.291,-35.8594C130.618,-36.8068 139.279,-37.7922 147.906,-38.7737"/>
<polygon fill="midnightblue" stroke="midnightblue" points="147.664,-42.2687 157.995,-39.9216 148.455,-35.3135 147.664,-42.2687"/>
</g>
<!-- Node4 -->
<g id="node7" class="node"><title>Node4</title>
<a xlink:href="class_disk_1_1__base_1_1_file.html#a7401ddb8e1f5573402123b8f65b7bc08" target="_top" xlink:title="Disk._base.File.getPath">
<polygon fill="none" stroke="black" points="172,-0.5 172,-19.5 288,-19.5 288,-0.5 172,-0.5"/>
<text text-anchor="middle" x="230" y="-7.5" font-family="Helvetica,sans-Serif" font-size="10.00">Disk._base.File.getPath</text>
</a>
</g>
<!-- Node1&#45;&gt;Node4 -->
<g id="edge6" class="edge"><title>Node1&#45;&gt;Node4</title>
<path fill="none" stroke="midnightblue" d="M122.291,-22.1406C135.044,-20.6895 148.583,-19.1493 161.581,-17.6704"/>
<polygon fill="midnightblue" stroke="midnightblue" points="162.324,-21.1086 171.864,-16.5005 161.532,-14.1535 162.324,-21.1086"/>
</g>
<!-- Node3 -->
<g id="node5" class="node"><title>Node3</title>
<a xlink:href="class_disk_1_1__base_1_1_file.html#a580698496882f925242a1b81d3a4b040" target="_top" xlink:title="Disk._base.File._reopen">
<polygon fill="none" stroke="black" points="340,-38.5 340,-57.5 458,-57.5 458,-38.5 340,-38.5"/>
<text text-anchor="middle" x="399" y="-45.5" font-family="Helvetica,sans-Serif" font-size="10.00">Disk._base.File._reopen</text>
</a>
</g>
<!-- Node2&#45;&gt;Node3 -->
<g id="edge4" class="edge"><title>Node2&#45;&gt;Node3</title>
<path fill="none" stroke="midnightblue" d="M302.307,-48C311.389,-48 320.668,-48 329.701,-48"/>
<polygon fill="midnightblue" stroke="midnightblue" points="329.772,-51.5001 339.772,-48 329.772,-44.5001 329.772,-51.5001"/>
</g>
<!-- Node5 -->
<g id="node9" class="node"><title>Node5</title>
<a xlink:href="class_disk_1_1__base_1_1_file.html#a036d4621c4196403b6a126c9ee1cc0c3" target="_top" xlink:title="Disk._base.File._getPath">
<polygon fill="none" stroke="black" points="338,-0.5 338,-19.5 460,-19.5 460,-0.5 338,-0.5"/>
<text text-anchor="middle" x="399" y="-7.5" font-family="Helvetica,sans-Serif" font-size="10.00">Disk._base.File._getPath</text>
</a>
</g>
<!-- Node4&#45;&gt;Node5 -->
<g id="edge8" class="edge"><title>Node4&#45;&gt;Node5</title>
<path fill="none" stroke="midnightblue" d="M288.005,-10C300.805,-10 314.532,-10 327.8,-10"/>
<polygon fill="midnightblue" stroke="midnightblue" points="327.833,-13.5001 337.833,-10 327.833,-6.5001 327.833,-13.5001"/>
</g>
</g>
</svg>
