<?xml version="1.0" encoding="UTF-8" standalone="no"?>
<!DOCTYPE svg PUBLIC "-//W3C//DTD SVG 1.1//EN"
 "http://www.w3.org/Graphics/SVG/1.1/DTD/svg11.dtd">
<!-- Generated by graphviz version 2.28.0 (20121214.2254)
 -->
<!-- Title: Disk.SSH._File.File.close Pages: 1 -->
<svg width="604pt" height="66pt"
 viewBox="0.00 0.00 604.00 66.00" xmlns="http://www.w3.org/2000/svg" xmlns:xlink="http://www.w3.org/1999/xlink">
<g id="graph1" class="graph" transform="scale(1 1) rotate(0) translate(4 62)">
<title>Disk.SSH._File.File.close</title>
<!-- Node1 -->
<g id="node1" class="node"><title>Node1</title>
<polygon fill="#bfbfbf" stroke="black" points="0.5,-19.5 0.5,-38.5 119.5,-38.5 119.5,-19.5 0.5,-19.5"/>
<text text-anchor="middle" x="60" y="-26.5" font-family="Helvetica,sans-Serif" font-size="10.00">Disk.SSH._File.File.close</text>
</g>
<!-- Node2 -->
<g id="node3" class="node"><title>Node2</title>
<a xlink:href="class_disk_1_1__base_1_1_file.html#af4a79b03f7f30ffdf6be32aaa025f9aa" target="_top" xlink:title="Disk._base.File.isWritable">
<polygon fill="none" stroke="black" points="156.5,-38.5 156.5,-57.5 281.5,-57.5 281.5,-38.5 156.5,-38.5"/>
<text text-anchor="middle" x="219" y="-45.5" font-family="Helvetica,sans-Serif" font-size="10.00">Disk._base.File.isWritable</text>
</a>
</g>
<!-- Node1&#45;&gt;Node2 -->
<g id="edge2" class="edge"><title>Node1&#45;&gt;Node2</title>
<path fill="none" stroke="midnightblue" d="M119.908,-36.129C128.569,-37.1771 137.569,-38.2664 146.451,-39.3412"/>
<polygon fill="midnightblue" stroke="midnightblue" points="146.055,-42.8187 156.403,-40.5455 146.896,-35.8694 146.055,-42.8187"/>
</g>
<!-- Node4 -->
<g id="node7" class="node"><title>Node4</title>
<a xlink:href="class_disk_1_1_s_s_h_1_1___file_1_1_file.html#a2b8fa9d0d909bb45c91d589d2e0cf6d3" target="_top" xlink:title="Uploads the file if changed.">
<polygon fill="none" stroke="black" points="161,-0.5 161,-19.5 277,-19.5 277,-0.5 161,-0.5"/>
<text text-anchor="middle" x="219" y="-7.5" font-family="Helvetica,sans-Serif" font-size="10.00">Disk.SSH._File.File.flush</text>
</a>
</g>
<!-- Node1&#45;&gt;Node4 -->
<g id="edge6" class="edge"><title>Node1&#45;&gt;Node4</title>
<path fill="none" stroke="midnightblue" d="M119.908,-21.871C129.957,-20.6548 140.465,-19.3832 150.712,-18.1431"/>
<polygon fill="midnightblue" stroke="midnightblue" points="151.339,-21.5929 160.846,-16.9168 150.498,-14.6436 151.339,-21.5929"/>
</g>
<!-- Node3 -->
<g id="node5" class="node"><title>Node3</title>
<a xlink:href="class_disk_1_1__base_1_1_file.html#a5801d2db863fa1967d7847917aa757f3" target="_top" xlink:title="Disk._base.File.isClosed">
<polygon fill="none" stroke="black" points="318,-38.5 318,-57.5 438,-57.5 438,-38.5 318,-38.5"/>
<text text-anchor="middle" x="378" y="-45.5" font-family="Helvetica,sans-Serif" font-size="10.00">Disk._base.File.isClosed</text>
</a>
</g>
<!-- Node2&#45;&gt;Node3 -->
<g id="edge4" class="edge"><title>Node2&#45;&gt;Node3</title>
<path fill="none" stroke="midnightblue" d="M281.6,-48C290.183,-48 299.048,-48 307.76,-48"/>
<polygon fill="midnightblue" stroke="midnightblue" points="307.889,-51.5001 317.889,-48 307.889,-44.5001 307.889,-51.5001"/>
</g>
<!-- Node5 -->
<g id="node9" class="node"><title>Node5</title>
<a xlink:href="class_disk_1_1__base_1_1_file.html#a7401ddb8e1f5573402123b8f65b7bc08" target="_top" xlink:title="Disk._base.File.getPath">
<polygon fill="none" stroke="black" points="320,-0.5 320,-19.5 436,-19.5 436,-0.5 320,-0.5"/>
<text text-anchor="middle" x="378" y="-7.5" font-family="Helvetica,sans-Serif" font-size="10.00">Disk._base.File.getPath</text>
</a>
</g>
<!-- Node4&#45;&gt;Node5 -->
<g id="edge8" class="edge"><title>Node4&#45;&gt;Node5</title>
<path fill="none" stroke="midnightblue" d="M277.125,-10C287.689,-10 298.812,-10 309.647,-10"/>
<polygon fill="midnightblue" stroke="midnightblue" points="309.918,-13.5001 319.918,-10 309.918,-6.5001 309.918,-13.5001"/>
</g>
<!-- Node6 -->
<g id="node11" class="node"><title>Node6</title>
<a xlink:href="class_disk_1_1__base_1_1_file.html#a036d4621c4196403b6a126c9ee1cc0c3" target="_top" xlink:title="Disk._base.File._getPath">
<polygon fill="none" stroke="black" points="474,-0.5 474,-19.5 596,-19.5 596,-0.5 474,-0.5"/>
<text text-anchor="middle" x="535" y="-7.5" font-family="Helvetica,sans-Serif" font-size="10.00">Disk._base.File._getPath</text>
</a>
</g>
<!-- Node5&#45;&gt;Node6 -->
<g id="edge10" class="edge"><title>Node5&#45;&gt;Node6</title>
<path fill="none" stroke="midnightblue" d="M436.276,-10C445.173,-10 454.453,-10 463.6,-10"/>
<polygon fill="midnightblue" stroke="midnightblue" points="463.842,-13.5001 473.842,-10 463.842,-6.5001 463.842,-13.5001"/>
</g>
</g>
</svg>
