<?xml version="1.0" encoding="UTF-8" standalone="no"?>
<!DOCTYPE svg PUBLIC "-//W3C//DTD SVG 1.1//EN"
 "http://www.w3.org/Graphics/SVG/1.1/DTD/svg11.dtd">
<!-- Generated by graphviz version 2.30.1 (20130221.2233)
 -->
<!-- Title: Disk._base.PathAbstract.splitAll Pages: 1 -->
<svg width="332pt" height="87pt"
 viewBox="0.00 0.00 332.00 87.00" xmlns="http://www.w3.org/2000/svg" xmlns:xlink="http://www.w3.org/1999/xlink">
<g id="graph0" class="graph" transform="scale(1 1) rotate(0) translate(4 83)">
<title>Disk._base.PathAbstract.splitAll</title>
<!-- Node1 -->
<g id="node1" class="node"><title>Node1</title>
<polygon fill="#bfbfbf" stroke="black" points="0,-29.5 0,-48.5 158,-48.5 158,-29.5 0,-29.5"/>
<text text-anchor="middle" x="79" y="-36.5" font-family="Helvetica,sans-Serif" font-size="10.00">Disk._base.PathAbstract.splitAll</text>
</g>
<!-- Node2 -->
<g id="node2" class="node"><title>Node2</title>
<g id="a_node2"><a xlink:href="class_disk_1_1__base_1_1_path_abstract.html#ac544344795730e9691782aca96bce282" target="_top" xlink:title="Disk._base.PathAbstract.\l_makeFolderPath">
<polygon fill="none" stroke="black" points="194.5,-49 194.5,-79 323.5,-79 323.5,-49 194.5,-49"/>
<text text-anchor="start" x="202.5" y="-67" font-family="Helvetica,sans-Serif" font-size="10.00">Disk._base.PathAbstract.</text>
<text text-anchor="middle" x="259" y="-56" font-family="Helvetica,sans-Serif" font-size="10.00">_makeFolderPath</text>
</a>
</g>
</g>
<!-- Node1&#45;&gt;Node2 -->
<g id="edge1" class="edge"><title>Node1&#45;&gt;Node2</title>
<path fill="none" stroke="midnightblue" d="M147.802,-48.5227C159.776,-50.2045 172.293,-51.9625 184.417,-53.6653"/>
<polygon fill="midnightblue" stroke="midnightblue" points="184.098,-57.1548 194.488,-55.0798 185.072,-50.2228 184.098,-57.1548"/>
</g>
<!-- Node3 -->
<g id="node3" class="node"><title>Node3</title>
<g id="a_node3"><a xlink:href="class_disk_1_1__base_1_1_path_abstract.html#a050f0547c8ebd1edcc6730258065f9b5" target="_top" xlink:title="Disk._base.PathAbstract.\l_makeFilePath">
<polygon fill="none" stroke="black" points="194.5,-0 194.5,-30 323.5,-30 323.5,-0 194.5,-0"/>
<text text-anchor="start" x="202.5" y="-18" font-family="Helvetica,sans-Serif" font-size="10.00">Disk._base.PathAbstract.</text>
<text text-anchor="middle" x="259" y="-7" font-family="Helvetica,sans-Serif" font-size="10.00">_makeFilePath</text>
</a>
</g>
</g>
<!-- Node1&#45;&gt;Node3 -->
<g id="edge2" class="edge"><title>Node1&#45;&gt;Node3</title>
<path fill="none" stroke="midnightblue" d="M150.606,-29.4801C161.679,-27.9871 173.149,-26.4406 184.289,-24.9385"/>
<polygon fill="midnightblue" stroke="midnightblue" points="184.964,-28.3793 194.407,-23.5743 184.029,-21.442 184.964,-28.3793"/>
</g>
</g>
</svg>
