<?xml version="1.0" encoding="UTF-8" standalone="no"?>
<!DOCTYPE svg PUBLIC "-//W3C//DTD SVG 1.1//EN"
 "http://www.w3.org/Graphics/SVG/1.1/DTD/svg11.dtd">
<!-- Generated by graphviz version 2.30.1 (20130219.2202)
 -->
<!-- Title: Disk._base.File.isClosed Pages: 1 -->
<!--zoomable 201 -->
<svg id="main" version="1.1" xmlns="http://www.w3.org/2000/svg" xmlns:xlink="http://www.w3.org/1999/xlink" xml:space="preserve" onload="init(evt)">
        <defs>
                <circle id="rim" cx="0" cy="0" r="7"/>
                <circle id="rim2" cx="0" cy="0" r="3.5"/>
                <g id="zoomPlus">
                        <use xlink:href="#rim" fill="#404040">
                                <set attributeName="fill" to="#808080" begin="zoomplus.mouseover" end="zoomplus.mouseout"/>
                        </use>
                        <path d="M-4,0h8M0,-4v8" fill="none" stroke="white" stroke-width="1.5" pointer-events="none"/>
                </g>
                <g id="zoomMin">
                        <use xlink:href="#rim" fill="#404040">
                                <set attributeName="fill" to="#808080" begin="zoomminus.mouseover" end="zoomminus.mouseout"/>
                        </use>
                        <path d="M-4,0h8" fill="none" stroke="white" stroke-width="1.5" pointer-events="none"/>
                </g>
                <g id="dirArrow">
                        <path fill="none" stroke="white" stroke-width="1.5" d="M0,-3.0v7 M-2.5,-0.5L0,-3.0L2.5,-0.5"/>
                </g>
               <g id="resetDef">
                       <use xlink:href="#rim2" fill="#404040">
                               <set attributeName="fill" to="#808080" begin="reset.mouseover" end="reset.mouseout"/>
                       </use>
               </g>
        </defs>

<script type="text/javascript">
var viewWidth = 764;
var viewHeight = 201;
var sectionId = 'dynsection-9';
</script>
<script xlink:href="svgpan.js"/>
<svg id="graph" class="graph">
<g id="viewport">
<title>Disk._base.File.isClosed</title>
<!-- Node1 -->
<g id="node1" class="node"><title>Node1</title>
<polygon fill="#bfbfbf" stroke="black" points="0,-114.5 0,-133.5 120,-133.5 120,-114.5 0,-114.5"/>
<text text-anchor="middle" x="60" y="-121.5" font-family="Helvetica,sans-Serif" font-size="10.00">Disk._base.File.isClosed</text>
</g>
<!-- Node2 -->
<g id="node2" class="node"><title>Node2</title>
<g id="a_node2"><a xlink:href="class_disk_1_1__base_1_1_file.html#aa6035675eda3f591d6a7404e07453816" target="_top" xlink:title="Disk._base.File.__repr__">
<polygon fill="none" stroke="black" points="321,-114.5 321,-133.5 441,-133.5 441,-114.5 321,-114.5"/>
<text text-anchor="middle" x="381" y="-121.5" font-family="Helvetica,sans-Serif" font-size="10.00">Disk._base.File.__repr__</text>
</a>
</g>
</g>
<!-- Node1&#45;&gt;Node2 -->
<g id="edge1" class="edge"><title>Node1&#45;&gt;Node2</title>
<path fill="none" stroke="midnightblue" d="M130.596,-124C187.456,-124 266.953,-124 320.793,-124"/>
<polygon fill="midnightblue" stroke="midnightblue" points="130.254,-120.5 120.254,-124 130.254,-127.5 130.254,-120.5"/>
</g>
<!-- Node4 -->
<g id="node4" class="node"><title>Node4</title>
<g id="a_node4"><a xlink:href="class_disk_1_1__base_1_1_file.html#a91270d2ecba3b573d24b79e7a25c6b58" target="_top" xlink:title="Disk._base.File.__enter__">
<polygon fill="none" stroke="black" points="318.5,-171.5 318.5,-190.5 443.5,-190.5 443.5,-171.5 318.5,-171.5"/>
<text text-anchor="middle" x="381" y="-178.5" font-family="Helvetica,sans-Serif" font-size="10.00">Disk._base.File.__enter__</text>
</a>
</g>
</g>
<!-- Node1&#45;&gt;Node4 -->
<g id="edge3" class="edge"><title>Node1&#45;&gt;Node4</title>
<path fill="none" stroke="midnightblue" d="M80.3876,-139.984C98.6192,-153.902 127.327,-173.058 156,-181 209.406,-195.793 272.762,-194.117 318.443,-189.723"/>
<polygon fill="midnightblue" stroke="midnightblue" points="82.3495,-137.075 72.3252,-133.645 78.0227,-142.577 82.3495,-137.075"/>
</g>
<!-- Node5 -->
<g id="node5" class="node"><title>Node5</title>
<g id="a_node5"><a xlink:href="class_disk_1_1__base_1_1_file.html#af4a79b03f7f30ffdf6be32aaa025f9aa" target="_top" xlink:title="Disk._base.File.isWritable">
<polygon fill="none" stroke="black" points="156.5,-76.5 156.5,-95.5 281.5,-95.5 281.5,-76.5 156.5,-76.5"/>
<text text-anchor="middle" x="219" y="-83.5" font-family="Helvetica,sans-Serif" font-size="10.00">Disk._base.File.isWritable</text>
</a>
</g>
</g>
<!-- Node1&#45;&gt;Node5 -->
<g id="edge4" class="edge"><title>Node1&#45;&gt;Node5</title>
<path fill="none" stroke="midnightblue" d="M110.447,-112.032C132.448,-106.707 157.994,-100.524 178.667,-95.5201"/>
<polygon fill="midnightblue" stroke="midnightblue" points="109.514,-108.657 100.618,-114.411 111.16,-115.46 109.514,-108.657"/>
</g>
<!-- Node11 -->
<g id="node11" class="node"><title>Node11</title>
<g id="a_node11"><a xlink:href="class_disk_1_1__base_1_1_file.html#addb4e95daa21c36c5bf6d30e7ea29e0e" target="_top" xlink:title="Disk._base.File.reopen">
<polygon fill="none" stroke="black" points="162.5,-152.5 162.5,-171.5 275.5,-171.5 275.5,-152.5 162.5,-152.5"/>
<text text-anchor="middle" x="219" y="-159.5" font-family="Helvetica,sans-Serif" font-size="10.00">Disk._base.File.reopen</text>
</a>
</g>
</g>
<!-- Node1&#45;&gt;Node11 -->
<g id="edge11" class="edge"><title>Node1&#45;&gt;Node11</title>
<path fill="none" stroke="midnightblue" d="M110.447,-135.968C132.448,-141.293 157.994,-147.476 178.667,-152.48"/>
<polygon fill="midnightblue" stroke="midnightblue" points="111.16,-132.54 100.618,-133.589 109.514,-139.343 111.16,-132.54"/>
</g>
<!-- Node10 -->
<g id="node10" class="node"><title>Node10</title>
<g id="a_node10"><a xlink:href="class_disk_1_1__base_1_1_file.html#ababdfcceed76d07a67803fb4b7272e4d" target="_top" xlink:title="Disk._base.File.destruct">
<polygon fill="none" stroke="black" points="638,-0.5 638,-19.5 754,-19.5 754,-0.5 638,-0.5"/>
<text text-anchor="middle" x="696" y="-7.5" font-family="Helvetica,sans-Serif" font-size="10.00">Disk._base.File.destruct</text>
</a>
</g>
</g>
<!-- Node1&#45;&gt;Node10 -->
<g id="edge13" class="edge"><title>Node1&#45;&gt;Node10</title>
<path fill="none" stroke="midnightblue" d="M83.0002,-108.707C101.743,-96.1998 129.737,-78.7247 156,-67 224.806,-36.2821 243.599,-28.9279 318,-17 430.146,0.979037 563.447,-2.19668 637.716,-6.11075"/>
<polygon fill="midnightblue" stroke="midnightblue" points="80.9087,-105.897 74.5905,-114.401 84.8333,-111.693 80.9087,-105.897"/>
</g>
<!-- Node3 -->
<g id="node3" class="node"><title>Node3</title>
<g id="a_node3"><a xlink:href="class_disk_1_1__base_1_1_file.html#afecee354ca982223e41d25bf0910d8f2" target="_top" xlink:title="Disk._base.File.__str__">
<polygon fill="none" stroke="black" points="483,-114.5 483,-133.5 597,-133.5 597,-114.5 483,-114.5"/>
<text text-anchor="middle" x="540" y="-121.5" font-family="Helvetica,sans-Serif" font-size="10.00">Disk._base.File.__str__</text>
</a>
</g>
</g>
<!-- Node2&#45;&gt;Node3 -->
<g id="edge2" class="edge"><title>Node2&#45;&gt;Node3</title>
<path fill="none" stroke="midnightblue" d="M451.379,-124C461.932,-124 472.709,-124 482.931,-124"/>
<polygon fill="midnightblue" stroke="midnightblue" points="451.355,-120.5 441.355,-124 451.355,-127.5 451.355,-120.5"/>
</g>
<!-- Node5&#45;&gt;Node2 -->
<g id="edge5" class="edge"><title>Node5&#45;&gt;Node2</title>
<path fill="none" stroke="midnightblue" d="M270.392,-97.968C292.813,-103.293 318.847,-109.476 339.916,-114.48"/>
<polygon fill="midnightblue" stroke="midnightblue" points="270.913,-94.4945 260.375,-95.589 269.295,-101.305 270.913,-94.4945"/>
</g>
<!-- Node6 -->
<g id="node6" class="node"><title>Node6</title>
<g id="a_node6"><a xlink:href="class_disk_1_1_s_s_h_1_1___file_1_1_file.html#aa2cb1ac59649f601a1c209b425923f38" target="_top" xlink:title="Disk.SSH._File.File.\l__repr__">
<polygon fill="none" stroke="black" points="332.5,-27 332.5,-57 429.5,-57 429.5,-27 332.5,-27"/>
<text text-anchor="start" x="340.5" y="-45" font-family="Helvetica,sans-Serif" font-size="10.00">Disk.SSH._File.File.</text>
<text text-anchor="middle" x="381" y="-34" font-family="Helvetica,sans-Serif" font-size="10.00">__repr__</text>
</a>
</g>
</g>
<!-- Node5&#45;&gt;Node6 -->
<g id="edge6" class="edge"><title>Node5&#45;&gt;Node6</title>
<path fill="none" stroke="midnightblue" d="M264.404,-73.7889C285.516,-67.9831 310.782,-61.0349 332.301,-55.1172"/>
<polygon fill="midnightblue" stroke="midnightblue" points="263.432,-70.4263 254.718,-76.4527 265.288,-77.1757 263.432,-70.4263"/>
</g>
<!-- Node7 -->
<g id="node7" class="node"><title>Node7</title>
<g id="a_node7"><a xlink:href="class_disk_1_1_s_s_h_1_1___file_1_1_file.html#a2b8fa9d0d909bb45c91d589d2e0cf6d3" target="_top" xlink:title="Uploads the file if changed.">
<polygon fill="none" stroke="black" points="323,-76.5 323,-95.5 439,-95.5 439,-76.5 323,-76.5"/>
<text text-anchor="middle" x="381" y="-83.5" font-family="Helvetica,sans-Serif" font-size="10.00">Disk.SSH._File.File.flush</text>
</a>
</g>
</g>
<!-- Node5&#45;&gt;Node7 -->
<g id="edge7" class="edge"><title>Node5&#45;&gt;Node7</title>
<path fill="none" stroke="midnightblue" d="M292.061,-86C302.346,-86 312.808,-86 322.758,-86"/>
<polygon fill="midnightblue" stroke="midnightblue" points="291.86,-82.5001 281.86,-86 291.86,-89.5001 291.86,-82.5001"/>
</g>
<!-- Node8 -->
<g id="node8" class="node"><title>Node8</title>
<g id="a_node8"><a xlink:href="class_disk_1_1_s_s_h_1_1___file_1_1_file.html#a78a57bc0b49bb00fe9672e04fba5661c" target="_top" xlink:title="Disk.SSH._File.File.close">
<polygon fill="none" stroke="black" points="480.5,-63.5 480.5,-82.5 599.5,-82.5 599.5,-63.5 480.5,-63.5"/>
<text text-anchor="middle" x="540" y="-70.5" font-family="Helvetica,sans-Serif" font-size="10.00">Disk.SSH._File.File.close</text>
</a>
</g>
</g>
<!-- Node7&#45;&gt;Node8 -->
<g id="edge8" class="edge"><title>Node7&#45;&gt;Node8</title>
<path fill="none" stroke="midnightblue" d="M449.327,-80.4251C459.645,-79.5708 470.225,-78.6947 480.336,-77.8575"/>
<polygon fill="midnightblue" stroke="midnightblue" points="448.802,-76.9566 439.125,-81.2699 449.379,-83.9327 448.802,-76.9566"/>
</g>
<!-- Node9 -->
<g id="node9" class="node"><title>Node9</title>
<g id="a_node9"><a xlink:href="class_disk_1_1__base_1_1_file.html#ad9e735b15b84fb029c777c9f48e30295" target="_top" xlink:title="Disk._base.File.__exit__">
<polygon fill="none" stroke="black" points="636.5,-63.5 636.5,-82.5 755.5,-82.5 755.5,-63.5 636.5,-63.5"/>
<text text-anchor="middle" x="696" y="-70.5" font-family="Helvetica,sans-Serif" font-size="10.00">Disk._base.File.__exit__</text>
</a>
</g>
</g>
<!-- Node8&#45;&gt;Node9 -->
<g id="edge9" class="edge"><title>Node8&#45;&gt;Node9</title>
<path fill="none" stroke="midnightblue" d="M609.894,-73C618.691,-73 627.631,-73 636.248,-73"/>
<polygon fill="midnightblue" stroke="midnightblue" points="609.66,-69.5001 599.66,-73 609.66,-76.5001 609.66,-69.5001"/>
</g>
<!-- Node8&#45;&gt;Node10 -->
<g id="edge10" class="edge"><title>Node8&#45;&gt;Node10</title>
<path fill="none" stroke="midnightblue" d="M573.816,-59.5751C603.206,-47.552 645.576,-30.2189 671.643,-19.555"/>
<polygon fill="midnightblue" stroke="midnightblue" points="572.32,-56.4058 564.389,-63.4317 574.97,-62.8847 572.32,-56.4058"/>
</g>
<!-- Node11&#45;&gt;Node4 -->
<g id="edge12" class="edge"><title>Node11&#45;&gt;Node4</title>
<path fill="none" stroke="midnightblue" d="M285.708,-169.803C296.484,-171.083 307.619,-172.405 318.295,-173.672"/>
<polygon fill="midnightblue" stroke="midnightblue" points="285.854,-166.296 275.511,-168.592 285.029,-173.247 285.854,-166.296"/>
</g>
</g>
</svg>
        <g id="navigator" transform="translate(0 0)" fill="#404254">
                <rect fill="#f2f5e9" fill-opacity="0.5" stroke="#606060" stroke-width=".5" x="0" y="0" width="60" height="60"/>
                <use id="zoomplus" xlink:href="#zoomPlus" x="17" y="9" onmousedown="handleZoom(evt,'in')"/>
                <use id="zoomminus" xlink:href="#zoomMin" x="42" y="9" onmousedown="handleZoom(evt,'out')"/>
                <use id="reset" xlink:href="#resetDef" x="30" y="36" onmousedown="handleReset()"/>
                <g id="arrowUp" xlink:href="#dirArrow" transform="translate(30 24)" onmousedown="handlePan(0,-1)">
                  <use xlink:href="#rim" fill="#404040">
                        <set attributeName="fill" to="#808080" begin="arrowUp.mouseover" end="arrowUp.mouseout"/>
                  </use>
                  <path fill="none" stroke="white" stroke-width="1.5" d="M0,-3.0v7 M-2.5,-0.5L0,-3.0L2.5,-0.5"/>
                </g>
                <g id="arrowRight" xlink:href="#dirArrow" transform="rotate(90) translate(36 -43)" onmousedown="handlePan(1,0)">
                  <use xlink:href="#rim" fill="#404040">
                        <set attributeName="fill" to="#808080" begin="arrowRight.mouseover" end="arrowRight.mouseout"/>
                  </use>
                  <path fill="none" stroke="white" stroke-width="1.5" d="M0,-3.0v7 M-2.5,-0.5L0,-3.0L2.5,-0.5"/>
                </g>
                <g id="arrowDown" xlink:href="#dirArrow" transform="rotate(180) translate(-30 -48)" onmousedown="handlePan(0,1)">
                  <use xlink:href="#rim" fill="#404040">
                        <set attributeName="fill" to="#808080" begin="arrowDown.mouseover" end="arrowDown.mouseout"/>
                  </use>
                  <path fill="none" stroke="white" stroke-width="1.5" d="M0,-3.0v7 M-2.5,-0.5L0,-3.0L2.5,-0.5"/>
                </g>
                <g id="arrowLeft" xlink:href="#dirArrow" transform="rotate(270) translate(-36 17)" onmousedown="handlePan(-1,0)">
                  <use xlink:href="#rim" fill="#404040">
                        <set attributeName="fill" to="#808080" begin="arrowLeft.mouseover" end="arrowLeft.mouseout"/>
                  </use>
                  <path fill="none" stroke="white" stroke-width="1.5" d="M0,-3.0v7 M-2.5,-0.5L0,-3.0L2.5,-0.5"/>
                </g>
        </g>
        <svg viewBox="0 0 15 15" width="100%" height="30px" preserveAspectRatio="xMaxYMin meet">
         <g id="arrow_out" transform="scale(0.3 0.3)">
          <a xlink:href="class_disk_1_1__base_1_1_file_a5801d2db863fa1967d7847917aa757f3_icgraph_org.svg" target="_base">
           <rect id="button" ry="5" rx="5" y="6" x="6" height="38" width="38"
                fill="#f2f5e9" fill-opacity="0.5" stroke="#606060" stroke-width="1.0"/>
           <path id="arrow"
             d="M 11.500037,31.436501 C 11.940474,20.09759 22.043105,11.32322 32.158766,21.979434 L 37.068811,17.246167 C 37.068811,17.246167 37.088388,32 37.088388,32 L 22.160133,31.978069 C 22.160133,31.978069 26.997745,27.140456 26.997745,27.140456 C 18.528582,18.264221 13.291696,25.230495 11.500037,31.436501 z"
             style="fill:#404040;"/>
          </a>
         </g>
        </svg>
</svg>
