<?xml version="1.0" encoding="UTF-8" standalone="no"?>
<!DOCTYPE svg PUBLIC "-//W3C//DTD SVG 1.1//EN"
 "http://www.w3.org/Graphics/SVG/1.1/DTD/svg11.dtd">
<!-- Generated by graphviz version 2.28.0 (20121214.2254)
 -->
<!-- Title: Exception Pages: 1 -->
<svg width="299pt" height="182pt"
 viewBox="0.00 0.00 299.00 182.00" xmlns="http://www.w3.org/2000/svg" xmlns:xlink="http://www.w3.org/1999/xlink">
<g id="graph1" class="graph" transform="scale(1 1) rotate(0) translate(4 178)">
<title>Exception</title>
<!-- Node1 -->
<g id="node1" class="node"><title>Node1</title>
<polygon fill="#bfbfbf" stroke="black" points="129.5,-116.5 129.5,-173.5 188.5,-173.5 188.5,-116.5 129.5,-116.5"/>
<text text-anchor="middle" x="159" y="-161.5" font-family="Helvetica,sans-Serif" font-size="10.00">Exception</text>
<polyline fill="none" stroke="black" points="129.5,-154.5 188.5,-154.5 "/>
<text text-anchor="middle" x="159" y="-142.5" font-family="Helvetica,sans-Serif" font-size="10.00"> </text>
<polyline fill="none" stroke="black" points="129.5,-135.5 188.5,-135.5 "/>
<text text-anchor="middle" x="159" y="-123.5" font-family="Helvetica,sans-Serif" font-size="10.00"> </text>
</g>
<!-- Node2 -->
<g id="node3" class="node"><title>Node2</title>
<a xlink:href="class_disk_1_1_compressed_file_1_1_unrecognized_format.html" target="_top" xlink:title="{Disk.CompressedFile.Unrecognized\lFormat\n||+ __init__()\l}">
<polygon fill="none" stroke="black" points="-0.5,-6 -0.5,-74 164.5,-74 164.5,-6 -0.5,-6"/>
<text text-anchor="start" x="7.5" y="-62" font-family="Helvetica,sans-Serif" font-size="10.00">Disk.CompressedFile.Unrecognized</text>
<text text-anchor="middle" x="82" y="-51" font-family="Helvetica,sans-Serif" font-size="10.00">Format</text>
<polyline fill="none" stroke="black" points="-0.5,-44 164.5,-44 "/>
<text text-anchor="middle" x="82" y="-32" font-family="Helvetica,sans-Serif" font-size="10.00"> </text>
<polyline fill="none" stroke="black" points="-0.5,-25 164.5,-25 "/>
<text text-anchor="start" x="7.5" y="-13" font-family="Helvetica,sans-Serif" font-size="10.00">+ __init__()</text>
</a>
</g>
<!-- Node1&#45;&gt;Node2 -->
<g id="edge2" class="edge"><title>Node1&#45;&gt;Node2</title>
<path fill="none" stroke="midnightblue" d="M132.235,-108.197C123.978,-97.1522 114.924,-85.0418 106.805,-74.1812"/>
<polygon fill="none" stroke="midnightblue" points="129.575,-110.484 138.365,-116.398 135.181,-106.293 129.575,-110.484"/>
</g>
<!-- Node3 -->
<g id="node5" class="node"><title>Node3</title>
<a xlink:href="class_disk_1_1_config_file_1_1_parser__m1_1_1_parse_exception.html" target="_top" xlink:title="{Disk.ConfigFile.Parser\l_m1.ParseException\n|+ message\l|+ __init__()\l+ __str__()\l}">
<polygon fill="none" stroke="black" points="183,-0.5 183,-79.5 291,-79.5 291,-0.5 183,-0.5"/>
<text text-anchor="start" x="191" y="-67.5" font-family="Helvetica,sans-Serif" font-size="10.00">Disk.ConfigFile.Parser</text>
<text text-anchor="middle" x="237" y="-56.5" font-family="Helvetica,sans-Serif" font-size="10.00">_m1.ParseException</text>
<polyline fill="none" stroke="black" points="183,-49.5 291,-49.5 "/>
<text text-anchor="start" x="191" y="-37.5" font-family="Helvetica,sans-Serif" font-size="10.00">+ message</text>
<polyline fill="none" stroke="black" points="183,-30.5 291,-30.5 "/>
<text text-anchor="start" x="191" y="-18.5" font-family="Helvetica,sans-Serif" font-size="10.00">+ __init__()</text>
<text text-anchor="start" x="191" y="-7.5" font-family="Helvetica,sans-Serif" font-size="10.00">+ __str__()</text>
</a>
</g>
<!-- Node1&#45;&gt;Node3 -->
<g id="edge4" class="edge"><title>Node1&#45;&gt;Node3</title>
<path fill="none" stroke="midnightblue" d="M186.149,-108.15C193.155,-98.8982 200.725,-88.902 207.829,-79.5205"/>
<polygon fill="none" stroke="midnightblue" points="183.149,-106.313 179.903,-116.398 188.73,-110.539 183.149,-106.313"/>
</g>
</g>
</svg>
