<?xml version="1.0" encoding="UTF-8" standalone="no"?>
<!DOCTYPE svg PUBLIC "-//W3C//DTD SVG 1.1//EN"
 "http://www.w3.org/Graphics/SVG/1.1/DTD/svg11.dtd">
<!-- Generated by graphviz version 2.30.1 (20130219.2202)
 -->
<!-- Title: Disk._base.FilePath Pages: 1 -->
<svg width="281pt" height="536pt"
 viewBox="0.00 0.00 281.00 536.00" xmlns="http://www.w3.org/2000/svg" xmlns:xlink="http://www.w3.org/1999/xlink">
<g id="graph0" class="graph" transform="scale(1 1) rotate(0) translate(4 532)">
<title>Disk._base.FilePath</title>
<!-- Node1 -->
<g id="node1" class="node"><title>Node1</title>
<polygon fill="#bfbfbf" stroke="black" points="86.5,-128.5 86.5,-251.5 187.5,-251.5 187.5,-128.5 86.5,-128.5"/>
<text text-anchor="middle" x="137" y="-239.5" font-family="Helvetica,sans-Serif" font-size="10.00">Disk._base.FilePath</text>
<polyline fill="none" stroke="black" points="86.5,-232.5 187.5,-232.5 "/>
<text text-anchor="middle" x="137" y="-220.5" font-family="Helvetica,sans-Serif" font-size="10.00"> </text>
<polyline fill="none" stroke="black" points="86.5,-213.5 187.5,-213.5 "/>
<text text-anchor="start" x="94.5" y="-201.5" font-family="Helvetica,sans-Serif" font-size="10.00">+ __init__()</text>
<text text-anchor="start" x="94.5" y="-190.5" font-family="Helvetica,sans-Serif" font-size="10.00">+ asFile()</text>
<text text-anchor="start" x="94.5" y="-179.5" font-family="Helvetica,sans-Serif" font-size="10.00">+ create()</text>
<text text-anchor="start" x="94.5" y="-168.5" font-family="Helvetica,sans-Serif" font-size="10.00">+ copyDates()</text>
<text text-anchor="start" x="94.5" y="-157.5" font-family="Helvetica,sans-Serif" font-size="10.00">+ copy()</text>
<text text-anchor="start" x="94.5" y="-146.5" font-family="Helvetica,sans-Serif" font-size="10.00">+ move()</text>
<text text-anchor="start" x="94.5" y="-135.5" font-family="Helvetica,sans-Serif" font-size="10.00">+ rename()</text>
</g>
<!-- Node4 -->
<g id="node4" class="node"><title>Node4</title>
<g id="a_node4"><a xlink:href="class_disk_1_1_local_1_1___paths_1_1_file_path.html" target="_top" xlink:title="A locally accessible file path.">
<polygon fill="none" stroke="black" points="-0.5,-6.5 -0.5,-85.5 128.5,-85.5 128.5,-6.5 -0.5,-6.5"/>
<text text-anchor="middle" x="64" y="-73.5" font-family="Helvetica,sans-Serif" font-size="10.00">Disk.Local._Paths.FilePath</text>
<polyline fill="none" stroke="black" points="-0.5,-66.5 128.5,-66.5 "/>
<text text-anchor="middle" x="64" y="-54.5" font-family="Helvetica,sans-Serif" font-size="10.00"> </text>
<polyline fill="none" stroke="black" points="-0.5,-47.5 128.5,-47.5 "/>
<text text-anchor="start" x="7.5" y="-35.5" font-family="Helvetica,sans-Serif" font-size="10.00">+ __init__()</text>
<text text-anchor="start" x="7.5" y="-24.5" font-family="Helvetica,sans-Serif" font-size="10.00">+ asFile()</text>
<text text-anchor="start" x="7.5" y="-13.5" font-family="Helvetica,sans-Serif" font-size="10.00">+ move()</text>
</a>
</g>
</g>
<!-- Node1&#45;&gt;Node4 -->
<g id="edge3" class="edge"><title>Node1&#45;&gt;Node4</title>
<path fill="none" stroke="midnightblue" d="M101.093,-119.153C95.1661,-107.624 89.2184,-96.0551 83.8752,-85.6614"/>
<polygon fill="none" stroke="midnightblue" points="98.1448,-121.074 105.83,-128.367 104.37,-117.873 98.1448,-121.074"/>
</g>
<!-- Node5 -->
<g id="node5" class="node"><title>Node5</title>
<g id="a_node5"><a xlink:href="class_disk_1_1_s_s_h_1_1___paths_1_1_file_path.html" target="_top" xlink:title="Path of a file on a remote machine.">
<polygon fill="none" stroke="black" points="146.5,-1 146.5,-91 273.5,-91 273.5,-1 146.5,-1"/>
<text text-anchor="middle" x="210" y="-79" font-family="Helvetica,sans-Serif" font-size="10.00">Disk.SSH._Paths.FilePath</text>
<polyline fill="none" stroke="black" points="146.5,-72 273.5,-72 "/>
<text text-anchor="middle" x="210" y="-60" font-family="Helvetica,sans-Serif" font-size="10.00"> </text>
<polyline fill="none" stroke="black" points="146.5,-53 273.5,-53 "/>
<text text-anchor="start" x="154.5" y="-41" font-family="Helvetica,sans-Serif" font-size="10.00">+ __init__()</text>
<text text-anchor="start" x="154.5" y="-30" font-family="Helvetica,sans-Serif" font-size="10.00">+ asFile()</text>
<text text-anchor="start" x="154.5" y="-19" font-family="Helvetica,sans-Serif" font-size="10.00">+ copy()</text>
<text text-anchor="start" x="154.5" y="-8" font-family="Helvetica,sans-Serif" font-size="10.00">+ move()</text>
</a>
</g>
</g>
<!-- Node1&#45;&gt;Node5 -->
<g id="edge4" class="edge"><title>Node1&#45;&gt;Node5</title>
<path fill="none" stroke="midnightblue" d="M172.872,-119.221C177.793,-109.648 182.73,-100.046 187.324,-91.1103"/>
<polygon fill="none" stroke="midnightblue" points="169.63,-117.873 168.17,-128.367 175.855,-121.074 169.63,-117.873"/>
</g>
<!-- Node2 -->
<g id="node2" class="node"><title>Node2</title>
<g id="a_node2"><a xlink:href="class_disk_1_1__base_1_1_path_abstract.html" target="_top" xlink:title="{Disk._base.PathAbstract\n|+ path\l|+ __init__()\l+ asStr()\l+ __str__()\l+ __repr__()\l+ __add__()\l+ __radd__()\l+ __eq__()\l+ __hash__()\l+ __getattr__()\l}">
<polygon fill="none" stroke="black" points="75.5,-288.5 75.5,-433.5 198.5,-433.5 198.5,-288.5 75.5,-288.5"/>
<text text-anchor="middle" x="137" y="-421.5" font-family="Helvetica,sans-Serif" font-size="10.00">Disk._base.PathAbstract</text>
<polyline fill="none" stroke="black" points="75.5,-414.5 198.5,-414.5 "/>
<text text-anchor="start" x="83.5" y="-402.5" font-family="Helvetica,sans-Serif" font-size="10.00">+ path</text>
<polyline fill="none" stroke="black" points="75.5,-395.5 198.5,-395.5 "/>
<text text-anchor="start" x="83.5" y="-383.5" font-family="Helvetica,sans-Serif" font-size="10.00">+ __init__()</text>
<text text-anchor="start" x="83.5" y="-372.5" font-family="Helvetica,sans-Serif" font-size="10.00">+ asStr()</text>
<text text-anchor="start" x="83.5" y="-361.5" font-family="Helvetica,sans-Serif" font-size="10.00">+ __str__()</text>
<text text-anchor="start" x="83.5" y="-350.5" font-family="Helvetica,sans-Serif" font-size="10.00">+ __repr__()</text>
<text text-anchor="start" x="83.5" y="-339.5" font-family="Helvetica,sans-Serif" font-size="10.00">+ __add__()</text>
<text text-anchor="start" x="83.5" y="-328.5" font-family="Helvetica,sans-Serif" font-size="10.00">+ __radd__()</text>
<text text-anchor="start" x="83.5" y="-317.5" font-family="Helvetica,sans-Serif" font-size="10.00">+ __eq__()</text>
<text text-anchor="start" x="83.5" y="-306.5" font-family="Helvetica,sans-Serif" font-size="10.00">+ __hash__()</text>
<text text-anchor="start" x="83.5" y="-295.5" font-family="Helvetica,sans-Serif" font-size="10.00">+ __getattr__()</text>
</a>
</g>
</g>
<!-- Node2&#45;&gt;Node1 -->
<g id="edge1" class="edge"><title>Node2&#45;&gt;Node1</title>
<path fill="none" stroke="midnightblue" d="M137,-278.232C137,-269.254 137,-260.235 137,-251.58"/>
<polygon fill="none" stroke="midnightblue" points="133.5,-278.329 137,-288.329 140.5,-278.329 133.5,-278.329"/>
</g>
<!-- Node3 -->
<g id="node3" class="node"><title>Node3</title>
<g id="a_node3"><a xlink:href="classobject.html" target="_top" xlink:title="{object\n||}">
<polygon fill="none" stroke="black" points="116,-470.5 116,-527.5 158,-527.5 158,-470.5 116,-470.5"/>
<text text-anchor="middle" x="137" y="-515.5" font-family="Helvetica,sans-Serif" font-size="10.00">object</text>
<polyline fill="none" stroke="black" points="116,-508.5 158,-508.5 "/>
<text text-anchor="middle" x="137" y="-496.5" font-family="Helvetica,sans-Serif" font-size="10.00"> </text>
<polyline fill="none" stroke="black" points="116,-489.5 158,-489.5 "/>
<text text-anchor="middle" x="137" y="-477.5" font-family="Helvetica,sans-Serif" font-size="10.00"> </text>
</a>
</g>
</g>
<!-- Node3&#45;&gt;Node2 -->
<g id="edge2" class="edge"><title>Node3&#45;&gt;Node2</title>
<path fill="none" stroke="midnightblue" d="M137,-460.356C137,-451.999 137,-442.872 137,-433.656"/>
<polygon fill="none" stroke="midnightblue" points="133.5,-460.478 137,-470.478 140.5,-460.478 133.5,-460.478"/>
</g>
</g>
</svg>
