<?xml version="1.0" encoding="UTF-8" standalone="no"?>
<!DOCTYPE svg PUBLIC "-//W3C//DTD SVG 1.1//EN"
 "http://www.w3.org/Graphics/SVG/1.1/DTD/svg11.dtd">
<!-- Generated by graphviz version 2.28.0 (20121214.2254)
 -->
<!-- Title: Disk.SSH._Paths.FolderPath Pages: 1 -->
<svg width="312pt" height="504pt"
 viewBox="0.00 0.00 312.00 504.00" xmlns="http://www.w3.org/2000/svg" xmlns:xlink="http://www.w3.org/1999/xlink">
<g id="graph1" class="graph" transform="scale(1 1) rotate(0) translate(4 500)">
<title>Disk.SSH._Paths.FolderPath</title>
<!-- Node1 -->
<g id="node1" class="node"><title>Node1</title>
<polygon fill="#bfbfbf" stroke="black" points="94,-1 94,-69 232,-69 232,-1 94,-1"/>
<text text-anchor="middle" x="163" y="-57" font-family="Helvetica,sans-Serif" font-size="10.00">Disk.SSH._Paths.FolderPath</text>
<polyline fill="none" stroke="black" points="94,-50 232,-50 "/>
<text text-anchor="middle" x="163" y="-38" font-family="Helvetica,sans-Serif" font-size="10.00"> </text>
<polyline fill="none" stroke="black" points="94,-31 232,-31 "/>
<text text-anchor="start" x="102" y="-19" font-family="Helvetica,sans-Serif" font-size="10.00">+ __init__()</text>
<text text-anchor="start" x="102" y="-8" font-family="Helvetica,sans-Serif" font-size="10.00">+ rmtree()</text>
</g>
<!-- Node2 -->
<g id="node2" class="node"><title>Node2</title>
<a xlink:href="class_disk_1_1_s_s_h_1_1___paths_1_1_s_s_hpath_abstract.html" target="_top" xlink:title="{Disk.SSH._Paths.SSHpathAbstract\n|+ connection\l|+ __init__()\l}">
<polygon fill="none" stroke="black" points="0,-134.5 0,-191.5 168,-191.5 168,-134.5 0,-134.5"/>
<text text-anchor="middle" x="84" y="-179.5" font-family="Helvetica,sans-Serif" font-size="10.00">Disk.SSH._Paths.SSHpathAbstract</text>
<polyline fill="none" stroke="black" points="0,-172.5 168,-172.5 "/>
<text text-anchor="start" x="8" y="-160.5" font-family="Helvetica,sans-Serif" font-size="10.00">+ connection</text>
<polyline fill="none" stroke="black" points="0,-153.5 168,-153.5 "/>
<text text-anchor="start" x="8" y="-141.5" font-family="Helvetica,sans-Serif" font-size="10.00">+ __init__()</text>
</a>
</g>
<!-- Node2&#45;&gt;Node1 -->
<g id="edge2" class="edge"><title>Node2&#45;&gt;Node1</title>
<path fill="none" stroke="midnightblue" d="M106.919,-125.446C118.011,-107.755 131.233,-86.6658 142.053,-69.4091"/>
<polygon fill="none" stroke="midnightblue" points="103.684,-124.017 101.337,-134.349 109.614,-127.736 103.684,-124.017"/>
</g>
<!-- Node3 -->
<g id="node4" class="node"><title>Node3</title>
<a xlink:href="class_disk_1_1__base_1_1_folder_path.html" target="_top" xlink:title="Abstract concept of a folder path.">
<polygon fill="none" stroke="black" points="186.5,-107 186.5,-219 299.5,-219 299.5,-107 186.5,-107"/>
<text text-anchor="middle" x="243" y="-207" font-family="Helvetica,sans-Serif" font-size="10.00">Disk._base.FolderPath</text>
<polyline fill="none" stroke="black" points="186.5,-200 299.5,-200 "/>
<text text-anchor="middle" x="243" y="-188" font-family="Helvetica,sans-Serif" font-size="10.00"> </text>
<polyline fill="none" stroke="black" points="186.5,-181 299.5,-181 "/>
<text text-anchor="start" x="194.5" y="-169" font-family="Helvetica,sans-Serif" font-size="10.00">+ __init__()</text>
<text text-anchor="start" x="194.5" y="-158" font-family="Helvetica,sans-Serif" font-size="10.00">+ create()</text>
<text text-anchor="start" x="194.5" y="-147" font-family="Helvetica,sans-Serif" font-size="10.00">+ rmtree()</text>
<text text-anchor="start" x="194.5" y="-136" font-family="Helvetica,sans-Serif" font-size="10.00">+ remove()</text>
<text text-anchor="start" x="194.5" y="-125" font-family="Helvetica,sans-Serif" font-size="10.00">+ mkdirs()</text>
<text text-anchor="start" x="194.5" y="-114" font-family="Helvetica,sans-Serif" font-size="10.00">+ walk()</text>
</a>
</g>
<!-- Node3&#45;&gt;Node1 -->
<g id="edge4" class="edge"><title>Node3&#45;&gt;Node1</title>
<path fill="none" stroke="midnightblue" d="M202.541,-98.2767C196.135,-88.1878 189.745,-78.1235 184.028,-69.1192"/>
<polygon fill="none" stroke="midnightblue" points="199.596,-100.168 207.911,-106.735 205.505,-96.4164 199.596,-100.168"/>
</g>
<!-- Node4 -->
<g id="node6" class="node"><title>Node4</title>
<a xlink:href="class_disk_1_1__base_1_1_path_abstract.html" target="_top" xlink:title="{Disk._base.PathAbstract\n|+ path\l|+ __init__()\l+ asStr()\l+ __str__()\l+ __repr__()\l+ __add__()\l+ __radd__()\l+ __eq__()\l+ __hash__()\l+ __getattr__()\l}">
<polygon fill="none" stroke="black" points="181.5,-256.5 181.5,-401.5 304.5,-401.5 304.5,-256.5 181.5,-256.5"/>
<text text-anchor="middle" x="243" y="-389.5" font-family="Helvetica,sans-Serif" font-size="10.00">Disk._base.PathAbstract</text>
<polyline fill="none" stroke="black" points="181.5,-382.5 304.5,-382.5 "/>
<text text-anchor="start" x="189.5" y="-370.5" font-family="Helvetica,sans-Serif" font-size="10.00">+ path</text>
<polyline fill="none" stroke="black" points="181.5,-363.5 304.5,-363.5 "/>
<text text-anchor="start" x="189.5" y="-351.5" font-family="Helvetica,sans-Serif" font-size="10.00">+ __init__()</text>
<text text-anchor="start" x="189.5" y="-340.5" font-family="Helvetica,sans-Serif" font-size="10.00">+ asStr()</text>
<text text-anchor="start" x="189.5" y="-329.5" font-family="Helvetica,sans-Serif" font-size="10.00">+ __str__()</text>
<text text-anchor="start" x="189.5" y="-318.5" font-family="Helvetica,sans-Serif" font-size="10.00">+ __repr__()</text>
<text text-anchor="start" x="189.5" y="-307.5" font-family="Helvetica,sans-Serif" font-size="10.00">+ __add__()</text>
<text text-anchor="start" x="189.5" y="-296.5" font-family="Helvetica,sans-Serif" font-size="10.00">+ __radd__()</text>
<text text-anchor="start" x="189.5" y="-285.5" font-family="Helvetica,sans-Serif" font-size="10.00">+ __eq__()</text>
<text text-anchor="start" x="189.5" y="-274.5" font-family="Helvetica,sans-Serif" font-size="10.00">+ __hash__()</text>
<text text-anchor="start" x="189.5" y="-263.5" font-family="Helvetica,sans-Serif" font-size="10.00">+ __getattr__()</text>
</a>
</g>
<!-- Node4&#45;&gt;Node3 -->
<g id="edge6" class="edge"><title>Node4&#45;&gt;Node3</title>
<path fill="none" stroke="midnightblue" d="M243,-245.855C243,-236.789 243,-227.726 243,-219.109"/>
<polygon fill="none" stroke="midnightblue" points="239.5,-246.067 243,-256.067 246.5,-246.067 239.5,-246.067"/>
</g>
<!-- Node5 -->
<g id="node8" class="node"><title>Node5</title>
<a xlink:href="classobject.html" target="_top" xlink:title="{object\n||}">
<polygon fill="none" stroke="black" points="222,-438.5 222,-495.5 264,-495.5 264,-438.5 222,-438.5"/>
<text text-anchor="middle" x="243" y="-483.5" font-family="Helvetica,sans-Serif" font-size="10.00">object</text>
<polyline fill="none" stroke="black" points="222,-476.5 264,-476.5 "/>
<text text-anchor="middle" x="243" y="-464.5" font-family="Helvetica,sans-Serif" font-size="10.00"> </text>
<polyline fill="none" stroke="black" points="222,-457.5 264,-457.5 "/>
<text text-anchor="middle" x="243" y="-445.5" font-family="Helvetica,sans-Serif" font-size="10.00"> </text>
</a>
</g>
<!-- Node5&#45;&gt;Node4 -->
<g id="edge8" class="edge"><title>Node5&#45;&gt;Node4</title>
<path fill="none" stroke="midnightblue" d="M243,-428.356C243,-419.999 243,-410.872 243,-401.656"/>
<polygon fill="none" stroke="midnightblue" points="239.5,-428.478 243,-438.478 246.5,-428.478 239.5,-428.478"/>
</g>
</g>
</svg>
