<?xml version="1.0" encoding="UTF-8" standalone="no"?>
<!DOCTYPE svg PUBLIC "-//W3C//DTD SVG 1.1//EN"
 "http://www.w3.org/Graphics/SVG/1.1/DTD/svg11.dtd">
<!-- Generated by graphviz version 2.30.1 (20130219.2202)
 -->
<!-- Title: Disk._base.File.__exit__ Pages: 1 -->
<svg width="778pt" height="85pt"
 viewBox="0.00 0.00 778.00 85.00" xmlns="http://www.w3.org/2000/svg" xmlns:xlink="http://www.w3.org/1999/xlink">
<g id="graph0" class="graph" transform="scale(1 1) rotate(0) translate(4 81)">
<title>Disk._base.File.__exit__</title>
<!-- Node1 -->
<g id="node1" class="node"><title>Node1</title>
<polygon fill="#bfbfbf" stroke="black" points="0.5,-38.5 0.5,-57.5 119.5,-57.5 119.5,-38.5 0.5,-38.5"/>
<text text-anchor="middle" x="60" y="-45.5" font-family="Helvetica,sans-Serif" font-size="10.00">Disk._base.File.__exit__</text>
</g>
<!-- Node2 -->
<g id="node2" class="node"><title>Node2</title>
<g id="a_node2"><a xlink:href="class_disk_1_1_local_1_1___file_1_1_base_file.html#a4044af9876fda87605d0acd6914d2aa6" target="_top" xlink:title="Disk.Local._File.BaseFile.close">
<polygon fill="none" stroke="black" points="156,-57.5 156,-76.5 300,-76.5 300,-57.5 156,-57.5"/>
<text text-anchor="middle" x="228" y="-64.5" font-family="Helvetica,sans-Serif" font-size="10.00">Disk.Local._File.BaseFile.close</text>
</a>
</g>
</g>
<!-- Node1&#45;&gt;Node2 -->
<g id="edge1" class="edge"><title>Node1&#45;&gt;Node2</title>
<path fill="none" stroke="midnightblue" d="M119.525,-54.6987C128.071,-55.6768 136.996,-56.6984 145.893,-57.7166"/>
<polygon fill="midnightblue" stroke="midnightblue" points="145.57,-61.2025 155.903,-58.8624 146.366,-54.2479 145.57,-61.2025"/>
</g>
<!-- Node3 -->
<g id="node3" class="node"><title>Node3</title>
<g id="a_node3"><a xlink:href="class_disk_1_1_s_s_h_1_1___file_1_1_file.html#a78a57bc0b49bb00fe9672e04fba5661c" target="_top" xlink:title="Disk.SSH._File.File.close">
<polygon fill="none" stroke="black" points="168.5,-19.5 168.5,-38.5 287.5,-38.5 287.5,-19.5 168.5,-19.5"/>
<text text-anchor="middle" x="228" y="-26.5" font-family="Helvetica,sans-Serif" font-size="10.00">Disk.SSH._File.File.close</text>
</a>
</g>
</g>
<!-- Node1&#45;&gt;Node3 -->
<g id="edge2" class="edge"><title>Node1&#45;&gt;Node3</title>
<path fill="none" stroke="midnightblue" d="M119.525,-41.3013C132.047,-39.8682 145.384,-38.3416 158.251,-36.8689"/>
<polygon fill="midnightblue" stroke="midnightblue" points="158.906,-40.3168 168.444,-35.7022 158.11,-33.3622 158.906,-40.3168"/>
</g>
<!-- Node4 -->
<g id="node4" class="node"><title>Node4</title>
<g id="a_node4"><a xlink:href="class_disk_1_1_s_s_h_1_1___file_1_1_file.html#a2b8fa9d0d909bb45c91d589d2e0cf6d3" target="_top" xlink:title="Uploads the file if changed.">
<polygon fill="none" stroke="black" points="336,-19.5 336,-38.5 452,-38.5 452,-19.5 336,-19.5"/>
<text text-anchor="middle" x="394" y="-26.5" font-family="Helvetica,sans-Serif" font-size="10.00">Disk.SSH._File.File.flush</text>
</a>
</g>
</g>
<!-- Node3&#45;&gt;Node4 -->
<g id="edge3" class="edge"><title>Node3&#45;&gt;Node4</title>
<path fill="none" stroke="midnightblue" d="M287.745,-29C299.951,-29 312.908,-29 325.403,-29"/>
<polygon fill="midnightblue" stroke="midnightblue" points="325.765,-32.5001 335.765,-29 325.765,-25.5001 325.765,-32.5001"/>
</g>
<!-- Node5 -->
<g id="node5" class="node"><title>Node5</title>
<g id="a_node5"><a xlink:href="class_disk_1_1__base_1_1_file.html#af4a79b03f7f30ffdf6be32aaa025f9aa" target="_top" xlink:title="Disk._base.File.isWritable">
<polygon fill="none" stroke="black" points="488.5,-38.5 488.5,-57.5 613.5,-57.5 613.5,-38.5 488.5,-38.5"/>
<text text-anchor="middle" x="551" y="-45.5" font-family="Helvetica,sans-Serif" font-size="10.00">Disk._base.File.isWritable</text>
</a>
</g>
</g>
<!-- Node4&#45;&gt;Node5 -->
<g id="edge4" class="edge"><title>Node4&#45;&gt;Node5</title>
<path fill="none" stroke="midnightblue" d="M452.276,-36.0209C460.706,-37.0542 469.479,-38.1296 478.156,-39.1934"/>
<polygon fill="midnightblue" stroke="midnightblue" points="477.922,-42.6908 488.274,-40.4335 478.774,-35.7428 477.922,-42.6908"/>
</g>
<!-- Node7 -->
<g id="node7" class="node"><title>Node7</title>
<g id="a_node7"><a xlink:href="class_disk_1_1__base_1_1_file.html#a7401ddb8e1f5573402123b8f65b7bc08" target="_top" xlink:title="Disk._base.File.getPath">
<polygon fill="none" stroke="black" points="493,-0.5 493,-19.5 609,-19.5 609,-0.5 493,-0.5"/>
<text text-anchor="middle" x="551" y="-7.5" font-family="Helvetica,sans-Serif" font-size="10.00">Disk._base.File.getPath</text>
</a>
</g>
</g>
<!-- Node4&#45;&gt;Node7 -->
<g id="edge6" class="edge"><title>Node4&#45;&gt;Node7</title>
<path fill="none" stroke="midnightblue" d="M452.276,-21.9791C462.236,-20.7581 472.676,-19.4784 482.872,-18.2286"/>
<polygon fill="midnightblue" stroke="midnightblue" points="483.46,-21.6828 492.96,-16.9921 482.608,-14.7348 483.46,-21.6828"/>
</g>
<!-- Node6 -->
<g id="node6" class="node"><title>Node6</title>
<g id="a_node6"><a xlink:href="class_disk_1_1__base_1_1_file.html#a5801d2db863fa1967d7847917aa757f3" target="_top" xlink:title="Disk._base.File.isClosed">
<polygon fill="none" stroke="black" points="650,-38.5 650,-57.5 770,-57.5 770,-38.5 650,-38.5"/>
<text text-anchor="middle" x="710" y="-45.5" font-family="Helvetica,sans-Serif" font-size="10.00">Disk._base.File.isClosed</text>
</a>
</g>
</g>
<!-- Node5&#45;&gt;Node6 -->
<g id="edge5" class="edge"><title>Node5&#45;&gt;Node6</title>
<path fill="none" stroke="midnightblue" d="M613.6,-48C622.183,-48 631.048,-48 639.76,-48"/>
<polygon fill="midnightblue" stroke="midnightblue" points="639.889,-51.5001 649.889,-48 639.889,-44.5001 639.889,-51.5001"/>
</g>
</g>
</svg>
