<?xml version="1.0" encoding="UTF-8" standalone="no"?>
<!DOCTYPE svg PUBLIC "-//W3C//DTD SVG 1.1//EN"
 "http://www.w3.org/Graphics/SVG/1.1/DTD/svg11.dtd">
<!-- Generated by graphviz version 2.28.0 (20121214.2254)
 -->
<!-- Title: Disk._base.File.isClosed Pages: 1 -->
<!--zoomable 123 -->
<svg id="main" version="1.1" xmlns="http://www.w3.org/2000/svg" xmlns:xlink="http://www.w3.org/1999/xlink" xml:space="preserve" onload="init(evt)">
        <defs>
                <circle id="rim" cx="0" cy="0" r="7"/>
                <circle id="rim2" cx="0" cy="0" r="3.5"/>
                <g id="zoomPlus">
                        <use xlink:href="#rim" fill="#404040">
                                <set attributeName="fill" to="#808080" begin="zoomplus.mouseover" end="zoomplus.mouseout"/>
                        </use>
                        <path d="M-4,0h8M0,-4v8" fill="none" stroke="white" stroke-width="1.5" pointer-events="none"/>
                </g>
                <g id="zoomMin">
                        <use xlink:href="#rim" fill="#404040">
                                <set attributeName="fill" to="#808080" begin="zoomminus.mouseover" end="zoomminus.mouseout"/>
                        </use>
                        <path d="M-4,0h8" fill="none" stroke="white" stroke-width="1.5" pointer-events="none"/>
                </g>
                <g id="dirArrow">
                        <path fill="none" stroke="white" stroke-width="1.5" d="M0,-3.0v7 M-2.5,-0.5L0,-3.0L2.5,-0.5"/>
                </g>
               <g id="resetDef">
                       <use xlink:href="#rim2" fill="#404040">
                               <set attributeName="fill" to="#808080" begin="reset.mouseover" end="reset.mouseout"/>
                       </use>
               </g>
        </defs>

<script type="text/javascript">
var viewWidth = 608;
var viewHeight = 123;
var sectionId = 'dynsection-6';
</script>
<script xlink:href="svgpan.js"/>
<svg id="graph" class="graph">
<g id="viewport">
<title>Disk._base.File.isClosed</title>
<!-- Node1 -->
<g id="node1" class="node"><title>Node1</title>
<polygon fill="#bfbfbf" stroke="black" points="0,-57.5 0,-76.5 120,-76.5 120,-57.5 0,-57.5"/>
<text text-anchor="middle" x="60" y="-64.5" font-family="Helvetica,sans-Serif" font-size="10.00">Disk._base.File.isClosed</text>
</g>
<!-- Node2 -->
<g id="node3" class="node"><title>Node2</title>
<a xlink:href="class_disk_1_1__base_1_1_file.html#a91270d2ecba3b573d24b79e7a25c6b58" target="_top" xlink:title="Disk._base.File.__enter__">
<polygon fill="none" stroke="black" points="318.5,-95.5 318.5,-114.5 443.5,-114.5 443.5,-95.5 318.5,-95.5"/>
<text text-anchor="middle" x="381" y="-102.5" font-family="Helvetica,sans-Serif" font-size="10.00">Disk._base.File.__enter__</text>
</a>
</g>
<!-- Node1&#45;&gt;Node2 -->
<g id="edge2" class="edge"><title>Node1&#45;&gt;Node2</title>
<path fill="none" stroke="midnightblue" d="M87.9663,-80.9965C106.538,-89.8229 132.085,-100.394 156,-105 210.035,-115.406 272.771,-114.309 318.082,-111.245"/>
<polygon fill="midnightblue" stroke="midnightblue" points="89.4568,-77.8293 78.9357,-76.5808 86.3818,-84.1178 89.4568,-77.8293"/>
</g>
<!-- Node3 -->
<g id="node5" class="node"><title>Node3</title>
<a xlink:href="class_disk_1_1__base_1_1_file.html#af4a79b03f7f30ffdf6be32aaa025f9aa" target="_top" xlink:title="Disk._base.File.isWritable">
<polygon fill="none" stroke="black" points="156.5,-38.5 156.5,-57.5 281.5,-57.5 281.5,-38.5 156.5,-38.5"/>
<text text-anchor="middle" x="219" y="-45.5" font-family="Helvetica,sans-Serif" font-size="10.00">Disk._base.File.isWritable</text>
</a>
</g>
<!-- Node1&#45;&gt;Node3 -->
<g id="edge4" class="edge"><title>Node1&#45;&gt;Node3</title>
<path fill="none" stroke="midnightblue" d="M130.44,-58.5965C139.111,-57.5471 147.931,-56.4797 156.47,-55.4463"/>
<polygon fill="midnightblue" stroke="midnightblue" points="129.862,-55.1408 120.355,-59.8169 130.703,-62.0901 129.862,-55.1408"/>
</g>
<!-- Node6 -->
<g id="node11" class="node"><title>Node6</title>
<a xlink:href="class_disk_1_1__base_1_1_file.html#ababdfcceed76d07a67803fb4b7272e4d" target="_top" xlink:title="Disk._base.File.destruct">
<polygon fill="none" stroke="black" points="482,-0.5 482,-19.5 598,-19.5 598,-0.5 482,-0.5"/>
<text text-anchor="middle" x="540" y="-7.5" font-family="Helvetica,sans-Serif" font-size="10.00">Disk._base.File.destruct</text>
</a>
</g>
<!-- Node1&#45;&gt;Node6 -->
<g id="edge12" class="edge"><title>Node1&#45;&gt;Node6</title>
<path fill="none" stroke="midnightblue" d="M88.7415,-53.0625C107.286,-44.4655 132.502,-34.1322 156,-29 269.497,-4.21057 406.221,-4.38806 481.772,-7.01355"/>
<polygon fill="midnightblue" stroke="midnightblue" points="87.2248,-49.9081 79.6967,-57.3632 90.2308,-56.2299 87.2248,-49.9081"/>
</g>
<!-- Node7 -->
<g id="node14" class="node"><title>Node7</title>
<a xlink:href="class_disk_1_1__base_1_1_file.html#addb4e95daa21c36c5bf6d30e7ea29e0e" target="_top" xlink:title="Disk._base.File.reopen">
<polygon fill="none" stroke="black" points="162.5,-76.5 162.5,-95.5 275.5,-95.5 275.5,-76.5 162.5,-76.5"/>
<text text-anchor="middle" x="219" y="-83.5" font-family="Helvetica,sans-Serif" font-size="10.00">Disk._base.File.reopen</text>
</a>
</g>
<!-- Node1&#45;&gt;Node7 -->
<g id="edge14" class="edge"><title>Node1&#45;&gt;Node7</title>
<path fill="none" stroke="midnightblue" d="M130.508,-75.4118C141.198,-76.7054 152.112,-78.0263 162.446,-79.2769"/>
<polygon fill="midnightblue" stroke="midnightblue" points="130.703,-71.9099 120.355,-74.1831 129.862,-78.8592 130.703,-71.9099"/>
</g>
<!-- Node4 -->
<g id="node7" class="node"><title>Node4</title>
<a xlink:href="class_disk_1_1_s_s_h_1_1___file_1_1_file.html#a78a57bc0b49bb00fe9672e04fba5661c" target="_top" xlink:title="Disk.SSH._File.File.close">
<polygon fill="none" stroke="black" points="321.5,-38.5 321.5,-57.5 440.5,-57.5 440.5,-38.5 321.5,-38.5"/>
<text text-anchor="middle" x="381" y="-45.5" font-family="Helvetica,sans-Serif" font-size="10.00">Disk.SSH._File.File.close</text>
</a>
</g>
<!-- Node3&#45;&gt;Node4 -->
<g id="edge6" class="edge"><title>Node3&#45;&gt;Node4</title>
<path fill="none" stroke="midnightblue" d="M292.036,-48C301.881,-48 311.889,-48 321.454,-48"/>
<polygon fill="midnightblue" stroke="midnightblue" points="291.86,-44.5001 281.86,-48 291.86,-51.5001 291.86,-44.5001"/>
</g>
<!-- Node5 -->
<g id="node9" class="node"><title>Node5</title>
<a xlink:href="class_disk_1_1__base_1_1_file.html#ad9e735b15b84fb029c777c9f48e30295" target="_top" xlink:title="Disk._base.File.__exit__">
<polygon fill="none" stroke="black" points="480.5,-38.5 480.5,-57.5 599.5,-57.5 599.5,-38.5 480.5,-38.5"/>
<text text-anchor="middle" x="540" y="-45.5" font-family="Helvetica,sans-Serif" font-size="10.00">Disk._base.File.__exit__</text>
</a>
</g>
<!-- Node4&#45;&gt;Node5 -->
<g id="edge8" class="edge"><title>Node4&#45;&gt;Node5</title>
<path fill="none" stroke="midnightblue" d="M450.992,-48C460.762,-48 470.732,-48 480.284,-48"/>
<polygon fill="midnightblue" stroke="midnightblue" points="450.908,-44.5001 440.908,-48 450.908,-51.5001 450.908,-44.5001"/>
</g>
<!-- Node4&#45;&gt;Node6 -->
<g id="edge10" class="edge"><title>Node4&#45;&gt;Node6</title>
<path fill="none" stroke="midnightblue" d="M431.447,-36.032C453.448,-30.7069 478.994,-24.5238 499.667,-19.5201"/>
<polygon fill="midnightblue" stroke="midnightblue" points="430.514,-32.6567 421.618,-38.411 432.16,-39.4602 430.514,-32.6567"/>
</g>
<!-- Node7&#45;&gt;Node2 -->
<g id="edge16" class="edge"><title>Node7&#45;&gt;Node2</title>
<path fill="none" stroke="midnightblue" d="M285.708,-93.8028C296.484,-95.0825 307.619,-96.4048 318.295,-97.6725"/>
<polygon fill="midnightblue" stroke="midnightblue" points="285.854,-90.2957 275.511,-92.592 285.029,-97.2468 285.854,-90.2957"/>
</g>
</g>
</svg>
        <g id="navigator" transform="translate(0 0)" fill="#404254">
                <rect fill="#f2f5e9" fill-opacity="0.5" stroke="#606060" stroke-width=".5" x="0" y="0" width="60" height="60"/>
                <use id="zoomplus" xlink:href="#zoomPlus" x="17" y="9" onmousedown="handleZoom(evt,'in')"/>
                <use id="zoomminus" xlink:href="#zoomMin" x="42" y="9" onmousedown="handleZoom(evt,'out')"/>
                <use id="reset" xlink:href="#resetDef" x="30" y="36" onmousedown="handleReset()"/>
                <g id="arrowUp" xlink:href="#dirArrow" transform="translate(30 24)" onmousedown="handlePan(0,-1)">
                  <use xlink:href="#rim" fill="#404040">
                        <set attributeName="fill" to="#808080" begin="arrowUp.mouseover" end="arrowUp.mouseout"/>
                  </use>
                  <path fill="none" stroke="white" stroke-width="1.5" d="M0,-3.0v7 M-2.5,-0.5L0,-3.0L2.5,-0.5"/>
                </g>
                <g id="arrowRight" xlink:href="#dirArrow" transform="rotate(90) translate(36 -43)" onmousedown="handlePan(1,0)">
                  <use xlink:href="#rim" fill="#404040">
                        <set attributeName="fill" to="#808080" begin="arrowRight.mouseover" end="arrowRight.mouseout"/>
                  </use>
                  <path fill="none" stroke="white" stroke-width="1.5" d="M0,-3.0v7 M-2.5,-0.5L0,-3.0L2.5,-0.5"/>
                </g>
                <g id="arrowDown" xlink:href="#dirArrow" transform="rotate(180) translate(-30 -48)" onmousedown="handlePan(0,1)">
                  <use xlink:href="#rim" fill="#404040">
                        <set attributeName="fill" to="#808080" begin="arrowDown.mouseover" end="arrowDown.mouseout"/>
                  </use>
                  <path fill="none" stroke="white" stroke-width="1.5" d="M0,-3.0v7 M-2.5,-0.5L0,-3.0L2.5,-0.5"/>
                </g>
                <g id="arrowLeft" xlink:href="#dirArrow" transform="rotate(270) translate(-36 17)" onmousedown="handlePan(-1,0)">
                  <use xlink:href="#rim" fill="#404040">
                        <set attributeName="fill" to="#808080" begin="arrowLeft.mouseover" end="arrowLeft.mouseout"/>
                  </use>
                  <path fill="none" stroke="white" stroke-width="1.5" d="M0,-3.0v7 M-2.5,-0.5L0,-3.0L2.5,-0.5"/>
                </g>
        </g>
        <svg viewBox="0 0 15 15" width="100%" height="30px" preserveAspectRatio="xMaxYMin meet">
         <g id="arrow_out" transform="scale(0.3 0.3)">
          <a xlink:href="class_disk_1_1__base_1_1_file_a5801d2db863fa1967d7847917aa757f3_icgraph_org.svg" target="_base">
           <rect id="button" ry="5" rx="5" y="6" x="6" height="38" width="38"
                fill="#f2f5e9" fill-opacity="0.5" stroke="#606060" stroke-width="1.0"/>
           <path id="arrow"
             d="M 11.500037,31.436501 C 11.940474,20.09759 22.043105,11.32322 32.158766,21.979434 L 37.068811,17.246167 C 37.068811,17.246167 37.088388,32 37.088388,32 L 22.160133,31.978069 C 22.160133,31.978069 26.997745,27.140456 26.997745,27.140456 C 18.528582,18.264221 13.291696,25.230495 11.500037,31.436501 z"
             style="fill:#404040;"/>
          </a>
         </g>
        </svg>
</svg>
