<?xml version="1.0" encoding="UTF-8" standalone="no"?>
<!DOCTYPE svg PUBLIC "-//W3C//DTD SVG 1.1//EN"
 "http://www.w3.org/Graphics/SVG/1.1/DTD/svg11.dtd">
<!-- Generated by graphviz version 2.30.1 (20130221.2233)
 -->
<!-- Title: Disk._base.File.__str__ Pages: 1 -->
<svg width="624pt" height="85pt"
 viewBox="0.00 0.00 624.00 85.00" xmlns="http://www.w3.org/2000/svg" xmlns:xlink="http://www.w3.org/1999/xlink">
<g id="graph0" class="graph" transform="scale(1 1) rotate(0) translate(4 81)">
<title>Disk._base.File.__str__</title>
<!-- Node1 -->
<g id="node1" class="node"><title>Node1</title>
<polygon fill="#bfbfbf" stroke="black" points="0.5,-19.5 0.5,-38.5 121.5,-38.5 121.5,-19.5 0.5,-19.5"/>
<text text-anchor="middle" x="61" y="-26.5" font-family="Helvetica,sans-Serif" font-size="10.00">Disk._base.File.__str__</text>
</g>
<!-- Node2 -->
<g id="node2" class="node"><title>Node2</title>
<g id="a_node2"><a xlink:href="class_disk_1_1__base_1_1_file.html#aa6035675eda3f591d6a7404e07453816" target="_top" xlink:title="Disk._base.File.__repr__">
<polygon fill="none" stroke="black" points="158,-19.5 158,-38.5 286,-38.5 286,-19.5 158,-19.5"/>
<text text-anchor="middle" x="222" y="-26.5" font-family="Helvetica,sans-Serif" font-size="10.00">Disk._base.File.__repr__</text>
</a>
</g>
</g>
<!-- Node1&#45;&gt;Node2 -->
<g id="edge1" class="edge"><title>Node1&#45;&gt;Node2</title>
<path fill="none" stroke="midnightblue" d="M121.658,-29C130.145,-29 138.954,-29 147.664,-29"/>
<polygon fill="midnightblue" stroke="midnightblue" points="147.818,-32.5001 157.818,-29 147.818,-25.5001 147.818,-32.5001"/>
</g>
<!-- Node3 -->
<g id="node3" class="node"><title>Node3</title>
<g id="a_node3"><a xlink:href="class_disk_1_1__base_1_1_file.html#a7401ddb8e1f5573402123b8f65b7bc08" target="_top" xlink:title="Disk._base.File.getPath">
<polygon fill="none" stroke="black" points="327,-57.5 327,-76.5 449,-76.5 449,-57.5 327,-57.5"/>
<text text-anchor="middle" x="388" y="-64.5" font-family="Helvetica,sans-Serif" font-size="10.00">Disk._base.File.getPath</text>
</a>
</g>
</g>
<!-- Node2&#45;&gt;Node3 -->
<g id="edge2" class="edge"><title>Node2&#45;&gt;Node3</title>
<path fill="none" stroke="midnightblue" d="M264.384,-38.589C286.123,-43.6261 312.957,-49.8438 335.975,-55.1771"/>
<polygon fill="midnightblue" stroke="midnightblue" points="335.381,-58.6323 345.913,-57.4799 336.962,-51.8129 335.381,-58.6323"/>
</g>
<!-- Node4 -->
<g id="node4" class="node"><title>Node4</title>
<g id="a_node4"><a xlink:href="class_disk_1_1__base_1_1_file.html#af4a79b03f7f30ffdf6be32aaa025f9aa" target="_top" xlink:title="Disk._base.File.isWritable">
<polygon fill="none" stroke="black" points="322,-19.5 322,-38.5 454,-38.5 454,-19.5 322,-19.5"/>
<text text-anchor="middle" x="388" y="-26.5" font-family="Helvetica,sans-Serif" font-size="10.00">Disk._base.File.isWritable</text>
</a>
</g>
</g>
<!-- Node2&#45;&gt;Node4 -->
<g id="edge3" class="edge"><title>Node2&#45;&gt;Node4</title>
<path fill="none" stroke="midnightblue" d="M286.407,-29C294.673,-29 303.206,-29 311.644,-29"/>
<polygon fill="midnightblue" stroke="midnightblue" points="311.865,-32.5001 321.865,-29 311.865,-25.5001 311.865,-32.5001"/>
</g>
<!-- Node5 -->
<g id="node5" class="node"><title>Node5</title>
<g id="a_node5"><a xlink:href="class_disk_1_1__base_1_1_file.html#a5801d2db863fa1967d7847917aa757f3" target="_top" xlink:title="Disk._base.File.isClosed">
<polygon fill="none" stroke="black" points="490,-0.5 490,-19.5 616,-19.5 616,-0.5 490,-0.5"/>
<text text-anchor="middle" x="553" y="-7.5" font-family="Helvetica,sans-Serif" font-size="10.00">Disk._base.File.isClosed</text>
</a>
</g>
</g>
<!-- Node2&#45;&gt;Node5 -->
<g id="edge5" class="edge"><title>Node2&#45;&gt;Node5</title>
<path fill="none" stroke="midnightblue" d="M263.211,-19.4894C281.098,-15.7242 302.487,-11.8556 322,-10 374.663,-4.99221 434.415,-5.1675 479.816,-6.50249"/>
<polygon fill="midnightblue" stroke="midnightblue" points="479.755,-10.0022 489.861,-6.82355 479.978,-3.0058 479.755,-10.0022"/>
</g>
<!-- Node4&#45;&gt;Node5 -->
<g id="edge4" class="edge"><title>Node4&#45;&gt;Node5</title>
<path fill="none" stroke="midnightblue" d="M454.359,-21.3815C462.671,-20.4126 471.216,-19.4165 479.63,-18.4358"/>
<polygon fill="midnightblue" stroke="midnightblue" points="480.275,-21.8844 489.803,-17.25 479.465,-14.9314 480.275,-21.8844"/>
</g>
</g>
</svg>
