<?xml version="1.0" encoding="UTF-8" standalone="no"?>
<!DOCTYPE svg PUBLIC "-//W3C//DTD SVG 1.1//EN"
 "http://www.w3.org/Graphics/SVG/1.1/DTD/svg11.dtd">
<!-- Generated by graphviz version 2.30.1 (20130219.2202)
 -->
<!-- Title: Disk._base.File.destruct Pages: 1 -->
<svg width="774pt" height="86pt"
 viewBox="0.00 0.00 774.00 86.13" xmlns="http://www.w3.org/2000/svg" xmlns:xlink="http://www.w3.org/1999/xlink">
<g id="graph0" class="graph" transform="scale(1 1) rotate(0) translate(4 82.1349)">
<title>Disk._base.File.destruct</title>
<!-- Node1 -->
<g id="node1" class="node"><title>Node1</title>
<polygon fill="#bfbfbf" stroke="black" points="0,-38.5 0,-57.5 116,-57.5 116,-38.5 0,-38.5"/>
<text text-anchor="middle" x="58" y="-45.5" font-family="Helvetica,sans-Serif" font-size="10.00">Disk._base.File.destruct</text>
</g>
<!-- Node2 -->
<g id="node2" class="node"><title>Node2</title>
<g id="a_node2"><a xlink:href="class_disk_1_1__base_1_1_file.html#a5801d2db863fa1967d7847917aa757f3" target="_top" xlink:title="Disk._base.File.isClosed">
<polygon fill="none" stroke="black" points="646,-57.5 646,-76.5 766,-76.5 766,-57.5 646,-57.5"/>
<text text-anchor="middle" x="706" y="-64.5" font-family="Helvetica,sans-Serif" font-size="10.00">Disk._base.File.isClosed</text>
</a>
</g>
</g>
<!-- Node1&#45;&gt;Node2 -->
<g id="edge1" class="edge"><title>Node1&#45;&gt;Node2</title>
<path fill="none" stroke="midnightblue" d="M96.7426,-57.5096C113.541,-61.2746 133.637,-65.1434 152,-67 325.328,-84.5246 530.78,-77.2057 635.732,-71.4576"/>
<polygon fill="midnightblue" stroke="midnightblue" points="636.089,-74.9432 645.877,-70.8895 635.697,-67.9541 636.089,-74.9432"/>
</g>
<!-- Node3 -->
<g id="node3" class="node"><title>Node3</title>
<g id="a_node3"><a xlink:href="class_disk_1_1_local_1_1___file_1_1_base_file.html#a4044af9876fda87605d0acd6914d2aa6" target="_top" xlink:title="Disk.Local._File.BaseFile.close">
<polygon fill="none" stroke="black" points="152,-38.5 152,-57.5 296,-57.5 296,-38.5 152,-38.5"/>
<text text-anchor="middle" x="224" y="-45.5" font-family="Helvetica,sans-Serif" font-size="10.00">Disk.Local._File.BaseFile.close</text>
</a>
</g>
</g>
<!-- Node1&#45;&gt;Node3 -->
<g id="edge2" class="edge"><title>Node1&#45;&gt;Node3</title>
<path fill="none" stroke="midnightblue" d="M116.359,-48C124.592,-48 133.189,-48 141.776,-48"/>
<polygon fill="midnightblue" stroke="midnightblue" points="141.827,-51.5001 151.827,-48 141.827,-44.5001 141.827,-51.5001"/>
</g>
<!-- Node4 -->
<g id="node4" class="node"><title>Node4</title>
<g id="a_node4"><a xlink:href="class_disk_1_1_s_s_h_1_1___file_1_1_file.html#a78a57bc0b49bb00fe9672e04fba5661c" target="_top" xlink:title="Disk.SSH._File.File.close">
<polygon fill="none" stroke="black" points="164.5,-0.5 164.5,-19.5 283.5,-19.5 283.5,-0.5 164.5,-0.5"/>
<text text-anchor="middle" x="224" y="-7.5" font-family="Helvetica,sans-Serif" font-size="10.00">Disk.SSH._File.File.close</text>
</a>
</g>
</g>
<!-- Node1&#45;&gt;Node4 -->
<g id="edge3" class="edge"><title>Node1&#45;&gt;Node4</title>
<path fill="none" stroke="midnightblue" d="M100.384,-38.411C122.123,-33.3739 148.957,-27.1562 171.975,-21.8229"/>
<polygon fill="midnightblue" stroke="midnightblue" points="172.962,-25.1871 181.913,-19.5201 171.381,-18.3677 172.962,-25.1871"/>
</g>
<!-- Node5 -->
<g id="node5" class="node"><title>Node5</title>
<g id="a_node5"><a xlink:href="class_disk_1_1_s_s_h_1_1___file_1_1_file.html#a2b8fa9d0d909bb45c91d589d2e0cf6d3" target="_top" xlink:title="Uploads the file if changed.">
<polygon fill="none" stroke="black" points="332,-0.5 332,-19.5 448,-19.5 448,-0.5 332,-0.5"/>
<text text-anchor="middle" x="390" y="-7.5" font-family="Helvetica,sans-Serif" font-size="10.00">Disk.SSH._File.File.flush</text>
</a>
</g>
</g>
<!-- Node4&#45;&gt;Node5 -->
<g id="edge4" class="edge"><title>Node4&#45;&gt;Node5</title>
<path fill="none" stroke="midnightblue" d="M283.745,-10C295.951,-10 308.908,-10 321.403,-10"/>
<polygon fill="midnightblue" stroke="midnightblue" points="321.765,-13.5001 331.765,-10 321.765,-6.5001 321.765,-13.5001"/>
</g>
<!-- Node6 -->
<g id="node6" class="node"><title>Node6</title>
<g id="a_node6"><a xlink:href="class_disk_1_1__base_1_1_file.html#af4a79b03f7f30ffdf6be32aaa025f9aa" target="_top" xlink:title="Disk._base.File.isWritable">
<polygon fill="none" stroke="black" points="484.5,-38.5 484.5,-57.5 609.5,-57.5 609.5,-38.5 484.5,-38.5"/>
<text text-anchor="middle" x="547" y="-45.5" font-family="Helvetica,sans-Serif" font-size="10.00">Disk._base.File.isWritable</text>
</a>
</g>
</g>
<!-- Node5&#45;&gt;Node6 -->
<g id="edge5" class="edge"><title>Node5&#45;&gt;Node6</title>
<path fill="none" stroke="midnightblue" d="M430.113,-19.589C450.475,-24.5809 475.566,-30.7324 497.189,-36.0334"/>
<polygon fill="midnightblue" stroke="midnightblue" points="496.622,-39.4981 507.168,-38.4799 498.289,-32.6994 496.622,-39.4981"/>
</g>
<!-- Node7 -->
<g id="node7" class="node"><title>Node7</title>
<g id="a_node7"><a xlink:href="class_disk_1_1__base_1_1_file.html#a7401ddb8e1f5573402123b8f65b7bc08" target="_top" xlink:title="Disk._base.File.getPath">
<polygon fill="none" stroke="black" points="489,-0.5 489,-19.5 605,-19.5 605,-0.5 489,-0.5"/>
<text text-anchor="middle" x="547" y="-7.5" font-family="Helvetica,sans-Serif" font-size="10.00">Disk._base.File.getPath</text>
</a>
</g>
</g>
<!-- Node5&#45;&gt;Node7 -->
<g id="edge7" class="edge"><title>Node5&#45;&gt;Node7</title>
<path fill="none" stroke="midnightblue" d="M448.276,-10C458.236,-10 468.676,-10 478.872,-10"/>
<polygon fill="midnightblue" stroke="midnightblue" points="478.96,-13.5001 488.96,-10 478.959,-6.5001 478.96,-13.5001"/>
</g>
<!-- Node6&#45;&gt;Node2 -->
<g id="edge6" class="edge"><title>Node6&#45;&gt;Node2</title>
<path fill="none" stroke="midnightblue" d="M609.6,-55.4548C618.183,-56.4934 627.048,-57.5663 635.76,-58.6206"/>
<polygon fill="midnightblue" stroke="midnightblue" points="635.541,-62.1196 645.889,-59.8464 636.382,-55.1703 635.541,-62.1196"/>
</g>
</g>
</svg>
