<?xml version="1.0" encoding="UTF-8" standalone="no"?>
<!DOCTYPE svg PUBLIC "-//W3C//DTD SVG 1.1//EN"
 "http://www.w3.org/Graphics/SVG/1.1/DTD/svg11.dtd">
<!-- Generated by graphviz version 2.30.1 (20130221.2233)
 -->
<!-- Title: Disk._base.PathAbstract Pages: 1 -->
<svg width="310pt" height="548pt"
 viewBox="0.00 0.00 310.00 548.00" xmlns="http://www.w3.org/2000/svg" xmlns:xlink="http://www.w3.org/1999/xlink">
<g id="graph0" class="graph" transform="scale(1 1) rotate(0) translate(4 544)">
<title>Disk._base.PathAbstract</title>
<!-- Node1 -->
<g id="node1" class="node"><title>Node1</title>
<polygon fill="#bfbfbf" stroke="black" points="77,-289 77,-445 203,-445 203,-289 77,-289"/>
<text text-anchor="middle" x="140" y="-433" font-family="Helvetica,sans-Serif" font-size="10.00">Disk._base.PathAbstract</text>
<polyline fill="none" stroke="black" points="77,-426 203,-426 "/>
<text text-anchor="start" x="85" y="-414" font-family="Helvetica,sans-Serif" font-size="10.00">+ path</text>
<polyline fill="none" stroke="black" points="77,-407 203,-407 "/>
<text text-anchor="start" x="85" y="-395" font-family="Helvetica,sans-Serif" font-size="10.00">+ __init__()</text>
<text text-anchor="start" x="85" y="-384" font-family="Helvetica,sans-Serif" font-size="10.00">+ asStr()</text>
<text text-anchor="start" x="85" y="-373" font-family="Helvetica,sans-Serif" font-size="10.00">+ __str__()</text>
<text text-anchor="start" x="85" y="-362" font-family="Helvetica,sans-Serif" font-size="10.00">+ __repr__()</text>
<text text-anchor="start" x="85" y="-351" font-family="Helvetica,sans-Serif" font-size="10.00">+ __add__()</text>
<text text-anchor="start" x="85" y="-340" font-family="Helvetica,sans-Serif" font-size="10.00">+ __radd__()</text>
<text text-anchor="start" x="85" y="-329" font-family="Helvetica,sans-Serif" font-size="10.00">+ __eq__()</text>
<text text-anchor="start" x="85" y="-318" font-family="Helvetica,sans-Serif" font-size="10.00">+ __hash__()</text>
<text text-anchor="start" x="85" y="-307" font-family="Helvetica,sans-Serif" font-size="10.00">+ __getattr__()</text>
<text text-anchor="start" x="85" y="-296" font-family="Helvetica,sans-Serif" font-size="10.00">+ splitAll()</text>
</g>
<!-- Node3 -->
<g id="node3" class="node"><title>Node3</title>
<g id="a_node3"><a xlink:href="class_disk_1_1__base_1_1_file_path.html" target="_top" xlink:title="{Disk._base.FilePath\n||+ __init__()\l+ asFile()\l+ create()\l+ copyDates()\l+ copy()\l+ move()\l+ rename()\l+ isBinary()\l}">
<polygon fill="none" stroke="black" points="22.5,-117 22.5,-251 127.5,-251 127.5,-117 22.5,-117"/>
<text text-anchor="middle" x="75" y="-239" font-family="Helvetica,sans-Serif" font-size="10.00">Disk._base.FilePath</text>
<polyline fill="none" stroke="black" points="22.5,-232 127.5,-232 "/>
<text text-anchor="middle" x="75" y="-220" font-family="Helvetica,sans-Serif" font-size="10.00"> </text>
<polyline fill="none" stroke="black" points="22.5,-213 127.5,-213 "/>
<text text-anchor="start" x="30.5" y="-201" font-family="Helvetica,sans-Serif" font-size="10.00">+ __init__()</text>
<text text-anchor="start" x="30.5" y="-190" font-family="Helvetica,sans-Serif" font-size="10.00">+ asFile()</text>
<text text-anchor="start" x="30.5" y="-179" font-family="Helvetica,sans-Serif" font-size="10.00">+ create()</text>
<text text-anchor="start" x="30.5" y="-168" font-family="Helvetica,sans-Serif" font-size="10.00">+ copyDates()</text>
<text text-anchor="start" x="30.5" y="-157" font-family="Helvetica,sans-Serif" font-size="10.00">+ copy()</text>
<text text-anchor="start" x="30.5" y="-146" font-family="Helvetica,sans-Serif" font-size="10.00">+ move()</text>
<text text-anchor="start" x="30.5" y="-135" font-family="Helvetica,sans-Serif" font-size="10.00">+ rename()</text>
<text text-anchor="start" x="30.5" y="-124" font-family="Helvetica,sans-Serif" font-size="10.00">+ isBinary()</text>
</a>
</g>
</g>
<!-- Node1&#45;&gt;Node3 -->
<g id="edge2" class="edge"><title>Node1&#45;&gt;Node3</title>
<path fill="none" stroke="midnightblue" d="M108.927,-279.473C105.501,-269.933 102.054,-260.334 98.7379,-251.101"/>
<polygon fill="none" stroke="midnightblue" points="105.666,-280.749 112.34,-288.977 112.254,-278.383 105.666,-280.749"/>
</g>
<!-- Node5 -->
<g id="node5" class="node"><title>Node5</title>
<g id="a_node5"><a xlink:href="class_disk_1_1__base_1_1_folder_path.html" target="_top" xlink:title="Abstract concept of a folder path. ">
<polygon fill="none" stroke="black" points="161,-122.5 161,-245.5 279,-245.5 279,-122.5 161,-122.5"/>
<text text-anchor="middle" x="220" y="-233.5" font-family="Helvetica,sans-Serif" font-size="10.00">Disk._base.FolderPath</text>
<polyline fill="none" stroke="black" points="161,-226.5 279,-226.5 "/>
<text text-anchor="middle" x="220" y="-214.5" font-family="Helvetica,sans-Serif" font-size="10.00"> </text>
<polyline fill="none" stroke="black" points="161,-207.5 279,-207.5 "/>
<text text-anchor="start" x="169" y="-195.5" font-family="Helvetica,sans-Serif" font-size="10.00">+ __init__()</text>
<text text-anchor="start" x="169" y="-184.5" font-family="Helvetica,sans-Serif" font-size="10.00">+ copy()</text>
<text text-anchor="start" x="169" y="-173.5" font-family="Helvetica,sans-Serif" font-size="10.00">+ create()</text>
<text text-anchor="start" x="169" y="-162.5" font-family="Helvetica,sans-Serif" font-size="10.00">+ rmtree()</text>
<text text-anchor="start" x="169" y="-151.5" font-family="Helvetica,sans-Serif" font-size="10.00">+ remove()</text>
<text text-anchor="start" x="169" y="-140.5" font-family="Helvetica,sans-Serif" font-size="10.00">+ mkdirs()</text>
<text text-anchor="start" x="169" y="-129.5" font-family="Helvetica,sans-Serif" font-size="10.00">+ walk()</text>
</a>
</g>
</g>
<!-- Node1&#45;&gt;Node5 -->
<g id="edge4" class="edge"><title>Node1&#45;&gt;Node5</title>
<path fill="none" stroke="midnightblue" d="M178.128,-279.734C183.241,-268.167 188.395,-256.506 193.254,-245.512"/>
<polygon fill="none" stroke="midnightblue" points="174.885,-278.416 174.043,-288.977 181.287,-281.246 174.885,-278.416"/>
</g>
<!-- Node2 -->
<g id="node2" class="node"><title>Node2</title>
<g id="a_node2"><a xlink:href="classobject.html" target="_top" xlink:title="{object\n||}">
<polygon fill="none" stroke="black" points="118.5,-482.5 118.5,-539.5 161.5,-539.5 161.5,-482.5 118.5,-482.5"/>
<text text-anchor="middle" x="140" y="-527.5" font-family="Helvetica,sans-Serif" font-size="10.00">object</text>
<polyline fill="none" stroke="black" points="118.5,-520.5 161.5,-520.5 "/>
<text text-anchor="middle" x="140" y="-508.5" font-family="Helvetica,sans-Serif" font-size="10.00"> </text>
<polyline fill="none" stroke="black" points="118.5,-501.5 161.5,-501.5 "/>
<text text-anchor="middle" x="140" y="-489.5" font-family="Helvetica,sans-Serif" font-size="10.00"> </text>
</a>
</g>
</g>
<!-- Node2&#45;&gt;Node1 -->
<g id="edge1" class="edge"><title>Node2&#45;&gt;Node1</title>
<path fill="none" stroke="midnightblue" d="M140,-472.128C140,-463.734 140,-454.545 140,-445.212"/>
<polygon fill="none" stroke="midnightblue" points="136.5,-472.284 140,-482.284 143.5,-472.284 136.5,-472.284"/>
</g>
<!-- Node4 -->
<g id="node4" class="node"><title>Node4</title>
<g id="a_node4"><a xlink:href="class_disk_1_1_local_1_1___paths_1_1_file_path.html" target="_top" xlink:title="A locally accessible file path. ">
<polygon fill="none" stroke="black" points="0,-0.5 0,-79.5 136,-79.5 136,-0.5 0,-0.5"/>
<text text-anchor="middle" x="68" y="-67.5" font-family="Helvetica,sans-Serif" font-size="10.00">Disk.Local._Paths.FilePath</text>
<polyline fill="none" stroke="black" points="0,-60.5 136,-60.5 "/>
<text text-anchor="middle" x="68" y="-48.5" font-family="Helvetica,sans-Serif" font-size="10.00"> </text>
<polyline fill="none" stroke="black" points="0,-41.5 136,-41.5 "/>
<text text-anchor="start" x="8" y="-29.5" font-family="Helvetica,sans-Serif" font-size="10.00">+ __init__()</text>
<text text-anchor="start" x="8" y="-18.5" font-family="Helvetica,sans-Serif" font-size="10.00">+ asFile()</text>
<text text-anchor="start" x="8" y="-7.5" font-family="Helvetica,sans-Serif" font-size="10.00">+ move()</text>
</a>
</g>
</g>
<!-- Node3&#45;&gt;Node4 -->
<g id="edge3" class="edge"><title>Node3&#45;&gt;Node4</title>
<path fill="none" stroke="midnightblue" d="M71.2445,-106.816C70.7831,-97.4566 70.3276,-88.2179 69.9105,-79.7552"/>
<polygon fill="none" stroke="midnightblue" points="67.7577,-107.173 71.7459,-116.989 74.7492,-106.828 67.7577,-107.173"/>
</g>
<!-- Node6 -->
<g id="node6" class="node"><title>Node6</title>
<g id="a_node6"><a xlink:href="class_disk_1_1_local_1_1___paths_1_1_folder_path.html" target="_top" xlink:title="A locally accessible folder path. ">
<polygon fill="none" stroke="black" points="154,-6 154,-74 302,-74 302,-6 154,-6"/>
<text text-anchor="middle" x="228" y="-62" font-family="Helvetica,sans-Serif" font-size="10.00">Disk.Local._Paths.FolderPath</text>
<polyline fill="none" stroke="black" points="154,-55 302,-55 "/>
<text text-anchor="middle" x="228" y="-43" font-family="Helvetica,sans-Serif" font-size="10.00"> </text>
<polyline fill="none" stroke="black" points="154,-36 302,-36 "/>
<text text-anchor="start" x="162" y="-24" font-family="Helvetica,sans-Serif" font-size="10.00">+ __init__()</text>
<text text-anchor="start" x="162" y="-13" font-family="Helvetica,sans-Serif" font-size="10.00">+ rmtree()</text>
</a>
</g>
</g>
<!-- Node5&#45;&gt;Node6 -->
<g id="edge5" class="edge"><title>Node5&#45;&gt;Node6</title>
<path fill="none" stroke="midnightblue" d="M223.989,-112.197C224.741,-98.8548 225.493,-85.5031 226.139,-74.0268"/>
<polygon fill="none" stroke="midnightblue" points="220.484,-112.186 223.416,-122.367 227.473,-112.58 220.484,-112.186"/>
</g>
</g>
</svg>
