<?xml version="1.0" encoding="UTF-8" standalone="no"?>
<!DOCTYPE svg PUBLIC "-//W3C//DTD SVG 1.1//EN"
 "http://www.w3.org/Graphics/SVG/1.1/DTD/svg11.dtd">
<!-- Generated by graphviz version 2.28.0 (20121214.2254)
 -->
<!-- Title: object Pages: 1 -->
<svg width="719pt" height="548pt"
 viewBox="0.00 0.00 719.00 548.00" xmlns="http://www.w3.org/2000/svg" xmlns:xlink="http://www.w3.org/1999/xlink">
<g id="graph1" class="graph" transform="scale(1 1) rotate(0) translate(4 544)">
<title>object</title>
<!-- Node1 -->
<g id="node1" class="node"><title>Node1</title>
<polygon fill="#bfbfbf" stroke="black" points="244,-482.5 244,-539.5 286,-539.5 286,-482.5 244,-482.5"/>
<text text-anchor="middle" x="265" y="-527.5" font-family="Helvetica,sans-Serif" font-size="10.00">object</text>
<polyline fill="none" stroke="black" points="244,-520.5 286,-520.5 "/>
<text text-anchor="middle" x="265" y="-508.5" font-family="Helvetica,sans-Serif" font-size="10.00"> </text>
<polyline fill="none" stroke="black" points="244,-501.5 286,-501.5 "/>
<text text-anchor="middle" x="265" y="-489.5" font-family="Helvetica,sans-Serif" font-size="10.00"> </text>
</g>
<!-- Node2 -->
<g id="node3" class="node"><title>Node2</title>
<a xlink:href="class_disk_1_1__base_1_1_file.html" target="_top" xlink:title="{Disk._base.File\n|+ mode\l+ isDestructed\l+ isDesructed\l|+ __init__()\l+ __enter__()\l+ __exit__()\l+ getPath()\l+ isWritable()\l+ isClosed()\l+ destruct()\l+ reopen()\l}">
<polygon fill="none" stroke="black" points="160.5,-289 160.5,-445 241.5,-445 241.5,-289 160.5,-289"/>
<text text-anchor="middle" x="201" y="-433" font-family="Helvetica,sans-Serif" font-size="10.00">Disk._base.File</text>
<polyline fill="none" stroke="black" points="160.5,-426 241.5,-426 "/>
<text text-anchor="start" x="168.5" y="-414" font-family="Helvetica,sans-Serif" font-size="10.00">+ mode</text>
<text text-anchor="start" x="168.5" y="-403" font-family="Helvetica,sans-Serif" font-size="10.00">+ isDestructed</text>
<text text-anchor="start" x="168.5" y="-392" font-family="Helvetica,sans-Serif" font-size="10.00">+ isDesructed</text>
<polyline fill="none" stroke="black" points="160.5,-385 241.5,-385 "/>
<text text-anchor="start" x="168.5" y="-373" font-family="Helvetica,sans-Serif" font-size="10.00">+ __init__()</text>
<text text-anchor="start" x="168.5" y="-362" font-family="Helvetica,sans-Serif" font-size="10.00">+ __enter__()</text>
<text text-anchor="start" x="168.5" y="-351" font-family="Helvetica,sans-Serif" font-size="10.00">+ __exit__()</text>
<text text-anchor="start" x="168.5" y="-340" font-family="Helvetica,sans-Serif" font-size="10.00">+ getPath()</text>
<text text-anchor="start" x="168.5" y="-329" font-family="Helvetica,sans-Serif" font-size="10.00">+ isWritable()</text>
<text text-anchor="start" x="168.5" y="-318" font-family="Helvetica,sans-Serif" font-size="10.00">+ isClosed()</text>
<text text-anchor="start" x="168.5" y="-307" font-family="Helvetica,sans-Serif" font-size="10.00">+ destruct()</text>
<text text-anchor="start" x="168.5" y="-296" font-family="Helvetica,sans-Serif" font-size="10.00">+ reopen()</text>
</a>
</g>
<!-- Node1&#45;&gt;Node2 -->
<g id="edge2" class="edge"><title>Node1&#45;&gt;Node2</title>
<path fill="none" stroke="midnightblue" d="M248.308,-472.964C244.424,-464.347 240.147,-454.857 235.8,-445.212"/>
<polygon fill="none" stroke="midnightblue" points="245.208,-474.605 252.508,-482.284 251.59,-471.729 245.208,-474.605"/>
</g>
<!-- Node6 -->
<g id="node11" class="node"><title>Node6</title>
<a xlink:href="class_disk_1_1__base_1_1_path_abstract.html" target="_top" xlink:title="{Disk._base.PathAbstract\n|+ path\l|+ __init__()\l+ asStr()\l+ __str__()\l+ __repr__()\l+ __add__()\l+ __radd__()\l+ __eq__()\l+ __hash__()\l+ __getattr__()\l}">
<polygon fill="none" stroke="black" points="267.5,-294.5 267.5,-439.5 390.5,-439.5 390.5,-294.5 267.5,-294.5"/>
<text text-anchor="middle" x="329" y="-427.5" font-family="Helvetica,sans-Serif" font-size="10.00">Disk._base.PathAbstract</text>
<polyline fill="none" stroke="black" points="267.5,-420.5 390.5,-420.5 "/>
<text text-anchor="start" x="275.5" y="-408.5" font-family="Helvetica,sans-Serif" font-size="10.00">+ path</text>
<polyline fill="none" stroke="black" points="267.5,-401.5 390.5,-401.5 "/>
<text text-anchor="start" x="275.5" y="-389.5" font-family="Helvetica,sans-Serif" font-size="10.00">+ __init__()</text>
<text text-anchor="start" x="275.5" y="-378.5" font-family="Helvetica,sans-Serif" font-size="10.00">+ asStr()</text>
<text text-anchor="start" x="275.5" y="-367.5" font-family="Helvetica,sans-Serif" font-size="10.00">+ __str__()</text>
<text text-anchor="start" x="275.5" y="-356.5" font-family="Helvetica,sans-Serif" font-size="10.00">+ __repr__()</text>
<text text-anchor="start" x="275.5" y="-345.5" font-family="Helvetica,sans-Serif" font-size="10.00">+ __add__()</text>
<text text-anchor="start" x="275.5" y="-334.5" font-family="Helvetica,sans-Serif" font-size="10.00">+ __radd__()</text>
<text text-anchor="start" x="275.5" y="-323.5" font-family="Helvetica,sans-Serif" font-size="10.00">+ __eq__()</text>
<text text-anchor="start" x="275.5" y="-312.5" font-family="Helvetica,sans-Serif" font-size="10.00">+ __hash__()</text>
<text text-anchor="start" x="275.5" y="-301.5" font-family="Helvetica,sans-Serif" font-size="10.00">+ __getattr__()</text>
</a>
</g>
<!-- Node1&#45;&gt;Node6 -->
<g id="edge10" class="edge"><title>Node1&#45;&gt;Node6</title>
<path fill="none" stroke="midnightblue" d="M281.742,-472.854C286.371,-462.583 291.556,-451.078 296.751,-439.553"/>
<polygon fill="none" stroke="midnightblue" points="278.41,-471.729 277.492,-482.284 284.792,-474.605 278.41,-471.729"/>
</g>
<!-- Node3 -->
<g id="node5" class="node"><title>Node3</title>
<a xlink:href="class_disk_1_1_local_1_1___file_1_1_base_file.html" target="_top" xlink:title="Abstract concept of a file object.">
<polygon fill="none" stroke="black" points="0,-139.5 0,-240.5 120,-240.5 120,-139.5 0,-139.5"/>
<text text-anchor="middle" x="60" y="-228.5" font-family="Helvetica,sans-Serif" font-size="10.00">Disk.Local._File.BaseFile</text>
<polyline fill="none" stroke="black" points="0,-221.5 120,-221.5 "/>
<text text-anchor="middle" x="60" y="-209.5" font-family="Helvetica,sans-Serif" font-size="10.00"> </text>
<polyline fill="none" stroke="black" points="0,-202.5 120,-202.5 "/>
<text text-anchor="start" x="8" y="-190.5" font-family="Helvetica,sans-Serif" font-size="10.00">+ __init__()</text>
<text text-anchor="start" x="8" y="-179.5" font-family="Helvetica,sans-Serif" font-size="10.00">+ __enter__()</text>
<text text-anchor="start" x="8" y="-168.5" font-family="Helvetica,sans-Serif" font-size="10.00">+ __exit__()</text>
<text text-anchor="start" x="8" y="-157.5" font-family="Helvetica,sans-Serif" font-size="10.00">+ open()</text>
<text text-anchor="start" x="8" y="-146.5" font-family="Helvetica,sans-Serif" font-size="10.00">+ __getattr__()</text>
</a>
</g>
<!-- Node2&#45;&gt;Node3 -->
<g id="edge4" class="edge"><title>Node2&#45;&gt;Node3</title>
<path fill="none" stroke="midnightblue" d="M153.882,-307.521C136.397,-285.819 116.748,-261.432 99.9616,-240.598"/>
<polygon fill="none" stroke="midnightblue" points="151.217,-309.792 160.217,-315.383 156.668,-305.4 151.217,-309.792"/>
</g>
<!-- Node5 -->
<g id="node9" class="node"><title>Node5</title>
<a xlink:href="class_disk_1_1_s_s_h_1_1___file_1_1_file.html" target="_top" xlink:title="Represents a file on a remote machine.">
<polygon fill="none" stroke="black" points="153.5,-139.5 153.5,-240.5 248.5,-240.5 248.5,-139.5 153.5,-139.5"/>
<text text-anchor="middle" x="201" y="-228.5" font-family="Helvetica,sans-Serif" font-size="10.00">Disk.SSH._File.File</text>
<polyline fill="none" stroke="black" points="153.5,-221.5 248.5,-221.5 "/>
<text text-anchor="start" x="161.5" y="-209.5" font-family="Helvetica,sans-Serif" font-size="10.00">+ connection</text>
<text text-anchor="start" x="161.5" y="-198.5" font-family="Helvetica,sans-Serif" font-size="10.00">+ remotePath</text>
<polyline fill="none" stroke="black" points="153.5,-191.5 248.5,-191.5 "/>
<text text-anchor="start" x="161.5" y="-179.5" font-family="Helvetica,sans-Serif" font-size="10.00">+ __init__()</text>
<text text-anchor="start" x="161.5" y="-168.5" font-family="Helvetica,sans-Serif" font-size="10.00">+ __getattr__()</text>
<text text-anchor="start" x="161.5" y="-157.5" font-family="Helvetica,sans-Serif" font-size="10.00">+ flush()</text>
<text text-anchor="start" x="161.5" y="-146.5" font-family="Helvetica,sans-Serif" font-size="10.00">+ close()</text>
</a>
</g>
<!-- Node2&#45;&gt;Node5 -->
<g id="edge8" class="edge"><title>Node2&#45;&gt;Node5</title>
<path fill="none" stroke="midnightblue" d="M201,-278.943C201,-265.779 201,-252.601 201,-240.602"/>
<polygon fill="none" stroke="midnightblue" points="197.5,-278.988 201,-288.988 204.5,-278.988 197.5,-278.988"/>
</g>
<!-- Node4 -->
<g id="node7" class="node"><title>Node4</title>
<a xlink:href="class_disk_1_1_local_1_1___file_1_1_file.html" target="_top" xlink:title="Implementation of BaseFile using a FilePath instance to store the path.">
<polygon fill="none" stroke="black" points="7.5,-17.5 7.5,-74.5 104.5,-74.5 104.5,-17.5 7.5,-17.5"/>
<text text-anchor="middle" x="56" y="-62.5" font-family="Helvetica,sans-Serif" font-size="10.00">Disk.Local._File.File</text>
<polyline fill="none" stroke="black" points="7.5,-55.5 104.5,-55.5 "/>
<text text-anchor="start" x="15.5" y="-43.5" font-family="Helvetica,sans-Serif" font-size="10.00">+ mode</text>
<polyline fill="none" stroke="black" points="7.5,-36.5 104.5,-36.5 "/>
<text text-anchor="start" x="15.5" y="-24.5" font-family="Helvetica,sans-Serif" font-size="10.00">+ __init__()</text>
</a>
</g>
<!-- Node3&#45;&gt;Node4 -->
<g id="edge6" class="edge"><title>Node3&#45;&gt;Node4</title>
<path fill="none" stroke="midnightblue" d="M58.3161,-129.221C57.7803,-110.202 57.2136,-90.082 56.7748,-74.5053"/>
<polygon fill="none" stroke="midnightblue" points="54.8207,-129.438 58.601,-139.335 61.8179,-129.241 54.8207,-129.438"/>
</g>
<!-- Node7 -->
<g id="node13" class="node"><title>Node7</title>
<a xlink:href="class_disk_1_1__base_1_1_file_path.html" target="_top" xlink:title="{Disk._base.FilePath\n||+ __init__()\l+ asFile()\l+ create()\l+ copyDates()\l+ copy()\l+ move()\l+ rename()\l}">
<polygon fill="none" stroke="black" points="278.5,-128.5 278.5,-251.5 379.5,-251.5 379.5,-128.5 278.5,-128.5"/>
<text text-anchor="middle" x="329" y="-239.5" font-family="Helvetica,sans-Serif" font-size="10.00">Disk._base.FilePath</text>
<polyline fill="none" stroke="black" points="278.5,-232.5 379.5,-232.5 "/>
<text text-anchor="middle" x="329" y="-220.5" font-family="Helvetica,sans-Serif" font-size="10.00"> </text>
<polyline fill="none" stroke="black" points="278.5,-213.5 379.5,-213.5 "/>
<text text-anchor="start" x="286.5" y="-201.5" font-family="Helvetica,sans-Serif" font-size="10.00">+ __init__()</text>
<text text-anchor="start" x="286.5" y="-190.5" font-family="Helvetica,sans-Serif" font-size="10.00">+ asFile()</text>
<text text-anchor="start" x="286.5" y="-179.5" font-family="Helvetica,sans-Serif" font-size="10.00">+ create()</text>
<text text-anchor="start" x="286.5" y="-168.5" font-family="Helvetica,sans-Serif" font-size="10.00">+ copyDates()</text>
<text text-anchor="start" x="286.5" y="-157.5" font-family="Helvetica,sans-Serif" font-size="10.00">+ copy()</text>
<text text-anchor="start" x="286.5" y="-146.5" font-family="Helvetica,sans-Serif" font-size="10.00">+ move()</text>
<text text-anchor="start" x="286.5" y="-135.5" font-family="Helvetica,sans-Serif" font-size="10.00">+ rename()</text>
</a>
</g>
<!-- Node6&#45;&gt;Node7 -->
<g id="edge12" class="edge"><title>Node6&#45;&gt;Node7</title>
<path fill="none" stroke="midnightblue" d="M329,-284.286C329,-273.306 329,-262.204 329,-251.675"/>
<polygon fill="none" stroke="midnightblue" points="325.5,-284.316 329,-294.316 332.5,-284.316 325.5,-284.316"/>
</g>
<!-- Node10 -->
<g id="node19" class="node"><title>Node10</title>
<a xlink:href="class_disk_1_1__base_1_1_folder_path.html" target="_top" xlink:title="Abstract concept of a folder path.">
<polygon fill="none" stroke="black" points="428.5,-134 428.5,-246 541.5,-246 541.5,-134 428.5,-134"/>
<text text-anchor="middle" x="485" y="-234" font-family="Helvetica,sans-Serif" font-size="10.00">Disk._base.FolderPath</text>
<polyline fill="none" stroke="black" points="428.5,-227 541.5,-227 "/>
<text text-anchor="middle" x="485" y="-215" font-family="Helvetica,sans-Serif" font-size="10.00"> </text>
<polyline fill="none" stroke="black" points="428.5,-208 541.5,-208 "/>
<text text-anchor="start" x="436.5" y="-196" font-family="Helvetica,sans-Serif" font-size="10.00">+ __init__()</text>
<text text-anchor="start" x="436.5" y="-185" font-family="Helvetica,sans-Serif" font-size="10.00">+ create()</text>
<text text-anchor="start" x="436.5" y="-174" font-family="Helvetica,sans-Serif" font-size="10.00">+ rmtree()</text>
<text text-anchor="start" x="436.5" y="-163" font-family="Helvetica,sans-Serif" font-size="10.00">+ remove()</text>
<text text-anchor="start" x="436.5" y="-152" font-family="Helvetica,sans-Serif" font-size="10.00">+ mkdirs()</text>
<text text-anchor="start" x="436.5" y="-141" font-family="Helvetica,sans-Serif" font-size="10.00">+ walk()</text>
</a>
</g>
<!-- Node6&#45;&gt;Node10 -->
<g id="edge18" class="edge"><title>Node6&#45;&gt;Node10</title>
<path fill="none" stroke="midnightblue" d="M397.378,-289.294C410.311,-274.785 423.603,-259.875 435.801,-246.191"/>
<polygon fill="none" stroke="midnightblue" points="394.697,-287.042 390.655,-296.835 399.922,-291.7 394.697,-287.042"/>
</g>
<!-- Node8 -->
<g id="node15" class="node"><title>Node8</title>
<a xlink:href="class_disk_1_1_local_1_1___paths_1_1_file_path.html" target="_top" xlink:title="A locally accessible file path.">
<polygon fill="none" stroke="black" points="122.5,-6.5 122.5,-85.5 251.5,-85.5 251.5,-6.5 122.5,-6.5"/>
<text text-anchor="middle" x="187" y="-73.5" font-family="Helvetica,sans-Serif" font-size="10.00">Disk.Local._Paths.FilePath</text>
<polyline fill="none" stroke="black" points="122.5,-66.5 251.5,-66.5 "/>
<text text-anchor="middle" x="187" y="-54.5" font-family="Helvetica,sans-Serif" font-size="10.00"> </text>
<polyline fill="none" stroke="black" points="122.5,-47.5 251.5,-47.5 "/>
<text text-anchor="start" x="130.5" y="-35.5" font-family="Helvetica,sans-Serif" font-size="10.00">+ __init__()</text>
<text text-anchor="start" x="130.5" y="-24.5" font-family="Helvetica,sans-Serif" font-size="10.00">+ asFile()</text>
<text text-anchor="start" x="130.5" y="-13.5" font-family="Helvetica,sans-Serif" font-size="10.00">+ move()</text>
</a>
</g>
<!-- Node7&#45;&gt;Node8 -->
<g id="edge14" class="edge"><title>Node7&#45;&gt;Node8</title>
<path fill="none" stroke="midnightblue" d="M270.795,-130.795C255.684,-115.684 239.774,-99.7741 225.925,-85.9254"/>
<polygon fill="none" stroke="midnightblue" points="268.59,-133.54 278.136,-138.136 273.54,-128.59 268.59,-133.54"/>
</g>
<!-- Node9 -->
<g id="node17" class="node"><title>Node9</title>
<a xlink:href="class_disk_1_1_s_s_h_1_1___paths_1_1_file_path.html" target="_top" xlink:title="Path of a file on a remote machine.">
<polygon fill="none" stroke="black" points="269.5,-1 269.5,-91 396.5,-91 396.5,-1 269.5,-1"/>
<text text-anchor="middle" x="333" y="-79" font-family="Helvetica,sans-Serif" font-size="10.00">Disk.SSH._Paths.FilePath</text>
<polyline fill="none" stroke="black" points="269.5,-72 396.5,-72 "/>
<text text-anchor="middle" x="333" y="-60" font-family="Helvetica,sans-Serif" font-size="10.00"> </text>
<polyline fill="none" stroke="black" points="269.5,-53 396.5,-53 "/>
<text text-anchor="start" x="277.5" y="-41" font-family="Helvetica,sans-Serif" font-size="10.00">+ __init__()</text>
<text text-anchor="start" x="277.5" y="-30" font-family="Helvetica,sans-Serif" font-size="10.00">+ asFile()</text>
<text text-anchor="start" x="277.5" y="-19" font-family="Helvetica,sans-Serif" font-size="10.00">+ copy()</text>
<text text-anchor="start" x="277.5" y="-8" font-family="Helvetica,sans-Serif" font-size="10.00">+ move()</text>
</a>
</g>
<!-- Node7&#45;&gt;Node9 -->
<g id="edge16" class="edge"><title>Node7&#45;&gt;Node9</title>
<path fill="none" stroke="midnightblue" d="M330.991,-118.333C331.252,-109.055 331.514,-99.7696 331.757,-91.1103"/>
<polygon fill="none" stroke="midnightblue" points="327.491,-118.273 330.708,-128.367 334.488,-118.47 327.491,-118.273"/>
</g>
<!-- Node11 -->
<g id="node21" class="node"><title>Node11</title>
<a xlink:href="class_disk_1_1_local_1_1___paths_1_1_folder_path.html" target="_top" xlink:title="A locally accessible folder path.">
<polygon fill="none" stroke="black" points="415,-12 415,-80 555,-80 555,-12 415,-12"/>
<text text-anchor="middle" x="485" y="-68" font-family="Helvetica,sans-Serif" font-size="10.00">Disk.Local._Paths.FolderPath</text>
<polyline fill="none" stroke="black" points="415,-61 555,-61 "/>
<text text-anchor="middle" x="485" y="-49" font-family="Helvetica,sans-Serif" font-size="10.00"> </text>
<polyline fill="none" stroke="black" points="415,-42 555,-42 "/>
<text text-anchor="start" x="423" y="-30" font-family="Helvetica,sans-Serif" font-size="10.00">+ __init__()</text>
<text text-anchor="start" x="423" y="-19" font-family="Helvetica,sans-Serif" font-size="10.00">+ rmtree()</text>
</a>
</g>
<!-- Node10&#45;&gt;Node11 -->
<g id="edge20" class="edge"><title>Node10&#45;&gt;Node11</title>
<path fill="none" stroke="midnightblue" d="M485,-123.412C485,-108.441 485,-93.1476 485,-80.2142"/>
<polygon fill="none" stroke="midnightblue" points="481.5,-123.692 485,-133.692 488.5,-123.693 481.5,-123.692"/>
</g>
<!-- Node12 -->
<g id="node23" class="node"><title>Node12</title>
<a xlink:href="class_disk_1_1_s_s_h_1_1___paths_1_1_folder_path.html" target="_top" xlink:title="Path of a folder on a remote machine.">
<polygon fill="none" stroke="black" points="573,-12 573,-80 711,-80 711,-12 573,-12"/>
<text text-anchor="middle" x="642" y="-68" font-family="Helvetica,sans-Serif" font-size="10.00">Disk.SSH._Paths.FolderPath</text>
<polyline fill="none" stroke="black" points="573,-61 711,-61 "/>
<text text-anchor="middle" x="642" y="-49" font-family="Helvetica,sans-Serif" font-size="10.00"> </text>
<polyline fill="none" stroke="black" points="573,-42 711,-42 "/>
<text text-anchor="start" x="581" y="-30" font-family="Helvetica,sans-Serif" font-size="10.00">+ __init__()</text>
<text text-anchor="start" x="581" y="-19" font-family="Helvetica,sans-Serif" font-size="10.00">+ rmtree()</text>
</a>
</g>
<!-- Node10&#45;&gt;Node12 -->
<g id="edge22" class="edge"><title>Node10&#45;&gt;Node12</title>
<path fill="none" stroke="midnightblue" d="M549.238,-130.9C568.398,-113.57 588.731,-95.1792 605.463,-80.0464"/>
<polygon fill="none" stroke="midnightblue" points="546.749,-128.431 541.681,-137.735 551.445,-133.623 546.749,-128.431"/>
</g>
</g>
</svg>
