<?xml version="1.0" encoding="UTF-8" standalone="no"?>
<!DOCTYPE svg PUBLIC "-//W3C//DTD SVG 1.1//EN"
 "http://www.w3.org/Graphics/SVG/1.1/DTD/svg11.dtd">
<!-- Generated by graphviz version 2.30.1 (20130221.2233)
 -->
<!-- Title: Disk._base.FilePath.copy Pages: 1 -->
<svg width="286pt" height="87pt"
 viewBox="0.00 0.00 286.00 87.00" xmlns="http://www.w3.org/2000/svg" xmlns:xlink="http://www.w3.org/1999/xlink">
<g id="graph0" class="graph" transform="scale(1 1) rotate(0) translate(4 83)">
<title>Disk._base.FilePath.copy</title>
<!-- Node1 -->
<g id="node1" class="node"><title>Node1</title>
<polygon fill="#bfbfbf" stroke="black" points="0.5,-29.5 0.5,-48.5 129.5,-48.5 129.5,-29.5 0.5,-29.5"/>
<text text-anchor="middle" x="65" y="-36.5" font-family="Helvetica,sans-Serif" font-size="10.00">Disk._base.FilePath.copy</text>
</g>
<!-- Node2 -->
<g id="node2" class="node"><title>Node2</title>
<g id="a_node2"><a xlink:href="class_disk_1_1__base_1_1_file_path.html#abb49e5731ed1356e77236c00a49c2e3a" target="_top" xlink:title="Disk._base.FilePath.\l_preCopy_getFileObj">
<polygon fill="none" stroke="black" points="166.5,-49 166.5,-79 277.5,-79 277.5,-49 166.5,-49"/>
<text text-anchor="start" x="174.5" y="-67" font-family="Helvetica,sans-Serif" font-size="10.00">Disk._base.FilePath.</text>
<text text-anchor="middle" x="222" y="-56" font-family="Helvetica,sans-Serif" font-size="10.00">_preCopy_getFileObj</text>
</a>
</g>
</g>
<!-- Node1&#45;&gt;Node2 -->
<g id="edge1" class="edge"><title>Node1&#45;&gt;Node2</title>
<path fill="none" stroke="midnightblue" d="M125.041,-48.5227C135.349,-50.1854 146.12,-51.9227 156.565,-53.6073"/>
<polygon fill="midnightblue" stroke="midnightblue" points="156.024,-57.0652 166.454,-55.2023 157.139,-50.1545 156.024,-57.0652"/>
</g>
<!-- Node3 -->
<g id="node3" class="node"><title>Node3</title>
<g id="a_node3"><a xlink:href="class_disk_1_1__base_1_1_file_path.html#ab1a670ae97df6f4053dcbb82d4ced7d1" target="_top" xlink:title="Disk._base.FilePath.\l_storeData">
<polygon fill="none" stroke="black" points="168,-0 168,-30 276,-30 276,-0 168,-0"/>
<text text-anchor="start" x="176" y="-18" font-family="Helvetica,sans-Serif" font-size="10.00">Disk._base.FilePath.</text>
<text text-anchor="middle" x="222" y="-7" font-family="Helvetica,sans-Serif" font-size="10.00">_storeData</text>
</a>
</g>
</g>
<!-- Node1&#45;&gt;Node3 -->
<g id="edge2" class="edge"><title>Node1&#45;&gt;Node3</title>
<path fill="none" stroke="midnightblue" d="M127.705,-29.4456C137.48,-27.9321 147.605,-26.3644 157.421,-24.8445"/>
<polygon fill="midnightblue" stroke="midnightblue" points="158.165,-28.271 167.512,-23.282 157.094,-21.3535 158.165,-28.271"/>
</g>
</g>
</svg>
