<?xml version="1.0" encoding="UTF-8" standalone="no"?>
<!DOCTYPE svg PUBLIC "-//W3C//DTD SVG 1.1//EN"
 "http://www.w3.org/Graphics/SVG/1.1/DTD/svg11.dtd">
<!-- Generated by graphviz version 2.28.0 (20121214.2254)
 -->
<!-- Title: Disk._base.FilePath.rename Pages: 1 -->
<!--zoomable 126 -->
<svg id="main" version="1.1" xmlns="http://www.w3.org/2000/svg" xmlns:xlink="http://www.w3.org/1999/xlink" xml:space="preserve" onload="init(evt)">
        <defs>
                <circle id="rim" cx="0" cy="0" r="7"/>
                <circle id="rim2" cx="0" cy="0" r="3.5"/>
                <g id="zoomPlus">
                        <use xlink:href="#rim" fill="#404040">
                                <set attributeName="fill" to="#808080" begin="zoomplus.mouseover" end="zoomplus.mouseout"/>
                        </use>
                        <path d="M-4,0h8M0,-4v8" fill="none" stroke="white" stroke-width="1.5" pointer-events="none"/>
                </g>
                <g id="zoomMin">
                        <use xlink:href="#rim" fill="#404040">
                                <set attributeName="fill" to="#808080" begin="zoomminus.mouseover" end="zoomminus.mouseout"/>
                        </use>
                        <path d="M-4,0h8" fill="none" stroke="white" stroke-width="1.5" pointer-events="none"/>
                </g>
                <g id="dirArrow">
                        <path fill="none" stroke="white" stroke-width="1.5" d="M0,-3.0v7 M-2.5,-0.5L0,-3.0L2.5,-0.5"/>
                </g>
               <g id="resetDef">
                       <use xlink:href="#rim2" fill="#404040">
                               <set attributeName="fill" to="#808080" begin="reset.mouseover" end="reset.mouseout"/>
                       </use>
               </g>
        </defs>

<script type="text/javascript">
var viewWidth = 666;
var viewHeight = 126;
var sectionId = 'dynsection-6';
</script>
<script xlink:href="svgpan.js"/>
<svg id="graph" class="graph">
<g id="viewport">
<title>Disk._base.FilePath.rename</title>
<!-- Node1 -->
<g id="node1" class="node"><title>Node1</title>
<polygon fill="#bfbfbf" stroke="black" points="0.5,-42.5 0.5,-61.5 135.5,-61.5 135.5,-42.5 0.5,-42.5"/>
<text text-anchor="middle" x="68" y="-49.5" font-family="Helvetica,sans-Serif" font-size="10.00">Disk._base.FilePath.rename</text>
</g>
<!-- Node2 -->
<g id="node3" class="node"><title>Node2</title>
<a xlink:href="namespace_disk.html#ad26861325f9aed2a18a55ec91b290472" target="_top" xlink:title="Joins path components to make a file.">
<polygon fill="none" stroke="black" points="203.5,-61.5 203.5,-80.5 268.5,-80.5 268.5,-61.5 203.5,-61.5"/>
<text text-anchor="middle" x="236" y="-68.5" font-family="Helvetica,sans-Serif" font-size="10.00">Disk.joinFile</text>
</a>
</g>
<!-- Node1&#45;&gt;Node2 -->
<g id="edge2" class="edge"><title>Node1&#45;&gt;Node2</title>
<path fill="none" stroke="midnightblue" d="M135.562,-59.6185C154.983,-61.8415 175.655,-64.2075 193.092,-66.2033"/>
<polygon fill="midnightblue" stroke="midnightblue" points="193.157,-69.7335 203.49,-67.3934 193.953,-62.7789 193.157,-69.7335"/>
</g>
<!-- Node3 -->
<g id="node5" class="node"><title>Node3</title>
<a xlink:href="class_disk_1_1__base_1_1_file_path.html#af3b45a7e70358b41d8ad619dca94f18f" target="_top" xlink:title="Disk._base.FilePath.move">
<polygon fill="none" stroke="black" points="172.5,-23.5 172.5,-42.5 299.5,-42.5 299.5,-23.5 172.5,-23.5"/>
<text text-anchor="middle" x="236" y="-30.5" font-family="Helvetica,sans-Serif" font-size="10.00">Disk._base.FilePath.move</text>
</a>
</g>
<!-- Node1&#45;&gt;Node3 -->
<g id="edge4" class="edge"><title>Node1&#45;&gt;Node3</title>
<path fill="none" stroke="midnightblue" d="M135.562,-44.3815C144.409,-43.3688 153.516,-42.3264 162.459,-41.3029"/>
<polygon fill="midnightblue" stroke="midnightblue" points="162.925,-44.7725 172.462,-40.1579 162.129,-37.8179 162.925,-44.7725"/>
</g>
<!-- Node4 -->
<g id="node7" class="node"><title>Node4</title>
<a xlink:href="class_disk_1_1__base_1_1_file_path.html#a0a96c74909955f79e65ae294895a170c" target="_top" xlink:title="Disk._base.FilePath.copy">
<polygon fill="none" stroke="black" points="346.5,-44.5 346.5,-63.5 471.5,-63.5 471.5,-44.5 346.5,-44.5"/>
<text text-anchor="middle" x="409" y="-51.5" font-family="Helvetica,sans-Serif" font-size="10.00">Disk._base.FilePath.copy</text>
</a>
</g>
<!-- Node3&#45;&gt;Node4 -->
<g id="edge6" class="edge"><title>Node3&#45;&gt;Node4</title>
<path fill="none" stroke="midnightblue" d="M299.703,-40.7004C311.618,-42.1636 324.17,-43.7051 336.338,-45.1994"/>
<polygon fill="midnightblue" stroke="midnightblue" points="336.094,-48.6957 346.446,-46.4408 336.947,-41.7479 336.094,-48.6957"/>
</g>
<!-- Node7 -->
<g id="node13" class="node"><title>Node7</title>
<a xlink:href="class_disk_1_1__base_1_1_folder_path.html#aeda5e21bb79e9c7d6240ec96f2cc7aee" target="_top" xlink:title="Remove folder and contents if it exists.">
<polygon fill="none" stroke="black" points="336,-3.5 336,-22.5 482,-22.5 482,-3.5 336,-3.5"/>
<text text-anchor="middle" x="409" y="-10.5" font-family="Helvetica,sans-Serif" font-size="10.00">Disk._base.FolderPath.remove</text>
</a>
</g>
<!-- Node3&#45;&gt;Node7 -->
<g id="edge12" class="edge"><title>Node3&#45;&gt;Node7</title>
<path fill="none" stroke="midnightblue" d="M299.703,-25.6663C308.13,-24.6807 316.875,-23.6578 325.578,-22.64"/>
<polygon fill="midnightblue" stroke="midnightblue" points="326.228,-26.0879 335.754,-21.4499 325.415,-19.1353 326.228,-26.0879"/>
</g>
<!-- Node5 -->
<g id="node9" class="node"><title>Node5</title>
<a xlink:href="class_disk_1_1__base_1_1_file_path.html#abb49e5731ed1356e77236c00a49c2e3a" target="_top" xlink:title="Disk._base.FilePath.\l_preCopy_getFileObj">
<polygon fill="none" stroke="black" points="534.5,-88 534.5,-118 641.5,-118 641.5,-88 534.5,-88"/>
<text text-anchor="start" x="542.5" y="-106" font-family="Helvetica,sans-Serif" font-size="10.00">Disk._base.FilePath.</text>
<text text-anchor="middle" x="588" y="-95" font-family="Helvetica,sans-Serif" font-size="10.00">_preCopy_getFileObj</text>
</a>
</g>
<!-- Node4&#45;&gt;Node5 -->
<g id="edge8" class="edge"><title>Node4&#45;&gt;Node5</title>
<path fill="none" stroke="midnightblue" d="M444.548,-63.564C467.307,-69.8645 497.763,-78.296 524.673,-85.7455"/>
<polygon fill="midnightblue" stroke="midnightblue" points="523.834,-89.1449 534.405,-88.4399 525.701,-82.3986 523.834,-89.1449"/>
</g>
<!-- Node6 -->
<g id="node11" class="node"><title>Node6</title>
<a xlink:href="class_disk_1_1__base_1_1_file_path.html#ab1a670ae97df6f4053dcbb82d4ced7d1" target="_top" xlink:title="Disk._base.FilePath.\l_storeData">
<polygon fill="none" stroke="black" points="536,-39 536,-69 640,-69 640,-39 536,-39"/>
<text text-anchor="start" x="544" y="-57" font-family="Helvetica,sans-Serif" font-size="10.00">Disk._base.FilePath.</text>
<text text-anchor="middle" x="588" y="-46" font-family="Helvetica,sans-Serif" font-size="10.00">_storeData</text>
</a>
</g>
<!-- Node4&#45;&gt;Node6 -->
<g id="edge10" class="edge"><title>Node4&#45;&gt;Node6</title>
<path fill="none" stroke="midnightblue" d="M471.906,-54C489.406,-54 508.436,-54 525.89,-54"/>
<polygon fill="midnightblue" stroke="midnightblue" points="525.96,-57.5001 535.96,-54 525.96,-50.5001 525.96,-57.5001"/>
</g>
<!-- Node8 -->
<g id="node15" class="node"><title>Node8</title>
<a xlink:href="class_disk_1_1__base_1_1_folder_path.html#a7ea5de715f42afd14092c2bbc40ea816" target="_top" xlink:title="Disk._base.FolderPath.rmtree">
<polygon fill="none" stroke="black" points="518,-0.5 518,-19.5 658,-19.5 658,-0.5 518,-0.5"/>
<text text-anchor="middle" x="588" y="-7.5" font-family="Helvetica,sans-Serif" font-size="10.00">Disk._base.FolderPath.rmtree</text>
</a>
</g>
<!-- Node7&#45;&gt;Node8 -->
<g id="edge14" class="edge"><title>Node7&#45;&gt;Node8</title>
<path fill="none" stroke="midnightblue" d="M482.248,-11.7755C490.607,-11.6338 499.166,-11.4887 507.614,-11.3455"/>
<polygon fill="midnightblue" stroke="midnightblue" points="507.902,-14.8412 517.841,-11.1722 507.783,-7.84225 507.902,-14.8412"/>
</g>
</g>
</svg>
        <g id="navigator" transform="translate(0 0)" fill="#404254">
                <rect fill="#f2f5e9" fill-opacity="0.5" stroke="#606060" stroke-width=".5" x="0" y="0" width="60" height="60"/>
                <use id="zoomplus" xlink:href="#zoomPlus" x="17" y="9" onmousedown="handleZoom(evt,'in')"/>
                <use id="zoomminus" xlink:href="#zoomMin" x="42" y="9" onmousedown="handleZoom(evt,'out')"/>
                <use id="reset" xlink:href="#resetDef" x="30" y="36" onmousedown="handleReset()"/>
                <g id="arrowUp" xlink:href="#dirArrow" transform="translate(30 24)" onmousedown="handlePan(0,-1)">
                  <use xlink:href="#rim" fill="#404040">
                        <set attributeName="fill" to="#808080" begin="arrowUp.mouseover" end="arrowUp.mouseout"/>
                  </use>
                  <path fill="none" stroke="white" stroke-width="1.5" d="M0,-3.0v7 M-2.5,-0.5L0,-3.0L2.5,-0.5"/>
                </g>
                <g id="arrowRight" xlink:href="#dirArrow" transform="rotate(90) translate(36 -43)" onmousedown="handlePan(1,0)">
                  <use xlink:href="#rim" fill="#404040">
                        <set attributeName="fill" to="#808080" begin="arrowRight.mouseover" end="arrowRight.mouseout"/>
                  </use>
                  <path fill="none" stroke="white" stroke-width="1.5" d="M0,-3.0v7 M-2.5,-0.5L0,-3.0L2.5,-0.5"/>
                </g>
                <g id="arrowDown" xlink:href="#dirArrow" transform="rotate(180) translate(-30 -48)" onmousedown="handlePan(0,1)">
                  <use xlink:href="#rim" fill="#404040">
                        <set attributeName="fill" to="#808080" begin="arrowDown.mouseover" end="arrowDown.mouseout"/>
                  </use>
                  <path fill="none" stroke="white" stroke-width="1.5" d="M0,-3.0v7 M-2.5,-0.5L0,-3.0L2.5,-0.5"/>
                </g>
                <g id="arrowLeft" xlink:href="#dirArrow" transform="rotate(270) translate(-36 17)" onmousedown="handlePan(-1,0)">
                  <use xlink:href="#rim" fill="#404040">
                        <set attributeName="fill" to="#808080" begin="arrowLeft.mouseover" end="arrowLeft.mouseout"/>
                  </use>
                  <path fill="none" stroke="white" stroke-width="1.5" d="M0,-3.0v7 M-2.5,-0.5L0,-3.0L2.5,-0.5"/>
                </g>
        </g>
        <svg viewBox="0 0 15 15" width="100%" height="30px" preserveAspectRatio="xMaxYMin meet">
         <g id="arrow_out" transform="scale(0.3 0.3)">
          <a xlink:href="class_disk_1_1__base_1_1_file_path_a7c07ffcead384a72811163340e7abe09_cgraph_org.svg" target="_base">
           <rect id="button" ry="5" rx="5" y="6" x="6" height="38" width="38"
                fill="#f2f5e9" fill-opacity="0.5" stroke="#606060" stroke-width="1.0"/>
           <path id="arrow"
             d="M 11.500037,31.436501 C 11.940474,20.09759 22.043105,11.32322 32.158766,21.979434 L 37.068811,17.246167 C 37.068811,17.246167 37.088388,32 37.088388,32 L 22.160133,31.978069 C 22.160133,31.978069 26.997745,27.140456 26.997745,27.140456 C 18.528582,18.264221 13.291696,25.230495 11.500037,31.436501 z"
             style="fill:#404040;"/>
          </a>
         </g>
        </svg>
</svg>
