<?xml version="1.0" encoding="UTF-8" standalone="no"?>
<!DOCTYPE svg PUBLIC "-//W3C//DTD SVG 1.1//EN"
 "http://www.w3.org/Graphics/SVG/1.1/DTD/svg11.dtd">
<!-- Generated by graphviz version 2.30.1 (20130219.2202)
 -->
<!-- Title: Graphical Class Hierarchy Pages: 1 -->
<svg width="590pt" height="408pt"
 viewBox="0.00 0.00 590.00 408.00" xmlns="http://www.w3.org/2000/svg" xmlns:xlink="http://www.w3.org/1999/xlink">
<g id="graph0" class="graph" transform="scale(1 1) rotate(0) translate(4 404)">
<title>Graphical Class Hierarchy</title>
<!-- Node1 -->
<g id="node1" class="node"><title>Node1</title>
<g id="a_node1"><a xlink:href="classobject.html" target="_top" xlink:title="object">
<polygon fill="none" stroke="black" points="0,-171.5 0,-190.5 42,-190.5 42,-171.5 0,-171.5"/>
<text text-anchor="middle" x="21" y="-178.5" font-family="Helvetica,sans-Serif" font-size="10.00">object</text>
</a>
</g>
</g>
<!-- Node2 -->
<g id="node2" class="node"><title>Node2</title>
<g id="a_node2"><a xlink:href="class_disk_1_1__base_1_1_file.html" target="_top" xlink:title="Disk._base.File">
<polygon fill="none" stroke="black" points="99.5,-342.5 99.5,-361.5 180.5,-361.5 180.5,-342.5 99.5,-342.5"/>
<text text-anchor="middle" x="140" y="-349.5" font-family="Helvetica,sans-Serif" font-size="10.00">Disk._base.File</text>
</a>
</g>
</g>
<!-- Node1&#45;&gt;Node2 -->
<g id="edge1" class="edge"><title>Node1&#45;&gt;Node2</title>
<path fill="none" stroke="midnightblue" d="M34.4977,-199.266C59.227,-235.409 113.634,-314.927 132.447,-342.423"/>
<polygon fill="midnightblue" stroke="midnightblue" points="37.1611,-196.96 28.6257,-190.684 31.384,-200.913 37.1611,-196.96"/>
</g>
<!-- Node6 -->
<g id="node6" class="node"><title>Node6</title>
<g id="a_node6"><a xlink:href="class_disk_1_1__base_1_1_path_abstract.html" target="_top" xlink:title="Disk._base.PathAbstract">
<polygon fill="none" stroke="black" points="78.5,-76.5 78.5,-95.5 201.5,-95.5 201.5,-76.5 78.5,-76.5"/>
<text text-anchor="middle" x="140" y="-83.5" font-family="Helvetica,sans-Serif" font-size="10.00">Disk._base.PathAbstract</text>
</a>
</g>
</g>
<!-- Node1&#45;&gt;Node6 -->
<g id="edge5" class="edge"><title>Node1&#45;&gt;Node6</title>
<path fill="none" stroke="midnightblue" d="M31.3673,-162.166C40.8682,-144.912 57.1314,-119.862 78,-105 83.421,-101.139 89.6517,-98.0445 96.0148,-95.5688"/>
<polygon fill="midnightblue" stroke="midnightblue" points="28.127,-160.808 26.5709,-171.288 34.3227,-164.065 28.127,-160.808"/>
</g>
<!-- Node13 -->
<g id="node13" class="node"><title>Node13</title>
<g id="a_node13"><a xlink:href="class_disk_1_1_unit_tests_1_1_test_local.html" target="_top" xlink:title="Disk.UnitTests.TestLocal">
<polygon fill="none" stroke="black" points="80.5,-228.5 80.5,-247.5 199.5,-247.5 199.5,-228.5 80.5,-228.5"/>
<text text-anchor="middle" x="140" y="-235.5" font-family="Helvetica,sans-Serif" font-size="10.00">Disk.UnitTests.TestLocal</text>
</a>
</g>
</g>
<!-- Node1&#45;&gt;Node13 -->
<g id="edge12" class="edge"><title>Node1&#45;&gt;Node13</title>
<path fill="none" stroke="midnightblue" d="M42.0983,-196.765C52.3947,-204.276 65.3931,-212.925 78,-219 85.5942,-222.66 94.0555,-225.821 102.2,-228.457"/>
<polygon fill="midnightblue" stroke="midnightblue" points="43.921,-193.757 33.8232,-190.549 39.7171,-199.354 43.921,-193.757"/>
</g>
<!-- Node16 -->
<g id="node16" class="node"><title>Node16</title>
<g id="a_node16"><a xlink:href="class_disk_1_1_unit_tests_1_1_test_s_s_h.html" target="_top" xlink:title="Disk.UnitTests.TestSSH">
<polygon fill="none" stroke="black" points="81.5,-114.5 81.5,-133.5 198.5,-133.5 198.5,-114.5 81.5,-114.5"/>
<text text-anchor="middle" x="140" y="-121.5" font-family="Helvetica,sans-Serif" font-size="10.00">Disk.UnitTests.TestSSH</text>
</a>
</g>
</g>
<!-- Node1&#45;&gt;Node16 -->
<g id="edge15" class="edge"><title>Node1&#45;&gt;Node16</title>
<path fill="none" stroke="midnightblue" d="M42.0983,-165.235C52.3947,-157.724 65.3931,-149.075 78,-143 85.5942,-139.34 94.0555,-136.179 102.2,-133.543"/>
<polygon fill="midnightblue" stroke="midnightblue" points="39.7171,-162.646 33.8232,-171.451 43.921,-168.243 39.7171,-162.646"/>
</g>
<!-- Node3 -->
<g id="node3" class="node"><title>Node3</title>
<g id="a_node3"><a xlink:href="class_disk_1_1_local_1_1___file_1_1_base_file.html" target="_top" xlink:title="Abstract concept of a file object.">
<polygon fill="none" stroke="black" points="262,-380.5 262,-399.5 382,-399.5 382,-380.5 262,-380.5"/>
<text text-anchor="middle" x="322" y="-387.5" font-family="Helvetica,sans-Serif" font-size="10.00">Disk.Local._File.BaseFile</text>
</a>
</g>
</g>
<!-- Node2&#45;&gt;Node3 -->
<g id="edge2" class="edge"><title>Node2&#45;&gt;Node3</title>
<path fill="none" stroke="midnightblue" d="M190.416,-362.432C217.126,-368.071 249.867,-374.983 275.883,-380.475"/>
<polygon fill="midnightblue" stroke="midnightblue" points="191.009,-358.98 180.502,-360.339 189.563,-365.829 191.009,-358.98"/>
</g>
<!-- Node5 -->
<g id="node5" class="node"><title>Node5</title>
<g id="a_node5"><a xlink:href="class_disk_1_1_s_s_h_1_1___file_1_1_file.html" target="_top" xlink:title="Represents a file on a remote machine.">
<polygon fill="none" stroke="black" points="274.5,-342.5 274.5,-361.5 369.5,-361.5 369.5,-342.5 274.5,-342.5"/>
<text text-anchor="middle" x="322" y="-349.5" font-family="Helvetica,sans-Serif" font-size="10.00">Disk.SSH._File.File</text>
</a>
</g>
</g>
<!-- Node2&#45;&gt;Node5 -->
<g id="edge4" class="edge"><title>Node2&#45;&gt;Node5</title>
<path fill="none" stroke="midnightblue" d="M190.575,-352C216.701,-352 248.564,-352 274.257,-352"/>
<polygon fill="midnightblue" stroke="midnightblue" points="190.502,-348.5 180.502,-352 190.502,-355.5 190.502,-348.5"/>
</g>
<!-- Node4 -->
<g id="node4" class="node"><title>Node4</title>
<g id="a_node4"><a xlink:href="class_disk_1_1_local_1_1___file_1_1_file.html" target="_top" xlink:title="Implementation of BaseFile using a FilePath instance to store the path.">
<polygon fill="none" stroke="black" points="463.5,-380.5 463.5,-399.5 560.5,-399.5 560.5,-380.5 463.5,-380.5"/>
<text text-anchor="middle" x="512" y="-387.5" font-family="Helvetica,sans-Serif" font-size="10.00">Disk.Local._File.File</text>
</a>
</g>
</g>
<!-- Node3&#45;&gt;Node4 -->
<g id="edge3" class="edge"><title>Node3&#45;&gt;Node4</title>
<path fill="none" stroke="midnightblue" d="M392.528,-390C416.107,-390 441.894,-390 463.371,-390"/>
<polygon fill="midnightblue" stroke="midnightblue" points="392.226,-386.5 382.226,-390 392.226,-393.5 392.226,-386.5"/>
</g>
<!-- Node7 -->
<g id="node7" class="node"><title>Node7</title>
<g id="a_node7"><a xlink:href="class_disk_1_1__base_1_1_file_path.html" target="_top" xlink:title="Disk._base.FilePath">
<polygon fill="none" stroke="black" points="271.5,-76.5 271.5,-95.5 372.5,-95.5 372.5,-76.5 271.5,-76.5"/>
<text text-anchor="middle" x="322" y="-83.5" font-family="Helvetica,sans-Serif" font-size="10.00">Disk._base.FilePath</text>
</a>
</g>
</g>
<!-- Node6&#45;&gt;Node7 -->
<g id="edge6" class="edge"><title>Node6&#45;&gt;Node7</title>
<path fill="none" stroke="midnightblue" d="M211.941,-86C231.814,-86 252.986,-86 271.337,-86"/>
<polygon fill="midnightblue" stroke="midnightblue" points="211.689,-82.5001 201.689,-86 211.689,-89.5001 211.689,-82.5001"/>
</g>
<!-- Node10 -->
<g id="node10" class="node"><title>Node10</title>
<g id="a_node10"><a xlink:href="class_disk_1_1__base_1_1_folder_path.html" target="_top" xlink:title="Abstract concept of a folder path.">
<polygon fill="none" stroke="black" points="265.5,-38.5 265.5,-57.5 378.5,-57.5 378.5,-38.5 265.5,-38.5"/>
<text text-anchor="middle" x="322" y="-45.5" font-family="Helvetica,sans-Serif" font-size="10.00">Disk._base.FolderPath</text>
</a>
</g>
</g>
<!-- Node6&#45;&gt;Node10 -->
<g id="edge9" class="edge"><title>Node6&#45;&gt;Node10</title>
<path fill="none" stroke="midnightblue" d="M196.331,-74.319C221.857,-68.9301 251.776,-62.6139 275.905,-57.5201"/>
<polygon fill="midnightblue" stroke="midnightblue" points="195.483,-70.9208 186.422,-76.411 196.929,-77.7699 195.483,-70.9208"/>
</g>
<!-- Node8 -->
<g id="node8" class="node"><title>Node8</title>
<g id="a_node8"><a xlink:href="class_disk_1_1_local_1_1___paths_1_1_file_path.html" target="_top" xlink:title="A locally accessible file path.">
<polygon fill="none" stroke="black" points="447.5,-219.5 447.5,-238.5 576.5,-238.5 576.5,-219.5 447.5,-219.5"/>
<text text-anchor="middle" x="512" y="-226.5" font-family="Helvetica,sans-Serif" font-size="10.00">Disk.Local._Paths.FilePath</text>
</a>
</g>
</g>
<!-- Node7&#45;&gt;Node8 -->
<g id="edge7" class="edge"><title>Node7&#45;&gt;Node8</title>
<path fill="none" stroke="midnightblue" d="M382.667,-93.3592C391.001,-96.1305 399.071,-99.8958 406,-105 431.655,-123.898 421.904,-142.272 442,-167 458.962,-187.872 483.157,-207.897 497.93,-219.297"/>
<polygon fill="midnightblue" stroke="midnightblue" points="383.392,-89.9263 372.815,-90.5417 381.467,-96.6565 383.392,-89.9263"/>
</g>
<!-- Node9 -->
<g id="node9" class="node"><title>Node9</title>
<g id="a_node9"><a xlink:href="class_disk_1_1_s_s_h_1_1___paths_1_1_file_path.html" target="_top" xlink:title="Path of a file on a remote machine.">
<polygon fill="none" stroke="black" points="448.5,-57.5 448.5,-76.5 575.5,-76.5 575.5,-57.5 448.5,-57.5"/>
<text text-anchor="middle" x="512" y="-64.5" font-family="Helvetica,sans-Serif" font-size="10.00">Disk.SSH._Paths.FilePath</text>
</a>
</g>
</g>
<!-- Node7&#45;&gt;Node9 -->
<g id="edge8" class="edge"><title>Node7&#45;&gt;Node9</title>
<path fill="none" stroke="midnightblue" d="M382.914,-79.9448C403.811,-77.833 427.306,-75.4584 448.414,-73.3252"/>
<polygon fill="midnightblue" stroke="midnightblue" points="382.484,-76.4704 372.887,-80.9582 383.188,-83.4349 382.484,-76.4704"/>
</g>
<!-- Node11 -->
<g id="node11" class="node"><title>Node11</title>
<g id="a_node11"><a xlink:href="class_disk_1_1_local_1_1___paths_1_1_folder_path.html" target="_top" xlink:title="A locally accessible folder path.">
<polygon fill="none" stroke="black" points="442,-138.5 442,-157.5 582,-157.5 582,-138.5 442,-138.5"/>
<text text-anchor="middle" x="512" y="-145.5" font-family="Helvetica,sans-Serif" font-size="10.00">Disk.Local._Paths.FolderPath</text>
</a>
</g>
</g>
<!-- Node10&#45;&gt;Node11 -->
<g id="edge10" class="edge"><title>Node10&#45;&gt;Node11</title>
<path fill="none" stroke="midnightblue" d="M388.261,-60.0773C394.379,-62.0574 400.386,-64.3496 406,-67 445.557,-85.6739 484.235,-121.247 501.549,-138.348"/>
<polygon fill="midnightblue" stroke="midnightblue" points="389.176,-56.6982 378.594,-57.2158 387.189,-63.4103 389.176,-56.6982"/>
</g>
<!-- Node12 -->
<g id="node12" class="node"><title>Node12</title>
<g id="a_node12"><a xlink:href="class_disk_1_1_s_s_h_1_1___paths_1_1_folder_path.html" target="_top" xlink:title="Path of a folder on a remote machine.">
<polygon fill="none" stroke="black" points="443,-10.5 443,-29.5 581,-29.5 581,-10.5 443,-10.5"/>
<text text-anchor="middle" x="512" y="-17.5" font-family="Helvetica,sans-Serif" font-size="10.00">Disk.SSH._Paths.FolderPath</text>
</a>
</g>
</g>
<!-- Node10&#45;&gt;Node12 -->
<g id="edge11" class="edge"><title>Node10&#45;&gt;Node12</title>
<path fill="none" stroke="midnightblue" d="M388.645,-38.2231C407.535,-35.4097 428.111,-32.3452 446.906,-29.5459"/>
<polygon fill="midnightblue" stroke="midnightblue" points="388.018,-34.7777 378.643,-39.7127 389.05,-41.7013 388.018,-34.7777"/>
</g>
<!-- Node14 -->
<g id="node14" class="node"><title>Node14</title>
<g id="a_node14"><a xlink:href="class_disk_1_1_unit_tests_1_1_local_walker.html" target="_top" xlink:title="Disk.UnitTests.LocalWalker">
<polygon fill="none" stroke="black" points="256.5,-190.5 256.5,-209.5 387.5,-209.5 387.5,-190.5 256.5,-190.5"/>
<text text-anchor="middle" x="322" y="-197.5" font-family="Helvetica,sans-Serif" font-size="10.00">Disk.UnitTests.LocalWalker</text>
</a>
</g>
</g>
<!-- Node13&#45;&gt;Node14 -->
<g id="edge13" class="edge"><title>Node13&#45;&gt;Node14</title>
<path fill="none" stroke="midnightblue" d="M196.331,-226.319C221.857,-220.93 251.776,-214.614 275.905,-209.52"/>
<polygon fill="midnightblue" stroke="midnightblue" points="195.483,-222.921 186.422,-228.411 196.929,-229.77 195.483,-222.921"/>
</g>
<!-- Node15 -->
<g id="node15" class="node"><title>Node15</title>
<g id="a_node15"><a xlink:href="class_disk_1_1_unit_tests_1_1_test_o_sfuncs.html" target="_top" xlink:title="Disk.UnitTests.TestOSfuncs">
<polygon fill="none" stroke="black" points="255,-266.5 255,-285.5 389,-285.5 389,-266.5 255,-266.5"/>
<text text-anchor="middle" x="322" y="-273.5" font-family="Helvetica,sans-Serif" font-size="10.00">Disk.UnitTests.TestOSfuncs</text>
</a>
</g>
</g>
<!-- Node13&#45;&gt;Node15 -->
<g id="edge14" class="edge"><title>Node13&#45;&gt;Node15</title>
<path fill="none" stroke="midnightblue" d="M196.331,-249.681C221.857,-255.07 251.776,-261.386 275.905,-266.48"/>
<polygon fill="midnightblue" stroke="midnightblue" points="196.929,-246.23 186.422,-247.589 195.483,-253.079 196.929,-246.23"/>
</g>
<!-- Node17 -->
<g id="node17" class="node"><title>Node17</title>
<g id="a_node17"><a xlink:href="class_disk_1_1_unit_tests_1_1_s_s_hfile.html" target="_top" xlink:title="Disk.UnitTests.SSHfile">
<polygon fill="none" stroke="black" points="267,-114.5 267,-133.5 377,-133.5 377,-114.5 267,-114.5"/>
<text text-anchor="middle" x="322" y="-121.5" font-family="Helvetica,sans-Serif" font-size="10.00">Disk.UnitTests.SSHfile</text>
</a>
</g>
</g>
<!-- Node16&#45;&gt;Node17 -->
<g id="edge16" class="edge"><title>Node16&#45;&gt;Node17</title>
<path fill="none" stroke="midnightblue" d="M209.081,-124C228.174,-124 248.668,-124 266.834,-124"/>
<polygon fill="midnightblue" stroke="midnightblue" points="208.944,-120.5 198.944,-124 208.944,-127.5 208.944,-120.5"/>
</g>
<!-- Node18 -->
<g id="node18" class="node"><title>Node18</title>
<g id="a_node18"><a xlink:href="class_disk_1_1_unit_tests_1_1_s_s_hwalker.html" target="_top" xlink:title="Disk.UnitTests.SSHwalker">
<polygon fill="none" stroke="black" points="258.5,-152.5 258.5,-171.5 385.5,-171.5 385.5,-152.5 258.5,-152.5"/>
<text text-anchor="middle" x="322" y="-159.5" font-family="Helvetica,sans-Serif" font-size="10.00">Disk.UnitTests.SSHwalker</text>
</a>
</g>
</g>
<!-- Node16&#45;&gt;Node18 -->
<g id="edge17" class="edge"><title>Node16&#45;&gt;Node18</title>
<path fill="none" stroke="midnightblue" d="M196.331,-135.681C221.857,-141.07 251.776,-147.386 275.905,-152.48"/>
<polygon fill="midnightblue" stroke="midnightblue" points="196.929,-132.23 186.422,-133.589 195.483,-139.079 196.929,-132.23"/>
</g>
<!-- Node19 -->
<g id="node19" class="node"><title>Node19</title>
<g id="a_node19"><a xlink:href="class_disk_1_1_local_1_1___paths_1_1_path_abstract.html" target="_top" xlink:title="Abstract concept of a file or folder path.">
<polygon fill="none" stroke="black" points="246.5,-304.5 246.5,-323.5 397.5,-323.5 397.5,-304.5 246.5,-304.5"/>
<text text-anchor="middle" x="322" y="-311.5" font-family="Helvetica,sans-Serif" font-size="10.00">Disk.Local._Paths.PathAbstract</text>
</a>
</g>
</g>
<!-- Node19&#45;&gt;Node8 -->
<g id="edge18" class="edge"><title>Node19&#45;&gt;Node8</title>
<path fill="none" stroke="midnightblue" d="M386.678,-301.75C393.302,-299.789 399.853,-297.549 406,-295 442.198,-279.989 479.997,-252.963 498.825,-238.593"/>
<polygon fill="midnightblue" stroke="midnightblue" points="385.672,-298.397 376.96,-304.427 387.531,-305.145 385.672,-298.397"/>
</g>
<!-- Node19&#45;&gt;Node11 -->
<g id="edge19" class="edge"><title>Node19&#45;&gt;Node11</title>
<path fill="none" stroke="midnightblue" d="M399.727,-299.581C401.918,-298.185 404.017,-296.662 406,-295 437.442,-268.645 418.172,-243.398 442,-210 457.527,-188.237 481.93,-168.629 497.169,-157.532"/>
<polygon fill="midnightblue" stroke="midnightblue" points="398.013,-296.529 390.876,-304.359 401.338,-302.689 398.013,-296.529"/>
</g>
<!-- Node20 -->
<g id="node20" class="node"><title>Node20</title>
<g id="a_node20"><a xlink:href="class_disk_1_1_s_s_h_1_1___paths_1_1_s_s_hpath_abstract.html" target="_top" xlink:title="Disk.SSH._Paths.SSHpathAbstract">
<polygon fill="none" stroke="black" points="238,-0.5 238,-19.5 406,-19.5 406,-0.5 238,-0.5"/>
<text text-anchor="middle" x="322" y="-7.5" font-family="Helvetica,sans-Serif" font-size="10.00">Disk.SSH._Paths.SSHpathAbstract</text>
</a>
</g>
</g>
<!-- Node20&#45;&gt;Node9 -->
<g id="edge20" class="edge"><title>Node20&#45;&gt;Node9</title>
<path fill="none" stroke="midnightblue" d="M379.36,-21.9228C388.319,-24.0988 397.448,-26.4839 406,-29 434.269,-37.3171 465.985,-49.1541 487.089,-57.3991"/>
<polygon fill="midnightblue" stroke="midnightblue" points="379.894,-18.4525 369.357,-19.5588 378.284,-25.2649 379.894,-18.4525"/>
</g>
<!-- Node20&#45;&gt;Node12 -->
<g id="edge21" class="edge"><title>Node20&#45;&gt;Node12</title>
<path fill="none" stroke="midnightblue" d="M416.133,-14.9539C425.121,-15.4319 434.119,-15.9106 442.8,-16.3723"/>
<polygon fill="midnightblue" stroke="midnightblue" points="416.179,-11.4515 406.007,-14.4153 415.807,-18.4416 416.179,-11.4515"/>
</g>
<!-- Node21 -->
<g id="node21" class="node"><title>Node21</title>
<g id="a_node21"><a xlink:href="classunittest_1_1_test_case.html" target="_top" xlink:title="TestCase">
<polygon fill="none" stroke="black" points="110.5,-190.5 110.5,-209.5 169.5,-209.5 169.5,-190.5 110.5,-190.5"/>
<text text-anchor="middle" x="140" y="-197.5" font-family="Helvetica,sans-Serif" font-size="10.00">TestCase</text>
</a>
</g>
</g>
<!-- Node21&#45;&gt;Node14 -->
<g id="edge22" class="edge"><title>Node21&#45;&gt;Node14</title>
<path fill="none" stroke="midnightblue" d="M179.63,-200C201.99,-200 230.711,-200 256.418,-200"/>
<polygon fill="midnightblue" stroke="midnightblue" points="179.522,-196.5 169.522,-200 179.522,-203.5 179.522,-196.5"/>
</g>
<!-- Node22 -->
<g id="node22" class="node"><title>Node22</title>
<g id="a_node22"><a xlink:href="class_disk_1_1_unit_tests_1_1_perm_bits.html" target="_top" xlink:title="Disk.UnitTests.PermBits">
<polygon fill="none" stroke="black" points="264,-228.5 264,-247.5 380,-247.5 380,-228.5 264,-228.5"/>
<text text-anchor="middle" x="322" y="-235.5" font-family="Helvetica,sans-Serif" font-size="10.00">Disk.UnitTests.PermBits</text>
</a>
</g>
</g>
<!-- Node21&#45;&gt;Node22 -->
<g id="edge23" class="edge"><title>Node21&#45;&gt;Node22</title>
<path fill="none" stroke="midnightblue" d="M179.422,-208.111C207.643,-214.069 246.079,-222.183 275.782,-228.454"/>
<polygon fill="midnightblue" stroke="midnightblue" points="180.029,-204.662 169.522,-206.021 178.583,-211.511 180.029,-204.662"/>
</g>
<!-- Node21&#45;&gt;Node17 -->
<g id="edge24" class="edge"><title>Node21&#45;&gt;Node17</title>
<path fill="none" stroke="midnightblue" d="M179.373,-191.331C187.187,-188.678 195.116,-185.289 202,-181 221.746,-168.698 217.796,-154.534 238,-143 246.73,-138.016 256.678,-134.34 266.581,-131.627"/>
<polygon fill="midnightblue" stroke="midnightblue" points="178.163,-188.041 169.623,-194.311 180.209,-194.736 178.163,-188.041"/>
</g>
<!-- Node21&#45;&gt;Node18 -->
<g id="edge25" class="edge"><title>Node21&#45;&gt;Node18</title>
<path fill="none" stroke="midnightblue" d="M179.422,-191.889C207.643,-185.931 246.079,-177.817 275.782,-171.546"/>
<polygon fill="midnightblue" stroke="midnightblue" points="178.583,-188.489 169.522,-193.979 180.029,-195.338 178.583,-188.489"/>
</g>
<!-- Node21&#45;&gt;Node15 -->
<g id="edge26" class="edge"><title>Node21&#45;&gt;Node15</title>
<path fill="none" stroke="midnightblue" d="M179.373,-208.669C187.187,-211.322 195.116,-214.711 202,-219 221.746,-231.302 217.796,-245.466 238,-257 244.804,-260.884 252.348,-263.975 260.035,-266.433"/>
<polygon fill="midnightblue" stroke="midnightblue" points="180.209,-205.264 169.623,-205.689 178.163,-211.959 180.209,-205.264"/>
</g>
<!-- Node23 -->
<g id="node23" class="node"><title>Node23</title>
<g id="a_node23"><a xlink:href="class_disk_1_1_unit_tests_1_1_walker.html" target="_top" xlink:title="Disk.UnitTests.Walker">
<polygon fill="none" stroke="black" points="86,-152.5 86,-171.5 194,-171.5 194,-152.5 86,-152.5"/>
<text text-anchor="middle" x="140" y="-159.5" font-family="Helvetica,sans-Serif" font-size="10.00">Disk.UnitTests.Walker</text>
</a>
</g>
</g>
<!-- Node23&#45;&gt;Node14 -->
<g id="edge27" class="edge"><title>Node23&#45;&gt;Node14</title>
<path fill="none" stroke="midnightblue" d="M196.331,-173.681C221.857,-179.07 251.776,-185.386 275.905,-190.48"/>
<polygon fill="midnightblue" stroke="midnightblue" points="196.929,-170.23 186.422,-171.589 195.483,-177.079 196.929,-170.23"/>
</g>
<!-- Node23&#45;&gt;Node18 -->
<g id="edge28" class="edge"><title>Node23&#45;&gt;Node18</title>
<path fill="none" stroke="midnightblue" d="M204.152,-162C221.672,-162 240.686,-162 258.187,-162"/>
<polygon fill="midnightblue" stroke="midnightblue" points="204.032,-158.5 194.032,-162 204.032,-165.5 204.032,-158.5"/>
</g>
</g>
</svg>
