<?xml version="1.0" encoding="UTF-8" standalone="no"?>
<!DOCTYPE svg PUBLIC "-//W3C//DTD SVG 1.1//EN"
 "http://www.w3.org/Graphics/SVG/1.1/DTD/svg11.dtd">
<!-- Generated by graphviz version 2.30.1 (20130221.2233)
 -->
<!-- Title: Graphical Class Hierarchy Pages: 1 -->
<svg width="428pt" height="66pt"
 viewBox="0.00 0.00 428.00 66.00" xmlns="http://www.w3.org/2000/svg" xmlns:xlink="http://www.w3.org/1999/xlink">
<g id="graph0" class="graph" transform="scale(1 1) rotate(0) translate(4 62)">
<title>Graphical Class Hierarchy</title>
<!-- Node1 -->
<g id="node1" class="node"><title>Node1</title>
<polygon fill="none" stroke="#bfbfbf" points="0,-19.5 0,-38.5 62,-38.5 62,-19.5 0,-19.5"/>
<text text-anchor="middle" x="31" y="-26.5" font-family="Helvetica,sans-Serif" font-size="10.00">Descriptor</text>
</g>
<!-- Node2 -->
<g id="node2" class="node"><title>Node2</title>
<g id="a_node2"><a xlink:href="class_disk_1_1__base_1_1_path_funcs_abstract.html" target="_top" xlink:title="Disk._base.PathFuncsAbstract">
<polygon fill="none" stroke="black" points="98.5,-19.5 98.5,-38.5 251.5,-38.5 251.5,-19.5 98.5,-19.5"/>
<text text-anchor="middle" x="175" y="-26.5" font-family="Helvetica,sans-Serif" font-size="10.00">Disk._base.PathFuncsAbstract</text>
</a>
</g>
</g>
<!-- Node1&#45;&gt;Node2 -->
<g id="edge1" class="edge"><title>Node1&#45;&gt;Node2</title>
<path fill="none" stroke="midnightblue" d="M72.1425,-29C80.3851,-29 89.3165,-29 98.3488,-29"/>
<polygon fill="midnightblue" stroke="midnightblue" points="72.1146,-25.5001 62.1145,-29 72.1145,-32.5001 72.1146,-25.5001"/>
</g>
<!-- Node3 -->
<g id="node3" class="node"><title>Node3</title>
<g id="a_node3"><a xlink:href="class_disk_1_1__base_1_1_o_s_funcs.html" target="_top" xlink:title="Disk._base.OSFuncs">
<polygon fill="none" stroke="black" points="299,-38.5 299,-57.5 409,-57.5 409,-38.5 299,-38.5"/>
<text text-anchor="middle" x="354" y="-45.5" font-family="Helvetica,sans-Serif" font-size="10.00">Disk._base.OSFuncs</text>
</a>
</g>
</g>
<!-- Node2&#45;&gt;Node3 -->
<g id="edge2" class="edge"><title>Node2&#45;&gt;Node3</title>
<path fill="none" stroke="midnightblue" d="M261.682,-38.1975C274.327,-39.5549 287.048,-40.9204 298.813,-42.1833"/>
<polygon fill="midnightblue" stroke="midnightblue" points="261.894,-34.7002 251.577,-37.1128 261.147,-41.6602 261.894,-34.7002"/>
</g>
<!-- Node4 -->
<g id="node4" class="node"><title>Node4</title>
<g id="a_node4"><a xlink:href="class_disk_1_1__base_1_1_o_s_path_funcs.html" target="_top" xlink:title="Disk._base.OSPathFuncs">
<polygon fill="none" stroke="black" points="288.5,-0.5 288.5,-19.5 419.5,-19.5 419.5,-0.5 288.5,-0.5"/>
<text text-anchor="middle" x="354" y="-7.5" font-family="Helvetica,sans-Serif" font-size="10.00">Disk._base.OSPathFuncs</text>
</a>
</g>
</g>
<!-- Node2&#45;&gt;Node4 -->
<g id="edge3" class="edge"><title>Node2&#45;&gt;Node4</title>
<path fill="none" stroke="midnightblue" d="M261.653,-19.8056C270.609,-18.8442 279.605,-17.8786 288.271,-16.9483"/>
<polygon fill="midnightblue" stroke="midnightblue" points="261.147,-16.3398 251.577,-20.8872 261.894,-23.2998 261.147,-16.3398"/>
</g>
</g>
</svg>
