<?xml version="1.0" encoding="UTF-8" standalone="no"?>
<!DOCTYPE svg PUBLIC "-//W3C//DTD SVG 1.1//EN"
 "http://www.w3.org/Graphics/SVG/1.1/DTD/svg11.dtd">
<!-- Generated by graphviz version 2.28.0 (20121214.2254)
 -->
<!-- Title: Graphical Class Hierarchy Pages: 1 -->
<svg width="590pt" height="218pt"
 viewBox="0.00 0.00 590.00 218.00" xmlns="http://www.w3.org/2000/svg" xmlns:xlink="http://www.w3.org/1999/xlink">
<g id="graph1" class="graph" transform="scale(1 1) rotate(0) translate(4 214)">
<title>Graphical Class Hierarchy</title>
<!-- Node1 -->
<g id="node1" class="node"><title>Node1</title>
<a xlink:href="classobject.html" target="_top" xlink:title="object">
<polygon fill="none" stroke="black" points="0,-114.5 0,-133.5 42,-133.5 42,-114.5 0,-114.5"/>
<text text-anchor="middle" x="21" y="-121.5" font-family="Helvetica,sans-Serif" font-size="10.00">object</text>
</a>
</g>
<!-- Node2 -->
<g id="node3" class="node"><title>Node2</title>
<a xlink:href="class_disk_1_1__base_1_1_file.html" target="_top" xlink:title="Disk._base.File">
<polygon fill="none" stroke="black" points="99.5,-152.5 99.5,-171.5 180.5,-171.5 180.5,-152.5 99.5,-152.5"/>
<text text-anchor="middle" x="140" y="-159.5" font-family="Helvetica,sans-Serif" font-size="10.00">Disk._base.File</text>
</a>
</g>
<!-- Node1&#45;&gt;Node2 -->
<g id="edge2" class="edge"><title>Node1&#45;&gt;Node2</title>
<path fill="none" stroke="midnightblue" d="M51.9203,-133.718C69.6031,-139.461 91.9045,-146.704 109.511,-152.422"/>
<polygon fill="midnightblue" stroke="midnightblue" points="52.7051,-130.293 42.113,-130.532 50.5428,-136.95 52.7051,-130.293"/>
</g>
<!-- Node6 -->
<g id="node11" class="node"><title>Node6</title>
<a xlink:href="class_disk_1_1__base_1_1_path_abstract.html" target="_top" xlink:title="Disk._base.PathAbstract">
<polygon fill="none" stroke="black" points="78.5,-76.5 78.5,-95.5 201.5,-95.5 201.5,-76.5 78.5,-76.5"/>
<text text-anchor="middle" x="140" y="-83.5" font-family="Helvetica,sans-Serif" font-size="10.00">Disk._base.PathAbstract</text>
</a>
</g>
<!-- Node1&#45;&gt;Node6 -->
<g id="edge10" class="edge"><title>Node1&#45;&gt;Node6</title>
<path fill="none" stroke="midnightblue" d="M51.9203,-114.282C69.6031,-108.539 91.9045,-101.296 109.511,-95.5775"/>
<polygon fill="midnightblue" stroke="midnightblue" points="50.5428,-111.05 42.113,-117.468 52.7051,-117.707 50.5428,-111.05"/>
</g>
<!-- Node3 -->
<g id="node5" class="node"><title>Node3</title>
<a xlink:href="class_disk_1_1_local_1_1___file_1_1_base_file.html" target="_top" xlink:title="Abstract concept of a file object.">
<polygon fill="none" stroke="black" points="262,-190.5 262,-209.5 382,-209.5 382,-190.5 262,-190.5"/>
<text text-anchor="middle" x="322" y="-197.5" font-family="Helvetica,sans-Serif" font-size="10.00">Disk.Local._File.BaseFile</text>
</a>
</g>
<!-- Node2&#45;&gt;Node3 -->
<g id="edge4" class="edge"><title>Node2&#45;&gt;Node3</title>
<path fill="none" stroke="midnightblue" d="M190.416,-172.432C217.126,-178.071 249.867,-184.983 275.883,-190.475"/>
<polygon fill="midnightblue" stroke="midnightblue" points="191.009,-168.98 180.502,-170.339 189.563,-175.829 191.009,-168.98"/>
</g>
<!-- Node5 -->
<g id="node9" class="node"><title>Node5</title>
<a xlink:href="class_disk_1_1_s_s_h_1_1___file_1_1_file.html" target="_top" xlink:title="Represents a file on a remote machine.">
<polygon fill="none" stroke="black" points="274.5,-152.5 274.5,-171.5 369.5,-171.5 369.5,-152.5 274.5,-152.5"/>
<text text-anchor="middle" x="322" y="-159.5" font-family="Helvetica,sans-Serif" font-size="10.00">Disk.SSH._File.File</text>
</a>
</g>
<!-- Node2&#45;&gt;Node5 -->
<g id="edge8" class="edge"><title>Node2&#45;&gt;Node5</title>
<path fill="none" stroke="midnightblue" d="M190.575,-162C216.701,-162 248.564,-162 274.257,-162"/>
<polygon fill="midnightblue" stroke="midnightblue" points="190.502,-158.5 180.502,-162 190.502,-165.5 190.502,-158.5"/>
</g>
<!-- Node4 -->
<g id="node7" class="node"><title>Node4</title>
<a xlink:href="class_disk_1_1_local_1_1___file_1_1_file.html" target="_top" xlink:title="Implementation of BaseFile using a FilePath instance to store the path.">
<polygon fill="none" stroke="black" points="463.5,-190.5 463.5,-209.5 560.5,-209.5 560.5,-190.5 463.5,-190.5"/>
<text text-anchor="middle" x="512" y="-197.5" font-family="Helvetica,sans-Serif" font-size="10.00">Disk.Local._File.File</text>
</a>
</g>
<!-- Node3&#45;&gt;Node4 -->
<g id="edge6" class="edge"><title>Node3&#45;&gt;Node4</title>
<path fill="none" stroke="midnightblue" d="M392.528,-200C416.107,-200 441.894,-200 463.371,-200"/>
<polygon fill="midnightblue" stroke="midnightblue" points="392.226,-196.5 382.226,-200 392.226,-203.5 392.226,-196.5"/>
</g>
<!-- Node7 -->
<g id="node13" class="node"><title>Node7</title>
<a xlink:href="class_disk_1_1__base_1_1_file_path.html" target="_top" xlink:title="Disk._base.FilePath">
<polygon fill="none" stroke="black" points="271.5,-76.5 271.5,-95.5 372.5,-95.5 372.5,-76.5 271.5,-76.5"/>
<text text-anchor="middle" x="322" y="-83.5" font-family="Helvetica,sans-Serif" font-size="10.00">Disk._base.FilePath</text>
</a>
</g>
<!-- Node6&#45;&gt;Node7 -->
<g id="edge12" class="edge"><title>Node6&#45;&gt;Node7</title>
<path fill="none" stroke="midnightblue" d="M211.941,-86C231.814,-86 252.986,-86 271.337,-86"/>
<polygon fill="midnightblue" stroke="midnightblue" points="211.689,-82.5001 201.689,-86 211.689,-89.5001 211.689,-82.5001"/>
</g>
<!-- Node10 -->
<g id="node19" class="node"><title>Node10</title>
<a xlink:href="class_disk_1_1__base_1_1_folder_path.html" target="_top" xlink:title="Abstract concept of a folder path.">
<polygon fill="none" stroke="black" points="265.5,-38.5 265.5,-57.5 378.5,-57.5 378.5,-38.5 265.5,-38.5"/>
<text text-anchor="middle" x="322" y="-45.5" font-family="Helvetica,sans-Serif" font-size="10.00">Disk._base.FolderPath</text>
</a>
</g>
<!-- Node6&#45;&gt;Node10 -->
<g id="edge18" class="edge"><title>Node6&#45;&gt;Node10</title>
<path fill="none" stroke="midnightblue" d="M196.331,-74.319C221.857,-68.9301 251.776,-62.6139 275.905,-57.5201"/>
<polygon fill="midnightblue" stroke="midnightblue" points="195.483,-70.9208 186.422,-76.411 196.929,-77.7699 195.483,-70.9208"/>
</g>
<!-- Node8 -->
<g id="node15" class="node"><title>Node8</title>
<a xlink:href="class_disk_1_1_local_1_1___paths_1_1_file_path.html" target="_top" xlink:title="A locally accessible file path.">
<polygon fill="none" stroke="black" points="447.5,-114.5 447.5,-133.5 576.5,-133.5 576.5,-114.5 447.5,-114.5"/>
<text text-anchor="middle" x="512" y="-121.5" font-family="Helvetica,sans-Serif" font-size="10.00">Disk.Local._Paths.FilePath</text>
</a>
</g>
<!-- Node7&#45;&gt;Node8 -->
<g id="edge14" class="edge"><title>Node7&#45;&gt;Node8</title>
<path fill="none" stroke="midnightblue" d="M380.437,-97.6095C407.174,-103.014 438.588,-109.364 463.901,-114.48"/>
<polygon fill="midnightblue" stroke="midnightblue" points="380.936,-94.1397 370.44,-95.589 379.549,-101.001 380.936,-94.1397"/>
</g>
<!-- Node9 -->
<g id="node17" class="node"><title>Node9</title>
<a xlink:href="class_disk_1_1_s_s_h_1_1___paths_1_1_file_path.html" target="_top" xlink:title="Path of a file on a remote machine.">
<polygon fill="none" stroke="black" points="448.5,-38.5 448.5,-57.5 575.5,-57.5 575.5,-38.5 448.5,-38.5"/>
<text text-anchor="middle" x="512" y="-45.5" font-family="Helvetica,sans-Serif" font-size="10.00">Disk.SSH._Paths.FilePath</text>
</a>
</g>
<!-- Node7&#45;&gt;Node9 -->
<g id="edge16" class="edge"><title>Node7&#45;&gt;Node9</title>
<path fill="none" stroke="midnightblue" d="M380.437,-74.3905C407.174,-68.986 438.588,-62.6365 463.901,-57.5201"/>
<polygon fill="midnightblue" stroke="midnightblue" points="379.549,-70.9991 370.44,-76.411 380.936,-77.8603 379.549,-70.9991"/>
</g>
<!-- Node11 -->
<g id="node21" class="node"><title>Node11</title>
<a xlink:href="class_disk_1_1_local_1_1___paths_1_1_folder_path.html" target="_top" xlink:title="A locally accessible folder path.">
<polygon fill="none" stroke="black" points="442,-76.5 442,-95.5 582,-95.5 582,-76.5 442,-76.5"/>
<text text-anchor="middle" x="512" y="-83.5" font-family="Helvetica,sans-Serif" font-size="10.00">Disk.Local._Paths.FolderPath</text>
</a>
</g>
<!-- Node10&#45;&gt;Node11 -->
<g id="edge20" class="edge"><title>Node10&#45;&gt;Node11</title>
<path fill="none" stroke="midnightblue" d="M380.437,-59.6095C407.174,-65.014 438.588,-71.3635 463.901,-76.4799"/>
<polygon fill="midnightblue" stroke="midnightblue" points="380.936,-56.1397 370.44,-57.589 379.549,-63.0009 380.936,-56.1397"/>
</g>
<!-- Node12 -->
<g id="node23" class="node"><title>Node12</title>
<a xlink:href="class_disk_1_1_s_s_h_1_1___paths_1_1_folder_path.html" target="_top" xlink:title="Path of a folder on a remote machine.">
<polygon fill="none" stroke="black" points="443,-0.5 443,-19.5 581,-19.5 581,-0.5 443,-0.5"/>
<text text-anchor="middle" x="512" y="-7.5" font-family="Helvetica,sans-Serif" font-size="10.00">Disk.SSH._Paths.FolderPath</text>
</a>
</g>
<!-- Node10&#45;&gt;Node12 -->
<g id="edge22" class="edge"><title>Node10&#45;&gt;Node12</title>
<path fill="none" stroke="midnightblue" d="M380.437,-36.3905C407.174,-30.986 438.588,-24.6365 463.901,-19.5201"/>
<polygon fill="midnightblue" stroke="midnightblue" points="379.549,-32.9991 370.44,-38.411 380.936,-39.8603 379.549,-32.9991"/>
</g>
<!-- Node13 -->
<g id="node24" class="node"><title>Node13</title>
<a xlink:href="class_disk_1_1_local_1_1___paths_1_1_path_abstract.html" target="_top" xlink:title="Abstract concept of a file or folder path.">
<polygon fill="none" stroke="black" points="246.5,-114.5 246.5,-133.5 397.5,-133.5 397.5,-114.5 246.5,-114.5"/>
<text text-anchor="middle" x="322" y="-121.5" font-family="Helvetica,sans-Serif" font-size="10.00">Disk.Local._Paths.PathAbstract</text>
</a>
</g>
<!-- Node13&#45;&gt;Node8 -->
<g id="edge24" class="edge"><title>Node13&#45;&gt;Node8</title>
<path fill="none" stroke="midnightblue" d="M407.716,-124C421.068,-124 434.672,-124 447.437,-124"/>
<polygon fill="midnightblue" stroke="midnightblue" points="407.573,-120.5 397.573,-124 407.573,-127.5 407.573,-120.5"/>
</g>
<!-- Node13&#45;&gt;Node11 -->
<g id="edge26" class="edge"><title>Node13&#45;&gt;Node11</title>
<path fill="none" stroke="midnightblue" d="M380.437,-112.39C407.174,-106.986 438.588,-100.636 463.901,-95.5201"/>
<polygon fill="midnightblue" stroke="midnightblue" points="379.549,-108.999 370.44,-114.411 380.936,-115.86 379.549,-108.999"/>
</g>
<!-- Node14 -->
<g id="node27" class="node"><title>Node14</title>
<a xlink:href="class_disk_1_1_s_s_h_1_1___paths_1_1_s_s_hpath_abstract.html" target="_top" xlink:title="Disk.SSH._Paths.SSHpathAbstract">
<polygon fill="none" stroke="black" points="238,-0.5 238,-19.5 406,-19.5 406,-0.5 238,-0.5"/>
<text text-anchor="middle" x="322" y="-7.5" font-family="Helvetica,sans-Serif" font-size="10.00">Disk.SSH._Paths.SSHpathAbstract</text>
</a>
</g>
<!-- Node14&#45;&gt;Node9 -->
<g id="edge28" class="edge"><title>Node14&#45;&gt;Node9</title>
<path fill="none" stroke="midnightblue" d="M380.437,-21.6095C407.174,-27.014 438.588,-33.3635 463.901,-38.4799"/>
<polygon fill="midnightblue" stroke="midnightblue" points="380.936,-18.1397 370.44,-19.589 379.549,-25.0009 380.936,-18.1397"/>
</g>
<!-- Node14&#45;&gt;Node12 -->
<g id="edge30" class="edge"><title>Node14&#45;&gt;Node12</title>
<path fill="none" stroke="midnightblue" d="M416.133,-10C425.121,-10 434.119,-10 442.8,-10"/>
<polygon fill="midnightblue" stroke="midnightblue" points="416.007,-6.5001 406.007,-10 416.007,-13.5001 416.007,-6.5001"/>
</g>
</g>
</svg>
