<?xml version="1.0" encoding="UTF-8" standalone="no"?>
<!DOCTYPE svg PUBLIC "-//W3C//DTD SVG 1.1//EN"
 "http://www.w3.org/Graphics/SVG/1.1/DTD/svg11.dtd">
<!-- Generated by graphviz version 2.30.1 (20130221.2233)
 -->
<!-- Title: Graphical Class Hierarchy Pages: 1 -->
<svg width="280pt" height="87pt"
 viewBox="0.00 0.00 280.00 87.00" xmlns="http://www.w3.org/2000/svg" xmlns:xlink="http://www.w3.org/1999/xlink">
<g id="graph0" class="graph" transform="scale(1 1) rotate(0) translate(4 83)">
<title>Graphical Class Hierarchy</title>
<!-- Node1 -->
<g id="node1" class="node"><title>Node1</title>
<g id="a_node1"><a xlink:href="class_exception.html" target="_top" xlink:title="Exception">
<polygon fill="none" stroke="black" points="0,-29.5 0,-48.5 60,-48.5 60,-29.5 0,-29.5"/>
<text text-anchor="middle" x="30" y="-36.5" font-family="Helvetica,sans-Serif" font-size="10.00">Exception</text>
</a>
</g>
</g>
<!-- Node2 -->
<g id="node2" class="node"><title>Node2</title>
<g id="a_node2"><a xlink:href="class_disk_1_1_compressed_file_1_1_unrecognized_format.html" target="_top" xlink:title="Disk.CompressedFile.Unrecognized\lFormat">
<polygon fill="none" stroke="black" points="96,-49 96,-79 272,-79 272,-49 96,-49"/>
<text text-anchor="start" x="104" y="-67" font-family="Helvetica,sans-Serif" font-size="10.00">Disk.CompressedFile.Unrecognized</text>
<text text-anchor="middle" x="184" y="-56" font-family="Helvetica,sans-Serif" font-size="10.00">Format</text>
</a>
</g>
</g>
<!-- Node1&#45;&gt;Node2 -->
<g id="edge1" class="edge"><title>Node1&#45;&gt;Node2</title>
<path fill="none" stroke="midnightblue" d="M70.3408,-45.4705C78.3156,-46.7822 86.9985,-48.2103 95.8888,-49.6725"/>
<polygon fill="midnightblue" stroke="midnightblue" points="70.7426,-41.9897 60.3071,-43.8203 69.6065,-48.8969 70.7426,-41.9897"/>
</g>
<!-- Node3 -->
<g id="node3" class="node"><title>Node3</title>
<g id="a_node3"><a xlink:href="class_disk_1_1_config_file_1_1_parser__m1_1_1_parse_exception.html" target="_top" xlink:title="Disk.ConfigFile.Parser\l_m1.ParseException">
<polygon fill="none" stroke="black" points="126,-0 126,-30 242,-30 242,-0 126,-0"/>
<text text-anchor="start" x="134" y="-18" font-family="Helvetica,sans-Serif" font-size="10.00">Disk.ConfigFile.Parser</text>
<text text-anchor="middle" x="184" y="-7" font-family="Helvetica,sans-Serif" font-size="10.00">_m1.ParseException</text>
</a>
</g>
</g>
<!-- Node1&#45;&gt;Node3 -->
<g id="edge2" class="edge"><title>Node1&#45;&gt;Node3</title>
<path fill="none" stroke="midnightblue" d="M70.3652,-32.7844C87.245,-30.1192 107.294,-26.9536 125.765,-24.037"/>
<polygon fill="midnightblue" stroke="midnightblue" points="69.6389,-29.3557 60.3071,-34.3726 70.7307,-36.27 69.6389,-29.3557"/>
</g>
</g>
</svg>
