<?xml version="1.0" encoding="UTF-8" standalone="no"?>
<!DOCTYPE svg PUBLIC "-//W3C//DTD SVG 1.1//EN"
 "http://www.w3.org/Graphics/SVG/1.1/DTD/svg11.dtd">
<!-- Generated by graphviz version 2.28.0 (20121214.2254)
 -->
<!-- Title: Graphical Class Hierarchy Pages: 1 -->
<svg width="298pt" height="180pt"
 viewBox="0.00 0.00 298.00 180.00" xmlns="http://www.w3.org/2000/svg" xmlns:xlink="http://www.w3.org/1999/xlink">
<g id="graph1" class="graph" transform="scale(1 1) rotate(0) translate(4 176)">
<title>Graphical Class Hierarchy</title>
<!-- Node1 -->
<g id="node1" class="node"><title>Node1</title>
<a xlink:href="classunittest_1_1_test_case.html" target="_top" xlink:title="TestCase">
<polygon fill="none" stroke="black" points="30.5,-76.5 30.5,-95.5 89.5,-95.5 89.5,-76.5 30.5,-76.5"/>
<text text-anchor="middle" x="60" y="-83.5" font-family="Helvetica,sans-Serif" font-size="10.00">TestCase</text>
</a>
</g>
<!-- Node2 -->
<g id="node3" class="node"><title>Node2</title>
<a xlink:href="class_disk_1_1_unit_tests_1_1_local_walker.html" target="_top" xlink:title="Disk.UnitTests.LocalWalker">
<polygon fill="none" stroke="black" points="157.5,-152.5 157.5,-171.5 288.5,-171.5 288.5,-152.5 157.5,-152.5"/>
<text text-anchor="middle" x="223" y="-159.5" font-family="Helvetica,sans-Serif" font-size="10.00">Disk.UnitTests.LocalWalker</text>
</a>
</g>
<!-- Node1&#45;&gt;Node2 -->
<g id="edge2" class="edge"><title>Node1&#45;&gt;Node2</title>
<path fill="none" stroke="midnightblue" d="M99.2584,-95.2208C106.443,-97.7988 113.677,-101.018 120,-105 139.686,-117.397 136.122,-130.912 156,-143 162.316,-146.841 169.445,-149.936 176.621,-152.421"/>
<polygon fill="midnightblue" stroke="midnightblue" points="100.173,-91.8381 89.5808,-92.0919 98.0191,-98.4986 100.173,-91.8381"/>
</g>
<!-- Node3 -->
<g id="node5" class="node"><title>Node3</title>
<a xlink:href="class_disk_1_1_unit_tests_1_1_perm_bits.html" target="_top" xlink:title="Disk.UnitTests.PermBits">
<polygon fill="none" stroke="black" points="165,-38.5 165,-57.5 281,-57.5 281,-38.5 165,-38.5"/>
<text text-anchor="middle" x="223" y="-45.5" font-family="Helvetica,sans-Serif" font-size="10.00">Disk.UnitTests.PermBits</text>
</a>
</g>
<!-- Node1&#45;&gt;Node3 -->
<g id="edge4" class="edge"><title>Node1&#45;&gt;Node3</title>
<path fill="none" stroke="midnightblue" d="M99.577,-76.8949C124.376,-71.0417 156.538,-63.4507 181.673,-57.5181"/>
<polygon fill="midnightblue" stroke="midnightblue" points="98.7121,-73.5027 89.7836,-79.2064 100.32,-80.3156 98.7121,-73.5027"/>
</g>
<!-- Node4 -->
<g id="node7" class="node"><title>Node4</title>
<a xlink:href="class_disk_1_1_unit_tests_1_1_s_s_hfile.html" target="_top" xlink:title="Disk.UnitTests.SSHfile">
<polygon fill="none" stroke="black" points="168,-0.5 168,-19.5 278,-19.5 278,-0.5 168,-0.5"/>
<text text-anchor="middle" x="223" y="-7.5" font-family="Helvetica,sans-Serif" font-size="10.00">Disk.UnitTests.SSHfile</text>
</a>
</g>
<!-- Node1&#45;&gt;Node4 -->
<g id="edge6" class="edge"><title>Node1&#45;&gt;Node4</title>
<path fill="none" stroke="midnightblue" d="M84.4327,-70.9809C107.654,-56.2738 141.753,-35.1982 156,-29 164.419,-25.3372 173.744,-22.1589 182.669,-19.505"/>
<polygon fill="midnightblue" stroke="midnightblue" points="82.3915,-68.1311 75.8322,-76.4513 86.1484,-74.0376 82.3915,-68.1311"/>
</g>
<!-- Node5 -->
<g id="node9" class="node"><title>Node5</title>
<a xlink:href="class_disk_1_1_unit_tests_1_1_s_s_hwalker.html" target="_top" xlink:title="Disk.UnitTests.SSHwalker">
<polygon fill="none" stroke="black" points="159.5,-76.5 159.5,-95.5 286.5,-95.5 286.5,-76.5 159.5,-76.5"/>
<text text-anchor="middle" x="223" y="-83.5" font-family="Helvetica,sans-Serif" font-size="10.00">Disk.UnitTests.SSHwalker</text>
</a>
</g>
<!-- Node1&#45;&gt;Node5 -->
<g id="edge8" class="edge"><title>Node1&#45;&gt;Node5</title>
<path fill="none" stroke="midnightblue" d="M99.8284,-86C117.7,-86 139.355,-86 159.44,-86"/>
<polygon fill="midnightblue" stroke="midnightblue" points="99.7836,-82.5001 89.7836,-86 99.7835,-89.5001 99.7836,-82.5001"/>
</g>
<!-- Node6 -->
<g id="node11" class="node"><title>Node6</title>
<a xlink:href="class_disk_1_1_unit_tests_1_1_test_o_sfuncs.html" target="_top" xlink:title="Disk.UnitTests.TestOSfuncs">
<polygon fill="none" stroke="black" points="156,-114.5 156,-133.5 290,-133.5 290,-114.5 156,-114.5"/>
<text text-anchor="middle" x="223" y="-121.5" font-family="Helvetica,sans-Serif" font-size="10.00">Disk.UnitTests.TestOSfuncs</text>
</a>
</g>
<!-- Node1&#45;&gt;Node6 -->
<g id="edge10" class="edge"><title>Node1&#45;&gt;Node6</title>
<path fill="none" stroke="midnightblue" d="M99.577,-95.1051C124.376,-100.958 156.538,-108.549 181.673,-114.482"/>
<polygon fill="midnightblue" stroke="midnightblue" points="100.32,-91.6844 89.7836,-92.7936 98.7121,-98.4973 100.32,-91.6844"/>
</g>
<!-- Node7 -->
<g id="node12" class="node"><title>Node7</title>
<a xlink:href="class_disk_1_1_unit_tests_1_1_test_local.html" target="_top" xlink:title="Disk.UnitTests.TestLocal">
<polygon fill="none" stroke="black" points="0.5,-152.5 0.5,-171.5 119.5,-171.5 119.5,-152.5 0.5,-152.5"/>
<text text-anchor="middle" x="60" y="-159.5" font-family="Helvetica,sans-Serif" font-size="10.00">Disk.UnitTests.TestLocal</text>
</a>
</g>
<!-- Node7&#45;&gt;Node2 -->
<g id="edge12" class="edge"><title>Node7&#45;&gt;Node2</title>
<path fill="none" stroke="midnightblue" d="M129.825,-162C138.999,-162 148.38,-162 157.478,-162"/>
<polygon fill="midnightblue" stroke="midnightblue" points="129.58,-158.5 119.58,-162 129.58,-165.5 129.58,-158.5"/>
</g>
<!-- Node7&#45;&gt;Node6 -->
<g id="edge14" class="edge"><title>Node7&#45;&gt;Node6</title>
<path fill="none" stroke="midnightblue" d="M111.402,-150.104C134.032,-144.763 160.37,-138.546 181.665,-133.52"/>
<polygon fill="midnightblue" stroke="midnightblue" points="110.556,-146.707 101.627,-152.411 112.164,-153.52 110.556,-146.707"/>
</g>
<!-- Node8 -->
<g id="node15" class="node"><title>Node8</title>
<a xlink:href="class_disk_1_1_unit_tests_1_1_test_s_s_h.html" target="_top" xlink:title="Disk.UnitTests.TestSSH">
<polygon fill="none" stroke="black" points="1.5,-19.5 1.5,-38.5 118.5,-38.5 118.5,-19.5 1.5,-19.5"/>
<text text-anchor="middle" x="60" y="-26.5" font-family="Helvetica,sans-Serif" font-size="10.00">Disk.UnitTests.TestSSH</text>
</a>
</g>
<!-- Node8&#45;&gt;Node4 -->
<g id="edge16" class="edge"><title>Node8&#45;&gt;Node4</title>
<path fill="none" stroke="midnightblue" d="M128.983,-20.9772C141.995,-19.4415 155.455,-17.8531 167.957,-16.3777"/>
<polygon fill="midnightblue" stroke="midnightblue" points="128.191,-17.5463 118.67,-22.1942 129.011,-24.498 128.191,-17.5463"/>
</g>
<!-- Node8&#45;&gt;Node5 -->
<g id="edge18" class="edge"><title>Node8&#45;&gt;Node5</title>
<path fill="none" stroke="midnightblue" d="M92.371,-42.4683C110.744,-50.124 134.493,-59.6237 156,-67 165.813,-70.3654 176.578,-73.6378 186.516,-76.4917"/>
<polygon fill="midnightblue" stroke="midnightblue" points="93.6051,-39.1904 83.0301,-38.5422 90.8928,-45.6436 93.6051,-39.1904"/>
</g>
<!-- Node9 -->
<g id="node18" class="node"><title>Node9</title>
<a xlink:href="class_disk_1_1_unit_tests_1_1_walker.html" target="_top" xlink:title="Disk.UnitTests.Walker">
<polygon fill="none" stroke="black" points="6,-114.5 6,-133.5 114,-133.5 114,-114.5 6,-114.5"/>
<text text-anchor="middle" x="60" y="-121.5" font-family="Helvetica,sans-Serif" font-size="10.00">Disk.UnitTests.Walker</text>
</a>
</g>
<!-- Node9&#45;&gt;Node2 -->
<g id="edge20" class="edge"><title>Node9&#45;&gt;Node2</title>
<path fill="none" stroke="midnightblue" d="M111.402,-135.896C134.032,-141.237 160.37,-147.454 181.665,-152.48"/>
<polygon fill="midnightblue" stroke="midnightblue" points="112.164,-132.48 101.627,-133.589 110.556,-139.293 112.164,-132.48"/>
</g>
<!-- Node9&#45;&gt;Node5 -->
<g id="edge22" class="edge"><title>Node9&#45;&gt;Node5</title>
<path fill="none" stroke="midnightblue" d="M111.402,-112.104C134.032,-106.763 160.37,-100.546 181.665,-95.5201"/>
<polygon fill="midnightblue" stroke="midnightblue" points="110.556,-108.707 101.627,-114.411 112.164,-115.52 110.556,-108.707"/>
</g>
</g>
</svg>
