<?xml version="1.0" encoding="UTF-8" standalone="no"?>
<!DOCTYPE svg PUBLIC "-//W3C//DTD SVG 1.1//EN"
 "http://www.w3.org/Graphics/SVG/1.1/DTD/svg11.dtd">
<!-- Generated by graphviz version 2.30.1 (20130221.2233)
 -->
<!-- Title: Graphical Class Hierarchy Pages: 1 -->
<svg width="592pt" height="142pt"
 viewBox="0.00 0.00 592.00 142.00" xmlns="http://www.w3.org/2000/svg" xmlns:xlink="http://www.w3.org/1999/xlink">
<g id="graph0" class="graph" transform="scale(1 1) rotate(0) translate(4 138)">
<title>Graphical Class Hierarchy</title>
<!-- Node1 -->
<g id="node1" class="node"><title>Node1</title>
<g id="a_node1"><a xlink:href="classobject.html" target="_top" xlink:title="object">
<polygon fill="none" stroke="black" points="0.5,-95.5 0.5,-114.5 43.5,-114.5 43.5,-95.5 0.5,-95.5"/>
<text text-anchor="middle" x="22" y="-102.5" font-family="Helvetica,sans-Serif" font-size="10.00">object</text>
</a>
</g>
</g>
<!-- Node2 -->
<g id="node2" class="node"><title>Node2</title>
<g id="a_node2"><a xlink:href="class_disk_1_1__base_1_1_file.html" target="_top" xlink:title="Disk._base.File">
<polygon fill="none" stroke="black" points="100.5,-114.5 100.5,-133.5 185.5,-133.5 185.5,-114.5 100.5,-114.5"/>
<text text-anchor="middle" x="143" y="-121.5" font-family="Helvetica,sans-Serif" font-size="10.00">Disk._base.File</text>
</a>
</g>
</g>
<!-- Node1&#45;&gt;Node2 -->
<g id="edge1" class="edge"><title>Node1&#45;&gt;Node2</title>
<path fill="none" stroke="midnightblue" d="M53.926,-109.938C68.0814,-112.198 85.0663,-114.91 100.327,-117.346"/>
<polygon fill="midnightblue" stroke="midnightblue" points="54.155,-106.43 43.7282,-108.31 53.0513,-113.343 54.155,-106.43"/>
</g>
<!-- Node5 -->
<g id="node5" class="node"><title>Node5</title>
<g id="a_node5"><a xlink:href="class_disk_1_1__base_1_1_path_abstract.html" target="_top" xlink:title="Disk._base.PathAbstract">
<polygon fill="none" stroke="black" points="80,-76.5 80,-95.5 206,-95.5 206,-76.5 80,-76.5"/>
<text text-anchor="middle" x="143" y="-83.5" font-family="Helvetica,sans-Serif" font-size="10.00">Disk._base.PathAbstract</text>
</a>
</g>
</g>
<!-- Node1&#45;&gt;Node5 -->
<g id="edge4" class="edge"><title>Node1&#45;&gt;Node5</title>
<path fill="none" stroke="midnightblue" d="M53.8317,-100.077C62.6209,-98.674 72.5068,-97.0956 82.3965,-95.5165"/>
<polygon fill="midnightblue" stroke="midnightblue" points="53.0513,-96.6575 43.7282,-101.69 54.155,-103.57 53.0513,-96.6575"/>
</g>
<!-- Node3 -->
<g id="node3" class="node"><title>Node3</title>
<g id="a_node3"><a xlink:href="class_disk_1_1_local_1_1___file_1_1_base_file.html" target="_top" xlink:title="Abstract concept of a file object. ">
<polygon fill="none" stroke="black" points="256.5,-114.5 256.5,-133.5 385.5,-133.5 385.5,-114.5 256.5,-114.5"/>
<text text-anchor="middle" x="321" y="-121.5" font-family="Helvetica,sans-Serif" font-size="10.00">Disk.Local._File.BaseFile</text>
</a>
</g>
</g>
<!-- Node2&#45;&gt;Node3 -->
<g id="edge2" class="edge"><title>Node2&#45;&gt;Node3</title>
<path fill="none" stroke="midnightblue" d="M195.906,-124C214.809,-124 236.399,-124 256.213,-124"/>
<polygon fill="midnightblue" stroke="midnightblue" points="195.71,-120.5 185.71,-124 195.71,-127.5 195.71,-120.5"/>
</g>
<!-- Node4 -->
<g id="node4" class="node"><title>Node4</title>
<g id="a_node4"><a xlink:href="class_disk_1_1_local_1_1___file_1_1_file.html" target="_top" xlink:title="Implementation of BaseFile using a FilePath instance to store the path. ">
<polygon fill="none" stroke="black" points="457,-114.5 457,-133.5 563,-133.5 563,-114.5 457,-114.5"/>
<text text-anchor="middle" x="510" y="-121.5" font-family="Helvetica,sans-Serif" font-size="10.00">Disk.Local._File.File</text>
</a>
</g>
</g>
<!-- Node3&#45;&gt;Node4 -->
<g id="edge3" class="edge"><title>Node3&#45;&gt;Node4</title>
<path fill="none" stroke="midnightblue" d="M395.777,-124C416.175,-124 437.885,-124 456.78,-124"/>
<polygon fill="midnightblue" stroke="midnightblue" points="395.571,-120.5 385.571,-124 395.571,-127.5 395.571,-120.5"/>
</g>
<!-- Node6 -->
<g id="node6" class="node"><title>Node6</title>
<g id="a_node6"><a xlink:href="class_disk_1_1__base_1_1_file_path.html" target="_top" xlink:title="Disk._base.FilePath">
<polygon fill="none" stroke="black" points="268.5,-76.5 268.5,-95.5 373.5,-95.5 373.5,-76.5 268.5,-76.5"/>
<text text-anchor="middle" x="321" y="-83.5" font-family="Helvetica,sans-Serif" font-size="10.00">Disk._base.FilePath</text>
</a>
</g>
</g>
<!-- Node5&#45;&gt;Node6 -->
<g id="edge5" class="edge"><title>Node5&#45;&gt;Node6</title>
<path fill="none" stroke="midnightblue" d="M216.228,-86C233.719,-86 252.07,-86 268.393,-86"/>
<polygon fill="midnightblue" stroke="midnightblue" points="216.051,-82.5001 206.051,-86 216.051,-89.5001 216.051,-82.5001"/>
</g>
<!-- Node8 -->
<g id="node8" class="node"><title>Node8</title>
<g id="a_node8"><a xlink:href="class_disk_1_1__base_1_1_folder_path.html" target="_top" xlink:title="Abstract concept of a folder path. ">
<polygon fill="none" stroke="black" points="262,-0.5 262,-19.5 380,-19.5 380,-0.5 262,-0.5"/>
<text text-anchor="middle" x="321" y="-7.5" font-family="Helvetica,sans-Serif" font-size="10.00">Disk._base.FolderPath</text>
</a>
</g>
</g>
<!-- Node5&#45;&gt;Node8 -->
<g id="edge7" class="edge"><title>Node5&#45;&gt;Node8</title>
<path fill="none" stroke="midnightblue" d="M165.993,-70.7214C185.261,-57.9568 214.418,-40.1086 242,-29 251.309,-25.251 261.551,-22.1079 271.466,-19.5265"/>
<polygon fill="midnightblue" stroke="midnightblue" points="163.967,-67.8665 157.629,-76.3565 167.878,-73.6719 163.967,-67.8665"/>
</g>
<!-- Node7 -->
<g id="node7" class="node"><title>Node7</title>
<g id="a_node7"><a xlink:href="class_disk_1_1_local_1_1___paths_1_1_file_path.html" target="_top" xlink:title="A locally accessible file path. ">
<polygon fill="none" stroke="black" points="442,-57.5 442,-76.5 578,-76.5 578,-57.5 442,-57.5"/>
<text text-anchor="middle" x="510" y="-64.5" font-family="Helvetica,sans-Serif" font-size="10.00">Disk.Local._Paths.FilePath</text>
</a>
</g>
</g>
<!-- Node6&#45;&gt;Node7 -->
<g id="edge6" class="edge"><title>Node6&#45;&gt;Node7</title>
<path fill="none" stroke="midnightblue" d="M383.716,-79.7294C402.328,-77.8383 422.848,-75.7534 441.799,-73.8279"/>
<polygon fill="midnightblue" stroke="midnightblue" points="383.189,-76.2649 373.594,-80.7579 383.896,-83.229 383.189,-76.2649"/>
</g>
<!-- Node9 -->
<g id="node9" class="node"><title>Node9</title>
<g id="a_node9"><a xlink:href="class_disk_1_1_local_1_1___paths_1_1_folder_path.html" target="_top" xlink:title="A locally accessible folder path. ">
<polygon fill="none" stroke="black" points="436,-10.5 436,-29.5 584,-29.5 584,-10.5 436,-10.5"/>
<text text-anchor="middle" x="510" y="-17.5" font-family="Helvetica,sans-Serif" font-size="10.00">Disk.Local._Paths.FolderPath</text>
</a>
</g>
</g>
<!-- Node8&#45;&gt;Node9 -->
<g id="edge8" class="edge"><title>Node8&#45;&gt;Node9</title>
<path fill="none" stroke="midnightblue" d="M390.22,-13.6481C405.015,-14.4393 420.723,-15.2793 435.705,-16.0805"/>
<polygon fill="midnightblue" stroke="midnightblue" points="390.316,-10.1483 380.143,-13.1092 389.942,-17.1383 390.316,-10.1483"/>
</g>
<!-- Node10 -->
<g id="node10" class="node"><title>Node10</title>
<g id="a_node10"><a xlink:href="class_disk_1_1_local_1_1___paths_1_1_path_abstract.html" target="_top" xlink:title="Abstract concept of a file or folder path. ">
<polygon fill="none" stroke="black" points="242.5,-38.5 242.5,-57.5 399.5,-57.5 399.5,-38.5 242.5,-38.5"/>
<text text-anchor="middle" x="321" y="-45.5" font-family="Helvetica,sans-Serif" font-size="10.00">Disk.Local._Paths.PathAbstract</text>
</a>
</g>
</g>
<!-- Node10&#45;&gt;Node7 -->
<g id="edge9" class="edge"><title>Node10&#45;&gt;Node7</title>
<path fill="none" stroke="midnightblue" d="M409.955,-56.9366C420.723,-58.0307 431.589,-59.1347 441.98,-60.1905"/>
<polygon fill="midnightblue" stroke="midnightblue" points="409.983,-53.4215 399.68,-55.8926 409.275,-60.3856 409.983,-53.4215"/>
</g>
<!-- Node10&#45;&gt;Node9 -->
<g id="edge10" class="edge"><title>Node10&#45;&gt;Node9</title>
<path fill="none" stroke="midnightblue" d="M395.656,-36.9713C412.061,-34.5149 429.322,-31.9305 445.288,-29.5398"/>
<polygon fill="midnightblue" stroke="midnightblue" points="394.942,-33.5391 385.571,-38.4814 395.979,-40.4619 394.942,-33.5391"/>
</g>
</g>
</svg>
