<?xml version="1.0" encoding="UTF-8" standalone="no"?>
<!DOCTYPE svg PUBLIC "-//W3C//DTD SVG 1.1//EN"
 "http://www.w3.org/Graphics/SVG/1.1/DTD/svg11.dtd">
<!-- Generated by graphviz version 2.30.1 (20130219.2202)
 -->
<!-- Title: Graphical Class Hierarchy Pages: 1 -->
<svg width="418pt" height="66pt"
 viewBox="0.00 0.00 418.00 66.00" xmlns="http://www.w3.org/2000/svg" xmlns:xlink="http://www.w3.org/1999/xlink">
<g id="graph0" class="graph" transform="scale(1 1) rotate(0) translate(4 62)">
<title>Graphical Class Hierarchy</title>
<!-- Node1 -->
<g id="node1" class="node"><title>Node1</title>
<g id="a_node1"><a xlink:href="class_abstraction_1_1_descriptor.html" target="_top" xlink:title="Descriptor">
<polygon fill="none" stroke="black" points="0.5,-19.5 0.5,-38.5 59.5,-38.5 59.5,-19.5 0.5,-19.5"/>
<text text-anchor="middle" x="30" y="-26.5" font-family="Helvetica,sans-Serif" font-size="10.00">Descriptor</text>
</a>
</g>
</g>
<!-- Node2 -->
<g id="node2" class="node"><title>Node2</title>
<g id="a_node2"><a xlink:href="class_disk_1_1__base_1_1_path_funcs_abstract.html" target="_top" xlink:title="Disk._base.PathFuncsAbstract">
<polygon fill="none" stroke="black" points="96.5,-19.5 96.5,-38.5 245.5,-38.5 245.5,-19.5 96.5,-19.5"/>
<text text-anchor="middle" x="171" y="-26.5" font-family="Helvetica,sans-Serif" font-size="10.00">Disk._base.PathFuncsAbstract</text>
</a>
</g>
</g>
<!-- Node1&#45;&gt;Node2 -->
<g id="edge1" class="edge"><title>Node1&#45;&gt;Node2</title>
<path fill="none" stroke="midnightblue" d="M69.9212,-29C78.2587,-29 87.3294,-29 96.4933,-29"/>
<polygon fill="midnightblue" stroke="midnightblue" points="69.8009,-25.5001 59.8009,-29 69.8009,-32.5001 69.8009,-25.5001"/>
</g>
<!-- Node3 -->
<g id="node3" class="node"><title>Node3</title>
<g id="a_node3"><a xlink:href="class_disk_1_1__base_1_1_o_s_funcs.html" target="_top" xlink:title="Disk._base.OSFuncs">
<polygon fill="none" stroke="black" points="292,-38.5 292,-57.5 400,-57.5 400,-38.5 292,-38.5"/>
<text text-anchor="middle" x="346" y="-45.5" font-family="Helvetica,sans-Serif" font-size="10.00">Disk._base.OSFuncs</text>
</a>
</g>
</g>
<!-- Node2&#45;&gt;Node3 -->
<g id="edge2" class="edge"><title>Node2&#45;&gt;Node3</title>
<path fill="none" stroke="midnightblue" d="M255.878,-38.212C268.137,-39.5584 280.466,-40.9125 291.879,-42.166"/>
<polygon fill="midnightblue" stroke="midnightblue" points="255.941,-34.698 245.618,-37.0853 255.177,-41.6561 255.941,-34.698"/>
</g>
<!-- Node4 -->
<g id="node4" class="node"><title>Node4</title>
<g id="a_node4"><a xlink:href="class_disk_1_1__base_1_1_o_s_path_funcs.html" target="_top" xlink:title="Disk._base.OSPathFuncs">
<polygon fill="none" stroke="black" points="282,-0.5 282,-19.5 410,-19.5 410,-0.5 282,-0.5"/>
<text text-anchor="middle" x="346" y="-7.5" font-family="Helvetica,sans-Serif" font-size="10.00">Disk._base.OSPathFuncs</text>
</a>
</g>
</g>
<!-- Node2&#45;&gt;Node4 -->
<g id="edge3" class="edge"><title>Node2&#45;&gt;Node4</title>
<path fill="none" stroke="midnightblue" d="M255.843,-19.7918C264.585,-18.8317 273.364,-17.8676 281.821,-16.9388"/>
<polygon fill="midnightblue" stroke="midnightblue" points="255.177,-16.3439 245.618,-20.9147 255.941,-23.302 255.177,-16.3439"/>
</g>
</g>
</svg>
