<?xml version="1.0" encoding="UTF-8" standalone="no"?>
<!DOCTYPE svg PUBLIC "-//W3C//DTD SVG 1.1//EN"
 "http://www.w3.org/Graphics/SVG/1.1/DTD/svg11.dtd">
<!-- Generated by graphviz version 2.28.0 (20121214.2254)
 -->
<!-- Title: Graphical Class Hierarchy Pages: 1 -->
<svg width="270pt" height="87pt"
 viewBox="0.00 0.00 270.00 87.00" xmlns="http://www.w3.org/2000/svg" xmlns:xlink="http://www.w3.org/1999/xlink">
<g id="graph1" class="graph" transform="scale(1 1) rotate(0) translate(4 83)">
<title>Graphical Class Hierarchy</title>
<!-- Node1 -->
<g id="node1" class="node"><title>Node1</title>
<a xlink:href="class_exception.html" target="_top" xlink:title="Exception">
<polygon fill="none" stroke="black" points="0.5,-29.5 0.5,-48.5 59.5,-48.5 59.5,-29.5 0.5,-29.5"/>
<text text-anchor="middle" x="30" y="-36.5" font-family="Helvetica,sans-Serif" font-size="10.00">Exception</text>
</a>
</g>
<!-- Node2 -->
<g id="node3" class="node"><title>Node2</title>
<a xlink:href="class_disk_1_1_compressed_file_1_1_unrecognized_format.html" target="_top" xlink:title="Disk.CompressedFile.Unrecognized\lFormat">
<polygon fill="none" stroke="black" points="96.5,-49 96.5,-79 261.5,-79 261.5,-49 96.5,-49"/>
<text text-anchor="start" x="104.5" y="-67" font-family="Helvetica,sans-Serif" font-size="10.00">Disk.CompressedFile.Unrecognized</text>
<text text-anchor="middle" x="179" y="-56" font-family="Helvetica,sans-Serif" font-size="10.00">Format</text>
</a>
</g>
<!-- Node1&#45;&gt;Node2 -->
<g id="edge2" class="edge"><title>Node1&#45;&gt;Node2</title>
<path fill="none" stroke="midnightblue" d="M69.7141,-45.584C77.9836,-46.9904 87.0167,-48.5267 96.2253,-50.0927"/>
<polygon fill="midnightblue" stroke="midnightblue" points="70.1373,-42.1058 59.692,-43.8796 68.9637,-49.0067 70.1373,-42.1058"/>
</g>
<!-- Node3 -->
<g id="node5" class="node"><title>Node3</title>
<a xlink:href="class_disk_1_1_config_file_1_1_parser__m1_1_1_parse_exception.html" target="_top" xlink:title="Disk.ConfigFile.Parser\l_m1.ParseException">
<polygon fill="none" stroke="black" points="125,-0 125,-30 233,-30 233,-0 125,-0"/>
<text text-anchor="start" x="133" y="-18" font-family="Helvetica,sans-Serif" font-size="10.00">Disk.ConfigFile.Parser</text>
<text text-anchor="middle" x="179" y="-7" font-family="Helvetica,sans-Serif" font-size="10.00">_m1.ParseException</text>
</a>
</g>
<!-- Node1&#45;&gt;Node3 -->
<g id="edge4" class="edge"><title>Node1&#45;&gt;Node3</title>
<path fill="none" stroke="midnightblue" d="M69.7572,-32.6723C86.6548,-29.9135 106.734,-26.6352 124.983,-23.6558"/>
<polygon fill="midnightblue" stroke="midnightblue" points="68.9974,-29.2499 59.692,-34.3156 70.1254,-36.1584 68.9974,-29.2499"/>
</g>
</g>
</svg>
