<?xml version="1.0" encoding="UTF-8" standalone="no"?>
<!DOCTYPE svg PUBLIC "-//W3C//DTD SVG 1.1//EN"
 "http://www.w3.org/Graphics/SVG/1.1/DTD/svg11.dtd">
<!-- Generated by graphviz version 2.28.0 (20121214.2254)
 -->
<!-- Title: Graphical Class Hierarchy Pages: 1 -->
<svg width="268pt" height="87pt"
 viewBox="0.00 0.00 268.00 87.00" xmlns="http://www.w3.org/2000/svg" xmlns:xlink="http://www.w3.org/1999/xlink">
<g id="graph1" class="graph" transform="scale(1 1) rotate(0) translate(4 83)">
<title>Graphical Class Hierarchy</title>
<!-- Node1 -->
<g id="node1" class="node"><title>Node1</title>
<polygon fill="none" stroke="#bfbfbf" points="0.5,-29.5 0.5,-48.5 81.5,-48.5 81.5,-29.5 0.5,-29.5"/>
<text text-anchor="middle" x="41" y="-36.5" font-family="Helvetica,sans-Serif" font-size="10.00">WalkerAbstract</text>
</g>
<!-- Node2 -->
<g id="node3" class="node"><title>Node2</title>
<a xlink:href="class_disk_1_1_local_1_1___walker_1_1_local_folder_walker.html" target="_top" xlink:title="Implementation of WalkerAbstract for folders on the local system.">
<polygon fill="none" stroke="black" points="128,-49 128,-79 250,-79 250,-49 128,-49"/>
<text text-anchor="start" x="136" y="-67" font-family="Helvetica,sans-Serif" font-size="10.00">Disk.Local._Walker.Local</text>
<text text-anchor="middle" x="189" y="-56" font-family="Helvetica,sans-Serif" font-size="10.00">FolderWalker</text>
</a>
</g>
<!-- Node1&#45;&gt;Node2 -->
<g id="edge2" class="edge"><title>Node1&#45;&gt;Node2</title>
<path fill="none" stroke="midnightblue" d="M91.5112,-47.4779C103.195,-49.4786 115.777,-51.6331 127.873,-53.7043"/>
<polygon fill="midnightblue" stroke="midnightblue" points="91.957,-44.0034 81.5097,-45.7654 90.7755,-50.903 91.957,-44.0034"/>
</g>
<!-- Node3 -->
<g id="node5" class="node"><title>Node3</title>
<a xlink:href="class_disk_1_1_s_s_h_1_1___walker_1_1_s_s_h_folder_walker.html" target="_top" xlink:title="Disk.SSH._Walker.SSHFolder\lWalker">
<polygon fill="none" stroke="black" points="118,-0 118,-30 260,-30 260,-0 118,-0"/>
<text text-anchor="start" x="126" y="-18" font-family="Helvetica,sans-Serif" font-size="10.00">Disk.SSH._Walker.SSHFolder</text>
<text text-anchor="middle" x="189" y="-7" font-family="Helvetica,sans-Serif" font-size="10.00">Walker</text>
</a>
</g>
<!-- Node1&#45;&gt;Node3 -->
<g id="edge4" class="edge"><title>Node1&#45;&gt;Node3</title>
<path fill="none" stroke="midnightblue" d="M91.5531,-30.8543C100.007,-29.4647 108.929,-27.9979 117.797,-26.5402"/>
<polygon fill="midnightblue" stroke="midnightblue" points="90.8095,-27.4295 81.5097,-32.5053 91.945,-34.3368 90.8095,-27.4295"/>
</g>
</g>
</svg>
