<?xml version="1.0" encoding="UTF-8" standalone="no"?>
<!DOCTYPE svg PUBLIC "-//W3C//DTD SVG 1.1//EN"
 "http://www.w3.org/Graphics/SVG/1.1/DTD/svg11.dtd">
<!-- Generated by graphviz version 2.28.0 (20121214.2254)
 -->
<!-- Title: Graphical Class Hierarchy Pages: 1 -->
<svg width="320pt" height="87pt"
 viewBox="0.00 0.00 320.00 87.00" xmlns="http://www.w3.org/2000/svg" xmlns:xlink="http://www.w3.org/1999/xlink">
<g id="graph1" class="graph" transform="scale(1 1) rotate(0) translate(4 83)">
<title>Graphical Class Hierarchy</title>
<!-- Node1 -->
<g id="node1" class="node"><title>Node1</title>
<a xlink:href="class_disk_1_1_walker_1_1_walker_abstract.html" target="_top" xlink:title="Gets a list of files and/or folders in a folder.">
<polygon fill="none" stroke="black" points="0,-29.5 0,-48.5 134,-48.5 134,-29.5 0,-29.5"/>
<text text-anchor="middle" x="67" y="-36.5" font-family="Helvetica,sans-Serif" font-size="10.00">Disk.Walker.WalkerAbstract</text>
</a>
</g>
<!-- Node2 -->
<g id="node3" class="node"><title>Node2</title>
<a xlink:href="class_disk_1_1_local_1_1___walker_1_1_local_folder_walker.html" target="_top" xlink:title="Implementation of WalkerAbstract for folders on the local system.">
<polygon fill="none" stroke="black" points="180,-49 180,-79 302,-79 302,-49 180,-49"/>
<text text-anchor="start" x="188" y="-67" font-family="Helvetica,sans-Serif" font-size="10.00">Disk.Local._Walker.Local</text>
<text text-anchor="middle" x="241" y="-56" font-family="Helvetica,sans-Serif" font-size="10.00">FolderWalker</text>
</a>
</g>
<!-- Node1&#45;&gt;Node2 -->
<g id="edge2" class="edge"><title>Node1&#45;&gt;Node2</title>
<path fill="none" stroke="midnightblue" d="M143.593,-49.9874C155.693,-51.7461 168.072,-53.5453 179.752,-55.243"/>
<polygon fill="midnightblue" stroke="midnightblue" points="143.916,-46.4976 133.516,-48.5227 142.909,-53.4248 143.916,-46.4976"/>
</g>
<!-- Node3 -->
<g id="node5" class="node"><title>Node3</title>
<a xlink:href="class_disk_1_1_s_s_h_1_1___walker_1_1_s_s_h_folder_walker.html" target="_top" xlink:title="Disk.SSH._Walker.SSHFolder\lWalker">
<polygon fill="none" stroke="black" points="170,-0 170,-30 312,-30 312,-0 170,-0"/>
<text text-anchor="start" x="178" y="-18" font-family="Helvetica,sans-Serif" font-size="10.00">Disk.SSH._Walker.SSHFolder</text>
<text text-anchor="middle" x="241" y="-7" font-family="Helvetica,sans-Serif" font-size="10.00">Walker</text>
</a>
</g>
<!-- Node1&#45;&gt;Node3 -->
<g id="edge4" class="edge"><title>Node1&#45;&gt;Node3</title>
<path fill="none" stroke="midnightblue" d="M144.024,-28.3921C152.626,-27.1917 161.364,-25.9725 169.886,-24.7834"/>
<polygon fill="midnightblue" stroke="midnightblue" points="143.428,-24.9411 134.008,-29.7896 144.396,-31.874 143.428,-24.9411"/>
</g>
</g>
</svg>
